<svg width="1920" height="900" viewBox="0 0 1920 900" fill="none" xmlns="http://www.w3.org/2000/svg">
<g clip-path="url(#clip0_4005_894)">
<rect width="1924" height="1205" rx="30" fill="#08132C"/>
<g filter="url(#filter0_f_4005_894)">
<path fill-rule="evenodd" clip-rule="evenodd" d="M1184.58 72.3566C1130.42 -2.43806 1128.77 -106.839 1161.63 -193.14C1191.98 -272.877 1276.37 -307.407 1347.24 -354.909C1427.06 -408.41 1501.11 -509.264 1593.42 -482.555C1685.64 -455.872 1689.09 -328.617 1733.06 -243.274C1773.33 -165.098 1859.67 -96.1162 1836.15 -11.3785C1812.67 73.227 1709.43 99.8381 1628.43 133.729C1560.99 161.949 1491.9 172.976 1419.48 162.962C1333.06 151.012 1235.75 143.019 1184.58 72.3566Z" fill="#00BEE4"/>
</g>
<g filter="url(#filter1_f_4005_894)">
<path fill-rule="evenodd" clip-rule="evenodd" d="M1643.18 126.674C1589.03 51.8791 1587.37 -52.5218 1620.23 -138.823C1650.59 -218.559 1734.97 -253.09 1805.84 -300.592C1885.67 -354.093 1959.72 -454.947 2052.03 -428.238C2144.25 -401.555 2147.7 -274.3 2191.66 -188.957C2231.94 -110.78 2318.27 -41.799 2294.76 42.9387C2271.28 127.544 2168.04 154.155 2087.04 188.046C2019.59 216.266 1950.51 227.293 1878.08 217.279C1791.66 205.329 1694.35 197.336 1643.18 126.674Z" fill="#00BEE4"/>
</g>
<g filter="url(#filter2_f_4005_894)">
<path fill-rule="evenodd" clip-rule="evenodd" d="M-351.017 741.071C-404.761 666.849 -406.4 563.247 -373.797 477.605C-343.673 398.479 -259.932 364.213 -189.602 317.074C-110.391 263.982 -36.9042 163.9 54.6961 190.404C146.21 216.884 149.636 343.165 193.265 427.855C233.23 505.434 318.907 573.887 295.571 657.977C272.271 741.935 169.82 768.343 89.4412 801.974C22.5095 829.978 -46.0473 840.921 -117.918 830.983C-203.677 819.125 -300.242 811.193 -351.017 741.071Z" fill="#00BEE4" fill-opacity="0.56"/>
</g>
<g filter="url(#filter3_f_4005_894)">
<path fill-rule="evenodd" clip-rule="evenodd" d="M689.983 591.071C636.239 516.849 634.6 413.246 667.203 327.605C697.327 248.479 781.068 214.213 851.398 167.074C930.609 113.982 1004.1 13.8999 1095.7 40.4042C1187.21 66.8835 1190.64 193.165 1234.26 277.855C1274.23 355.433 1359.91 423.887 1336.57 507.977C1313.27 591.935 1210.82 618.342 1130.44 651.974C1063.51 679.978 994.953 690.921 923.082 680.983C837.323 669.125 740.758 661.193 689.983 591.071Z" fill="#00BEE4" fill-opacity="0.2"/>
</g>
<g filter="url(#filter4_f_4005_894)">
<path fill-rule="evenodd" clip-rule="evenodd" d="M1690.98 591.071C1637.24 516.849 1635.6 413.246 1668.2 327.605C1698.33 248.479 1782.07 214.213 1852.4 167.074C1931.61 113.982 2005.1 13.8999 2096.7 40.4042C2188.21 66.8835 2191.64 193.165 2235.26 277.855C2275.23 355.433 2360.91 423.887 2337.57 507.977C2314.27 591.935 2211.82 618.342 2131.44 651.974C2064.51 679.978 1995.95 690.921 1924.08 680.983C1838.32 669.125 1741.76 661.193 1690.98 591.071Z" fill="#00BEE4" fill-opacity="0.56"/>
</g>
<g filter="url(#filter5_f_4005_894)">
<path fill-rule="evenodd" clip-rule="evenodd" d="M1328.61 1206.21C1253.98 1103.14 1251.7 959.265 1296.98 840.334C1338.81 730.451 1455.11 682.866 1552.77 617.403C1662.77 543.674 1764.83 404.689 1892.03 441.496C2019.12 478.268 2023.88 653.636 2084.46 771.246C2139.96 878.98 2258.94 974.042 2226.54 1090.82C2194.18 1207.41 2051.91 1244.08 1940.28 1290.79C1847.33 1329.68 1752.13 1344.87 1652.32 1331.07C1533.23 1314.61 1399.13 1303.59 1328.61 1206.21Z" fill="#00BEE4" fill-opacity="0.31"/>
</g>
<g filter="url(#filter6_f_4005_894)">
<path fill-rule="evenodd" clip-rule="evenodd" d="M-158.035 432.06C-211.779 357.838 -213.418 254.235 -180.814 168.594C-150.691 89.4678 -66.9496 55.2019 3.38013 8.06276C82.591 -45.029 156.078 -145.111 247.679 -118.607C339.193 -92.1275 342.618 34.1538 386.247 118.844C426.212 196.422 511.89 264.876 488.554 348.966C465.254 432.924 362.803 459.331 282.424 492.963C215.492 520.967 146.935 531.91 75.0647 521.972C-10.6941 510.114 -107.26 502.182 -158.035 432.06Z" fill="#00BEE4" fill-opacity="0.22"/>
</g>
<g filter="url(#filter7_f_4005_894)">
<path fill-rule="evenodd" clip-rule="evenodd" d="M-110.017 623.071C-163.761 548.848 -165.4 445.246 -132.796 359.605C-102.673 280.479 -18.9316 246.213 51.3982 199.073C130.609 145.982 204.096 45.8997 295.697 72.404C387.211 98.8832 390.636 225.164 434.265 309.855C474.231 387.433 559.908 455.887 536.572 539.976C513.272 623.935 410.821 650.342 330.442 683.973C263.51 711.978 194.953 722.92 123.083 712.983C37.324 701.125 -59.2418 693.193 -110.017 623.071Z" fill="#00BEE4" fill-opacity="0.22"/>
</g>
</g>
<defs>
<filter id="filter0_f_4005_894" x="623.527" y="-1003.26" width="1732.91" height="1686.14" filterUnits="userSpaceOnUse" color-interpolation-filters="sRGB">
<feFlood flood-opacity="0" result="BackgroundImageFix"/>
<feBlend mode="normal" in="SourceGraphic" in2="BackgroundImageFix" result="shape"/>
<feGaussianBlur stdDeviation="258.143" result="effect1_foregroundBlur_4005_894"/>
</filter>
<filter id="filter1_f_4005_894" x="1082.13" y="-948.945" width="1732.91" height="1686.14" filterUnits="userSpaceOnUse" color-interpolation-filters="sRGB">
<feFlood flood-opacity="0" result="BackgroundImageFix"/>
<feBlend mode="normal" in="SourceGraphic" in2="BackgroundImageFix" result="shape"/>
<feGaussianBlur stdDeviation="258.143" result="effect1_foregroundBlur_4005_894"/>
</filter>
<filter id="filter2_f_4005_894" x="-695.441" y="-113.982" width="1294.97" height="1248.57" filterUnits="userSpaceOnUse" color-interpolation-filters="sRGB">
<feFlood flood-opacity="0" result="BackgroundImageFix"/>
<feBlend mode="normal" in="SourceGraphic" in2="BackgroundImageFix" result="shape"/>
<feGaussianBlur stdDeviation="150" result="effect1_foregroundBlur_4005_894"/>
</filter>
<filter id="filter3_f_4005_894" x="345.559" y="-263.982" width="1294.97" height="1248.57" filterUnits="userSpaceOnUse" color-interpolation-filters="sRGB">
<feFlood flood-opacity="0" result="BackgroundImageFix"/>
<feBlend mode="normal" in="SourceGraphic" in2="BackgroundImageFix" result="shape"/>
<feGaussianBlur stdDeviation="150" result="effect1_foregroundBlur_4005_894"/>
</filter>
<filter id="filter4_f_4005_894" x="1346.56" y="-263.982" width="1294.97" height="1248.57" filterUnits="userSpaceOnUse" color-interpolation-filters="sRGB">
<feFlood flood-opacity="0" result="BackgroundImageFix"/>
<feBlend mode="normal" in="SourceGraphic" in2="BackgroundImageFix" result="shape"/>
<feGaussianBlur stdDeviation="150" result="effect1_foregroundBlur_4005_894"/>
</filter>
<filter id="filter5_f_4005_894" x="966.923" y="135.404" width="1565.12" height="1500.67" filterUnits="userSpaceOnUse" color-interpolation-filters="sRGB">
<feFlood flood-opacity="0" result="BackgroundImageFix"/>
<feBlend mode="normal" in="SourceGraphic" in2="BackgroundImageFix" result="shape"/>
<feGaussianBlur stdDeviation="150" result="effect1_foregroundBlur_4005_894"/>
</filter>
<filter id="filter6_f_4005_894" x="-502.458" y="-422.993" width="1294.97" height="1248.57" filterUnits="userSpaceOnUse" color-interpolation-filters="sRGB">
<feFlood flood-opacity="0" result="BackgroundImageFix"/>
<feBlend mode="normal" in="SourceGraphic" in2="BackgroundImageFix" result="shape"/>
<feGaussianBlur stdDeviation="150" result="effect1_foregroundBlur_4005_894"/>
</filter>
<filter id="filter7_f_4005_894" x="-454.44" y="-231.982" width="1294.97" height="1248.57" filterUnits="userSpaceOnUse" color-interpolation-filters="sRGB">
<feFlood flood-opacity="0" result="BackgroundImageFix"/>
<feBlend mode="normal" in="SourceGraphic" in2="BackgroundImageFix" result="shape"/>
<feGaussianBlur stdDeviation="150" result="effect1_foregroundBlur_4005_894"/>
</filter>
<clipPath id="clip0_4005_894">
<rect width="1920" height="900" fill="white"/>
</clipPath>
</defs>
</svg>
