<svg width="390" height="519" viewBox="0 0 390 519" fill="none" xmlns="http://www.w3.org/2000/svg">
<g clip-path="url(#clip0_4007_1146)">
<rect x="-765" width="1924" height="1205" rx="30" fill="#08132C"/>
<g filter="url(#filter0_f_4007_1146)">
<path fill-rule="evenodd" clip-rule="evenodd" d="M208.515 243.706C191.799 220.62 191.289 188.397 201.43 161.76C210.799 137.15 236.845 126.492 258.72 111.831C283.356 95.3177 306.213 64.1894 334.703 72.433C363.167 80.6688 364.232 119.946 377.802 146.287C390.232 170.416 416.88 191.707 409.622 217.861C402.375 243.974 370.51 252.188 345.51 262.648C324.692 271.358 303.369 274.762 281.016 271.671C254.342 267.983 224.307 265.516 208.515 243.706Z" fill="#00BEE4" fill-opacity="0.22"/>
</g>
<g filter="url(#filter1_f_4007_1146)">
<path fill-rule="evenodd" clip-rule="evenodd" d="M-145.55 227.735C-165.689 199.922 -166.303 161.1 -154.086 129.009C-142.798 99.3585 -111.418 86.5183 -85.064 68.8543C-55.3821 48.9597 -27.8449 11.4568 6.47969 21.3885C40.7719 31.3109 42.0555 78.6311 58.4043 110.366C73.3801 139.437 105.485 165.088 96.7406 196.598C88.0098 228.059 49.6192 237.954 19.4994 250.556C-5.58127 261.05 -31.271 265.151 -58.2023 261.427C-90.3379 256.983 -126.523 254.011 -145.55 227.735Z" fill="#00BEE4" fill-opacity="0.58"/>
</g>
<g filter="url(#filter2_f_4007_1146)">
<path fill-rule="evenodd" clip-rule="evenodd" d="M-67.5496 350.735C-87.6887 322.922 -88.3027 284.1 -76.0855 252.009C-64.7977 222.358 -33.4181 209.518 -7.06404 191.854C22.6179 171.96 50.1551 134.457 84.4797 144.389C118.772 154.311 120.056 201.631 136.404 233.366C151.38 262.437 183.485 288.088 174.741 319.598C166.01 351.059 127.619 360.954 97.4994 373.556C72.4187 384.05 46.729 388.151 19.7977 384.427C-12.3379 379.983 -48.5232 377.011 -67.5496 350.735Z" fill="#00BEE4" fill-opacity="0.58"/>
</g>
<g filter="url(#filter3_f_4007_1146)">
<path fill-rule="evenodd" clip-rule="evenodd" d="M303.062 247.608C292.205 232.615 291.874 211.688 298.46 194.388C304.545 178.405 321.461 171.483 335.668 161.961C351.668 151.236 366.513 131.02 385.016 136.374C403.502 141.722 404.194 167.231 413.007 184.339C421.08 200.01 438.387 213.837 433.673 230.823C428.966 247.783 408.271 253.117 392.034 259.911C378.514 265.568 364.666 267.778 350.148 265.771C332.825 263.375 313.318 261.773 303.062 247.608Z" fill="#00BEE4" fill-opacity="0.58"/>
</g>
</g>
<defs>
<filter id="filter0_f_4007_1146" x="-105.302" y="-228.931" width="816.156" height="801.722" filterUnits="userSpaceOnUse" color-interpolation-filters="sRGB">
<feFlood flood-opacity="0" result="BackgroundImageFix"/>
<feBlend mode="normal" in="SourceGraphic" in2="BackgroundImageFix" result="shape"/>
<feGaussianBlur stdDeviation="150" result="effect1_foregroundBlur_4007_1146"/>
</filter>
<filter id="filter1_f_4007_1146" x="-265.496" y="-83.5551" width="467.022" height="449.631" filterUnits="userSpaceOnUse" color-interpolation-filters="sRGB">
<feFlood flood-opacity="0" result="BackgroundImageFix"/>
<feBlend mode="normal" in="SourceGraphic" in2="BackgroundImageFix" result="shape"/>
<feGaussianBlur stdDeviation="51.65" result="effect1_foregroundBlur_4007_1146"/>
</filter>
<filter id="filter2_f_4007_1146" x="-384.196" y="-157.255" width="860.422" height="843.031" filterUnits="userSpaceOnUse" color-interpolation-filters="sRGB">
<feFlood flood-opacity="0" result="BackgroundImageFix"/>
<feBlend mode="normal" in="SourceGraphic" in2="BackgroundImageFix" result="shape"/>
<feGaussianBlur stdDeviation="150" result="effect1_foregroundBlur_4007_1146"/>
</filter>
<filter id="filter3_f_4007_1146" x="169.488" y="10.8876" width="389.585" height="380.21" filterUnits="userSpaceOnUse" color-interpolation-filters="sRGB">
<feFlood flood-opacity="0" result="BackgroundImageFix"/>
<feBlend mode="normal" in="SourceGraphic" in2="BackgroundImageFix" result="shape"/>
<feGaussianBlur stdDeviation="62.3" result="effect1_foregroundBlur_4007_1146"/>
</filter>
<clipPath id="clip0_4007_1146">
<rect width="390" height="519" fill="white"/>
</clipPath>
</defs>
</svg>
