<svg xmlns="http://www.w3.org/2000/svg" width="54" height="54" viewBox="0 0 54 54" fill="none">
    <path
        d="M33.4537 12.6465C33.4719 15.2263 33.4719 15.2748 33.6112 15.6139C33.7747 16.0197 34.1865 16.4981 34.5499 16.7101C35.1131 17.0432 35.2524 17.0553 37.9655 17.0553C39.3402 17.0553 40.4666 17.0371 40.4666 17.0189C40.4666 16.9705 33.7747 10.2725 33.5869 10.1332L33.4355 10.0182L33.4537 12.6465Z"
        fill="#00BEE4" />
    <path fill-rule="evenodd" clip-rule="evenodd"
        d="M31.8789 12.8281C31.8789 12.8281 31.8526 15.3963 31.8965 15.6631C31.9403 15.9297 31.9873 16.0264 32.0478 16.1475C32.1088 16.2692 32.5994 17.1463 33.0957 17.6064C33.5742 18.0486 34.3801 18.4787 34.9434 18.5938C35.1434 18.6361 36.2455 18.6602 37.8926 18.6602H40.5273V29.9072C40.5273 39.5723 40.5152 41.2204 40.4365 41.584C40.164 42.8678 39.1223 43.9217 37.8506 44.1943C37.2571 44.3215 17.3074 44.3157 16.6953 44.1885C15.3992 43.9159 14.2723 42.7347 14.0664 41.4326C14.024 41.165 14 36.4831 14 27.1211C14 11.6313 13.9702 12.6949 14.4121 11.8477C14.6483 11.3996 15.2114 10.7816 15.6172 10.5332C15.9987 10.297 16.4408 10.1268 16.8525 10.0723C17.0645 10.042 20.493 10.0119 24.5508 10.0059L31.8603 10L31.8789 12.8281ZM19.4805 32.9229C18.7281 32.923 18.1182 33.5337 18.1182 34.2861C18.1184 35.0384 18.7282 35.6482 19.4805 35.6484H28.3828C29.1352 35.6484 29.7459 35.0385 29.7461 34.2861C29.7461 33.5336 29.1354 32.9229 28.3828 32.9229H19.4805ZM19.4805 27.8965C18.7281 27.8967 18.1182 28.5064 18.1182 29.2588C18.1182 30.0112 18.7281 30.6218 19.4805 30.6221H35.0459C35.7984 30.622 36.4082 30.0113 36.4082 29.2588C36.4081 28.5063 35.7984 27.8965 35.0459 27.8965H19.4805ZM19.4805 22.8691C18.7281 22.8694 18.1182 23.48 18.1182 24.2324C18.1184 24.9847 18.7282 25.5945 19.4805 25.5947H35.0459C35.7983 25.5947 36.408 24.9848 36.4082 24.2324C36.4082 23.4799 35.7984 22.8692 35.0459 22.8691H19.4805Z"
        fill="#00BEE4" />
</svg>