<svg xmlns="http://www.w3.org/2000/svg" width="54" height="54" viewBox="0 0 54 54" fill="none">
    <path
        d="M46.3887 36.5498C46.8561 36.5498 47.2353 36.9291 47.2354 37.3965V38.5439C47.2354 39.9464 46.0978 41.084 44.6953 41.084H9.53906C8.13675 41.0838 7 39.9463 7 38.5439V37.3965C7.00004 36.929 7.37922 36.5498 7.84668 36.5498H24.0068C24.0029 36.583 24.001 36.6171 24.001 36.6514C24.0011 37.1206 24.3814 37.5008 24.8506 37.501H28.8174C29.2867 37.501 29.6678 37.1207 29.668 36.6514C29.668 36.6171 29.6651 36.583 29.6611 36.5498H46.3887ZM41.8184 12C43.0646 12.0003 44.075 13.0106 44.0752 14.2568V33.8389C44.0751 34.4618 43.5701 34.9663 42.9473 34.9668H11.458C10.835 34.9665 10.3302 34.4619 10.3301 33.8389V14.2568C10.3303 13.0104 11.3405 12.0001 12.5869 12H41.8184ZM34.0488 18.9883C33.5268 18.4469 32.6647 18.4313 32.123 18.9531L26.0771 24.7783L22.7432 21.1064C22.2375 20.5497 21.3753 20.5082 20.8184 21.0137C20.2618 21.5194 20.2203 22.3806 20.7256 22.9375L25.0039 27.6494C25.2514 27.9219 25.5998 28.0834 25.9678 28.0957C26.3355 28.1078 26.693 27.9702 26.958 27.7148L34.0137 20.9141C34.5549 20.392 34.5706 19.5298 34.0488 18.9883Z"
        fill="#00BEE4" />
</svg>