<svg xmlns="http://www.w3.org/2000/svg" width="54" height="54" viewBox="0 0 54 54" fill="none">
    <path
        d="M8.82633 9.16338C7.70259 9.74258 7.73229 11.3465 8.87088 11.9059L9.15305 12.0445L11.2124 12.0594L13.2668 12.0742L13.3708 12.3811C13.4302 12.5495 14.0242 14.292 14.6975 16.2523C15.3658 18.2127 16.539 21.6433 17.3014 23.876C18.0638 26.1086 18.7964 28.2571 18.935 28.6432C19.0687 29.0343 19.1776 29.3858 19.1776 29.4204C19.1776 29.4551 19.0934 29.5392 18.9944 29.5986C17.5489 30.4699 16.7074 32.2075 16.8955 33.9253C17.0984 35.7223 18.2865 37.1678 20.0687 37.7767L20.539 37.9351H31.1576H41.7762L41.9742 37.8311C42.2811 37.6628 42.5831 37.3311 42.6969 37.0193C42.8257 36.6826 42.8108 36.0539 42.6722 35.7866C42.5435 35.544 42.2069 35.1926 41.9742 35.0738L41.7762 34.9649L31.4051 34.9401L21.034 34.9153L20.8063 34.8114C20.1132 34.4896 19.7717 33.7421 19.9895 32.9995C20.1231 32.5392 20.6033 32.0986 21.0835 31.9996C21.1677 31.9847 23.2716 31.7124 25.7616 31.4006C30.519 30.8016 34.707 30.2719 39.2564 29.6976C42.2316 29.3164 42.3927 29.4368 42.7887 29.0705C43.165 28.7239 43.1177 28.4204 43.385 27.2373C43.6672 25.9799 43.984 24.5938 44.6424 21.7225C46.0335 15.6583 46.0187 15.7227 45.9939 15.4108C45.9543 14.8811 45.6078 14.3761 45.1226 14.1385L44.8949 14.0247L31.0388 13.9999L17.1826 13.9752L17.0935 13.7276C17.0489 13.589 16.7371 12.693 16.4054 11.7277C16.0787 10.7624 15.7717 9.91089 15.7321 9.83168C15.5935 9.56436 15.2915 9.28219 14.9945 9.13863L14.6975 9.00002H11.9154H9.1382L8.82633 9.16338Z"
        fill="#00BEE4" />
    <path
        d="M21.816 39.47C21.217 39.6334 20.6873 40.0047 20.3458 40.4947C19.8062 41.2819 19.7715 42.3709 20.2517 43.2026C21.0933 44.6531 23.1526 44.8907 24.2813 43.663C24.7615 43.1482 24.9694 42.6135 24.9694 41.9205C24.9645 41.4601 24.91 41.1977 24.712 40.7819C24.5189 40.3809 24.019 39.871 23.6229 39.6829C23.0437 39.4007 22.3705 39.3215 21.816 39.47Z"
        fill="#00BEE4" />
    <path
        d="M38.0535 39.4648C37.6079 39.5737 37.2416 39.7866 36.8703 40.1578C36.2317 40.8014 35.9842 41.6182 36.1822 42.4598C36.5436 43.9746 38.1376 44.8459 39.5633 44.3063C40.7118 43.8706 41.3999 42.6132 41.1524 41.4152C40.9643 40.4945 40.2118 39.7074 39.301 39.4697C38.9544 39.3806 38.4148 39.3806 38.0535 39.4648Z"
        fill="#00BEE4" />
</svg>