<svg xmlns="http://www.w3.org/2000/svg" width="54" height="54" viewBox="0 0 54 54" fill="none">
    <path
        d="M8.1582 17.085C10.6862 17.0055 13.9803 16.5658 14.4854 20C14.719 21.5912 14.477 23.3511 14.4854 24.9688C14.502 28.7115 14.431 32.4611 14.4365 36.2041C14.5256 37.5162 14.6818 38.6955 16.2314 38.7061C25.4099 38.767 34.5934 38.7957 43.7705 38.6826C44.8961 38.6688 46.748 38.9003 46.9775 40.3086C47.3529 42.6226 43.0224 42.1185 41.6084 42.0996C42.3304 44.0324 42.0475 45.6665 40.1543 46.7285C37.3474 47.7595 35.1105 45.9925 35.3721 43.6523C35.4165 43.2536 35.3726 42.9233 35.9658 42.1084C34.9294 41.9234 32.7097 42.0785 31.5938 42.082L24.9814 42.1006C25.4475 43.8566 25.4585 45.5581 23.6846 46.625C22.9237 47.0806 22.0128 47.2133 21.1533 46.9941C20.3185 46.7838 19.6011 46.2516 19.1572 45.5137C18.431 44.2797 18.6572 43.3594 18.9717 42.1016L17.9111 42.1084C15.8452 42.1152 14.2242 42.2157 12.6104 40.6084C10.5123 38.5186 11.088 34.3602 11.0908 31.5156L11.1006 20.4199C9.51035 20.4509 7.00011 20.817 7 18.2891C7.00313 18.1098 7.00062 17.1213 8.1582 17.085ZM28.3662 7C29.1293 7 29.748 7.61875 29.748 8.38184V36.0156C29.7479 36.7786 29.1292 37.3975 28.3662 37.3975H18.0039C17.2409 37.3975 16.6222 36.7786 16.6221 36.0156V8.38184C16.6221 7.61875 17.2408 7 18.0039 7H28.3662ZM42.874 24.9619C43.637 24.962 44.2558 25.5808 44.2559 26.3438V36.0156C44.2559 36.7787 43.637 37.3974 42.874 37.3975H32.5117C31.7486 37.3975 31.1299 36.7787 31.1299 36.0156V26.3438C31.1299 25.5807 31.7487 24.9619 32.5117 24.9619H42.874ZM38.7285 15.29C39.4916 15.29 40.1104 15.9088 40.1104 16.6719V22.1982C40.1104 22.9613 39.4916 23.5801 38.7285 23.5801H32.5117C31.7486 23.5801 31.1299 22.9613 31.1299 22.1982V16.6719C31.1299 15.9088 31.7486 15.29 32.5117 15.29H38.7285Z"
        fill="#00BEE4" />
</svg>