<svg xmlns="http://www.w3.org/2000/svg" width="54" height="54" viewBox="0 0 54 54" fill="none">
    <path
        d="M42.4609 20.7186C43.7787 20.7186 44.8474 21.7867 44.8477 23.1044V41.3768C44.8477 42.6947 43.7788 43.7635 42.4609 43.7635H11.3867C10.0688 43.7635 9 42.6947 9 41.3768V23.1044C9.00023 21.7867 10.0689 20.7186 11.3867 20.7186H42.4609ZM34.5488 26.6913C33.8422 25.9581 32.6747 25.936 31.9414 26.6425L25.3398 33.0057L21.7842 29.0897C21.0997 28.3359 19.9336 28.2805 19.1797 28.9647C18.4258 29.6493 18.3691 30.8153 19.0537 31.5692L23.8867 36.8915C24.2219 37.2606 24.6922 37.4784 25.1904 37.495C25.6886 37.5115 26.1724 37.3253 26.5312 36.9794L34.501 29.2987C35.2339 28.592 35.2554 27.4244 34.5488 26.6913Z"
        fill="#00BEE4" />
    <rect x="11.5428" y="15.6855" width="31.6292" height="2.77678" rx="1.38839" fill="#00BEE4" />
    <rect x="15.1439" y="11" width="24.427" height="2.42968" rx="1.21484" fill="#00BEE4" />
</svg>