<svg width="54" height="54" viewBox="0 0 54 54" fill="none" xmlns="http://www.w3.org/2000/svg">
    <rect x="12.3739" y="9.42432" width="32.4453" height="5.89915" fill="white" />
    <path fill-rule="evenodd" clip-rule="evenodd"
        d="M28.5512 43.8488C28.8506 43.8487 29.4852 43.585 31.0072 42.8341C34.5741 41.0684 37.9633 38.795 41.2309 35.9689C41.6368 35.6188 41.9719 35.3398 41.9769 35.3448C41.9939 35.372 41.4537 37.4523 41.2816 38.0392C41.1904 38.3432 41.0944 38.6274 41.0639 38.6583C41.0385 38.6989 41.0334 38.7238 41.0639 38.7238C41.1462 38.7166 42.6988 37.0836 43.2152 36.4659C44.5799 34.8221 45.6046 32.8079 46.0258 30.9308C46.1678 30.297 46.3093 29.3387 46.2689 29.2716C46.2588 29.2513 46.2697 29.2355 46.3002 29.2355C46.3286 29.2391 46.6066 29.5224 46.9242 29.8702C47.2383 30.2198 47.5118 30.5034 47.5326 30.504C47.5479 30.5037 47.5882 30.3871 47.6185 30.2452C47.8874 28.9869 47.791 27.191 47.3344 25.1515C46.8676 23.0509 45.8377 20.0975 44.7367 17.6925L44.3412 16.8302L44.7416 16.4191C45.6752 15.4703 46.3145 14.2674 46.5834 12.9532C46.974 11.0658 46.355 9.03691 45.0004 7.77356C44.4068 7.22055 43.7172 6.84447 42.8598 6.62122C42.1901 6.44366 41.1145 6.43357 40.4701 6.59583C39.3995 6.85967 38.4046 7.44369 37.3949 8.39758C37.168 8.60934 36.9661 8.78613 36.9437 8.78821C36.9234 8.78821 36.6339 8.68652 36.3041 8.55969C34.8835 8.02189 32.8895 7.5603 30.9564 7.33704C29.9012 7.2102 27.4201 7.21041 26.3139 7.33215C24.3401 7.5554 22.3558 8.00138 20.8793 8.56458C20.5563 8.6857 20.2734 8.78714 20.2455 8.78821C20.2201 8.78821 19.9708 8.57977 19.6918 8.33118C18.3221 7.0934 17.1146 6.53045 15.7348 6.47961C15.4304 6.46947 15.0345 6.47966 14.8568 6.505C12.8983 6.779 11.3961 8.07265 10.7416 10.0363C10.5285 10.6806 10.4629 11.2035 10.4984 12.0812C10.5187 12.6441 10.5544 12.9383 10.6508 13.3136C10.9501 14.4552 11.5386 15.5057 12.3656 16.3683L12.8168 16.8448L12.3549 17.8751C10.6906 21.6247 9.73219 24.8016 9.46327 27.4806C9.36693 28.4447 9.45835 30.1543 9.61562 30.4435C9.64167 30.488 9.84929 30.2903 10.2592 29.84L10.8637 29.17L10.8988 29.5197C11.1576 32.1428 12.34 34.6449 14.4203 36.9991C15.0849 37.7449 16.0845 38.7283 16.0443 38.5968C16.0289 38.5402 15.9326 38.2109 15.8363 37.8615C15.674 37.2984 15.2019 35.4324 15.2016 35.3448C15.2016 35.3296 15.3688 35.4668 15.5717 35.6544C16.1248 36.172 17.5918 37.3843 18.4848 38.0743C20.7984 39.8451 23.6247 41.6014 26.3139 42.9308C27.6429 43.5902 28.2721 43.8488 28.5512 43.8488ZM42.0072 13.6993C41.4339 12.9332 40.9006 12.3091 40.2309 11.6241L39.6068 10.9845L39.9018 10.7062C40.5005 10.1328 41.1102 9.90051 41.6176 9.90051C41.9144 9.90052 42.0891 9.9589 42.3519 10.0968C42.6149 10.2348 42.9226 10.5349 43.1234 10.9142C43.3008 11.2492 43.391 11.4756 43.4184 11.8536C43.4715 12.5893 43.1386 13.3547 42.6312 13.8976L42.3676 14.1818L42.0072 13.6993ZM14.517 13.9532C14.0451 13.4459 13.6597 12.8356 13.6859 12.0314C13.7084 11.3422 13.9165 10.8042 14.4359 10.3507C14.6081 10.2004 14.7678 10.1216 14.9799 10.0363C15.3174 9.90062 15.858 9.88602 16.349 10.0411C16.7549 10.1695 17.0282 10.4779 17.3275 10.7823L17.5512 11.0099L16.9418 11.6144C16.3279 12.2181 15.6836 12.9845 15.0951 13.7911L14.7758 14.2325L14.517 13.9532ZM38.8461 19.7472C38.6026 19.8487 38.3796 19.7774 37.7963 19.4122C36.7714 18.7679 36.0502 18.5044 35.1674 18.4435C34.4064 18.3928 33.8016 18.6931 32.9906 19.0372C32.8788 19.0847 32.637 19.2146 32.5101 19.1603C32.225 19.0373 32.2059 18.4434 32.3012 17.9259C32.3167 17.8413 32.3924 17.2716 32.7318 16.9269C32.9855 16.6732 33.1073 16.5912 33.4623 16.4542C34.1676 16.1802 35.0356 16.0897 35.8373 16.2013C37.0397 16.3637 38.0749 16.9822 38.6889 17.9005C39.252 18.7427 39.3229 19.5492 38.8461 19.7472ZM19.4232 19.4025C18.7131 19.8488 18.4645 19.8995 18.1957 19.6613C18.0486 19.5294 18.0226 19.4736 18.0023 19.2101C17.9414 18.3577 18.8345 17.1645 19.9457 16.6115C20.311 16.4288 20.844 16.2614 21.265 16.1954C21.7166 16.1244 22.6703 16.1753 23.1625 16.297C23.7104 16.4289 24.167 16.6475 24.4359 16.9113C24.7352 17.2055 24.8422 17.4592 24.8422 17.9259C24.8422 18.3603 24.6718 18.9016 24.6703 18.9064C24.6694 18.9098 24.6033 19.1599 24.4428 19.1603C24.324 19.1602 24.2857 19.1297 24.1879 19.0626C23.4557 18.5609 22.7767 18.3928 22.0004 18.4435C21.1431 18.5044 20.4378 18.7633 19.4232 19.4025ZM21.223 22.6984C20.4086 22.6984 19.7476 22.0381 19.7475 21.2238C19.7475 20.4093 20.4085 19.7491 21.223 19.7491C22.0373 19.7494 22.6976 20.4094 22.6976 21.2238C22.6975 22.038 22.0372 22.6981 21.223 22.6984ZM35.9701 22.6984C35.1558 22.6982 34.4956 22.038 34.4955 21.2238C34.4955 20.4094 35.1558 19.7493 35.9701 19.7491C36.7846 19.7491 37.4457 20.4093 37.4457 21.2238C37.4456 22.0381 36.7845 22.6984 35.9701 22.6984ZM30.5043 37.8058C29.3527 38.2115 27.9019 38.2217 26.725 37.8312C26.1923 37.6587 25.3089 37.2166 24.766 36.8615C23.3759 35.9482 21.9606 34.4163 21.4379 33.2697C20.895 32.0672 20.8438 30.5044 21.2953 28.7032C21.8382 26.5621 23.1325 23.6597 24.1879 22.2238C24.8424 21.3409 25.9183 20.6153 26.9584 20.3566C27.7144 20.1639 28.8053 20.1278 29.7641 20.2648C30.8243 20.412 31.9452 21.0212 32.6859 21.8429C33.513 22.7715 34.6856 25.0904 35.3959 27.2062C35.9946 28.9769 36.1264 29.6774 36.1264 30.9865C36.1213 31.8641 36.1114 31.9964 35.9896 32.4581C35.4212 34.584 33.0259 36.9179 30.5043 37.8058Z"
        fill="#00BEE4" />
    <path
        d="M27.497 24.3104C26.6902 24.3916 25.8581 24.6098 25.4471 24.8533C25.1326 25.036 24.7723 25.4521 24.5896 25.8377C24.4323 26.1624 24.3827 26.3514 24.3827 26.808C24.3827 27.3408 24.4476 27.5019 24.549 27.7911C24.6962 28.2275 25.0869 28.811 25.4319 29.1256C25.9697 29.6127 26.9541 30.1759 27.6594 30.3941C27.9283 30.4752 27.9536 30.4955 27.9841 30.6579C28.0399 30.937 27.9739 31.7386 27.8775 31.9771C27.6847 32.4541 27.1418 32.7382 26.3249 32.7889C25.1782 32.8549 24.1178 32.3577 23.6104 31.5205C23.382 31.145 23.1689 31.0283 22.9305 31.1501C22.7377 31.2515 22.6666 31.3885 22.6666 31.6778C22.6666 32.4388 23.5444 33.2913 24.823 33.7631C25.6653 34.0726 26.675 34.2198 28.2124 34.2553C30.516 34.3111 32.0229 34.0473 33.1696 33.3978C33.6517 33.1238 34.1844 32.6063 34.362 32.246C34.6005 31.7589 34.5193 31.2465 34.1895 31.1298C33.9662 31.0537 33.7785 31.1653 33.5908 31.4951C32.9921 32.5454 31.4293 33.0629 30.1202 32.6469C29.694 32.515 29.4251 32.2663 29.3033 31.8959C29.212 31.627 29.1815 30.5818 29.2576 30.5158C29.2779 30.4955 29.4809 30.4194 29.7042 30.3433C30.2724 30.1454 30.927 29.7903 31.4445 29.3996C32.3883 28.6841 32.8297 27.8571 32.8348 26.8119C32.8348 26.0964 32.5963 25.5434 32.0838 25.0918C31.4547 24.5388 30.2521 24.2648 28.4966 24.2851C28.045 24.2851 27.5934 24.3003 27.497 24.3104ZM27.0556 27.6744C27.2788 27.8723 27.4615 28.5133 27.3143 28.5522C27.2585 28.567 27.2027 28.5877 26.8475 28.4051C26.33 28.1362 26.2285 28.055 26.2285 27.9028C26.2285 27.5425 26.7461 27.4004 27.0556 27.6744ZM30.795 27.5983C30.9574 27.6846 31.0437 27.8977 30.9625 28.0245C30.9027 28.1526 30.0745 28.7247 29.897 28.6385C29.7875 28.5853 29.8488 28.4408 29.8716 28.3442C29.9821 27.8761 30.3181 27.3548 30.795 27.5983Z"
        fill="#00BEE4" />
</svg>