<svg xmlns="http://www.w3.org/2000/svg" width="42" height="42" viewBox="0 0 42 42" fill="none">
    <path
        d="M9.06129 5.07947C9.55432 4.93592 14.6252 5.0305 15.3304 5.03118L21.9347 5.03614C22.9908 5.03388 24.5164 4.97848 25.5274 5.03558C26.5372 5.08274 27.4851 5.53262 28.1598 6.28444C28.4171 6.57443 28.8244 6.87163 28.8244 7.57122C28.8244 7.94357 26.4628 7.75604 25.8027 7.76056L17.7237 7.74589C15.432 7.75164 13.718 7.97664 11.9882 9.68395C9.8218 11.822 10.1299 14.6867 10.1479 17.504L10.1705 32.6512C10.1693 33.1567 10.1818 33.1897 9.885 33.4852C9.47879 33.6408 9.12334 33.5139 8.74309 33.3467C7.85282 32.9547 6.66242 32.0315 6.31151 31.0945C5.88386 29.9494 5.98089 11.5282 6.10953 9.04022C6.13886 8.46205 6.16593 7.80862 6.40853 7.27514C6.94563 6.09206 7.74895 5.46119 9.06129 5.07947Z"
        fill="#00BEE4" />
    <path fill-rule="evenodd" clip-rule="evenodd"
        d="M16.1875 10.4797C17.7965 10.3224 21.5035 10.4057 23.3506 10.4279C26.0473 10.4603 29.5703 10.3036 32.1621 10.4504C32.559 10.4718 32.9514 10.5439 33.3291 10.6643C34.251 10.9553 35.0188 11.6043 35.4599 12.465C35.6945 12.9295 35.8379 13.4687 35.8808 13.9865C36.0625 16.1849 36.0688 33.9309 35.6728 35.0764C35.2012 36.4394 34.1385 36.9292 32.9492 37.5217C29.5405 37.5961 26.0761 37.5552 22.6064 37.5373C20.281 37.5253 16.7307 37.8932 14.5869 36.9572C13.9663 36.6859 12.9804 35.1712 12.9443 34.4943C12.8146 32.0131 12.8683 29.4727 12.8672 26.9777L12.8691 18.7033C12.8713 15.3594 11.9992 11.336 16.1875 10.4797ZM18.1865 29.8342C17.6258 29.8343 17.1709 30.289 17.1709 30.8498C17.1711 31.4104 17.6259 31.8643 18.1865 31.8644H30.5986C31.1593 31.8644 31.614 31.4104 31.6142 30.8498C31.6142 30.2889 31.1595 29.8342 30.5986 29.8342H18.1865ZM18.1865 25.2082C17.6258 25.2083 17.1709 25.6631 17.1709 26.2238C17.171 26.7845 17.6258 27.2393 18.1865 27.2394H30.5986C31.1594 27.2394 31.6142 26.7846 31.6142 26.2238C31.6142 25.663 31.1595 25.2082 30.5986 25.2082H18.1865ZM18.1865 20.5812C17.6258 20.5814 17.1709 21.0361 17.1709 21.5969C17.1711 22.1574 17.6259 22.6114 18.1865 22.6115H30.5986C31.1593 22.6115 31.614 22.1575 31.6142 21.5969C31.6142 21.036 31.1595 20.5812 30.5986 20.5812H18.1865ZM18.1865 15.9553C17.6259 15.9555 17.171 16.4103 17.1709 16.9709C17.1709 17.5316 17.6258 17.9863 18.1865 17.9865H30.5986C31.1595 17.9865 31.6142 17.5317 31.6142 16.9709C31.6141 16.4102 31.1594 15.9553 30.5986 15.9553H18.1865Z"
        fill="#00BEE4" />
</svg>