<svg
  xmlns="http://www.w3.org/2000/svg"
  viewBox="0 0 25 25"
  fill="none"
  aria-hidden="true"
>
  <path
    d="M10.7842 13.873C11.3447 13.873 11.7996 14.3272 11.7998 14.8877V20.6572C11.7998 21.2179 11.3449 21.6729 10.7842 21.6729H5.01562C4.45494 21.6729 4 21.2179 4 20.6572V14.8877C4.00021 14.3272 4.45507 13.873 5.01562 13.873H10.7842ZM20.3574 13.873C20.9178 13.8732 21.3719 14.3273 21.3721 14.8877V20.6572C21.3721 21.2178 20.9179 21.6727 20.3574 21.6729H14.5879C14.0272 21.6729 13.5723 21.2179 13.5723 20.6572V14.8877C13.5725 14.3272 14.0273 13.873 14.5879 13.873H20.3574ZM17.7461 4C20.0956 4.00025 22 5.90531 22 8.25488C21.9998 10.6043 20.0955 12.5085 17.7461 12.5088C15.3965 12.5088 13.4914 10.6044 13.4912 8.25488C13.4912 5.90516 15.3964 4 17.7461 4ZM10.7842 4.6543C11.3449 4.6543 11.7998 5.10924 11.7998 5.66992V11.4395C11.7996 12 11.3448 12.4541 10.7842 12.4541H5.01562C4.45504 12.4541 4.00017 12 4 11.4395V5.66992C4 5.10924 4.45494 4.6543 5.01562 4.6543H10.7842Z"
    fill="#00BEE4"
  />
</svg>
