<svg xmlns="http://www.w3.org/2000/svg" width="42" height="42" viewBox="0 0 42 42" fill="none">
    <path
        d="M4.72225 6.14277C3.74004 6.64902 3.76601 8.05094 4.7612 8.53988L5.00783 8.66103L6.80782 8.67401L8.60349 8.68699L8.69436 8.95526C8.74628 9.10238 9.26551 10.6254 9.85397 12.3389C10.4381 14.0524 11.4636 17.0509 12.1299 19.0023C12.7963 20.9538 13.4367 22.8317 13.5578 23.1692C13.6746 23.511 13.7698 23.8182 13.7698 23.8485C13.7698 23.8788 13.6963 23.9523 13.6097 24.0043C12.3463 24.7658 11.6107 26.2845 11.7751 27.786C11.9525 29.3566 12.991 30.6201 14.5487 31.1523L14.9597 31.2908H24.2409H33.5222L33.6952 31.1999C33.9635 31.0528 34.2275 30.7629 34.327 30.4903C34.4395 30.1961 34.4265 29.6465 34.3053 29.4129C34.1928 29.2009 33.8986 28.8937 33.6952 28.7898L33.5222 28.6946L24.4573 28.673L15.3924 28.6514L15.1934 28.5605C14.5876 28.2792 14.2891 27.6259 14.4794 26.9768C14.5963 26.5744 15.016 26.1893 15.4357 26.1028C15.5092 26.0898 17.3482 25.8518 19.5246 25.5792C23.6828 25.0557 27.3433 24.5927 31.3198 24.0908C33.9202 23.7576 34.061 23.8628 34.4072 23.5426C34.736 23.2397 34.6948 22.9745 34.9284 21.9403C35.175 20.8413 35.452 19.6297 36.0274 17.1201C37.2433 11.8197 37.2303 11.8759 37.2087 11.6033C37.1741 11.1404 36.8712 10.699 36.4472 10.4913L36.2481 10.3918L24.1371 10.3702L12.0261 10.3485L11.9482 10.1322C11.9093 10.011 11.6367 9.22786 11.3468 8.38411C11.0612 7.54036 10.7929 6.79613 10.7583 6.7269C10.6371 6.49325 10.3732 6.24662 10.1136 6.12114L9.85397 5.99998H7.42225H4.99485L4.72225 6.14277Z"
        fill="#00BEE4" />
    <path
        d="M16.0758 32.6319C15.5523 32.7747 15.0893 33.0992 14.7908 33.5276C14.3191 34.2156 14.2888 35.1675 14.7085 35.8944C15.4441 37.1622 17.2441 37.3699 18.2306 36.2968C18.6504 35.8468 18.8321 35.3795 18.8321 34.7737C18.8278 34.3713 18.7802 34.142 18.6071 33.7786C18.4383 33.4281 18.0013 32.9824 17.6552 32.818C17.1489 32.5713 16.5605 32.5021 16.0758 32.6319Z"
        fill="#00BEE4" />
    <path
        d="M30.2683 32.6279C29.8788 32.7231 29.5586 32.9091 29.2341 33.2337C28.676 33.7962 28.4596 34.5101 28.6327 35.2457C28.9486 36.5697 30.3418 37.3312 31.588 36.8596C32.5918 36.4788 33.1933 35.3798 32.9769 34.3327C32.8125 33.5279 32.1548 32.8399 31.3586 32.6322C31.0558 32.5543 30.5841 32.5543 30.2683 32.6279Z"
        fill="#00BEE4" />
</svg>