<svg xmlns="http://www.w3.org/2000/svg" width="42" height="42" viewBox="0 0 42 42" fill="none">
    <path
        d="M12.4867 3.12074C13.3984 3.06923 14.6848 3.10259 15.6258 3.09703C15.6346 3.84838 15.6331 5.18658 15.5907 5.87427C15.3917 9.15627 16.3561 10.5252 19.7894 10.4059C20.9133 10.4242 22.5773 10.4115 23.4115 9.50794C24.6159 8.20457 24.2047 4.83067 24.1886 3.09703C25.295 3.0723 27.3322 2.81312 28.1707 3.63222C29.2757 4.71212 28.8088 13.1921 28.7986 15.1707C28.7839 16.4343 28.9888 17.8082 28.7503 19.0508C28.6595 19.5197 28.4093 20.2411 27.9761 20.5082C26.9897 21.1186 13.8155 21.0797 12.3872 20.6936C11.8603 20.5512 11.5135 20.2528 11.2486 19.7674C10.8461 19.0265 10.7846 5.58992 11.1285 4.43084C11.3261 3.76569 11.9174 3.43144 12.4867 3.12074Z"
        fill="#00BEE4" />
    <path
        d="M33.1457 18.92C34.5697 18.7374 35.4507 19.0302 36.4122 20.062C37.179 20.7966 37.1819 22.6756 36.5029 23.4474C33.7355 26.5818 30.6051 29.4361 27.6869 32.4369C26.3434 33.8185 25.6 34.3344 23.6653 34.6426C21.293 35.0202 18.8212 35.1736 16.4723 35.6239C14.0956 33.5356 10.5628 29.7571 8.22705 27.4143L10.2393 25.3756C10.9096 24.7002 12.3775 23.1079 13.3331 23.0103C16.7782 22.7213 20.5993 22.7879 24.0531 22.9196C26.1474 22.9995 27.144 25.4376 26.3025 27.2285C24.9868 30.0269 18.8563 27.89 18.0192 29.3754L18.145 29.7239C18.5855 29.992 19.0231 30.0788 19.5397 30.1224C23.9024 30.4912 29.0962 30.013 27.6108 23.981C28.966 22.6279 31.6354 19.6288 33.1457 18.92Z"
        fill="#00BEE4" />
    <path
        d="M6.39233 28.125C6.46551 28.1288 6.53575 28.1342 6.60746 28.148C7.64653 28.3482 13.4507 34.2655 14.1883 35.3871C14.4005 35.7089 14.6097 36.0001 14.5131 36.4032C14.2409 37.5311 12.0867 39.3752 11.1077 39.9999C9.52419 39.9356 4.12834 33.844 2.97365 32.3888C2.18776 31.3963 5.53034 28.5449 6.39233 28.125Z"
        fill="#00BEE4" />
    <path
        d="M17.212 3.11456C18.254 3.11617 21.6741 2.76816 22.3254 3.27745C23.303 4.04065 23.0747 7.85813 22.2815 8.8694C22.2332 8.88828 22.1849 8.90466 22.1351 8.91842C21.2219 9.17687 18.8218 9.29966 17.853 8.85183C16.6061 8.27625 16.6471 4.04592 17.212 3.11456Z"
        fill="#00BEE4" />
</svg>