<svg xmlns="http://www.w3.org/2000/svg" width="42" height="42" viewBox="0 0 42 42" fill="none">
    <path
        d="M23.9197 10.3949C23.6675 10.3799 23.5388 10.4055 23.3696 10.5092C23.2459 10.5863 23.1473 10.7121 22.6416 11.4611C22.3192 11.9375 22.0338 12.3535 22.0013 12.3854C21.9647 12.427 21.8903 12.4413 21.7857 12.4277C21.4012 12.3836 20.5775 12.3712 20.124 12.4007C19.8503 12.4185 19.6074 12.4265 19.5848 12.417C19.546 12.4006 19.2673 11.979 18.7138 11.0994C18.4234 10.6425 18.3461 10.5643 18.0909 10.4568C17.7473 10.3158 17.6558 10.3343 16.473 10.8133C15.2718 11.2998 15.1691 11.363 15.0262 11.7021C14.9269 11.9378 14.9199 12.0718 14.9891 12.3861C15.1278 13.0225 15.3313 14.0741 15.3252 14.1248C15.3226 14.1579 15.153 14.326 14.9506 14.4993C14.552 14.8409 14.1125 15.2794 13.8224 15.625C13.69 15.7859 13.6259 15.8388 13.572 15.8313C13.5324 15.826 13.0532 15.7268 12.5086 15.6115C11.383 15.3769 11.2679 15.3702 10.9798 15.5759L10.8162 15.6933L10.2923 16.91L9.76838 18.1266L9.78382 18.3156C9.79466 18.5065 9.84054 18.6323 9.94964 18.7886C10.0086 18.8743 10.4218 19.1662 11.3685 19.7893C11.6277 19.9594 11.8398 20.1058 11.8403 20.1136C11.8376 20.12 11.8194 20.3709 11.7969 20.6771C11.77 21.0118 11.7706 21.4797 11.7946 21.8739L11.835 22.5184L10.9962 23.0472C10.536 23.3363 10.1098 23.6168 10.0471 23.6665C9.89372 23.7958 9.76635 24.1072 9.7692 24.3442C9.77326 24.479 9.88335 24.7953 10.1965 25.5775C10.4288 26.1544 10.6682 26.6964 10.7285 26.7788C10.8251 26.9108 10.8694 26.9409 11.1149 27.0442C11.4378 27.1803 11.3035 27.1922 12.667 26.9072L13.5581 26.7236L13.8844 27.1044C14.2241 27.4985 14.6863 27.9631 15.0355 28.2623L15.2368 28.4346L15.1932 28.6824C15.166 28.8192 15.0682 29.2952 14.9715 29.7412C14.8795 30.1854 14.8062 30.6032 14.8089 30.6689C14.8252 30.8469 14.9436 31.0984 15.0709 31.2204C15.1649 31.3133 15.3508 31.3954 16.3837 31.8229L17.586 32.3179L17.785 32.2877C18.1395 32.2317 18.2085 32.1581 18.8877 31.1323L19.4886 30.2295L19.6498 30.2441C20.0973 30.292 20.8801 30.3023 21.3603 30.2726L21.8999 30.2375L22.26 30.7999C22.4561 31.1107 22.7042 31.4966 22.806 31.6611C23.0388 32.0292 23.1379 32.128 23.3542 32.2191C23.7063 32.3674 23.7605 32.356 24.9865 31.8648C25.8545 31.5194 26.1427 31.386 26.2465 31.2929C26.4181 31.1294 26.5378 30.8452 26.5295 30.6211C26.5266 30.5287 26.4337 30.018 26.3237 29.4849L26.1239 28.5148L26.4417 28.257C26.8249 27.9431 27.237 27.5425 27.5627 27.1664C27.6957 27.0132 27.8283 26.879 27.8623 26.8705C27.8931 26.8606 28.0326 26.8814 28.1713 26.9132C28.31 26.945 28.7717 27.0406 29.1951 27.1277C30.0737 27.3077 30.2196 27.3045 30.4945 27.1123L30.658 26.9949L31.1792 25.7846L31.7004 24.5744L31.6848 24.3587C31.6648 24.0993 31.5234 23.8572 31.2919 23.7027C31.2083 23.6485 30.8109 23.3822 30.4103 23.1146C30.0097 22.8469 29.6737 22.6065 29.6625 22.579C29.6513 22.5514 29.6567 22.3218 29.6731 22.0663C29.7077 21.5599 29.7083 21.1343 29.6713 20.5902C29.6586 20.3947 29.6547 20.2143 29.6629 20.195C29.671 20.1756 30.0619 19.9067 30.5321 19.6029C31.0037 19.2958 31.4275 19.0028 31.4728 18.9496C31.5884 18.8196 31.6668 18.6245 31.6938 18.3887C31.7134 18.2068 31.6871 18.1159 31.2834 17.1245C31.0487 16.5351 30.8061 15.9918 30.7476 15.9139C30.613 15.7279 30.2668 15.5478 30.0514 15.5446C29.9746 15.5464 29.6684 15.5962 29.3757 15.6592C28.5747 15.8275 27.9621 15.9459 27.9298 15.9323C27.9136 15.9255 27.7228 15.7196 27.504 15.4716C27.1412 15.0601 26.3871 14.3318 26.2805 14.2869C26.2191 14.261 26.2134 14.2928 26.4543 13.1433C26.571 12.5954 26.6649 12.0836 26.663 12.0068C26.6605 11.8232 26.5873 11.6631 26.4284 11.4897C26.3 11.3519 26.2691 11.3351 25.2029 10.8783C24.2238 10.4583 24.0901 10.4058 23.9197 10.3949ZM23.5672 17.361C24.2989 17.8897 24.8443 18.572 25.2014 19.4031C25.6035 20.3444 25.7083 21.305 25.5159 22.3305C25.4286 22.7994 25.0317 23.7236 24.7425 24.1303C24.4633 24.5222 24.2403 24.7629 23.8695 25.0744C22.6857 26.0701 21.0393 26.4489 19.5447 26.0703C18.8742 25.9019 18.0327 25.4714 17.5695 25.0633C17.3113 24.8367 16.8382 24.2989 16.6705 24.0382C15.9193 22.8966 15.6789 21.5176 15.9946 20.1904C16.1094 19.7102 16.4675 18.9143 16.7413 18.5352C17.8134 17.0552 19.5673 16.2768 21.331 16.495C21.8297 16.5568 22.1243 16.6429 22.7343 16.9189C23.163 17.1108 23.3745 17.2227 23.5672 17.361Z"
        fill="#00BEE4" />
    <path
        d="M19.24 2.06175C23.8209 1.44593 28.8112 3.19866 32.5138 5.855C32.5216 5.25422 32.5179 4.87426 32.9159 4.38811C33.0601 4.21203 33.2492 4.06526 33.4845 4.04916C33.7801 4.02892 34.0701 4.20979 34.2827 4.40085C34.8228 4.88619 36.1551 9.01075 36.1912 9.81362C36.2061 10.1453 36.151 10.5221 35.9113 10.7706C35.7263 10.9624 35.4691 11.0329 35.2094 11.0322C34.5036 11.0305 30.0242 9.48737 29.5451 8.99332C29.384 8.82736 29.2663 8.62074 29.2772 8.38305C29.3126 7.61114 30.1103 7.51264 30.7044 7.38062L30.3919 7.1459C29.8974 6.68718 29.1683 6.34982 28.5732 6.04698C23.9879 3.71072 18.5125 3.60252 13.8563 5.80793C11.5941 6.87945 10.0326 8.16053 8.35186 9.97879C7.98706 10.3957 7.6434 10.8308 7.32217 11.2823C4.67526 14.9997 3.67368 19.6426 4.55247 24.121C4.77678 25.2756 5.27836 26.3476 5.53991 27.4998C5.76806 27.9971 4.93166 28.8806 4.47708 28.8318C2.84151 28.6566 2.15535 23.5197 2.06702 22.4812C1.64321 17.4848 3.24195 12.5271 6.50451 8.72002C9.70779 4.90984 14.284 2.51729 19.24 2.06175Z"
        fill="#00BEE4" />
    <path
        d="M37.3268 13.1711C37.5865 13.2044 37.8827 13.235 38.0965 13.3861C38.9148 13.9644 39.5949 17.0544 39.7539 18.036C40.5603 22.9538 39.3674 27.9899 36.441 32.023C33.48 36.1541 28.9987 38.938 23.9842 39.7615C18.6588 40.6127 13.7487 39.1614 9.43596 36.0372C9.46144 36.2912 9.52469 37.0679 9.36176 37.2593C7.59627 39.3321 6.83512 35.6212 6.45633 34.4364C6.30437 33.9831 5.81414 32.7221 5.76873 32.329C5.45423 29.6067 9.24148 31.8222 10.4212 32.0206C10.7363 32.0737 12.1395 32.6244 12.3287 32.8265C13.4003 33.9713 11.8243 34.4364 11.1642 34.6446C11.4148 34.8997 12.1806 35.214 12.4858 35.394C17.2691 38.2136 23.0859 38.5361 28.144 36.1485C34.7273 33.0543 38.5548 26.0568 37.6102 18.8422C37.5084 18.1286 37.3619 17.4219 37.1714 16.7267C36.8057 15.3892 35.6742 13.9261 37.3268 13.1711Z"
        fill="#00BEE4" />
</svg>