<svg xmlns="http://www.w3.org/2000/svg" width="34" height="34" viewBox="0 0 34 34" fill="none">
    <path fill-rule="evenodd" clip-rule="evenodd"
        d="M12.1753 21.3467C12.8359 21.3467 13.4062 21.8097 13.5425 22.4561L14.6499 27.709C14.833 28.5775 14.1704 29.3945 13.2828 29.3945H1.39799C0.513758 29.3945 -0.148419 28.5831 0.0288479 27.7168L1.10404 22.4639C1.23717 21.8137 1.80955 21.3467 2.47318 21.3467H12.1753ZM28.4898 21.3467C29.1504 21.3467 29.7207 21.8097 29.857 22.4561L30.9644 27.709C31.1474 28.5775 30.4848 29.3945 29.5972 29.3945H17.7124C16.8282 29.3945 16.166 28.5831 16.3433 27.7168L17.4185 22.4639C17.5516 21.8137 18.124 21.3467 18.7876 21.3467H28.4898ZM20.4898 11C21.1504 11 21.7207 11.463 21.857 12.1094L22.9644 17.3623C23.1473 18.2307 22.4848 19.0479 21.5972 19.0479H9.71244C8.8282 19.0479 8.16605 18.2364 8.3433 17.3701L9.4185 12.1172C9.55156 11.467 10.124 11 10.7876 11H20.4898Z"
        fill="#00BEE4" />
</svg>