<svg xmlns="http://www.w3.org/2000/svg" width="34" height="34" viewBox="0 0 34 34" fill="none">
    <path
        d="M5.42142 6C6.61636 5.99998 6.80019 6.00121 8.17897 6.00196C9.00623 6.0007 9.00623 6.0007 9.28199 6.27823C9.39401 6.74408 9.28199 12.8016 9.28199 14.0171C9.28199 15.2325 9.74158 16.2249 10.6322 16.2249C11.5227 16.2249 12.3153 12.914 14.889 12.914C16.9112 12.914 17.2604 16.2681 18.8572 16.2249C20.4541 16.1818 19.3011 12.7302 23.897 13.2817C24.3619 13.3375 24.9775 13.8952 24.9818 14.3918C25.0125 18.0205 24.9994 21.6521 24.9789 25.2809C24.9702 26.8439 24.3922 27.6387 22.7822 27.6817L18.828 27.6812C18.8455 26.6365 18.8557 25.5915 18.8572 24.5465C18.8309 20.632 16.586 20.6686 13.512 20.631C8.39744 20.5686 9.19007 23.9442 9.19007 27.8048C6.43253 27.8048 3.15297 28.724 3.15297 26.0532C3.05153 23.2089 2.92848 20.2666 3.05153 17.4343C3.08291 16.7139 3.84834 16.1939 4.36534 15.8115C4.36534 12.3625 4.36534 8.31814 4.36534 7.39896C4.36534 6.47978 4.22648 6.00002 5.42142 6Z"
        fill="#00BEE4" />
    <path
        d="M11.2624 22.5512C12.7273 21.2913 15.4872 21.6588 16.7297 22.5512C17.9722 23.4436 17.5922 27.1864 17.5922 27.9887H16.7297H10.2949C10.2949 26.3058 10.2136 23.4532 11.2624 22.5512Z"
        fill="#00BEE4" />
</svg>