<svg xmlns="http://www.w3.org/2000/svg" width="34" height="34" viewBox="0 0 34 34" fill="none">
    <path
        d="M0.543636 5.10738C-0.195667 5.48843 -0.176126 6.54364 0.572947 6.91167L0.758587 7.00286L2.11343 7.01263L3.46502 7.0224L3.53341 7.22433C3.5725 7.33506 3.96332 8.48146 4.40625 9.77117C4.84592 11.0609 5.61779 13.3179 6.11935 14.7867C6.6209 16.2555 7.10291 17.669 7.1941 17.923C7.28204 18.1803 7.35369 18.4116 7.35369 18.4344C7.35369 18.4572 7.29832 18.5125 7.23318 18.5516C6.28219 19.1248 5.72852 20.268 5.85228 21.3981C5.98582 22.5803 6.76746 23.5313 7.93992 23.9319L8.24932 24.0361H15.2352H22.2212L22.3514 23.9677C22.5534 23.857 22.752 23.6388 22.8269 23.4336C22.9116 23.2122 22.9018 22.7985 22.8107 22.6227C22.726 22.4631 22.5045 22.2318 22.3514 22.1537L22.2212 22.082L15.3981 22.0657L8.575 22.0495L8.42519 21.9811C7.96923 21.7694 7.74451 21.2776 7.88781 20.7891C7.97574 20.4862 8.29166 20.1963 8.60757 20.1312C8.66294 20.1214 10.0471 19.9423 11.6853 19.7371C14.8151 19.343 17.5704 18.9945 20.5634 18.6168C22.5208 18.366 22.6268 18.4451 22.8873 18.2041C23.1348 17.9762 23.1038 17.7765 23.2796 16.9981C23.4653 16.1709 23.6737 15.2589 24.1069 13.37C25.022 9.38035 25.0123 9.42269 24.996 9.21751C24.9699 8.86903 24.742 8.53683 24.4228 8.3805L24.273 8.3056L15.1571 8.28931L6.04118 8.27303L5.98256 8.11019C5.95325 8.019 5.74807 7.4295 5.52986 6.79442C5.31491 6.15934 5.11298 5.59916 5.08693 5.54705C4.99574 5.37118 4.79707 5.18554 4.60166 5.09109L4.40625 4.9999H2.5759H0.748816L0.543636 5.10738Z"
        fill="#00BEE4" />
    <path
        d="M9.08968 25.0457C8.6956 25.1532 8.34712 25.3974 8.1224 25.7199C7.7674 26.2377 7.74461 26.9542 8.06052 27.5014C8.61418 28.4556 9.96903 28.6119 10.7116 27.8042C11.0275 27.4655 11.1643 27.1138 11.1643 26.6578C11.161 26.3549 11.1252 26.1823 10.9949 25.9088C10.8679 25.645 10.539 25.3095 10.2784 25.1857C9.89738 25.0001 9.45445 24.948 9.08968 25.0457Z"
        fill="#00BEE4" />
    <path
        d="M19.772 25.0426C19.4789 25.1143 19.2379 25.2543 18.9936 25.4986C18.5735 25.922 18.4106 26.4594 18.5409 27.013C18.7786 28.0096 19.8273 28.5828 20.7653 28.2278C21.5209 27.9412 21.9736 27.114 21.8108 26.3258C21.687 25.7201 21.192 25.2022 20.5927 25.0459C20.3647 24.9873 20.0097 24.9873 19.772 25.0426Z"
        fill="#00BEE4" />
</svg>