<svg xmlns="http://www.w3.org/2000/svg" width="34" height="34" viewBox="0 0 34 34" fill="none">
    <path fill-rule="evenodd" clip-rule="evenodd"
        d="M6.3003 20.5995C7.79141 20.5995 9.00037 21.8086 9.00049 23.2997C9.00049 24.7908 7.79148 25.9999 6.3003 25.9999C4.80912 25.9999 3.6001 24.7908 3.6001 23.2997C3.60022 21.8086 4.8092 20.5995 6.3003 20.5995ZM24.7505 20.5995C26.2414 20.5997 27.4496 21.8087 27.4497 23.2997C27.4497 24.7907 26.2415 25.9996 24.7505 25.9999C23.2593 25.9999 22.0503 24.7908 22.0503 23.2997C22.0504 21.8086 23.2594 20.5995 24.7505 20.5995ZM9.92432 8.00083C15.122 7.9965 18.83 8.00943 18.9644 8.03111C19.5438 8.13536 19.9576 8.59523 20.0591 9.24595C20.0834 9.4269 20.1001 11.2805 20.1001 14.4588V19.3983H20.8296V11.1629C20.8336 11.1233 20.8452 11.0756 20.8745 11.0379C20.9382 10.9566 21.0649 10.9569 21.0649 10.9569L22.1958 10.9608C23.9187 10.9608 24.9083 11.0909 25.7232 11.4208C26.2093 11.6203 26.4891 11.8034 26.8579 12.1678C27.2591 12.5714 27.6087 13.1359 28.6704 15.1229C28.8893 15.5264 29.1286 15.9222 29.2056 15.996C29.2828 16.0697 29.4492 16.1735 29.5786 16.2254C30.3446 16.538 30.8023 17.0467 30.9888 17.7801C31.0413 17.993 31.0503 18.3856 31.0503 20.3924C31.0462 21.8462 31.0297 22.819 31.0054 22.9188C30.9364 23.179 30.7297 23.4559 30.4624 23.6034C30.4588 23.6059 30.3237 23.6996 30.2232 23.7176C30.0787 23.7434 29.2896 23.7306 29.2739 23.7303C29.2522 23.7311 28.3744 23.7627 28.3296 23.743C28.2894 23.7229 28.2896 23.7219 28.2896 23.6307C28.2896 23.5389 28.2728 23.4079 28.2485 23.3133C28.2238 23.2162 28.013 22.107 27.6773 21.5692C26.4934 19.6724 23.9917 19.364 22.439 20.9178C21.8999 21.456 21.5468 22.1288 21.4009 22.9012C21.3523 23.1398 21.3159 23.3923 21.3159 23.453C21.3156 23.5137 21.2793 23.6047 21.2349 23.6522C21.1539 23.7388 21.0971 23.7391 15.5425 23.7391C10.7694 23.7391 9.93239 23.7302 9.88721 23.6786C9.85886 23.6439 9.82253 23.4523 9.80225 23.2528C9.71305 22.2938 9.35588 21.5125 8.73584 20.8876C8.06291 20.2148 7.24759 19.8759 6.30713 19.8758C5.76408 19.8759 5.31826 19.9935 4.79542 20.2626C4.07802 20.6401 3.5835 21.1694 3.23487 21.9374C3.01205 22.4232 2.9138 22.7841 2.88135 23.2352C2.84493 23.7599 2.88535 23.7391 1.90479 23.7391C0.956527 23.7391 0.760933 23.6998 0.469243 23.4657C0.359969 23.379 0.234728 23.2431 0.15772 23.0829C0.15772 23.0829 0.0608559 22.9222 0.0522511 22.8104C-0.0646699 21.2254 0.0509683 16.0097 0.0522511 15.952V9.0897C0.0525517 8.98455 0.168793 8.69664 0.173345 8.6854C0.31929 8.35558 0.506317 8.22533 0.802251 8.09947C0.810151 8.09581 1.0071 8.00483 1.10596 8.00474C3.88721 8.00474 9.92432 8.00083 9.92432 8.00083Z"
        fill="#00BEE4" />
</svg>