<svg xmlns="http://www.w3.org/2000/svg" width="34" height="34" viewBox="0 0 34 34" fill="none">
    <path
        d="M5.94403 7.01952C4.7652 7.10113 4.61558 7.1374 4.43875 7.41397C4.36168 7.53185 4.35714 7.87643 4.34354 14.5459L4.33447 21.5508L4.43422 21.7549C4.50676 21.8863 4.59744 21.9816 4.71079 22.0405C4.86948 22.1221 4.92842 22.1266 5.45889 22.0858C7.93443 21.8954 10.4145 22.1992 12.4956 22.9473C12.8946 23.0924 13.0397 23.1513 13.6517 23.437C13.9691 23.582 14.6991 24.0037 14.9575 24.1896L15.1752 24.3438L15.3429 24.2123C15.76 23.8858 16.7076 23.3826 17.4557 23.0924C19.6184 22.2445 21.6451 21.968 24.8733 22.0722C25.5488 22.0949 25.5806 22.0904 25.7166 21.9952C26.0249 21.773 26.0068 22.2672 26.0068 14.6003V7.67241L25.907 7.47291C25.7574 7.18274 25.6123 7.11473 24.9776 7.06032C24.3065 7.00138 22.6516 6.98778 21.9942 7.03312C20.3937 7.14647 18.9157 7.45478 17.6507 7.94444C16.7484 8.29356 16.1137 8.65627 15.5424 9.15047L15.1706 9.47239L14.9076 9.24115C14.4361 8.8195 13.7742 8.41144 13.0261 8.08953C11.8019 7.55452 10.351 7.20541 8.80042 7.06486C8.12032 7.00591 6.54704 6.97871 5.94403 7.01952Z"
        fill="#00BEE4" />
    <path
        d="M2.75717 9.48142C2.5214 9.55396 2.17682 9.88947 2.08161 10.1388C2.00453 10.3429 2 10.6874 2 17.3116V24.2712C2 24.2712 2.08884 24.5962 2.20575 24.7599C2.32266 24.9236 2.44285 24.9927 2.69676 25.1106C2.90078 25.2058 2.94306 25.178 7.6221 25.1916L12.3374 25.2052L12.4281 25.3956C12.4734 25.4999 12.6639 25.7356 12.8497 25.917C13.9742 27.0278 15.9147 27.123 17.2477 26.1346C17.5152 25.9351 17.9006 25.4817 17.9595 25.2913C17.9867 25.2052 18.0819 25.2006 22.7111 25.1916C22.7111 25.1916 25.5906 25.1577 27.4355 25.178C27.6913 25.1808 27.8783 25.1106 28.0186 24.9703C28.1589 24.83 28.238 24.6664 28.238 24.4752C28.238 21.6827 28.3287 24.2032 28.3287 17.3252C28.3241 11.9842 28.3105 10.3383 28.2697 10.1978C28.1473 9.79426 27.6576 9.42248 27.245 9.42248H27.0501V16.7448C27.0501 20.771 27.032 24.0671 27.0138 24.0671C26.9957 24.0671 26.8687 24.0263 26.7327 23.981C26.2294 23.8042 24.9101 23.5684 24.035 23.5004C23.5136 23.4596 21.6456 23.4732 21.0743 23.5231C19.0567 23.6954 17.0119 24.2077 15.5565 24.9105C15.1711 25.0918 15.1167 25.1099 15.0805 25.0555C15.0669 25.0374 14.8129 24.9195 14.5182 24.7926C12.4145 23.8903 9.84827 23.4143 7.35006 23.4596C5.87653 23.4913 4.74304 23.6364 3.72744 23.9357C3.55515 23.9855 3.38739 24.0399 3.35565 24.0535C3.30124 24.0717 3.29218 22.9563 3.29218 16.8536C3.29218 12.8773 3.27857 9.58116 3.26497 9.52222C3.2423 9.44061 3.20603 9.42248 3.07001 9.42701C2.97933 9.43154 2.83878 9.45421 2.75717 9.48142Z"
        fill="#00BEE4" />
</svg>