<svg xmlns="http://www.w3.org/2000/svg" width="34" height="34" viewBox="0 0 34 34" fill="none">
    <path fill-rule="evenodd" clip-rule="evenodd"
        d="M12.5771 16.5126C14.1843 16.5126 16.2809 16.5077 16.6933 16.5624C17.6367 16.6809 18.7745 17.0322 19.6162 17.4559C21.7389 18.5223 23.2289 20.3635 23.7978 22.6102C23.9643 23.2756 23.9963 23.7641 24.001 25.6054C24.001 26.9313 23.9871 27.328 23.9316 27.5604C23.7466 28.3258 22.9603 28.8243 22.4521 29.0507C21.9439 29.277 18.7149 30.414 14.9912 30.4159C10.9238 30.4179 6.99791 29.3376 6.49608 29.0507C5.99578 28.7641 5.19153 28.3123 5.03416 27.5741C5.00179 27.4055 4.99295 26.6849 5.00682 25.2948C5.02994 23.153 5.04316 22.9615 5.2744 22.1503C5.77387 20.3775 7.15229 18.6777 8.90038 17.6659C9.84386 17.119 10.6108 16.7471 11.9531 16.5624C12.138 16.537 12.4152 16.5126 12.5771 16.5126ZM13.5781 4.03993C14.9413 3.86381 16.4901 4.27209 17.5937 5.09266C18.0342 5.42184 18.6464 6.0529 18.8877 6.4286C19.1241 6.79485 19.4121 7.37447 19.542 7.75477C19.7553 8.38551 19.8161 8.78959 19.8115 9.57801C19.8069 10.5193 19.6812 11.0758 19.3056 11.8641C18.9718 12.5597 18.6658 12.9867 18.1465 13.4921C17.4183 14.197 16.6338 14.6423 15.6553 14.9159C15.057 15.0828 14.0739 15.1197 13.3877 15.0038C12.1541 14.7997 11.1612 14.2856 10.2754 13.3905C8.70321 11.8044 8.25854 9.28121 9.1953 7.24989C9.99299 5.51537 11.6766 4.28109 13.5781 4.03993Z"
        fill="#00BEE4" />
</svg>