<svg xmlns="http://www.w3.org/2000/svg" width="34" height="34" viewBox="0 0 34 34" fill="none">
    <path fill-rule="evenodd" clip-rule="evenodd"
        d="M8.5002 4.57027C8.74482 4.17522 8.86715 4.06472 9.31984 3.82993C9.89981 3.54352 10.4562 3.56357 11.7618 3.88768C15.2014 4.76939 18.2247 6.31248 20.9763 8.62285C22.4925 9.88081 24.9591 12.7338 25.9486 14.3724C27.5841 17.0417 28.6199 19.8884 29.0881 22.9473C29.3777 24.775 29.2871 25.2534 28.5375 25.9305C27.6738 26.7263 26.5861 26.6953 25.7151 25.8361C25.2167 25.337 25.2005 25.3196 24.9658 23.8863C24.4655 20.9669 23.5503 18.5167 22.1267 16.2573C20.9947 14.4783 18.7768 12.1449 17.0984 10.9702C15.0259 9.5343 13.2225 8.69384 10.7935 8.05478C9.55447 7.73407 9.33483 7.63139 8.89868 7.21864C8.12909 6.48928 7.97358 5.44165 8.5002 4.57027ZM7.5026 13.5593C7.87458 12.6218 8.69945 12.1154 9.64954 12.2385C10.4923 12.348 12.5069 13.1231 13.5564 13.7418C16.8828 15.7072 19.3448 18.9598 20.282 22.6083C20.7603 24.4868 20.6815 25.2227 19.9322 25.8997C19.48 26.2923 18.6862 26.5353 18.1927 26.4273C17.6583 26.3087 16.9338 25.8393 16.7278 25.4713C16.628 25.3082 16.3841 24.531 16.1671 23.7301C15.6829 21.9675 15.2369 21.0879 14.1644 19.7778C12.8477 18.1974 11.2875 17.1533 9.33885 16.5552C8.54484 16.3069 8.36721 16.1977 7.94125 15.7436C7.34293 15.0812 7.18804 14.3499 7.5026 13.5593ZM3.60029 22.7664C4.69933 21.2672 6.74017 20.548 8.52812 21.038C9.50465 21.2955 10.1888 21.7544 10.9159 22.6646C12.2141 24.2774 12.1726 26.5619 10.7869 28.3042C8.98206 30.5992 5.22855 30.4912 3.58729 28.0959C2.48114 26.468 2.49097 24.3065 3.60029 22.7664Z"
        fill="#00BEE4" />
</svg>