<svg xmlns="http://www.w3.org/2000/svg" width="34" height="34" viewBox="0 0 34 34" fill="none">
    <path
        d="M13.4739 7.04527C12.8096 7.14307 12.1902 7.35091 11.6196 7.66877C11.0369 7.99479 10.34 8.62644 9.98141 9.15622C9.84285 9.3559 9.77357 9.42518 9.72467 9.40888C9.68799 9.39666 9.52091 9.35998 9.35383 9.33145C7.32845 8.94838 5.28678 9.7838 4.14573 11.4587C3.81971 11.9396 3.50592 12.669 3.40404 13.1744L3.35514 13.427L3.0658 13.5737C2.12443 14.0465 1.64355 14.6007 1.64355 15.2079C1.64355 15.3587 1.65578 15.5217 1.67208 15.5706L1.70061 15.6643H10.0751H18.4456L18.5841 15.3872C18.792 14.9715 19.0772 14.7555 19.5744 14.6251C19.7008 14.5925 19.929 14.564 20.0757 14.564H20.3406L20.471 14.2828C20.638 13.9323 20.9844 13.5941 21.3268 13.4596C21.5264 13.3822 21.6405 13.3659 22.0318 13.3659C22.643 13.3659 22.8753 13.4515 23.2299 13.7979L23.4785 14.0424L23.2706 14.1402C22.9893 14.1708 22.0807 14.1411 21.7239 14.3195C21.3021 14.5304 21.1482 14.9849 21.0912 15.2253V15.6439L24.3424 15.6562L26.5756 15.6439L26.6123 15.4442C26.6693 15.1549 26.5838 14.6455 26.4248 14.3195C26.27 13.9976 25.8869 13.6063 25.459 13.3211C25.0963 13.0847 24.9292 13.0195 24.6521 13.0154H24.4443L24.3954 12.8117C24.269 12.2778 23.7433 11.4709 23.1565 10.9045C21.938 9.72675 20.4261 9.27847 18.6697 9.57189C18.5556 9.59226 18.5352 9.57596 18.4089 9.36405C18.2337 9.07064 17.7691 8.51641 17.5205 8.3045C16.9092 7.78695 16.3998 7.49354 15.7274 7.27348C14.9572 7.02082 14.1789 6.93931 13.4739 7.04527ZM17.1945 11.206C17.5001 11.2835 17.8017 11.4343 18.0299 11.6217C18.4537 11.9681 18.4782 12.4653 18.0788 12.669C17.8995 12.7628 17.7773 12.7424 17.4349 12.5712C16.8481 12.2697 16.4936 12.2697 15.923 12.5712C15.597 12.7424 15.4503 12.7628 15.2669 12.669C14.619 12.3349 15.1243 11.475 16.135 11.202C16.4202 11.1245 16.8929 11.1286 17.1945 11.206ZM11.2366 13.0725C11.7337 13.1784 12.3287 13.5697 12.4551 13.8712C12.5406 14.075 12.4836 14.3195 12.3165 14.4703C12.1087 14.6618 11.8723 14.6577 11.5544 14.4621C11.0084 14.1239 10.5438 14.1402 9.88768 14.5233C9.46386 14.7678 9.00336 14.4417 9.09301 13.9649C9.12969 13.753 9.47201 13.4311 9.84692 13.2477C10.2993 13.0236 10.7435 12.9706 11.2366 13.0725Z"
        fill="#00BEE4" />
    <path
        d="M0.26566 16.4916C0.0455992 16.6383 -0.0196039 16.8095 0.00484725 17.1721C0.151554 19.2016 0.473495 20.3793 1.24371 21.716C2.29918 23.5417 4.05559 24.968 6.07689 25.6404L6.56591 25.8034L6.58629 26.3291C6.60259 26.7815 6.61889 26.8711 6.70039 27.0015C6.8797 27.2868 7.23425 27.515 7.64584 27.6006C7.81292 27.6372 9.47153 27.6454 14.268 27.6372C20.2015 27.625 20.6783 27.6209 20.8413 27.5557C21.151 27.4294 21.4567 27.2012 21.5708 27.0015C21.6767 26.8263 21.6808 26.7815 21.6849 26.3047V25.7993L22.0313 25.6893C23.9955 25.0576 25.6175 23.8555 26.6974 22.2254C27.6673 20.7583 28.1441 19.2546 28.246 17.3352C28.2745 16.8421 28.2704 16.8217 28.1767 16.6831C28.1237 16.6057 28.0177 16.5079 27.9403 16.4712C27.8058 16.4019 27.0601 16.3979 14.101 16.3979H0.404216L0.26566 16.4916Z"
        fill="#00BEE4" />
</svg>