<svg xmlns="http://www.w3.org/2000/svg" width="34" height="34" viewBox="0 0 34 34" fill="none">
    <path
        d="M5.14168 6.05714C4.84863 6.1384 4.64178 6.3223 4.43923 6.68583C4.2884 6.96382 2.85334 9.68387 2.22415 10.8942C2.03454 11.2535 2.00006 11.3604 2.00006 11.5614C1.99575 11.9762 2.22415 12.3269 2.59908 12.4852C2.68527 12.5194 2.90936 12.5408 3.19379 12.5408H3.64628V19.1271V25.7134H3.31014C2.69389 25.7134 2.32758 25.9058 2.11211 26.3335C1.95266 26.6585 1.9742 27.0606 2.16382 27.3642C2.30603 27.5994 2.63786 27.8218 2.90074 27.8689C2.99124 27.8817 3.93071 27.8945 4.99515 27.8945H6.92149V22.7495C6.92149 17.8355 6.9258 17.6002 7.00338 17.4377C7.09818 17.2367 7.27918 17.0571 7.45156 16.9929C7.52913 16.963 8.14539 16.9459 9.16674 16.9459C10.8948 16.9459 10.8776 16.9416 11.1103 17.1897C11.3732 17.4634 11.3603 17.1384 11.3603 22.7624V27.8945L17.8374 27.886C23.8449 27.8731 24.3232 27.8689 24.4654 27.8004C25.03 27.5353 25.267 26.8895 25.0041 26.3292C24.8102 25.9101 24.4266 25.7134 23.8061 25.7134H23.4699V19.1271V12.5408H23.8836C24.3835 12.5408 24.5775 12.4895 24.8016 12.297C25.03 12.1045 25.1248 11.8522 25.0989 11.5058C25.0817 11.2535 25.0257 11.1337 24.2715 9.6967C22.6813 6.67727 22.5218 6.39073 22.371 6.25815C22.0521 5.98015 22.608 5.99726 13.5624 6.00154C7.00768 6.00154 5.30544 6.01437 5.14168 6.05714ZM19.6646 16.9929C19.837 17.0571 20.018 17.2367 20.1128 17.4377C20.1861 17.596 20.1947 17.7414 20.1947 19.1485C20.1947 20.5512 20.1861 20.7052 20.1128 20.8592C20.018 21.073 19.8155 21.2484 19.6 21.3082C19.3759 21.3681 15.4888 21.3638 15.2604 21.304C15.0276 21.2398 14.7432 20.9533 14.6829 20.718C14.6484 20.594 14.6355 20.0637 14.6441 19.0244L14.657 17.5104L14.7863 17.3223C14.8596 17.2239 14.9975 17.0956 15.088 17.0443C15.2604 16.9459 15.2647 16.9459 17.4022 16.9459C18.8114 16.9459 19.5828 16.963 19.6646 16.9929Z"
        fill="#00BEE4" />
</svg>