<svg xmlns="http://www.w3.org/2000/svg" width="34" height="34" viewBox="0 0 34 34" fill="none">
    <path
        d="M16.9781 4.08365C16.6687 4.18241 16.3819 4.37233 16.163 4.62303C16.0725 4.72939 15.6348 5.42451 15.1933 6.16522C14.3217 7.62383 12.9746 9.88393 10.6201 13.8192C9.79377 15.198 8.87687 16.7326 8.57878 17.2302C8.00901 18.1836 7.96374 18.3014 8.01656 18.6318C8.05429 18.8673 8.15995 19.0535 8.34106 19.2054C8.64292 19.4675 8.5335 19.4599 11.6276 19.4599C13.1595 19.4599 14.4123 19.4713 14.4123 19.4903C14.4123 19.5055 14.3443 19.741 14.2575 20.0107C14.1745 20.2842 14.0802 20.5881 14.0462 20.6944C14.0161 20.797 13.8764 21.2528 13.7331 21.701C13.4501 22.6013 13.1029 23.7066 13.0539 23.8851C13.035 23.9459 12.9105 24.3486 12.7784 24.7778C12.5143 25.6173 12.1068 26.9353 11.9974 27.3038C11.9596 27.4291 11.7936 27.9723 11.6238 28.5155C11.2389 29.7386 11.2238 29.807 11.2804 30.0767C11.3974 30.6426 11.9823 30.9541 12.5369 30.7414C12.7747 30.6502 12.8463 30.5819 13.3935 29.9247C13.635 29.6322 14.2915 28.846 14.8462 28.1774C15.4046 27.5089 16.1857 26.5669 16.5857 26.0883C18.1176 24.2422 20.1137 21.8454 20.5815 21.2832C20.8532 20.9603 21.4305 20.2652 21.8645 19.7448C22.2984 19.2206 22.8229 18.5901 23.0342 18.3432C23.2417 18.0925 23.7247 17.5113 24.1096 17.0517C26.0339 14.746 26 14.7916 26 14.3927C26 14.0471 25.8928 13.766 25.5646 13.5723C25.5646 13.5723 25.3948 13.4663 25.2816 13.4659C25.1684 13.4655 22.77 13.4659 22.77 13.4659C21.3588 13.4621 19.9816 13.4545 19.7099 13.4469L19.2156 13.4393L19.7024 12.2808C19.9703 11.6426 20.2797 10.9095 20.3929 10.6474C20.5023 10.3853 20.7023 9.90672 20.8381 9.58385C21.5135 7.9695 21.9512 6.92491 22.1927 6.35514C22.6267 5.33715 22.7134 5.08645 22.7134 4.87373C22.7134 4.52807 22.5686 4.22799 22.2441 4.07605C22.2441 4.07605 22.0971 4.00008 22.0154 4.00008C21.2819 4.00008 19.6194 4.00388 19.6194 4.00388C17.3101 4.00388 17.2158 4.00768 16.9781 4.08365Z"
        fill="#00BEE4" />
</svg>