<svg xmlns="http://www.w3.org/2000/svg" width="34" height="34" viewBox="0 0 34 34" fill="none">
    <path
        d="M16.8231 4.02905C16.657 4.09265 16.4804 4.26932 16.3708 4.4884C15.968 5.28343 14.6783 7.50246 13.9751 8.61551C13.8444 8.81691 13.6571 9.11373 13.5546 9.27627C13.4557 9.43881 12.7419 10.5201 11.9752 11.679C10.1696 14.4104 9.81974 14.9652 9.26145 16.0323C8.67136 17.1559 8.28975 18.216 8.08127 19.3078C8.0106 19.6753 8 19.8378 8 20.6788C8 21.7389 8.0318 22.0109 8.24734 22.859C8.74556 24.8165 9.92575 26.5409 11.5688 27.714C12.749 28.5585 14.1023 29.092 15.597 29.304C16.0599 29.3676 17.4485 29.3924 17.9786 29.3429C20.0704 29.1521 21.8972 28.3288 23.3636 26.9189C24.7416 25.5939 25.5473 24.0745 25.9042 22.1311C25.996 21.6364 26.0314 20.2336 25.9678 19.7106C25.8794 18.9863 25.6568 18.1594 25.3423 17.3609C25.1515 16.8874 24.5614 15.6789 24.3035 15.2479C23.8265 14.4422 23.2929 13.6083 22.3565 12.1985C20.77 9.80276 20.3707 9.1844 19.3425 7.51659C19.0209 6.99364 18.2047 5.56964 17.8584 4.91948C17.7665 4.74281 17.6358 4.51313 17.5722 4.40359C17.3779 4.07852 17.0846 3.93364 16.8231 4.02905Z"
        fill="#00BEE4" />
</svg>