<svg xmlns="http://www.w3.org/2000/svg" width="34" height="34" viewBox="0 0 34 34" fill="none">
    <path fill-rule="evenodd" clip-rule="evenodd"
        d="M7.14668 8.00094C11.0052 7.99706 10.9427 7.99314 11.3889 8.2529C11.7088 8.44292 11.9062 8.64531 12.2853 9.1611C12.4631 9.40548 12.8034 9.86666 13.0363 10.1884C13.273 10.5061 13.4897 10.8005 13.5256 10.8359C13.5809 10.9018 13.8971 10.9062 19.0988 10.9062C23.6422 10.9062 24.6469 10.9173 24.8137 10.9599C25.4733 11.1306 26.0108 11.6778 26.1965 12.3603C26.2754 12.6529 26.2755 25.298 26.1965 25.5849C26.0108 26.2712 25.3747 26.8523 24.6916 26.9609C24.5415 26.9842 20.6906 27 14.1066 27C2.85633 27 3.47729 27.0118 3.02363 26.7832C2.76309 26.6553 2.37207 26.2715 2.22968 26.0078C1.9848 25.5618 2.00019 26.1004 2.00019 17.4795C2.00019 8.85835 1.9888 9.37009 2.22578 8.96676C2.49041 8.52474 3.03123 8.12924 3.50117 8.04001C3.59991 8.02062 5.23905 8.00482 7.14668 8.00094ZM13.9797 8.09469C18.8753 7.70111 22.1035 8.61091 23.7209 9.43551C24.055 9.60601 23.9213 10.0215 23.5461 10.0215H14.7512C14.6145 10.0213 14.4868 9.95151 14.4123 9.83688L13.6809 8.70993C13.5161 8.45631 13.6783 8.11912 13.9797 8.09469Z"
        fill="#00BEE4" />
</svg>