<svg width="131" height="64" viewBox="0 0 131 64" fill="none" xmlns="http://www.w3.org/2000/svg">
<g clip-path="url(#clip0_4006_1247)">
<mask id="mask0_4006_1247" style="mask-type:luminance" maskUnits="userSpaceOnUse" x="-551" y="-148" width="1241" height="1243">
<path d="M-550.495 1094.62H689.9V-147.923H-550.495V1094.62Z" fill="white"/>
</mask>
<g mask="url(#mask0_4006_1247)">
<path d="M67.9755 55.4857C65.4437 55.3167 62.5244 54.8721 60.2219 54.2041C59.7906 54.0789 58.0048 53.4213 57.5506 53.2126C49.5345 49.493 43.9501 41.3732 43.9501 31.953C43.9501 19.0324 54.4437 8.508 67.3504 8.508C80.1424 8.508 90.5652 18.8529 90.7444 31.6274H99.1981C99.0189 14.1856 84.8058 0.0500856 67.3504 0.0500856C49.7908 0.0500856 35.4984 14.3588 35.4984 31.953C35.4984 44.0826 42.3081 54.632 52.2787 60.0215C54.0791 60.9754 56.6629 61.9586 57.5402 62.2278C60.3824 63.0753 63.8705 63.6389 66.9753 63.8748C68.0297 63.9541 71.7116 63.9958 72.7847 64H131V55.565H72.8827C72.1096 55.565 68.7319 55.5358 67.9755 55.4857ZM72.8827 42.2415C72.268 42.2415 69.0528 42.2207 68.4589 42.1706C67.4525 42.085 65.9939 41.9347 65.0562 41.7197C63.9976 41.4358 63.0037 41.0601 62.5557 40.8138C59.4155 39.1126 57.2755 35.7854 57.2755 31.953C57.2755 26.3777 61.7826 21.8566 67.3504 21.8566C72.8014 21.8566 77.2335 26.2003 77.4106 31.6274H85.533C85.3621 21.7125 77.2939 13.7222 67.3504 13.7222C57.2964 13.7222 49.1469 21.8837 49.1469 31.953C49.1469 39.0542 53.2102 45.1868 59.128 48.1905C60.0385 48.7248 61.7514 49.2842 62.239 49.4116C63.9101 49.852 66.1543 50.1526 67.9755 50.2862C68.6485 50.3425 71.945 50.3676 72.641 50.3717V50.3843H130.998V42.2415H72.8827ZM30.2891 63.9687H21.7792V8.52679H9.34345V-1.09297e-05H30.2891V63.9687ZM0 12.7871V20.9861H9.34345V63.9687H17.52V12.7871H0Z" fill="#D91920"/>
<path d="M115.963 0.595207C112.898 0.595207 110.355 3.04366 110.355 6.11623C110.355 9.18879 112.898 11.7354 115.963 11.7354C119.122 11.7354 121.566 9.18879 121.566 6.11623C121.566 3.04366 119.122 0.595207 115.963 0.595207ZM115.963 10.8294C113.431 10.8294 111.249 8.83603 111.249 6.11623C111.249 3.53418 113.431 1.49068 115.963 1.49068C118.492 1.49068 120.664 3.53418 120.664 6.11623C120.664 8.83603 118.492 10.8294 115.963 10.8294Z" fill="#D91920"/>
<path d="M118.098 7.62983C118.098 7.00989 118.007 6.43379 117.298 6.20627C118.186 5.89734 118.273 5.31497 118.273 4.96221C118.273 3.53655 116.981 3.35496 116.45 3.35496H114.006V8.87598H115.025V6.61121H115.827C116.981 6.61121 117.077 7.14348 117.077 7.62983C117.077 8.57122 117.077 8.74865 117.298 8.87598H118.319C118.098 8.65263 118.186 8.47938 118.098 7.62983ZM116.227 5.8055H115.025V4.06674H116.054C116.767 4.06674 117.25 4.29217 117.25 4.96221C117.25 5.31497 117.077 5.8055 116.227 5.8055Z" fill="#D91920"/>
</g>
</g>
<defs>
<clipPath id="clip0_4006_1247">
<rect width="131" height="64" fill="white"/>
</clipPath>
</defs>
</svg>
