<svg width="390" height="64" viewBox="0 0 390 64" fill="none" xmlns="http://www.w3.org/2000/svg">
<path d="M194.939 11.7107C192.835 11.9827 190.587 12.6556 188.84 13.529C186.292 14.8032 184.216 16.7217 183.214 18.7117C182.469 20.215 182.197 21.2601 182.097 23.0068C181.911 26.1279 182.927 28.7909 185.103 30.9527C187.136 32.9857 190.043 34.4318 193.636 35.2192C194.939 35.4912 195.598 35.5055 207.882 35.5914C220.681 35.6917 220.767 35.6917 221.712 36.0066C223.487 36.5936 224.246 37.4383 224.089 38.6266C223.945 39.6861 222.771 40.5451 220.882 40.9889C220.023 41.1894 216.816 41.2323 193.35 41.3039L166.792 41.4041V46.5582V51.7123L192.777 51.7553C210.573 51.7839 219.393 51.7553 220.781 51.6408C226.021 51.2399 230.202 49.4359 233.037 46.3435C235.241 43.9525 236.115 41.4328 235.972 37.8965C235.843 34.7038 234.841 32.3987 232.593 30.151C230.76 28.3041 228.813 27.1301 226.093 26.2281C223.086 25.2259 223.387 25.2546 209.743 25.1687C200.695 25.0971 197.33 25.0398 197.058 24.911C196.5 24.6676 196.213 24.1808 196.213 23.5079C196.213 22.8493 196.543 22.4341 197.259 22.1621C197.531 22.0476 202.241 22.0046 212.177 22.0046H226.694L227.195 21.389C228.756 19.5135 234.683 11.7537 234.626 11.6535C234.54 11.5103 196.085 11.5532 194.939 11.7107Z" fill="#B9BBCB"/>
<path d="M258.994 11.7246C254.728 12.1971 250.662 13.5858 247.498 15.6475C243.231 18.4249 240.611 21.9183 239.409 26.4138C238.979 28.0316 238.965 28.1891 238.965 31.1671C238.965 34.6031 239.122 35.6483 240.053 38.1394C242.301 44.0953 248.199 49.006 255.286 50.7956C258.751 51.669 259.409 51.7119 269.159 51.7119C276.991 51.7119 278.236 51.6833 279.74 51.4542C285.667 50.5522 290.005 48.4763 293.799 44.6966C297.478 41.0458 299.139 37.3663 299.382 32.2408C299.654 26.7574 297.936 22.1044 294.314 18.4679C292.639 16.8071 290.778 15.49 288.487 14.3446C285.61 12.9272 282.646 12.0968 279.081 11.7103C277.377 11.5242 260.655 11.5385 258.994 11.7246ZM278.895 22.4051C279.525 22.5769 280.713 23.0493 281.544 23.4502C282.832 24.0945 283.219 24.3665 284.264 25.4259C286.182 27.3587 286.912 29.1197 286.898 31.8113C286.898 33.3576 286.655 34.417 286.025 35.6769C284.851 38.0535 282.274 39.9577 279.11 40.7881C277.907 41.1174 277.778 41.1174 269.231 41.1174C261.17 41.1174 260.498 41.103 259.495 40.8453C255.329 39.7716 252.48 37.2231 251.678 33.8014C251.363 32.4699 251.478 30.0074 251.893 28.8191C252.723 26.4997 254.47 24.5956 256.918 23.3643C259.51 22.0758 260.097 22.0185 269.66 22.0615C277.478 22.0901 277.792 22.1044 278.895 22.4051Z" fill="#B9BBCB"/>
<path d="M301.332 12.0473C301.29 12.146 301.275 21.0378 301.29 31.8179L301.332 51.4053H307.548H313.765L313.836 44.0072L313.907 36.6091L324.41 36.5386L334.913 36.4681L338.8 31.5361C340.929 28.8164 342.687 26.5195 342.687 26.4349C342.701 26.294 339.686 26.2517 328.311 26.2235L313.907 26.1813V24.2084V22.2356H335.699H357.491L357.563 36.8204L357.634 51.4053H363.85H370.066L370.138 36.8204L370.209 22.2356L376.168 22.1651L382.127 22.0947L386.056 17.1062C388.228 14.3584 390 12.0614 390 11.991C390 11.9346 370.066 11.8782 345.702 11.8782C310.392 11.8782 301.375 11.9205 301.332 12.0473Z" fill="#B9BBCB"/>
<path d="M126.262 11.195C124.257 11.6245 122.153 13.2136 121.336 14.903C120.821 15.9768 110.413 51.5115 110.57 51.669C110.642 51.7406 113.748 51.7693 117.471 51.7549L124.257 51.712L126.82 41.3608C128.237 35.6627 129.44 31.024 129.511 31.0526C129.583 31.0812 132.146 35.1186 135.224 40.0437C141.037 49.3497 141.495 49.9939 142.984 50.8959C146.334 52.9003 150.357 52.4708 152.676 49.8365C153.02 49.4499 155.826 45.0832 158.904 40.1152C161.997 35.1472 164.574 31.0955 164.645 31.0955C164.717 31.0955 165.161 32.6847 165.648 34.6175C166.134 36.5503 166.578 38.2111 166.635 38.297C166.793 38.569 179.592 38.5404 179.692 38.2827C179.807 37.9677 173.336 15.9052 172.835 14.9174C171.89 13.0275 169.642 11.4383 167.437 11.109C164.688 10.6939 162.297 11.696 160.45 14.044C160.007 14.6024 156.828 19.6276 153.407 25.1969C149.985 30.7663 147.121 35.3047 147.05 35.2761C146.993 35.2475 144.172 30.7376 140.793 25.2542C137.429 19.7565 134.437 14.946 134.15 14.5738C133.348 13.4714 131.817 12.1256 130.872 11.6817C129.368 10.9802 127.937 10.8227 126.262 11.195Z" fill="#EB6011"/>
<path d="M4.19487 16.4635C1.93279 19.2697 0.0572679 21.632 0.0429509 21.7465C0 21.904 3.207 21.9469 18.3257 22.0042L36.6515 22.0758L37.4675 22.4051C39.114 23.078 39.658 24.3951 38.6988 25.3544C38.4411 25.6121 37.8398 25.9843 37.3673 26.1704L36.5083 26.514L18.2541 26.5856L0 26.6572V39.113V51.5687L17.6815 51.6117C36.4367 51.6546 37.0237 51.6403 40.2021 50.9817C46.9597 49.5644 51.8131 45.8563 52.9871 41.1889C53.345 39.7859 53.2162 37.2804 52.7151 35.9776C52.257 34.8179 51.2977 33.3289 50.4816 32.5272C50.1524 32.2265 49.8947 31.9115 49.8947 31.84C49.8947 31.7684 50.2383 31.3389 50.6535 30.8807C51.5697 29.8642 52.2426 28.7475 52.7294 27.4733C53.0587 26.6286 53.1017 26.2993 53.1017 24.5812C53.116 23.5218 53.0873 22.448 53.0444 22.2189L52.9728 21.7894H74.2335C94.6925 21.7894 95.5228 21.8038 96.2816 22.0615C97.8708 22.6055 99.0591 23.5791 99.5316 24.7101C100.018 25.8555 99.6748 27.7883 98.8157 28.7045C98.3003 29.2629 97.3268 29.8928 96.4534 30.2221C95.6374 30.5228 95.6087 30.5228 77.4548 30.5944L59.2723 30.666V41.1889V51.7119H65.5002H71.728L71.7996 46.343L71.8712 40.9742L83.6111 40.8883C93.7619 40.8167 95.5658 40.7737 96.9259 40.559C103.97 39.4566 109.167 36.1207 111.343 31.3532C112.603 28.5471 112.675 24.2663 111.501 21.317C109.883 17.2653 105.487 13.8865 99.9754 12.4261C96.6253 11.5385 99.0019 11.5814 51.6127 11.4812L8.30384 11.3953L4.19487 16.4635ZM37.8111 37.4522C39.8298 37.8674 40.5886 38.3542 40.5886 39.2275C40.5886 40.0149 39.0424 40.7451 36.6944 41.0458C35.907 41.146 31.6119 41.1889 24.0525 41.1603L12.5989 41.1174L12.556 39.342C12.5417 38.3542 12.556 37.4665 12.5846 37.3663C12.6419 37.2088 14.904 37.1802 24.5822 37.1802C35.6636 37.1802 36.5942 37.2088 37.8111 37.4522Z" fill="#EB6011"/>
</svg>
