<svg xmlns="http://www.w3.org/2000/svg" width="34" height="34" viewBox="0 0 34 34" fill="none">
    <path
        d="M19.9512 4.12916C19.6649 4.11214 19.5189 4.14124 19.3269 4.25889C19.1864 4.34644 19.0745 4.48918 18.5007 5.33923C18.1348 5.87989 17.8109 6.35188 17.774 6.38814C17.7325 6.4354 17.648 6.45159 17.5294 6.43614C17.093 6.3861 16.1582 6.37205 15.6435 6.40553C15.3329 6.42573 15.0573 6.43476 15.0316 6.42395C14.9876 6.40542 14.6713 5.92695 14.0432 4.92874C13.7136 4.41014 13.6259 4.32139 13.3363 4.19942C12.9463 4.03944 12.8425 4.06045 11.5001 4.60403C10.137 5.1561 10.0204 5.22784 9.85832 5.61267C9.74562 5.88021 9.73768 6.03222 9.81613 6.38892C9.97362 7.1112 10.2045 8.30457 10.1976 8.36206C10.1947 8.39967 10.0021 8.59043 9.77252 8.78716C9.32008 9.17483 8.82133 9.67245 8.49216 10.0646C8.34185 10.2472 8.26912 10.3072 8.20797 10.2987C8.16302 10.2927 7.61923 10.1802 7.00117 10.0493C5.72377 9.78304 5.59317 9.7755 5.26615 10.0089L5.08055 10.1421L4.48597 11.5229L3.89138 12.9036L3.9089 13.1181C3.92121 13.3348 3.97327 13.4775 4.09709 13.6548C4.16401 13.7521 4.63292 14.0834 5.7073 14.7906C6.00145 14.9835 6.24218 15.1497 6.24275 15.1585C6.23967 15.1659 6.21898 15.4506 6.19345 15.798C6.16291 16.1778 6.16359 16.7089 6.19091 17.1563L6.2367 17.8876L5.28479 18.4878C4.76253 18.8158 4.27885 19.1342 4.20766 19.1906C4.03363 19.3373 3.88908 19.6907 3.89231 19.9596C3.89692 20.1126 4.02186 20.4716 4.37724 21.3593C4.64084 22.014 4.91254 22.6291 4.98101 22.7227C5.09056 22.8724 5.1409 22.9065 5.41944 23.0239C5.78594 23.1783 5.63354 23.1917 7.18092 22.8683L8.19218 22.6599L8.56249 23.0921C8.94804 23.5393 9.47247 24.0666 9.86884 24.4062L10.0972 24.6017L10.0478 24.8829C10.0169 25.0382 9.90588 25.5784 9.79622 26.0845C9.69177 26.5886 9.60855 27.0627 9.61162 27.1374C9.6301 27.3394 9.76451 27.6247 9.90898 27.7632C10.0156 27.8686 10.2267 27.9618 11.3989 28.447L12.7632 29.0088L12.9891 28.9745C13.3914 28.9109 13.4697 28.8273 14.2406 27.6633L14.9225 26.6387L15.1054 26.6553C15.6133 26.7096 16.5016 26.7213 17.0466 26.6876L17.6589 26.6478L18.0676 27.286C18.2901 27.6387 18.5717 28.0766 18.6872 28.2634C18.9514 28.6811 19.0639 28.7932 19.3094 28.8966C19.7089 29.0649 19.7705 29.052 21.1618 28.4945C22.1469 28.1025 22.4739 27.9511 22.5918 27.8454C22.7864 27.6599 22.9223 27.3374 22.9129 27.0831C22.9096 26.9782 22.8042 26.3987 22.6793 25.7937L22.4526 24.6927L22.8132 24.4001C23.2481 24.0439 23.7158 23.5893 24.0855 23.1624C24.2364 22.9887 24.3868 22.8363 24.4254 22.8266C24.4603 22.8155 24.6187 22.839 24.7761 22.8751C24.9335 22.9112 25.4575 23.0197 25.938 23.1186C26.9351 23.3228 27.1006 23.3192 27.4126 23.1011L27.5982 22.9678L28.1897 21.5944L28.7812 20.221L28.7635 19.9762C28.7408 19.6818 28.5803 19.4071 28.3176 19.2317C28.2227 19.1701 27.7717 18.8679 27.3171 18.5642C26.8624 18.2605 26.4811 17.9877 26.4684 17.9564C26.4557 17.9252 26.4619 17.6646 26.4804 17.3746C26.5197 16.7999 26.5204 16.3169 26.4784 15.6994C26.464 15.4775 26.4596 15.2729 26.4688 15.2509C26.4781 15.2289 26.9217 14.9238 27.4553 14.579C27.9905 14.2305 28.4715 13.898 28.5228 13.8376C28.654 13.69 28.743 13.4686 28.7737 13.201C28.7959 12.9946 28.766 12.8914 28.3079 11.7663C28.0416 11.0974 27.7662 10.4809 27.6998 10.3925C27.5471 10.1814 27.1542 9.97706 26.9098 9.97336C26.8226 9.97546 26.4751 10.0319 26.1429 10.1034C25.2339 10.2945 24.5386 10.4288 24.502 10.4134C24.4837 10.4056 24.2671 10.172 24.0188 9.89049C23.6071 9.42359 22.7513 8.59702 22.6303 8.54607C22.5607 8.51674 22.5541 8.55281 22.8275 7.24821C22.9599 6.62649 23.0665 6.04566 23.0644 5.95847C23.0616 5.75012 22.9784 5.56839 22.7981 5.37159C22.6525 5.21531 22.6174 5.19621 21.4074 4.67785C20.2963 4.20118 20.1445 4.14154 19.9512 4.12916ZM19.5511 12.0347C20.3815 12.6348 21.0004 13.409 21.4057 14.3522C21.862 15.4204 21.981 16.5106 21.7626 17.6744C21.6636 18.2066 21.2131 19.2554 20.8849 19.7169C20.5681 20.1617 20.3149 20.4348 19.8942 20.7884C18.5507 21.9184 16.6823 22.3483 14.9862 21.9186C14.2252 21.7275 13.2702 21.2389 12.7446 20.7758C12.4516 20.5186 11.9146 19.9083 11.7243 19.6124C10.8718 18.3168 10.5989 16.7519 10.9572 15.2458C11.0875 14.7008 11.494 13.7975 11.8046 13.3673C13.0214 11.6877 15.0118 10.8043 17.0134 11.052C17.5793 11.1221 17.9136 11.2198 18.6059 11.533C19.0924 11.7508 19.3324 11.8778 19.5511 12.0347Z"
        fill="#00BEE4" />
</svg>