<svg xmlns="http://www.w3.org/2000/svg" width="34" height="34" viewBox="0 0 34 34" fill="none">
    <path
        d="M10.4453 27.3179C12.2236 27.3179 12.7649 27.3004 13.4004 27.2134C13.8616 27.1514 14.3887 27.0592 14.8994 26.9575C14.0498 26.4152 13.3069 25.7093 12.7109 24.8823C10.7809 25.0429 8.65002 25 6.82227 24.7358C4.73175 24.4283 2.90822 23.772 2.23926 23.0757L2 22.8267V23.8999C2 25.124 2.01676 25.1882 2.43457 25.5825C3.12583 26.244 4.99399 26.8533 7.32422 27.1841C8.17685 27.3001 8.49474 27.3179 10.4453 27.3179ZM14.1279 24.7437C14.2013 24.8249 14.2765 24.9044 14.3535 24.9819C14.2765 24.9044 14.2013 24.8249 14.1279 24.7437ZM14.4209 25.0493C14.4876 25.1146 14.5558 25.1783 14.625 25.2407C14.5558 25.1783 14.4876 25.1146 14.4209 25.0493ZM14.9658 25.5298C15.0725 25.614 15.1814 25.6954 15.293 25.7729C15.1814 25.6954 15.0725 25.614 14.9658 25.5298ZM15.3281 25.7954C15.4115 25.8526 15.4961 25.9081 15.582 25.9614C15.4961 25.908 15.4115 25.8526 15.3281 25.7954ZM15.7129 26.0405C15.7789 26.0794 15.8457 26.1172 15.9131 26.1538C15.8457 26.1172 15.7789 26.0795 15.7129 26.0405ZM16.0225 26.2124C16.098 26.2516 16.1748 26.2884 16.252 26.3247C16.1748 26.2884 16.098 26.2516 16.0225 26.2124ZM16.7021 26.5181C16.5897 26.4752 16.4787 26.4293 16.3691 26.3804C16.4787 26.4292 16.5897 26.4752 16.7021 26.5181ZM14.7002 25.3081C14.787 25.3841 14.8753 25.4584 14.9658 25.5298C14.8753 25.4583 14.787 25.3841 14.7002 25.3081Z"
        fill="#00BEE4" />
    <path
        d="M8.43879 6.03339C6.37057 6.21908 4.30793 6.6891 3.25988 7.21135C2.70799 7.48408 2.23414 7.87286 2.11149 8.1572C2.01672 8.3661 2 8.54018 2 9.33516V10.2694L2.17282 10.5363C2.47385 11.0122 3.26546 11.4764 4.3581 11.8187C6.14758 12.3816 7.90362 12.6079 10.507 12.6079C12.7815 12.6079 14.3201 12.4338 15.9647 11.9986C17.598 11.5634 18.6851 10.9657 18.9248 10.3622C19.0363 10.0953 19.0307 8.42412 18.9248 8.20942C18.8133 7.98892 18.4175 7.61174 18.083 7.40864C17.0963 6.79935 15.0615 6.2771 12.9264 6.07981C12.0958 6.00437 9.11891 5.96956 8.43879 6.03339Z"
        fill="#00BEE4" />
    <circle cx="19.3103" cy="20.0424" r="6.68965" fill="#00BEE4" />
    <path
        d="M2.31738 12.0847C3.19261 12.9145 5.23361 13.5417 8.04883 13.8376C9.1304 13.9479 12.0672 13.9302 13.1211 13.8083C13.4133 13.7732 13.6962 13.7349 13.9688 13.6941C13.1553 14.4011 12.4826 15.2766 11.9971 16.2683C11.3021 16.3078 10.5849 16.3219 9.86035 16.3035C6.37641 16.2106 3.50009 15.5261 2.44629 14.5398C2.02276 14.1453 2 14.0637 2 12.8337V11.783L2.31738 12.0847ZM18.9746 11.7957C18.9645 11.7957 18.9544 11.7966 18.9443 11.7966L18.9746 11.7664V11.7957Z"
        fill="#00BEE4" />
    <path
        d="M2.30078 15.7178C3.14256 16.565 5.26156 17.2332 7.99316 17.5117C8.67698 17.58 10.1794 17.5947 11.4902 17.5645C11.2644 18.3272 11.1426 19.1377 11.1426 19.9775C11.1426 19.9804 11.1426 19.9835 11.1426 19.9863C7.01432 20.0837 3.01807 19.2345 2.17285 17.9062L2 17.6387V15.416L2.30078 15.7178Z"
        fill="#00BEE4" />
    <path
        d="M2.3125 19.4438C3.17127 20.2851 5.36794 20.929 8.2998 21.2017C8.91764 21.259 10.1825 21.2786 11.2393 21.2603C11.3667 22.1022 11.6184 22.9012 11.9727 23.6372C10.7506 23.6744 8.88047 23.6582 8.1875 23.5874C5.32255 23.2799 3.27105 22.6814 2.45703 21.9214C2.02242 21.5154 2.00001 21.4332 2 20.1978V19.1304L2.3125 19.4438Z"
        fill="#00BEE4" />
</svg>