<svg xmlns="http://www.w3.org/2000/svg" width="34" height="34" viewBox="0 0 34 34" fill="none">
    <path
        d="M21.9326 6.89542C21.9456 8.74326 21.9456 8.77796 22.0453 9.02086C22.1625 9.31149 22.4574 9.65416 22.7177 9.80598C23.1211 10.0445 23.2208 10.0532 25.1641 10.0532C26.1488 10.0532 26.9556 10.0402 26.9556 10.0272C26.9556 9.9925 22.1625 5.19507 22.028 5.0953L21.9196 5.01289L21.9326 6.89542Z"
        fill="#00BEE4" />
    <path fill-rule="evenodd" clip-rule="evenodd"
        d="M20.8051 7.02539C20.8051 7.02539 20.7864 8.86447 20.8178 9.05566C20.8491 9.24667 20.8828 9.31566 20.9262 9.40234C20.9695 9.48909 21.3205 10.1186 21.6762 10.4482C22.0188 10.7649 22.596 11.0729 22.9994 11.1553C23.1425 11.1856 23.932 11.2031 25.1117 11.2031H26.9984V19.2578C26.9984 26.1807 26.9904 27.3608 26.934 27.6211C26.7387 28.5406 25.9923 29.2951 25.0814 29.4902C24.6549 29.5813 10.3681 29.5774 9.93006 29.4863C9.0019 29.2912 8.19485 28.4452 8.04725 27.5127C8.01689 27.3218 8.00038 23.9686 8.00038 17.2627C8.00038 6.16711 7.97866 6.93048 8.2953 6.32324C8.4644 6.00239 8.86701 5.55983 9.1576 5.38184C9.43087 5.21267 9.74839 5.0908 10.0433 5.05176C10.1996 5.03009 12.6527 5.00824 15.556 5.00391L20.7914 5L20.8051 7.02539ZM11.9252 21.418C11.3863 21.418 10.9498 21.8547 10.9496 22.3936C10.9496 22.9326 11.3862 23.3701 11.9252 23.3701H18.3012C18.8402 23.3701 19.2777 22.9326 19.2777 22.3936C19.2775 21.8547 18.84 21.418 18.3012 21.418H11.9252ZM11.9252 17.8174C11.3862 17.8174 10.9496 18.2549 10.9496 18.7939C10.9497 19.3328 11.3863 19.7695 11.9252 19.7695H23.0726C23.6116 19.7695 24.0491 19.3328 24.0492 18.7939C24.0492 18.2549 23.6117 17.8174 23.0726 17.8174H11.9252ZM11.9252 14.2178C11.3862 14.2178 10.9497 14.6544 10.9496 15.1934C10.9496 15.7324 11.3862 16.1699 11.9252 16.1699H23.0726C23.6117 16.1699 24.0492 15.7324 24.0492 15.1934C24.0491 14.6544 23.6116 14.2178 23.0726 14.2178H11.9252Z"
        fill="#00BEE4" />
</svg>