<svg xmlns="http://www.w3.org/2000/svg" width="34" height="34" viewBox="0 0 34 34" fill="none">
    <path
        d="M24.9906 15.0833C26.0714 14.9447 26.7401 15.1669 27.4699 15.95C28.052 16.5077 28.0542 17.9338 27.5388 18.5196C25.4383 20.8986 23.0623 23.0651 20.8474 25.3426C19.8277 26.3913 19.2634 26.7829 17.795 27.0168C15.9944 27.3034 14.1183 27.4198 12.3355 27.7616C10.5315 26.1766 7.85009 23.3087 6.07727 21.5305L7.6046 19.9831C8.11334 19.4705 9.22748 18.2619 9.95282 18.1878C12.5676 17.9685 15.4679 18.019 18.0893 18.119C19.6789 18.1796 20.4353 20.0302 19.7966 21.3895C18.798 23.5135 14.1449 21.8915 13.5096 23.019L13.6051 23.2835C13.9394 23.487 14.2715 23.5528 14.6637 23.5859C17.9749 23.8658 21.9171 23.503 20.7896 18.9246C21.8182 17.8976 23.8443 15.6213 24.9906 15.0833Z"
        fill="#00BEE4" />
    <path
        d="M4.68487 22.0706C4.74041 22.0734 4.79372 22.0776 4.84815 22.088C5.63681 22.2399 10.0422 26.7312 10.602 27.5825C10.7631 27.8268 10.9219 28.0478 10.8486 28.3537C10.642 29.2098 9.00695 30.6095 8.26383 31.0837C7.06196 31.0348 2.96648 26.4113 2.09007 25.3068C1.49358 24.5535 4.03061 22.3892 4.68487 22.0706Z"
        fill="#00BEE4" />
    <path
        d="M19 2C20.6569 2 22 3.34315 22 5V14C22 15.6569 20.6569 17 19 17H10C8.34315 17 7 15.6569 7 14V5C7 3.34315 8.34315 2 10 2H11V6C11 6.55228 11.4477 7 12 7H18C18.5523 7 19 6.55228 19 6V2Z"
        fill="#00BEE4" />
    <path d="M12 2H18V5C18 5.55228 17.5523 6 17 6H13C12.4477 6 12 5.55228 12 5V2Z" fill="#00BEE4" />
</svg>