<svg width="34" height="34" viewBox="0 0 34 34" preserveAspectRatio="xMidYMid meet" fill="none" xmlns="http://www.w3.org/2000/svg">
<g id="Frame 2131328869">
<path id="Vector" d="M15.75 2.00688C12.5778 2.19161 9.69803 3.46831 7.54338 5.64404C5.8625 7.34357 4.81608 9.26068 4.34642 11.5308C4.19399 12.2657 4.07452 13.296 4.0704 13.9077V14.154L3.80261 14.31C3.09813 14.7205 2.5901 15.6246 2.31537 16.3298C2.10329 16.8741 2.01774 17.6092 2.00135 18.4435C1.98245 19.4052 2.16624 20.4926 2.31537 20.8865C2.62552 21.7057 2.98277 22.3397 3.53482 22.7707C4.07864 23.1936 4.88199 23.5343 5.67711 23.678C6.18797 23.7724 8.07071 23.8134 8.45385 23.7396C9.24897 23.5877 9.89577 22.9432 10.04 22.1632C10.1018 21.8225 10.1018 15.0818 10.04 14.7821C9.92873 14.2608 9.51263 13.686 9.07594 13.4644C8.65984 13.255 8.49093 13.2304 7.54338 13.2304C6.7359 13.2304 6.66586 13.2263 6.66586 13.1565C6.66586 12.9964 6.80181 12.2739 6.91717 11.7936C7.23027 10.5251 7.86884 9.24016 8.70104 8.20155C9.03062 7.79514 9.75158 7.07674 10.1883 6.7237C11.5849 5.59888 13.1669 4.92564 15.1114 4.62186C15.7665 4.51923 17.2084 4.52333 17.8717 4.62596C20.3353 5.00774 22.4488 6.21056 24.006 8.11124C25.0442 9.37973 25.7899 11.0587 26.0289 12.6556C26.0536 12.824 26.0824 13.0251 26.0948 13.0949L26.1154 13.2304H25.2379C24.6281 13.2304 24.2944 13.2468 24.1502 13.2878C23.4746 13.4685 22.9308 14.0103 22.7495 14.6877C22.663 15.0079 22.6671 21.9004 22.7536 22.233C22.8484 22.6024 23.0503 22.9596 23.3057 23.2059C23.7424 23.6287 24.1667 23.7806 24.9289 23.7806H25.3779L25.2832 23.9325C24.4675 25.2954 23.1121 26.371 21.5589 26.8964C21.2417 27.0032 20.2364 27.2289 20.0799 27.2289C20.0511 27.2289 19.9563 27.1181 19.8739 26.9867C19.5896 26.527 19.1406 26.215 18.5926 26.1C18.1807 26.0138 15.3833 26.0138 14.9755 26.1C14.3204 26.2355 13.7725 26.724 13.5418 27.3726C13.4182 27.7216 13.3852 28.6124 13.48 29.0434C13.6407 29.7577 14.2174 30.353 14.9096 30.509C15.2021 30.5787 18.3784 30.5664 18.6421 30.4966C19.0005 30.4022 19.2395 30.2585 19.5402 29.9589C19.7627 29.7372 20.014 29.38 20.0346 29.2528C20.0387 29.2487 20.2406 29.2158 20.4877 29.1789C21.4724 29.0352 22.3087 28.7766 23.2068 28.3373C24.2162 27.8447 24.966 27.3028 25.7611 26.4859C26.5974 25.6279 27.2195 24.6796 27.6603 23.6L27.7921 23.2716L28.13 23.1854C28.7026 23.0335 29.0726 22.7874 29.5554 22.3643C30.1941 21.8046 30.4445 21.3439 30.7622 20.5577C31.1062 19.7065 31.0953 17.3693 30.7622 16.5643C30.4292 15.7592 29.8067 14.856 29.0693 14.3798L28.7191 14.154L28.6902 13.6409C28.5255 10.6318 27.4914 8.13177 25.4974 5.93551C23.6188 3.86651 20.8173 2.44613 17.8964 2.08487C17.4103 2.0274 16.1908 1.98225 15.75 2.00688Z" fill="var(--fill-0, #00BEE4)"/>
</g>
</svg>
