<svg xmlns="http://www.w3.org/2000/svg" width="34" height="34" viewBox="0 0 34 34" fill="none">
    <path
        d="M26.3418 12.7798C27.261 12.7798 28.0066 13.5247 28.0068 14.4438V27.1909C28.0068 28.1102 27.2611 28.856 26.3418 28.856H4.66504C3.7457 28.856 3.00005 28.1102 3 27.1909V14.4438C3.00026 13.5247 3.74583 12.7798 4.66504 12.7798H26.3418ZM20.8232 16.9468C20.3303 16.4353 19.5154 16.4207 19.0039 16.9136L14.3975 21.3521L11.918 18.6206C11.4405 18.0947 10.6275 18.0554 10.1016 18.5327C9.5756 19.0103 9.53611 19.8241 10.0137 20.3501L13.3848 24.063C13.6184 24.3202 13.9466 24.4722 14.2939 24.4839C14.6413 24.4954 14.9792 24.3656 15.2295 24.1245L20.7891 18.7651C21.3003 18.2722 21.3159 17.4583 20.8232 16.9468Z"
        fill="#00BEE4" />
    <rect x="4.77399" y="9.26855" width="22.0644" height="1.93707" rx="0.968533" fill="#00BEE4" />
    <rect x="7.28584" y="6" width="17.0401" height="1.69493" rx="0.847466" fill="#00BEE4" />
</svg>