<svg width="34" height="34" viewBox="0 0 34 34" preserveAspectRatio="xMidYMid meet" fill="none" xmlns="http://www.w3.org/2000/svg">
<g id="Frame 2131328869">
<path id="Union" d="M2.72363 10.3018C4.30362 10.2521 6.36299 9.97775 6.67871 12.124C6.8248 13.1185 6.67351 14.2185 6.67871 15.2295C6.68915 17.5688 6.64496 19.9125 6.64844 22.252C6.70409 23.072 6.80098 23.8088 7.76953 23.8154C13.5062 23.8535 19.2457 23.8725 24.9814 23.8018C25.6849 23.7931 26.8428 23.9371 26.9863 24.8174C27.2211 26.2639 24.5134 25.9483 23.6299 25.9365C24.0812 27.1446 23.905 28.1663 22.7217 28.8301C20.9674 29.4745 19.5689 28.3699 19.7324 26.9072C19.7602 26.6581 19.7328 26.4516 20.1035 25.9424C19.4557 25.8268 18.0686 25.9236 17.3711 25.9258L13.2383 25.9375C13.5296 27.035 13.5365 28.0978 12.4277 28.7646C11.9522 29.0495 11.383 29.1331 10.8457 28.9961C10.324 28.8646 9.87603 28.5315 9.59863 28.0703C9.14479 27.2991 9.28591 26.7246 9.48242 25.9385L8.81934 25.9424C7.528 25.9466 6.51458 26.0097 5.50586 25.0049C4.19453 23.6987 4.5549 21.0992 4.55664 19.3213L4.5625 12.3867C3.56855 12.4061 1.99999 12.6347 2 11.0547C2.00195 10.9421 2.00058 10.3245 2.72363 10.3018ZM14.2178 4C15.3222 4.00013 16.2178 4.89551 16.2178 6V20.998C16.2177 22.1025 15.3222 22.9979 14.2178 22.998H10.0137C8.90912 22.998 8.0137 22.1026 8.01367 20.998V6C8.01367 4.89543 8.9091 4 10.0137 4H14.2178ZM23.2852 15.2256C24.3895 15.2258 25.285 16.1212 25.2852 17.2256V20.998C25.2851 22.1024 24.3895 22.9978 23.2852 22.998H19.0811C17.9765 22.998 17.0811 22.1026 17.0811 20.998V17.2256C17.0812 16.1211 17.9766 15.2256 19.0811 15.2256H23.2852ZM20.6943 9.18066C21.7987 9.1808 22.6942 10.0763 22.6943 11.1807V12.3623C22.6943 13.4668 21.7988 14.3622 20.6943 14.3623H19.0811C17.9765 14.3623 17.0811 13.4669 17.0811 12.3623V11.1807C17.0812 10.0762 17.9766 9.18066 19.0811 9.18066H20.6943Z" fill="var(--fill-0, #00BEE4)"/>
</g>
</svg>
