<svg width="34" height="34" viewBox="0 0 34 34" preserveAspectRatio="xMidYMid meet" fill="none" xmlns="http://www.w3.org/2000/svg">
<g id="Frame 2131328869">
<path id="Subtract" d="M29.4111 24.085C29.7364 24.0851 30 24.3486 30 24.6738V25.4727C29.9998 26.4485 29.2083 27.2393 28.2324 27.2393H3.76758C2.79171 27.2393 2.00019 26.4485 2 25.4727V24.6738C2 24.3486 2.26363 24.0851 2.58887 24.085H13.8379C13.8352 24.108 13.8311 24.1315 13.8311 24.1553C13.8312 24.4819 14.0962 24.7461 14.4229 24.7461H17.1836C17.51 24.7458 17.7743 24.4817 17.7744 24.1553C17.7744 24.1314 17.7703 24.1081 17.7676 24.085H29.4111ZM26.2305 7C27.0978 7.00026 27.8008 7.70391 27.8008 8.57129V22.1982C27.8005 22.6317 27.4491 22.9833 27.0156 22.9834H5.10254C4.66895 22.9834 4.31765 22.6318 4.31738 22.1982V8.57129C4.31738 7.70384 5.02029 7.00016 5.8877 7H26.2305ZM20.8242 11.8633C20.4609 11.4864 19.8604 11.4757 19.4834 11.8389L15.2764 15.8926L12.9561 13.3379C12.6041 12.9503 12.0038 12.9206 11.6162 13.2725C11.2287 13.6244 11.1998 14.2247 11.5518 14.6123L14.5293 17.8916C14.7016 18.0811 14.9442 18.1926 15.2002 18.2012C15.4561 18.2095 15.7053 18.1142 15.8896 17.9365L20.7988 13.2041C21.1756 12.8408 21.1872 12.2402 20.8242 11.8633Z" fill="var(--fill-0, #00BEE4)"/>
</g>
</svg>
