<svg width="60" height="60" viewBox="0 0 60 60" fill="none" xmlns="http://www.w3.org/2000/svg">
<g transform="translate(0 0)">
<g id="&#208;&#152;&#208;&#186;&#208;&#190;&#208;&#189;&#208;&#186;&#208;&#176;">
<path id="Union" d="M43.6416 21.9512C44.392 21.9512 45 22.5592 45 23.3096V42.9814C44.9999 43.7318 44.3919 44.3398 43.6416 44.3398H37.3955C36.6452 44.3398 36.0363 43.7318 36.0361 42.9814V23.3096C36.0362 22.5592 36.6451 21.9512 37.3955 21.9512H43.6416ZM21.6055 30.5322C22.3557 30.5324 22.9637 31.1404 22.9639 31.8906V42.9805C22.9636 43.7306 22.3556 44.3387 21.6055 44.3389H15.3584C14.6083 44.3387 14.0002 43.7306 14 42.9805V31.8906C14.0002 31.1405 14.6082 30.5324 15.3584 30.5322H21.6055ZM32.3818 15C33.1319 15.0003 33.74 15.6083 33.7402 16.3584V42.9805C33.74 43.7305 33.1319 44.3386 32.3818 44.3389H26.2422C25.4919 44.3389 24.883 43.7307 24.8828 42.9805V16.3584C24.883 15.6081 25.4919 15 26.2422 15H32.3818Z" fill="var(--fill-0, #00BEE4)"/>
</g>
</g>
</svg>
