<svg width="60" height="60" viewBox="0 0 60 60" fill="none" xmlns="http://www.w3.org/2000/svg">
<g transform="translate(16.49975 12.55105)">
<g id="Group 2131327565">
<path id="Vector" d="M19.8011 2.69439C19.8196 5.32042 19.8196 5.36973 19.9614 5.71493C20.1278 6.12795 20.547 6.61493 20.9168 6.83069C21.4901 7.16973 21.6319 7.18205 24.3936 7.18205C25.7929 7.18205 26.9394 7.16356 26.9394 7.14507C26.9394 7.09575 20.1278 0.277961 19.9367 0.136181L19.7826 0.0190575L19.8011 2.69439Z" fill="var(--fill-0, #00BEE4)"/>
<path id="Subtract" d="M18.1978 2.87891C18.1974 2.91506 18.172 5.49398 18.2163 5.76367C18.261 6.03511 18.308 6.13358 18.3697 6.25684C18.4314 6.38018 18.9316 7.27371 19.437 7.74219C19.924 8.19214 20.7437 8.62991 21.3169 8.74707C21.5203 8.79022 22.6423 8.81445 24.3189 8.81445H27.0005V20.2617C27.0005 30.0969 26.9878 31.7759 26.9077 32.1465C26.6303 33.4533 25.5704 34.5263 24.2759 34.8037C23.6707 34.9332 3.36627 34.9273 2.74368 34.7979C1.42468 34.5204 0.27862 33.3183 0.0688792 31.9932C0.0257291 31.7219 0.000520374 26.9567 0.000519813 17.4268C0.000519813 1.65927 -0.0304472 2.7426 0.419465 1.87988C0.659876 1.42372 1.23399 0.794731 1.647 0.541992C2.03516 0.301777 2.4849 0.129726 2.90384 0.0742188C3.11959 0.0433975 6.60877 0.0120245 10.7388 0.00585938L18.1792 0L18.1978 2.87891ZM5.57864 23.332C4.81264 23.332 4.19193 23.9527 4.19193 24.7188C4.19193 25.4848 4.81264 26.1055 5.57864 26.1055H14.6402C15.4062 26.1054 16.0269 25.4847 16.0269 24.7188C16.0269 23.9528 15.4062 23.3321 14.6402 23.332H5.57864ZM5.57864 18.2158C4.81264 18.2158 4.19193 18.8365 4.19193 19.6025C4.19203 20.3685 4.8127 20.9893 5.57864 20.9893H21.4204C22.1864 20.9893 22.808 20.3685 22.8081 19.6025C22.8081 18.8365 22.1865 18.2158 21.4204 18.2158H5.57864ZM5.57864 13.0986C4.81264 13.0986 4.19193 13.7203 4.19193 14.4863C4.19213 15.2522 4.81276 15.873 5.57864 15.873H21.4204C22.1863 15.873 22.8079 15.2522 22.8081 14.4863C22.8081 13.7203 22.1865 13.0986 21.4204 13.0986H5.57864Z" fill="var(--fill-0, #00BEE4)"/>
</g>
</g>
</svg>
