<svg width="60" height="60" viewBox="0 0 60 60" fill="none" xmlns="http://www.w3.org/2000/svg">
<g transform="translate(10.56995 10.04525)">
<g id="Group 2131327488">
<path id="Union" d="M15.4724 8.57256C15.8654 8.57227 16.5592 8.55217 16.9217 8.62237C17.1884 8.67276 17.4399 8.78521 17.656 8.94952C18.3525 9.48469 18.3538 10.4244 18.4676 11.2269L18.8123 13.6839C20.1445 14.2556 20.6444 14.534 21.8191 15.4212C22.9703 14.9181 24.2187 14.4293 25.3933 14.0022C26.2358 13.6961 27.0681 14.2509 27.4607 14.973C27.9958 15.9571 28.6077 16.9053 29.1414 17.889C30.0326 19.5319 28.8309 20.2233 27.701 21.1077L25.909 22.514C26.0835 23.8888 26.0633 24.618 25.9109 25.9847C26.9022 26.7799 27.9601 27.5344 28.9217 28.3616C29.3993 28.7728 29.5739 29.6052 29.3357 30.18C29.1661 30.5891 28.9117 30.9852 28.6941 31.3724C28.1695 32.2259 27.7214 33.1762 27.1326 33.9847C26.7823 34.3792 26.1631 34.6245 25.6365 34.5276C25.1068 34.4299 24.5305 34.1598 24.0252 33.9564L21.8025 33.0589C20.714 33.8914 20.0751 34.2662 18.8103 34.7923L18.4754 37.1897C18.2701 38.6694 18.2285 39.8583 16.3875 39.9046L13.989 39.9056C13.5884 39.9057 12.8978 39.9291 12.532 39.8606C12.2716 39.8129 12.0248 39.7073 11.8103 39.5521C11.0972 39.0267 11.0854 38.0372 10.9715 37.2288C10.8597 36.4132 10.7424 35.5978 10.6209 34.7835C9.4831 34.3762 8.58706 33.7812 7.6326 33.0638L5.35135 33.9837C4.38531 34.3734 3.42183 34.9251 2.48025 34.1468C2.41306 34.0864 2.31659 34.0083 2.26639 33.9329C1.55718 32.8808 1.0023 31.7508 0.342558 30.6634C-0.114429 29.91 -0.156155 29.0215 0.51541 28.3665C0.87623 28.0146 1.34945 27.6822 1.75174 27.3675C2.35165 26.9016 2.94877 26.4317 3.54275 25.9583C3.35261 25.0665 3.38755 23.3951 3.54178 22.5022C2.55725 21.7096 1.51904 20.9604 0.557402 20.1536C0.0668674 19.742 -0.143371 18.8779 0.104277 18.2972C0.422913 17.6759 0.776003 17.0005 1.15115 16.4114C1.4818 15.8922 1.90718 14.9601 2.29959 14.5101C3.20895 13.4672 4.38173 14.1067 5.41678 14.5218L7.63943 15.4202C8.80434 14.5712 9.25585 14.2562 10.6267 13.6927C10.7652 12.8648 10.8869 11.9406 10.9939 11.1048C11.1921 9.55704 11.3421 8.61514 13.1482 8.57354L15.4724 8.57256ZM20.7879 23.6995C20.489 20.3467 17.5263 17.8721 14.1736 18.1751C10.8269 18.4778 8.35771 21.4339 8.65603 24.7806C8.95456 28.1272 11.9073 30.5998 15.2547 30.306C18.608 30.0113 21.0866 27.0522 20.7879 23.6995ZM30.1892 0.0110389C30.9246 -0.0185097 31.6913 0.0228518 32.4168 0.00322637C33.3457 -0.0217176 33.4094 0.512024 33.4929 1.27666C33.533 1.64352 33.5833 2.03007 33.6219 2.39971C34.155 2.64905 34.4368 2.82826 34.9041 3.16241C35.4983 2.9457 37.0509 1.98981 37.4383 2.73858C37.7719 3.38487 38.5936 4.49579 38.8162 5.13995C38.8589 5.26353 38.8708 5.3965 38.8504 5.52569C38.7778 5.9978 37.5661 6.76269 37.156 7.06768C37.2376 7.71274 37.2344 7.89609 37.1551 8.53252C37.6028 8.89104 38.4974 9.44196 38.7937 9.90655C38.8629 10.0151 38.8895 10.3242 38.8123 10.4749C38.3837 11.3033 37.9074 12.1377 37.3992 12.9192C37.2862 13.093 36.9237 13.2201 36.7244 13.1644C36.1144 12.9933 35.4957 12.693 34.909 12.4417C34.4362 12.7852 34.1456 12.9576 33.6238 13.2044C33.5681 13.6866 33.5127 14.1709 33.4539 14.6526C33.3896 15.1788 33.2314 15.5265 32.6619 15.596L30.9314 15.5999C29.9183 15.6018 29.3888 15.7264 29.2869 14.4915C29.2542 14.0953 29.18 13.6044 29.1316 13.2015C28.6064 12.9613 28.3133 12.7728 27.8572 12.4437C27.3215 12.6479 26.8037 12.9083 26.2635 13.1058C25.9359 13.2254 25.5185 13.1898 25.3181 12.8665C24.8364 12.089 24.3576 11.2867 23.9461 10.47C23.8484 10.276 23.9157 9.90827 24.0662 9.74346C24.5343 9.30467 25.0953 8.9237 25.6082 8.53057C25.5089 7.99676 25.5256 7.60292 25.6072 7.07354C25.2214 6.76876 24.1709 6.11 23.9715 5.71416C23.8814 5.53503 23.8858 5.29738 23.9568 5.1126C24.0855 4.77903 25.1355 2.95352 25.3523 2.69756C25.4339 2.60141 25.5377 2.52216 25.6551 2.47491C26.103 2.29555 27.3895 2.97622 27.8582 3.16241C28.3294 2.81863 28.6156 2.64869 29.1375 2.40264C29.1896 1.83854 29.2649 1.16304 29.3709 0.607719C29.4501 0.194277 29.7969 0.0407194 30.1892 0.0110389ZM34.4842 7.5462C34.3414 5.82959 32.8325 4.55399 31.116 4.69952C29.4041 4.84506 28.1324 6.34985 28.2742 8.06182C28.4164 9.77377 29.9182 11.0479 31.6306 10.9095C33.3481 10.7704 34.6266 9.26326 34.4842 7.5462Z" fill="var(--fill-0, #00BEE4)"/>
</g>
</g>
</svg>
