<svg width="60" height="60" viewBox="0 0 60 60" fill="none" xmlns="http://www.w3.org/2000/svg">
<g transform="translate(15 16.67525)">
<g id="Group 2131327564">
<g id="Group">
<path id="Subtract" d="M10.5576 26.6495C12.7803 26.6495 13.4566 26.6274 14.251 26.5186C14.8283 26.4409 15.4886 26.3266 16.1279 26.1993C15.0651 25.5215 14.1352 24.6397 13.3896 23.6055C10.9767 23.8064 8.31235 23.7521 6.02734 23.4219C3.41436 23.0375 1.13604 22.2171 0.299805 21.3467L0 21.0352V22.377C1.10962e-06 23.9074 0.0213221 23.9873 0.543945 24.4805C1.40825 25.3073 3.74274 26.0691 6.65527 26.4825C7.72118 26.6275 8.11893 26.6495 10.5576 26.6495ZM15.2188 23.4942C15.2837 23.5647 15.3488 23.635 15.416 23.7032C15.3489 23.6349 15.2837 23.5647 15.2188 23.4942ZM15.5498 23.836C15.6148 23.8991 15.6812 23.9606 15.748 24.0215C15.6812 23.9605 15.6147 23.8991 15.5498 23.836ZM15.9023 24.1592C15.9631 24.212 16.0247 24.2636 16.0869 24.3145C16.0248 24.2635 15.963 24.212 15.9023 24.1592ZM16.8467 24.8702C16.8766 24.8895 16.9064 24.9088 16.9365 24.9278C16.9064 24.9088 16.8765 24.8895 16.8467 24.8702ZM17.2021 25.0879C17.2417 25.1108 17.2814 25.1332 17.3213 25.1553C17.2814 25.1331 17.2416 25.1108 17.2021 25.0879Z" fill="var(--fill-0, #00BEE4)"/>
<path id="Vector" d="M8.04861 0.0416492C5.4633 0.273763 2.88496 0.861301 1.57488 1.51412C0.884998 1.85504 0.292677 2.34103 0.13937 2.69645C0.0209055 2.95758 0 3.17518 0 4.16892V5.33674L0.216023 5.67041C0.592322 6.2652 1.58185 6.84548 2.94767 7.27344C5.18456 7.97704 7.37963 8.25992 10.6339 8.25992C13.4771 8.25992 15.4004 8.04232 17.4561 7.4983C19.4978 6.95428 20.8567 6.20717 21.1563 5.4528C21.2957 5.11914 21.2887 3.03011 21.1563 2.76173C21.017 2.4861 20.5222 2.01462 20.1041 1.76074C18.8707 0.999118 16.3272 0.346298 13.6582 0.0996776C12.6199 0.00538139 8.89876 -0.0381399 8.04861 0.0416492Z" fill="var(--fill-0, #00BEE4)"/>
</g>
<circle id="Ellipse 7574" cx="21.6378" cy="17.5528" r="8.36219" fill="var(--fill-0, #00BEE4)"/>
<path id="Subtract_2" d="M0.397461 7.60726C1.49167 8.64433 4.04195 9.42778 7.56055 9.79769C8.91245 9.9355 12.5853 9.91387 13.9023 9.76155C14.2678 9.71763 14.621 9.66902 14.9619 9.618C13.9448 10.5018 13.1031 11.5959 12.4961 12.8358C11.6274 12.8852 10.7308 12.9037 9.8252 12.8807C5.47041 12.7646 1.87488 11.9085 0.557617 10.6756C0.0280558 10.1824 4.65899e-06 10.0802 0 8.5428V7.2303L0.397461 7.60726ZM21.2188 7.24593C21.2057 7.24598 21.1927 7.2468 21.1797 7.2469L21.2188 7.20784V7.24593Z" fill="var(--fill-0, #00BEE4)"/>
<path id="Subtract_3" d="M0.375977 12.1476C1.42822 13.2066 4.07666 14.0407 7.49121 14.3888C8.34569 14.4742 10.2236 14.4931 11.8623 14.4552C11.58 15.4086 11.4278 16.4221 11.4277 17.4718C11.4277 17.4754 11.4277 17.4791 11.4277 17.4826C6.26719 17.6042 1.27183 16.5425 0.21582 14.882L0 14.548V11.7707L0.375977 12.1476Z" fill="var(--fill-0, #00BEE4)"/>
<path id="Subtract_4" d="M0.390625 16.8045C1.46412 17.856 4.2094 18.6609 7.87402 19.0018C8.64589 19.0735 10.2269 19.0969 11.5479 19.074C11.707 20.1269 12.0229 21.1255 12.4658 22.0457C10.9384 22.0922 8.60179 22.0717 7.73535 21.9832C4.15367 21.5988 1.58876 20.8514 0.571289 19.9012C0.0278883 19.3936 2.47786e-06 19.2916 0 17.7469V16.4119L0.390625 16.8045Z" fill="var(--fill-0, #00BEE4)"/>
</g>
</g>
</svg>
