<svg width="60" height="60" viewBox="0 0 60 60" fill="none" xmlns="http://www.w3.org/2000/svg">
<g transform="translate(0 0)">
<g id="&#208;&#152;&#208;&#186;&#208;&#190;&#208;&#189;&#208;&#186;&#208;&#176;">
<path id="Union" d="M27.6123 29.3643C29.28 29.3643 31.4558 29.3594 31.8828 29.417C32.8615 29.5417 34.0419 29.9112 34.915 30.3574C37.117 31.48 38.6618 33.4182 39.252 35.7832C39.4247 36.4836 39.4581 36.9975 39.4629 38.9355C39.4629 40.3317 39.4492 40.7495 39.3916 40.9941C39.1997 41.8002 38.3827 42.3242 37.8555 42.5625C37.3275 42.801 33.9795 43.998 30.1172 44C25.8966 44.0022 21.8228 42.8642 21.3037 42.5625C20.7847 42.2608 19.9504 41.7858 19.7871 41.0088C19.7535 40.8313 19.7444 40.0727 19.7588 38.6094C19.7828 36.3546 19.7972 36.1528 20.0371 35.2988C20.5553 33.4326 21.9854 31.6432 23.7988 30.5781C24.7774 30.0025 25.5725 29.6115 26.9648 29.417C27.1566 29.3902 27.4443 29.3643 27.6123 29.3643ZM16.3242 29.6729C16.9226 29.5975 19.5051 29.6481 20.1035 29.6973C20.9045 29.8151 21.7856 30.1069 22.0918 30.3613C22.2424 30.4838 22.2 30.578 21.8467 30.8936C21.4792 31.2186 20.8526 31.9061 20.5557 32.3066C20.0138 33.0322 19.6696 33.6499 19.3916 34.3896C19.0194 35.3837 18.902 36.1566 18.8643 37.749C18.8501 38.3943 18.8315 38.955 18.8174 38.9883C18.6772 39.3153 17.7179 39.4131 15.5967 39.4131C13.4767 39.4131 12.958 39.2746 12.7686 39.2363C12.5794 39.1981 11.995 38.9218 11.9102 38.8652C11.8253 38.8087 11.2874 38.4225 11.1084 38.0645C11.0002 37.8481 11 37.8231 11 36.2881C11.0047 34.8702 11.015 34.6959 11.1045 34.3096C11.6369 32.0527 13.2291 30.4502 15.5566 29.833C15.7968 29.7718 16.1451 29.6965 16.3242 29.6729ZM40.9668 29.5596C42.451 29.5596 42.908 29.6354 43.7891 29.8945C45.8386 30.4882 47.295 31.8683 47.8604 33.7529C48.1006 34.5539 48.138 34.9455 48.1191 36.5098C48.105 37.8376 48.1006 37.8806 47.9971 38.083C47.7379 38.5636 47.4163 38.6885 46.7246 39.0254C45.7451 39.5024 40.8098 39.2844 40.3682 39.0391C40.326 39.0143 40.3074 38.7596 40.3027 38.1582C40.2933 37.15 40.2416 36.5091 40.1191 35.793C39.8223 34.1157 38.9875 32.6174 37.541 31.1709C37.1972 30.8271 36.9151 30.5256 36.915 30.502C36.915 30.4171 37.3013 30.1765 37.6641 30.0352C38.1304 29.8562 38.7662 29.7056 39.3408 29.6396C39.4209 29.6302 40.147 29.5643 40.9668 29.5596ZM17.7148 19.1924C20.1739 19.1924 22.168 21.1864 22.168 23.6455C22.1677 26.1044 20.1738 28.0977 17.7148 28.0977C15.2561 28.0975 13.2629 26.1042 13.2627 23.6455C13.2627 21.1866 15.2559 19.1926 17.7148 19.1924ZM41.4629 19.1924C43.9219 19.1924 45.915 21.1865 45.915 23.6455C45.9148 26.1043 43.9218 28.0976 41.4629 28.0977C39.004 28.0977 37.011 26.1044 37.0107 23.6455C37.0107 21.1864 39.0038 19.1924 41.4629 19.1924ZM29.5879 15C33.0098 15 35.7842 17.7744 35.7842 21.1963C35.7839 24.618 33.0096 27.3916 29.5879 27.3916C26.1662 27.3916 23.3918 24.6179 23.3916 21.1963C23.3916 17.7744 26.166 15 29.5879 15Z" fill="var(--fill-0, #00BEE4)"/>
</g>
</g>
</svg>
