<svg width="60" height="60" viewBox="0 0 60 60" fill="none" xmlns="http://www.w3.org/2000/svg">
<g transform="translate(0 0)">
<g id="&#208;&#152;&#208;&#186;&#208;&#190;&#208;&#189;&#208;&#186;&#208;&#176;">
<path id="Union" d="M13.0703 20.3281C15.4087 20.2546 18.4567 19.8486 18.9238 23.0254C19.14 24.4972 18.9161 26.1249 18.9238 27.6211C18.9393 31.0831 18.8738 34.5514 18.8789 38.0137C18.9613 39.2274 19.1054 40.3185 20.5391 40.3281C29.0291 40.3845 37.523 40.4113 46.0117 40.3066C47.0528 40.2938 48.7661 40.5079 48.9785 41.8105C49.326 43.9514 45.3193 43.4851 44.0117 43.4678C44.6796 45.2557 44.4185 46.7677 42.667 47.75C40.0709 48.7034 38.0024 47.0688 38.2441 44.9043C38.2853 44.5353 38.2441 44.2296 38.793 43.4756C37.8342 43.3044 35.7802 43.448 34.748 43.4512L28.6328 43.4688C29.0639 45.0929 29.0743 46.6665 27.4336 47.6533C26.7296 48.0751 25.8862 48.1981 25.0908 47.9951C24.3187 47.8005 23.6556 47.3076 23.2451 46.625C22.5736 45.4838 22.7824 44.6331 23.0732 43.4697L22.0928 43.4756C20.1818 43.4819 18.6822 43.5747 17.1895 42.0879C15.2487 40.1547 15.7816 36.308 15.7842 33.6768L15.793 23.4141C14.322 23.4428 12 23.7809 12 21.4424C12.0029 21.2764 12.0001 20.362 13.0703 20.3281ZM31.0449 11C32.1493 11.0002 33.0449 11.8956 33.0449 13V37.1172C33.0448 38.2215 32.1492 39.1169 31.0449 39.1172H22.9033C21.7988 39.1172 20.9034 38.2217 20.9033 37.1172V13C20.9033 11.8954 21.7988 11 22.9033 11H31.0449ZM44.4619 27.6133C45.5663 27.6133 46.4617 28.5089 46.4619 29.6133V37.1162C46.4619 38.2208 45.5665 39.1162 44.4619 39.1162H36.3203C35.2158 39.1162 34.3203 38.2208 34.3203 37.1162V29.6133C34.3206 28.509 35.2159 27.6133 36.3203 27.6133H44.4619ZM40.6279 18.668C41.7324 18.6681 42.6278 19.5635 42.6279 20.668V24.3369C42.6277 25.4412 41.7323 26.3368 40.6279 26.3369H36.3203C35.2159 26.3369 34.3205 25.4413 34.3203 24.3369V20.668C34.3204 19.5635 35.2158 18.668 36.3203 18.668H40.6279Z" fill="var(--fill-0, #00BEE4)"/>
</g>
</g>
</svg>
