<svg width="60" height="60" viewBox="0 0 60 60" fill="none" xmlns="http://www.w3.org/2000/svg">
<g transform="translate(0 0)">
<g id="&#208;&#152;&#208;&#186;&#208;&#190;&#208;&#189;&#208;&#186;&#208;&#176;">
<path id="Subtract" d="M30.1475 15.0032C38.6749 14.9935 40.1633 15.0033 40.5733 15.0667C42.9334 15.4227 44.8598 17.3141 45.2696 19.6741C45.3281 20.035 45.3379 21.5277 45.3282 30.6712L45.3139 40.9494C45.3136 41.1511 45.2868 41.3519 45.2341 41.5466L45.1817 41.7405C44.8696 42.9107 44.275 43.8714 43.4024 44.6175C42.5003 45.3879 41.4954 45.8227 40.2862 45.9593C39.9399 45.9983 36.9846 46.0081 29.8311 45.9935C20.6145 45.9788 19.8336 45.9738 19.5166 45.8958C17.4394 45.3838 15.9767 44.1011 15.3037 42.1849C14.9916 41.3022 15.0059 41.9552 15.001 30.4857C14.9961 20.9904 15.0012 20.007 15.0742 19.636C15.2888 18.5681 15.7666 17.6116 16.4981 16.8021C16.7858 16.4852 17.4927 15.9298 17.9121 15.6956C18.4484 15.3982 19.3311 15.1204 20.0528 15.0276C20.1357 15.0179 24.6761 15.0032 30.1475 15.0032ZM26.2217 31.9632C25.9779 31.8366 25.5778 31.8364 25.3438 31.9583C25.2511 32.0121 25.0759 32.1686 24.9541 32.3148C24.8368 32.4566 24.1003 33.3094 23.3252 34.2064C22.7628 34.8572 22.2697 35.4287 22.0375 35.699C21.9431 35.809 21.8376 35.8225 21.7312 35.7241C21.6089 35.611 21.4301 35.4394 21.2334 35.2454C20.8776 34.8945 20.5216 34.5728 20.4336 34.5286C20.0437 34.3336 19.4881 34.4992 19.2442 34.8792C19.1271 35.0645 19.1026 35.1578 19.1026 35.3968C19.1075 35.5625 19.1319 35.7426 19.166 35.8011C19.2006 35.86 19.7218 36.4115 20.336 37.0306C21.3741 38.0784 21.4576 38.1517 21.6768 38.2005C21.9303 38.2541 22.2619 38.2052 22.4278 38.0833C22.5302 38.015 22.8427 37.6642 24.0762 36.2308C24.4663 35.7773 24.9397 35.2305 25.125 35.0159C25.5007 34.5866 26.5002 33.4063 26.6075 33.265C26.7096 33.1379 26.7538 32.8113 26.7002 32.5823C26.6416 32.3191 26.4606 32.0851 26.2217 31.9632ZM30.6221 34.0189C29.8606 34.0189 29.2432 34.6362 29.2432 35.3978C29.2432 36.1593 29.8606 36.7767 30.6221 36.7767H39.9971C40.7586 36.7767 41.376 36.1593 41.376 35.3978C41.376 34.6362 40.7586 34.0189 39.9971 34.0189H30.6221ZM26.2217 22.7952C25.9973 22.6832 25.5924 22.6685 25.3682 22.7659C25.2801 22.8054 24.9053 23.1958 24.4668 23.6976C23.1948 25.1646 22.268 26.2225 22.0625 26.4476C21.9588 26.562 21.7805 26.5666 21.6709 26.4578L21.2041 25.9944C20.5165 25.3069 20.399 25.2337 20.0186 25.2337C19.9211 25.2338 19.7801 25.2582 19.7022 25.2874C19.5365 25.3459 19.2638 25.5992 19.1709 25.7796C19.0929 25.9356 19.0832 26.3403 19.1514 26.5355C19.2099 26.6915 21.302 28.8129 21.502 28.9202C21.6874 29.0176 22.1643 29.0078 22.3594 28.9007C22.5057 28.8227 22.7552 28.5495 24.5108 26.5306C26.8901 23.8002 26.749 23.9947 26.7002 23.4778C26.6709 23.1854 26.4947 22.9317 26.2217 22.7952ZM29.2432 26.2781C29.2432 27.0394 29.8603 27.6566 30.6216 27.6566H39.9976C40.7589 27.6566 41.376 27.0394 41.376 26.2781C41.376 25.5169 40.7589 24.8997 39.9976 24.8997H30.6216C29.8603 24.8997 29.2432 25.5169 29.2432 26.2781Z" fill="var(--fill-0, #00BEE4)"/>
</g>
</g>
</svg>
