<svg width="60" height="60" viewBox="0 0 60 60" fill="none" xmlns="http://www.w3.org/2000/svg">
<g transform="translate(14 14.0081)">
<g id="Group 2131327455">
<path id="Vector" d="M3.52207 2.77208e-07C5.26016 -2.5524e-05 5.52755 0.00175572 7.53304 0.00284775C8.73634 0.00101794 8.73634 0.00101797 9.13743 0.4047C9.30038 1.0823 9.13743 9.89326 9.13743 11.6612C9.13743 13.4291 9.80594 14.8726 11.1013 14.8726C12.3967 14.8726 13.5495 10.0568 17.2931 10.0568C20.2345 10.0568 20.7423 14.9354 23.065 14.8726C25.3877 14.8098 23.7106 9.78939 30.3956 10.5916C31.0719 10.6727 31.9672 11.4839 31.9736 12.2063C32.0182 17.4844 31.9991 22.7667 31.9694 28.0449C31.9566 30.3184 31.1159 31.4744 28.7741 31.537L23.0226 31.5363C23.0481 30.0168 23.0629 28.4967 23.065 26.9767C23.0268 21.2829 19.7615 21.3362 15.2902 21.2814C7.85083 21.1907 9.00373 26.1007 9.00373 31.7161C4.99276 31.7161 0.222504 33.053 0.222504 29.1683C0.0749518 25.0311 -0.104032 20.7514 0.0749459 16.6317C0.120593 15.5838 1.23395 14.8274 1.98595 14.2713C1.98595 9.25461 1.98595 3.37183 1.98595 2.03485C1.98595 0.697866 1.78398 2.60784e-05 3.52207 2.77208e-07Z" fill="var(--fill-0, #00BEE4)"/>
<path id="Vector_2" d="M12.0189 24.0747C14.1497 22.242 18.1641 22.7766 19.9714 24.0747C21.7787 25.3727 21.2258 30.8167 21.2258 31.9838H19.9714H10.6117C10.6117 29.5359 10.4934 25.3867 12.0189 24.0747Z" fill="var(--fill-0, #00BEE4)"/>
</g>
</g>
</svg>
