<svg xmlns="http://www.w3.org/2000/svg" width="60" height="60" viewBox="0 0 60 60" fill="none">
    <path
        d="M13.7176 15.142C12.7417 15.645 12.7675 17.0378 13.7563 17.5236L14.0013 17.644L15.7897 17.6569L17.5738 17.6698L17.6641 17.9363C17.7157 18.0825 18.2316 19.5958 18.8162 21.2982C19.3966 23.0006 20.4155 25.9798 21.0775 27.9187C21.7396 29.8575 22.3758 31.7233 22.4962 32.0587C22.6123 32.3983 22.7069 32.7035 22.7069 32.7336C22.7069 32.7637 22.6338 32.8368 22.5478 32.8884C21.2925 33.645 20.5617 35.154 20.725 36.6457C20.9013 38.2063 21.933 39.4616 23.4807 39.9904L23.8891 40.1279H33.1105H42.3319L42.5039 40.0377C42.7704 39.8915 43.0327 39.6034 43.1316 39.3326C43.2433 39.0403 43.2304 38.4943 43.1101 38.2622C42.9983 38.0515 42.706 37.7463 42.5039 37.6431L42.3319 37.5485L33.3255 37.527L24.319 37.5055L24.1212 37.4152C23.5194 37.1358 23.2228 36.4867 23.4119 35.8418C23.528 35.442 23.945 35.0594 24.362 34.9734C24.4351 34.9605 26.2622 34.7241 28.4246 34.4532C32.5559 33.933 36.1929 33.473 40.1437 32.9743C42.7274 32.6433 42.8673 32.7478 43.2113 32.4297C43.538 32.1288 43.497 31.8652 43.7291 30.8377C43.9742 29.7458 44.2493 28.542 44.8211 26.0486C46.0291 20.7823 46.0162 20.8382 45.9947 20.5674C45.9603 20.1074 45.6594 19.6688 45.2381 19.4625L45.0403 19.3636L33.0073 19.3421L20.9744 19.3206L20.897 19.1057C20.8583 18.9853 20.5874 18.2072 20.2994 17.3689C20.0157 16.5306 19.7491 15.7911 19.7147 15.7223C19.5944 15.4902 19.3321 15.2451 19.0742 15.1205L18.8162 15.0001H16.4002H13.9884L13.7176 15.142Z"
        fill="#00BEE4" />
    <path
        d="M24.999 41.4603C24.4788 41.6022 24.0188 41.9246 23.7222 42.3502C23.2536 43.0337 23.2235 43.9795 23.6405 44.7018C24.3713 45.9614 26.1597 46.1677 27.1399 45.1016C27.5569 44.6545 27.7375 44.1902 27.7375 43.5883C27.7332 43.1885 27.6859 42.9606 27.5139 42.5995C27.3462 42.2513 26.912 41.8085 26.5681 41.6451C26.0651 41.4001 25.4805 41.3313 24.999 41.4603Z"
        fill="#00BEE4" />
    <path
        d="M39.0996 41.4564C38.7127 41.5509 38.3946 41.7358 38.0722 42.0582C37.5176 42.6171 37.3026 43.3264 37.4746 44.0573C37.7884 45.3728 39.1727 46.1294 40.4108 45.6608C41.4082 45.2825 42.0058 44.1905 41.7908 43.1502C41.6275 42.3506 40.974 41.667 40.183 41.4607C39.8821 41.3833 39.4135 41.3833 39.0996 41.4564Z"
        fill="#00BEE4" />
</svg>