<svg width="1920" height="676" viewBox="0 0 1920 676" fill="none" xmlns="http://www.w3.org/2000/svg">
<g clip-path="url(#clip0_2043_756)">
<rect width="1920" height="676" fill="#08132C"/>
<g filter="url(#filter0_f_2043_756)">
<path fill-rule="evenodd" clip-rule="evenodd" d="M-223.19 432.641C-148.947 378.722 -45.2126 376.934 40.5859 409.458C119.858 439.509 154.286 523.31 201.586 593.665C254.859 672.903 355.175 746.344 328.766 838.101C302.382 929.771 175.942 933.379 91.2033 977.185C13.581 1017.31 -54.8402 1103.2 -139.072 1079.95C-223.172 1056.74 -249.759 954.193 -283.547 873.757C-311.683 806.778 -322.737 738.148 -312.888 666.17C-301.136 580.283 -293.331 483.581 -223.19 432.641Z" fill="#00BEE4" fill-opacity="0.16"/>
</g>
<g filter="url(#filter1_f_2043_756)">
<path fill-rule="evenodd" clip-rule="evenodd" d="M1475.48 808.522C1424.66 738.345 1423.11 640.391 1453.94 559.419C1482.42 484.606 1561.6 452.208 1628.09 407.639C1702.99 357.441 1772.47 262.815 1859.07 287.875C1945.6 312.91 1948.84 432.307 1990.09 512.381C2027.88 585.73 2108.88 650.452 2086.82 729.957C2064.79 809.338 1967.92 834.306 1891.93 866.104C1828.64 892.582 1763.82 902.928 1695.87 893.532C1614.79 882.32 1523.49 874.821 1475.48 808.522Z" fill="#00BEE4" fill-opacity="0.49"/>
</g>
<g filter="url(#filter2_f_2043_756)">
<path fill-rule="evenodd" clip-rule="evenodd" d="M1415.85 1327.35C1344.6 1228.94 1342.42 1091.58 1385.65 978.033C1425.59 873.125 1536.62 827.694 1629.86 765.196C1734.88 694.805 1832.31 562.113 1953.76 597.253C2075.09 632.36 2079.63 799.788 2137.48 912.073C2190.47 1014.93 2304.06 1105.69 2273.12 1217.18C2242.23 1328.49 2106.4 1363.5 1999.83 1408.09C1911.09 1445.22 1820.19 1459.73 1724.9 1446.55C1611.2 1430.83 1483.17 1420.32 1415.85 1327.35Z" fill="#00BEE4"/>
</g>
<g filter="url(#filter3_f_2043_756)">
<path fill-rule="evenodd" clip-rule="evenodd" d="M930.81 146.641C1005.05 92.722 1108.79 90.9344 1194.59 123.459C1273.86 153.509 1308.29 237.311 1355.59 307.665C1408.86 386.903 1509.17 460.344 1482.77 552.101C1456.38 643.771 1329.94 647.38 1245.2 691.186C1167.58 731.313 1099.16 817.198 1014.93 793.951C930.828 770.74 904.241 668.193 870.452 587.757C842.316 520.778 831.263 452.148 841.111 380.17C852.863 294.283 860.669 197.581 930.81 146.641Z" fill="#00BEE4" fill-opacity="0.2"/>
</g>
</g>
<defs>
<filter id="filter0_f_2043_756" x="-620.72" y="83.6502" width="1258.14" height="1304.53" filterUnits="userSpaceOnUse" color-interpolation-filters="sRGB">
<feFlood flood-opacity="0" result="BackgroundImageFix"/>
<feBlend mode="normal" in="SourceGraphic" in2="BackgroundImageFix" result="shape"/>
<feGaussianBlur stdDeviation="152.15" result="effect1_foregroundBlur_2043_756"/>
</filter>
<filter id="filter1_f_2043_756" x="1008.28" y="-141.473" width="1507.49" height="1463.61" filterUnits="userSpaceOnUse" color-interpolation-filters="sRGB">
<feFlood flood-opacity="0" result="BackgroundImageFix"/>
<feBlend mode="normal" in="SourceGraphic" in2="BackgroundImageFix" result="shape"/>
<feGaussianBlur stdDeviation="212.6" result="effect1_foregroundBlur_2043_756"/>
</filter>
<filter id="filter2_f_2043_756" x="840.668" y="75.1506" width="1953.99" height="1892.46" filterUnits="userSpaceOnUse" color-interpolation-filters="sRGB">
<feFlood flood-opacity="0" result="BackgroundImageFix"/>
<feBlend mode="normal" in="SourceGraphic" in2="BackgroundImageFix" result="shape"/>
<feGaussianBlur stdDeviation="258.143" result="effect1_foregroundBlur_2043_756"/>
</filter>
<filter id="filter3_f_2043_756" x="533.279" y="-202.349" width="1258.14" height="1304.53" filterUnits="userSpaceOnUse" color-interpolation-filters="sRGB">
<feFlood flood-opacity="0" result="BackgroundImageFix"/>
<feBlend mode="normal" in="SourceGraphic" in2="BackgroundImageFix" result="shape"/>
<feGaussianBlur stdDeviation="152.15" result="effect1_foregroundBlur_2043_756"/>
</filter>
<clipPath id="clip0_2043_756">
<rect width="1920" height="676" fill="white"/>
</clipPath>
</defs>
</svg>
