<svg width="241" height="82" viewBox="0 0 241 82" fill="none" xmlns="http://www.w3.org/2000/svg">
<g clip-path="url(#clip0_82_1400)">
<path d="M133.726 29.0909L132.774 35.1818C131.486 34.6667 130.086 34.4545 128.686 34.6061C123.926 35.5758 124.598 41.8485 124.542 43.5152V53.1515H117.71V29.303H124.542V32.0303C125.746 29.697 128.098 28.3636 130.562 28.5758C131.598 28.6667 132.69 28.8182 133.726 29.0909ZM155.986 42.3333H139.886C139.886 45.7879 141.51 48.8485 144.478 48.8485C146.69 49.1515 148.846 47.8182 149.686 45.5455L155.846 46.5758C154.138 51.4848 149.686 53.8182 144.562 53.8182C137.59 53.8182 132.83 49.2424 132.83 41.0303C132.83 33.303 137.422 28.9091 143.89 28.4848C151.674 28 156.07 33.5455 156.07 41.4848L155.986 42.3333ZM149.602 38.1818C149.378 35.5152 147.39 33.4545 144.926 33.2727C142.406 33.3939 140.334 35.4545 140.026 38.1818H149.602ZM165.198 38.1818L172.618 29.2424H181.466L171.274 39.9394L182.194 53.1212H173.206L165.198 42.9091V53.0303H158.282V16H165.198V38.1818ZM204.986 41.6364C204.986 49.5151 198.966 53.9394 192.526 53.9394C185.554 53.9394 179.534 49.6667 179.534 41.5758C179.534 32.6667 185.61 28.5758 192.526 28.5758C199.33 28.6061 204.986 33.5152 204.986 41.6364ZM192.526 47.9697C195.746 47.6667 198.154 44.697 198.098 41.2121C198.238 37.7273 195.746 34.7879 192.526 34.6364C189.306 34.4848 186.59 37.1818 186.45 40.6667V41.1818C186.366 44.8182 189.054 47.8485 192.442 47.9394C192.442 47.9697 192.47 47.9697 192.526 47.9697ZM61.5704 53.2727H55.0464V50.0606H54.9064C54.0104 52.697 50.2304 53.7576 47.7664 53.7576C41.2984 53.7576 37.0144 48.697 37.0144 40.9697C36.7064 34.5455 41.2984 29.0909 47.2344 28.7879C47.4864 28.7879 47.7384 28.7576 47.9904 28.7879C50.5104 28.6667 52.9744 29.7273 54.7384 31.6667L54.6544 29.4242H61.4864V53.2727H61.5704ZM43.9024 41.3939C43.6504 44.7879 45.9744 47.7576 49.1104 48.0303C49.3344 48.0606 49.5584 48.0606 49.7824 48.0606C52.9184 48.1818 55.5504 45.5151 55.6624 42.1212C55.6624 41.8788 55.6624 41.6364 55.6344 41.3939C55.6896 40.5678 55.5935 39.7379 55.3514 38.9521C55.1094 38.1663 54.7264 37.44 54.2242 36.8149C53.7221 36.1897 53.1107 35.6782 52.4253 35.3095C51.74 34.9409 50.994 34.7224 50.2304 34.6667C50.0904 34.6667 49.9224 34.6364 49.7824 34.6364C46.6184 34.5455 43.9864 37.2727 43.9024 40.697C43.8744 40.9394 43.8744 41.1515 43.9024 41.3939ZM88.3664 50.7879C88.5064 61.7273 84.5024 66.1212 76.2704 66.1212C70.9224 66.1212 64.8464 62.8182 64.3144 56.1515H71.8184C71.7624 57.7273 72.5744 59.1818 73.8904 59.8485C74.8984 60.2424 75.9344 60.4242 76.9984 60.4242C81.4504 60.2727 81.6744 55.7576 81.4504 52.0606V50.7879C79.5744 52.8485 76.9984 53.9697 74.3104 53.8485C68.2624 53.6061 63.5304 48.1818 63.6984 41.6364C63.6984 34.8182 67.0304 28.9394 74.8424 28.697C77.5024 28.6364 79.9944 29.9394 81.5904 32.2424H81.6744V29.2727H88.3664V50.7879ZM70.6984 41.2121C70.5304 44.7273 73.0504 47.697 76.2704 47.8788C79.5184 48.0606 82.2624 45.3333 82.4304 41.8485V41.2424C82.6264 37.7273 80.1624 34.7273 76.9144 34.5152C73.6664 34.303 70.8944 36.9697 70.6984 40.4848V41.2121ZM115.246 50.7879C115.386 61.7273 111.382 66.1212 103.15 66.1212C97.8024 66.1212 91.7264 62.8182 91.1944 56.1515H98.6984C98.6424 57.7273 99.4544 59.1818 100.77 59.8485C101.778 60.2424 102.814 60.4242 103.878 60.4242C108.33 60.2727 108.554 55.7576 108.33 52.0606V50.7879C106.454 52.8485 103.878 53.9697 101.19 53.8485C95.1424 53.6061 90.4104 48.1818 90.5784 41.6364C90.5784 34.8182 93.9104 28.9394 101.722 28.697C104.382 28.6364 106.874 29.9394 108.47 32.2424H108.554V29.2727H115.246V50.7879ZM97.5784 41.303C97.4104 44.8182 99.9304 47.7879 103.15 47.9697C106.398 48.1515 109.142 45.4242 109.31 41.9394V41.3333C109.409 39.6501 108.886 37.9935 107.857 36.7267C106.828 35.4598 105.377 34.6863 103.822 34.5758C102.267 34.4694 100.736 35.035 99.5658 36.1484C98.3953 37.2618 97.6806 38.8322 97.5784 40.5152C97.5504 40.7576 97.5504 41.0303 97.5784 41.303Z" fill="#F58426"/>
</g>
<defs>
<clipPath id="clip0_82_1400">
<rect width="168" height="50" fill="white" transform="translate(37 16)"/>
</clipPath>
</defs>
</svg>
