<svg width="168" height="82" viewBox="0 0 168 82" fill="none" xmlns="http://www.w3.org/2000/svg">
<g clip-path="url(#clip0_4019_793)">
<g clip-path="url(#clip1_4019_793)">
<path d="M96.7264 29.0909L95.7744 35.1818C94.4864 34.6667 93.0864 34.4545 91.6864 34.6061C86.9264 35.5758 87.5984 41.8485 87.5424 43.5152V53.1515H80.7104V29.303H87.5424V32.0303C88.7464 29.697 91.0984 28.3636 93.5624 28.5758C94.5984 28.6667 95.6904 28.8182 96.7264 29.0909ZM118.986 42.3333H102.886C102.886 45.7879 104.51 48.8485 107.478 48.8485C109.69 49.1515 111.846 47.8182 112.686 45.5455L118.846 46.5758C117.138 51.4848 112.686 53.8182 107.562 53.8182C100.59 53.8182 95.8304 49.2424 95.8304 41.0303C95.8304 33.303 100.422 28.9091 106.89 28.4848C114.674 28 119.07 33.5455 119.07 41.4848L118.986 42.3333ZM112.602 38.1818C112.378 35.5151 110.39 33.4545 107.926 33.2727C105.406 33.3939 103.334 35.4545 103.026 38.1818H112.602ZM128.198 38.1818L135.618 29.2424H144.466L134.274 39.9394L145.194 53.1212H136.206L128.198 42.9091V53.0303H121.282V16H128.198V38.1818ZM167.986 41.6364C167.986 49.5151 161.966 53.9394 155.526 53.9394C148.554 53.9394 142.534 49.6667 142.534 41.5758C142.534 32.6667 148.61 28.5758 155.526 28.5758C162.33 28.6061 167.986 33.5152 167.986 41.6364ZM155.526 47.9697C158.746 47.6667 161.154 44.697 161.098 41.2121C161.238 37.7273 158.746 34.7879 155.526 34.6364C152.306 34.4848 149.59 37.1818 149.45 40.6667V41.1818C149.366 44.8182 152.054 47.8485 155.442 47.9394C155.442 47.9697 155.47 47.9697 155.526 47.9697ZM24.5704 53.2727H18.0464V50.0606H17.9064C17.0104 52.697 13.2304 53.7576 10.7664 53.7576C4.29839 53.7576 0.0143882 48.697 0.0143882 40.9697C-0.293612 34.5455 4.29839 29.0909 10.2344 28.7879C10.4864 28.7879 10.7384 28.7576 10.9904 28.7879C13.5104 28.6667 15.9744 29.7273 17.7384 31.6667L17.6544 29.4242H24.4864V53.2727H24.5704ZM6.90239 41.3939C6.65039 44.7879 8.97439 47.7576 12.1104 48.0303C12.3344 48.0606 12.5584 48.0606 12.7824 48.0606C15.9184 48.1818 18.5504 45.5151 18.6624 42.1212C18.6624 41.8788 18.6624 41.6364 18.6344 41.3939C18.6896 40.5678 18.5935 39.7379 18.3514 38.9521C18.1094 38.1663 17.7264 37.44 17.2242 36.8149C16.7221 36.1897 16.1107 35.6782 15.4253 35.3095C14.74 34.9409 13.994 34.7224 13.2304 34.6667C13.0904 34.6667 12.9224 34.6364 12.7824 34.6364C9.61839 34.5455 6.98639 37.2727 6.90239 40.697C6.87439 40.9394 6.87439 41.1515 6.90239 41.3939ZM51.3664 50.7879C51.5064 61.7273 47.5024 66.1212 39.2704 66.1212C33.9224 66.1212 27.8464 62.8182 27.3144 56.1515H34.8184C34.7624 57.7273 35.5744 59.1818 36.8904 59.8485C37.8984 60.2424 38.9344 60.4242 39.9984 60.4242C44.4504 60.2727 44.6744 55.7576 44.4504 52.0606V50.7879C42.5744 52.8485 39.9984 53.9697 37.3104 53.8485C31.2624 53.6061 26.5304 48.1818 26.6984 41.6364C26.6984 34.8182 30.0304 28.9394 37.8424 28.697C40.5024 28.6364 42.9944 29.9394 44.5904 32.2424H44.6744V29.2727H51.3664V50.7879ZM33.6984 41.2121C33.5304 44.7273 36.0504 47.697 39.2704 47.8788C42.5184 48.0606 45.2624 45.3333 45.4304 41.8485V41.2424C45.6264 37.7273 43.1624 34.7273 39.9144 34.5151C36.6664 34.303 33.8944 36.9697 33.6984 40.4848V41.2121ZM78.2464 50.7879C78.3864 61.7273 74.3824 66.1212 66.1504 66.1212C60.8024 66.1212 54.7264 62.8182 54.1944 56.1515H61.6984C61.6424 57.7273 62.4544 59.1818 63.7704 59.8485C64.7784 60.2424 65.8144 60.4242 66.8784 60.4242C71.3304 60.2727 71.5544 55.7576 71.3304 52.0606V50.7879C69.4544 52.8485 66.8784 53.9697 64.1904 53.8485C58.1424 53.6061 53.4104 48.1818 53.5784 41.6364C53.5784 34.8182 56.9104 28.9394 64.7224 28.697C67.3824 28.6364 69.8744 29.9394 71.4704 32.2424H71.5544V29.2727H78.2464V50.7879ZM60.5784 41.303C60.4104 44.8182 62.9304 47.7879 66.1504 47.9697C69.3984 48.1515 72.1424 45.4242 72.3104 41.9394V41.3333C72.4086 39.6501 71.8861 37.9935 70.8572 36.7266C69.8284 35.4598 68.3774 34.6863 66.8224 34.5758C65.2671 34.4694 63.7363 35.035 62.5658 36.1484C61.3953 37.2618 60.6806 38.8322 60.5784 40.5152C60.5504 40.7576 60.5504 41.0303 60.5784 41.303Z" fill="#F58426"/>
</g>
</g>
<defs>
<clipPath id="clip0_4019_793">
<rect width="168" height="82" fill="white"/>
</clipPath>
<clipPath id="clip1_4019_793">
<rect width="168" height="50" fill="white" transform="translate(0 16)"/>
</clipPath>
</defs>
</svg>
