<svg width="241" height="82" viewBox="0 0 241 82" fill="none" xmlns="http://www.w3.org/2000/svg">
<g clip-path="url(#clip0_82_1433)">
<path d="M114.864 51.751V64.0001H112.46V59.5164H109.872L106.52 64.0001H103.816L107.352 59.4702V59.424C105.064 59.1466 103.655 57.7368 103.655 55.6106C103.655 53.207 105.411 51.751 108.254 51.751H114.864ZM112.46 57.552V53.7617H108.439C106.867 53.7617 106.058 54.4319 106.058 55.6568C106.058 56.8586 106.867 57.552 108.439 57.552H112.46Z" fill="#080D26"/>
<path d="M101.299 51.751V64.0001H98.9188V54.9866H98.8957L92.1009 64.0001H89.5818V51.751H91.9623V60.7645H91.9854L98.757 51.751H101.299Z" fill="#080D26"/>
<path d="M77.3595 64.0001H74.979V51.751H77.3595V56.6737H84.3854V51.751H86.7659V64.0001H84.3854V58.8H77.3595V64.0001Z" fill="#080D26"/>
<path d="M61.0664 60.6951C61.0664 58.5457 62.4993 57.4595 65.9892 56.8817C69.0168 56.327 69.7794 56.0035 69.7794 55.1484C69.7794 54.1083 68.6701 53.4381 66.9829 53.4381C65.0416 53.4381 63.678 54.4319 63.3313 56.119L61.0664 55.6337C61.2975 54.3626 61.9446 53.3226 63.0078 52.5599C64.094 51.7972 65.4114 51.4043 66.9598 51.4043C70.2185 51.4043 72.2986 53.0452 72.2986 55.6568V64H70.0568V62.5209H70.0105C69.2016 63.6534 67.5145 64.3467 65.5963 64.3467C62.7998 64.3467 61.0664 62.9369 61.0664 60.6951ZM69.9643 59.632V57.3439H69.9181C69.6176 57.8986 68.7856 58.2453 66.8674 58.6151C64.3482 59.1004 63.4007 59.6089 63.4007 60.6258C63.4007 61.7582 64.2096 62.2667 66.0354 62.2667C68.1154 62.2667 69.9643 61.0418 69.9643 59.632Z" fill="#080D26"/>
<path d="M58.6665 51.751V64.0001H56.286V53.8541H49.2601V64.0001H46.8796V51.751H58.6665Z" fill="#080D26"/>
<path d="M30.9782 64.0001H28.6208V51.751H31.4404L36.3401 60.7413H36.3632L41.2628 51.751H44.0824V64.0001H41.7251V55.3101H41.6788L36.8254 64.0001H35.8779L31.0013 55.3101H30.9782V64.0001Z" fill="#080D26"/>
<path d="M12.811 57.8753C12.811 54.2005 15.6769 51.404 19.5365 51.404C23.373 51.3347 26.3544 54.2468 26.285 57.8753C26.3544 61.5038 23.373 64.4158 19.5365 64.3465C15.6769 64.3465 12.811 61.55 12.811 57.8753ZM23.9045 57.8753C23.9045 55.2637 22.1018 53.5072 19.5365 53.5072C16.9942 53.5072 15.1915 55.2637 15.1915 57.8753C15.1915 60.4869 16.9942 62.2433 19.5365 62.2433C22.1018 62.2433 23.9045 60.4869 23.9045 57.8753Z" fill="#080D26"/>
<path d="M12.8842 64.0001H9.83348L5.41919 58.7538H3.94005V64.0001H1.55957V51.751H3.94005V56.4657H5.4423L9.78725 51.751H12.7686L7.31433 57.5288L12.8842 64.0001Z" fill="#080D26"/>
<path d="M241.751 20.751V33.0001H239.347V28.5164H236.759L233.408 33.0001H230.704L234.24 28.4702V28.424C231.952 28.1466 230.542 26.7368 230.542 24.6106C230.542 22.207 232.298 20.751 235.141 20.751H241.751ZM239.347 26.552V22.7617H235.326C233.754 22.7617 232.946 23.4319 232.946 24.6568C232.946 25.8586 233.754 26.552 235.326 26.552H239.347Z" fill="#080D26"/>
<path d="M217.091 29.6951C217.091 27.5457 218.524 26.4595 222.014 25.8817C225.042 25.327 225.804 25.0035 225.804 24.1484C225.804 23.1083 224.695 22.4381 223.008 22.4381C221.066 22.4381 219.703 23.4319 219.356 25.119L217.091 24.6337C217.322 23.3626 217.97 22.3225 219.033 21.5599C220.119 20.7972 221.436 20.4043 222.985 20.4043C226.243 20.4043 228.323 22.0452 228.323 24.6568V33H226.082V31.5209H226.035C225.227 32.6534 223.539 33.3467 221.621 33.3467C218.825 33.3467 217.091 31.9369 217.091 29.6951ZM225.989 28.632V26.3439H225.943C225.643 26.8986 224.811 27.2453 222.892 27.6151C220.373 28.1004 219.426 28.6089 219.426 29.6258C219.426 30.7582 220.234 31.2667 222.06 31.2667C224.14 31.2667 225.989 30.0418 225.989 28.632Z" fill="#080D26"/>
<path d="M214.318 20.751V30.8738H216.26V35.681H213.949V33.0001H196.314V20.751H198.695V30.8969H204.149V20.751H206.483V30.8969H211.938V20.751H214.318Z" fill="#080D26"/>
<path d="M193.958 26.8753C194.028 30.5038 191.07 33.4158 187.349 33.3465C183.905 33.3465 181.201 31.0353 180.785 27.8459H179.375V32.9998H176.995V20.7507H179.375V25.6735H180.808C181.363 22.5996 183.974 20.404 187.349 20.404C191.07 20.3347 194.028 23.2468 193.958 26.8753ZM191.578 26.8753C191.578 24.2637 189.798 22.5072 187.349 22.5072C184.876 22.5072 183.096 24.2637 183.096 26.8753C183.096 29.4869 184.876 31.2433 187.349 31.2433C189.798 31.2433 191.578 29.4869 191.578 26.8753Z" fill="#080D26"/>
<path d="M163.082 29.6951C163.082 27.5457 164.515 26.4595 168.005 25.8817C171.032 25.327 171.795 25.0035 171.795 24.1484C171.795 23.1083 170.685 22.4381 168.998 22.4381C167.057 22.4381 165.693 23.4319 165.347 25.119L163.082 24.6337C163.313 23.3626 163.96 22.3225 165.023 21.5599C166.109 20.7972 167.427 20.4043 168.975 20.4043C172.234 20.4043 174.314 22.0452 174.314 24.6568V33H172.072V31.5209H172.026C171.217 32.6534 169.53 33.3467 167.612 33.3467C164.815 33.3467 163.082 31.9369 163.082 29.6951ZM171.98 28.632V26.3439H171.933C171.633 26.8986 170.801 27.2453 168.883 27.6151C166.364 28.1004 165.416 28.6089 165.416 29.6258C165.416 30.7582 166.225 31.2667 168.051 31.2667C170.131 31.2667 171.98 30.0418 171.98 28.632Z" fill="#080D26"/>
<path d="M149.843 33.0001V20.751H157.031C159.527 20.751 161.237 22.0683 161.237 23.9866C161.237 25.0728 160.636 25.9511 159.619 26.3902V26.4133C160.914 26.8755 161.769 27.9849 161.769 29.2791C161.769 31.752 160.012 33.0001 156.592 33.0001H149.843ZM156.592 25.7199C158.071 25.7199 158.88 25.1884 158.88 24.2408C158.88 23.3163 158.094 22.8079 156.615 22.8079H152.201V25.7199H156.592ZM156.615 30.9431C158.348 30.9431 159.411 30.5271 159.411 29.2329C159.411 28.008 158.348 27.592 156.661 27.592H152.201V30.9431H156.615Z" fill="#080D26"/>
<path d="M137.894 24.7955C140.922 24.7955 142.886 26.3902 142.886 28.8631C142.886 30.1342 142.424 31.128 141.523 31.8907C140.621 32.6303 139.396 33.0001 137.894 33.0001H131.562V20.751H133.942V24.7955H137.894ZM137.755 30.9662C139.581 30.9662 140.483 30.2267 140.483 28.8631C140.483 27.4995 139.581 26.7831 137.755 26.7831H133.942V30.9662H137.755ZM147.046 33.0001H144.666V20.751H147.046V33.0001Z" fill="#080D26"/>
<path d="M129.208 27.3378C129.208 30.8276 126.319 33.3237 122.459 33.3237C118.23 33.3237 115.549 30.7121 115.549 26.4596C115.618 19.8728 117.675 17.3305 123.638 16.5447C124.724 16.4292 125.579 16.2905 126.203 16.1518C126.85 16.0132 127.497 15.8283 128.168 15.5972L128.953 17.5385C128.006 17.9776 126.619 18.255 124.054 18.6017C120.171 19.0639 118.6 20.1501 118.091 23.1084H118.16C119.247 21.999 120.957 21.3519 122.829 21.3519C126.457 21.3519 129.208 23.848 129.208 27.3378ZM126.827 27.2685C126.827 24.7955 125.117 23.2702 122.552 23.2702C121.234 23.2702 120.148 23.64 119.339 24.3564C118.53 25.0729 118.114 26.0436 118.114 27.2685C118.114 29.7414 119.801 31.2667 122.459 31.2667C123.73 31.2667 124.793 30.897 125.602 30.1805C126.411 29.4409 126.827 28.4703 126.827 27.2685Z" fill="#080D26"/>
<path d="M100.201 26.8753C100.201 23.2005 103.067 20.404 106.927 20.404C110.763 20.3347 113.745 23.2468 113.675 26.8753C113.745 30.5038 110.763 33.4158 106.927 33.3465C103.067 33.3465 100.201 30.55 100.201 26.8753ZM111.295 26.8753C111.295 24.2637 109.492 22.5072 106.927 22.5072C104.385 22.5072 102.582 24.2637 102.582 26.8753C102.582 29.4869 104.385 31.2433 106.927 31.2433C109.492 31.2433 111.295 29.4869 111.295 26.8753Z" fill="#080D26"/>
<path d="M97.8137 30.8969H99.7319V35.7041H97.5364V33.0001H87.3904V35.7041H85.1948V30.8969H85.8882C86.882 30.5502 87.298 29.8569 87.4597 28.5858C87.5522 27.9618 87.6215 27.0142 87.6678 25.7662L87.8526 20.751H97.8137V30.8969ZM89.9558 25.8817C89.8633 28.7475 89.6322 30.088 88.9158 30.8969H95.4332V22.8772H90.0713L89.9558 25.8817Z" fill="#080D26"/>
<path d="M71.5603 26.8753C71.5603 23.2005 74.4261 20.404 78.2857 20.404C82.1222 20.3347 85.1036 23.2468 85.0343 26.8753C85.1036 30.5038 82.1222 33.4158 78.2857 33.3465C74.4261 33.3465 71.5603 30.55 71.5603 26.8753ZM82.6538 26.8753C82.6538 24.2637 80.8511 22.5072 78.2857 22.5072C75.7435 22.5072 73.9408 24.2637 73.9408 26.8753C73.9408 29.4869 75.7435 31.2433 78.2857 31.2433C80.8511 31.2433 82.6538 29.4869 82.6538 26.8753Z" fill="#080D26"/>
<path d="M66.2538 33.0001H63.8733V22.8541H59.1816V20.751H70.9685V22.8541H66.2538V33.0001Z" fill="#080D26"/>
<path d="M45.1311 26.8753C45.1311 23.2005 47.9969 20.404 51.8565 20.404C55.693 20.3347 58.6744 23.2468 58.6051 26.8753C58.6744 30.5038 55.693 33.4158 51.8565 33.3465C47.9969 33.3465 45.1311 30.55 45.1311 26.8753ZM56.2246 26.8753C56.2246 24.2637 54.4219 22.5072 51.8565 22.5072C49.3143 22.5072 47.5116 24.2637 47.5116 26.8753C47.5116 29.4869 49.3143 31.2433 51.8565 31.2433C54.4219 31.2433 56.2246 29.4869 56.2246 26.8753Z" fill="#080D26"/>
<path d="M32.9925 20.751H42.7687V33.0001H40.3882V22.8772H35.2344L35.1188 25.8817C34.8646 31.2436 34.3099 32.3529 30.8663 33.1387L30.3347 31.0818C31.7907 30.8045 32.3454 30.2267 32.5534 28.9324C32.669 28.2622 32.7614 27.2222 32.8076 25.7662L32.9925 20.751Z" fill="#080D26"/>
<path d="M15.9934 26.8753C15.9934 23.2005 18.8592 20.404 22.7188 20.404C26.5554 20.3347 29.5367 23.2468 29.4674 26.8753C29.5367 30.5038 26.5554 33.4158 22.7188 33.3465C18.8592 33.3465 15.9934 30.55 15.9934 26.8753ZM27.0869 26.8753C27.0869 24.2637 25.2842 22.5072 22.7188 22.5072C20.1766 22.5072 18.3739 24.2637 18.3739 26.8753C18.3739 29.4869 20.1766 31.2433 22.7188 31.2433C25.2842 31.2433 27.0869 29.4869 27.0869 26.8753Z" fill="#080D26"/>
<path d="M1.00488 27.661L3.50092 27.2219C3.84759 29.7873 5.37295 31.1278 7.93832 31.1278C10.365 31.1278 11.7979 30.0415 11.7979 28.1695C11.7979 26.4824 10.6424 25.6504 8.30811 25.6504H5.8814V23.6165H8.30811C10.2264 23.6165 11.3357 22.7614 11.3357 21.1205C11.3357 19.6645 9.94902 18.6938 7.91521 18.6938C5.58095 18.6938 4.14804 19.8031 3.70893 21.9063L1.30533 21.4672C1.55956 19.9418 2.27601 18.74 3.4547 17.8387C4.6565 16.9373 6.13563 16.4751 7.91521 16.4751C11.3357 16.4751 13.7855 18.324 13.7855 20.9587C13.7855 22.461 13.1153 23.5934 11.7748 24.4023V24.4486C13.3695 25.1881 14.3171 26.5748 14.3171 28.3082C14.3171 31.3358 11.7517 33.3465 7.93832 33.3465C6.02007 33.3465 4.42538 32.838 3.20047 31.8442C1.97556 30.8273 1.236 29.4406 1.00488 27.661Z" fill="#080D26"/>
</g>
<defs>
<clipPath id="clip0_82_1433">
<rect width="241" height="82" fill="white"/>
</clipPath>
</defs>
</svg>
