<svg width="241" height="82" viewBox="0 0 241 82" fill="none" xmlns="http://www.w3.org/2000/svg">
<path d="M15.1685 52.2122H19.5216V27.1558H13.2C6.82289 27.1558 3.468 30.4421 3.468 35.2676C3.468 39.1224 5.29794 41.3965 8.58351 43.7399L2.88574 52.2122H7.59923L13.9347 42.7277L11.7443 41.2578C9.06873 39.4552 7.77945 38.0408 7.77945 35.018C7.77945 32.3556 9.65098 30.553 13.2138 30.553H15.1547V52.2122H15.1685ZM72.4235 50.992V47.4838C70.7302 48.5605 68.7734 49.1505 66.7673 49.1894C63.6342 49.1894 62.442 47.7057 62.2618 44.6828H72.6176V42.4087C72.6176 36.0996 69.845 33.7145 65.5474 33.7145C60.3209 33.7145 57.8394 37.7219 57.8394 43.1991C57.8394 49.5083 60.9309 52.5728 66.4069 52.5728C69.1518 52.5728 71.1758 51.8517 72.4374 50.992H72.4235ZM99.2488 52.5728C101.231 52.5728 102.631 52.2122 103.685 51.4635V47.9553C102.459 48.8069 100.99 49.2397 99.4983 49.1894C96.4346 49.1894 95.173 46.8044 95.173 43.0605C95.173 39.1224 96.7257 37.0979 99.5399 37.0979C101.203 37.0979 102.812 37.6803 103.685 38.2211V34.602C102.237 33.9481 100.655 33.6486 99.0686 33.7284C93.5926 33.7284 90.7506 37.6665 90.7506 43.1714C90.7506 49.231 93.5233 52.5866 99.2488 52.5866V52.5728ZM33.1491 34.0751V41.2578H27.4236V34.0751H23.126V52.2122H27.4236V44.6412H33.1491V52.2122H37.4467V34.0751H33.1491ZM56.7858 48.8289H54.8866V34.0751H42.3681V35.6281C42.3681 40.0653 42.0908 45.7921 40.5659 48.8289H39.235V56.3583H43.1999V52.2122H52.821V56.3583H56.7858V48.8289ZM86.1203 52.2122H90.9863L84.1102 42.4365L90.1684 34.0751H85.8431L79.7849 42.4365V34.0751H75.4873V52.2122H79.7849V43.3101L86.1203 52.2122ZM65.4642 37.0979C67.5991 37.0979 68.2507 38.8728 68.2507 41.1469V41.5074H62.2618C62.3727 38.6232 63.4263 37.1118 65.4781 37.1118L65.4642 37.0979ZM50.589 48.8289H44.5308C45.723 46.0833 46.0557 41.1469 46.0557 38.0131V37.4585H50.589V48.8289Z" fill="#21201F"/>
<mask id="mask0_82_1403" style="mask-type:luminance" maskUnits="userSpaceOnUse" x="111" y="23" width="35" height="34">
<path d="M111.906 23.0947H145.177V56.374H111.906V23.0947Z" fill="white"/>
</mask>
<g mask="url(#mask0_82_1403)">
<mask id="mask1_82_1403" style="mask-type:luminance" maskUnits="userSpaceOnUse" x="106" y="17" width="45" height="45">
<path d="M106.36 17.5488H150.723V61.9211H106.36V17.5488Z" fill="white"/>
</mask>
<g mask="url(#mask1_82_1403)">
<path d="M121.679 46.5966C112.779 37.6944 111.905 33.0214 112.197 30.6919C111.905 32.9382 111.905 35.8502 111.905 39.7328C111.905 47.5811 111.905 51.5053 114.331 53.9458C116.785 56.3724 120.709 56.3724 128.541 56.3724C132.409 56.3724 135.334 56.3724 137.594 56.095C135.251 56.3724 130.579 55.4988 121.679 46.5966Z" fill="#21201F"/>
<path d="M142.551 25.4483C140.097 23.0078 136.174 23.0078 128.341 23.0078C120.494 23.0078 116.585 23.0078 114.131 25.4483C112.911 26.6824 112.301 28.2909 111.996 30.6066C111.705 32.9361 112.551 37.5952 121.479 46.5113C130.406 55.4412 135.051 56.3009 137.393 55.9958C139.695 55.7047 141.317 55.0945 142.551 53.8604C144.977 51.42 144.977 47.4819 144.977 39.6474C144.977 31.8129 144.977 27.8888 142.551 25.4483Z" fill="#21201F"/>
<path d="M132.908 52.3511L132.867 51.9074C132.201 44.794 131.869 41.2303 129.442 38.8314C127.03 36.4048 123.481 36.072 116.369 35.4065L115.926 35.3649C115.371 35.3118 114.832 35.1476 114.341 34.882C113.851 34.6164 113.419 34.2549 113.071 33.819C112.723 33.383 112.466 32.8815 112.316 32.3443C112.166 31.8071 112.125 31.2451 112.197 30.6919C112.086 31.1911 112.016 31.7319 112.086 32.2449C112.211 33.4097 112.543 34.5745 112.945 35.4758C114.082 38.0133 116.453 42.0762 121.319 46.9571C126.198 51.8242 130.26 54.1954 132.783 55.3324C133.685 55.7345 134.863 56.0673 136.027 56.1921C136.54 56.2614 137.067 56.1921 137.58 56.0812C137.026 56.1525 136.463 56.1113 135.925 55.9602C135.387 55.8091 134.885 55.5512 134.449 55.2017C134.013 54.8523 133.652 54.4185 133.387 53.9264C133.122 53.4342 132.96 52.8938 132.908 52.3373V52.3511Z" fill="white"/>
</g>
</g>
<path d="M152.65 48.2465V52.2122C152.65 52.2122 153.26 52.5728 154.452 52.5728C158.694 52.5728 159.886 49.0785 160.108 39.9267L160.358 30.553H166.485V52.2122H170.838V27.1558H156.421L156.102 39.996C155.963 46.0833 155.644 48.5654 153.884 48.5654C153.01 48.5654 152.636 48.2465 152.636 48.2465H152.65ZM188.001 39.8435C188.001 35.4478 185.783 33.7977 181.236 33.7977C178.394 33.7977 176.162 34.6991 174.859 35.4617V39.0254C176.612 37.8892 178.648 37.265 180.737 37.2227C182.788 37.2227 183.717 37.9438 183.717 39.8851V40.8973H183.038C176.481 40.8973 173.555 43.0605 173.555 46.7212C173.555 50.4096 175.787 52.4618 179.101 52.4618C181.638 52.4618 182.705 51.6299 183.537 50.7701H183.717C183.759 51.2416 183.897 51.8517 184.05 52.2122H188.223C188.081 50.7374 188.012 49.2566 188.015 47.775V39.8435H188.001ZM183.717 47.8859C183.176 48.6763 182.178 49.328 180.667 49.328C178.865 49.328 177.964 48.2465 177.964 46.6241C177.964 44.5026 179.433 43.7399 183.107 43.7399H183.717V47.8859ZM198.592 52.2122C202.848 52.2122 205.371 50.4096 205.371 46.943C205.371 44.5719 203.93 43.1991 201.517 42.7693C203.458 42.2146 204.692 40.8557 204.692 38.6926C204.692 35.6004 202.627 34.0751 198.676 34.0751H191.467V52.2122H198.592ZM198.052 37.3198C199.604 37.3198 200.478 37.9715 200.478 39.3443C200.478 40.5922 199.535 41.3549 197.913 41.3549H195.75V37.3337H198.052V37.3198ZM198.135 44.5026C199.965 44.5026 200.935 45.1404 200.935 46.6657C200.935 48.3297 199.854 48.9675 198.121 48.9675H195.75V44.5026H198.135ZM218.874 52.2122H223.74L216.864 42.4365L222.922 34.0751H218.597L212.539 42.4365V34.0751H208.241V52.2122H212.539V43.3101L218.874 52.2122ZM238.338 39.8435C238.338 35.4478 236.12 33.7977 231.573 33.7977C228.717 33.7977 226.485 34.6991 225.196 35.4617V39.0254C226.945 37.8917 228.976 37.2675 231.06 37.2227C233.112 37.2227 234.054 37.9438 234.054 39.8851V40.8973H233.361C226.804 40.8973 223.893 43.0605 223.893 46.7212C223.893 50.4096 226.111 52.4618 229.438 52.4618C231.961 52.4618 233.042 51.6299 233.874 50.7701H234.054C234.082 51.2416 234.235 51.8517 234.373 52.2122H238.56C238.414 50.7376 238.34 49.2568 238.338 47.775V39.8435ZM234.041 47.8859C233.514 48.6763 232.516 49.328 230.991 49.328C229.188 49.328 228.287 48.2465 228.287 46.6241C228.287 44.5026 229.757 43.7399 233.444 43.7399H234.054V47.8859H234.041Z" fill="#21201F"/>
<mask id="mask2_82_1403" style="mask-type:luminance" maskUnits="userSpaceOnUse" x="111" y="23" width="35" height="34">
<path d="M111.906 23.2007H145.178V56.7945H111.906V23.2007Z" fill="white"/>
</mask>
<g mask="url(#mask2_82_1403)">
<mask id="mask3_82_1403" style="mask-type:luminance" maskUnits="userSpaceOnUse" x="106" y="17" width="45" height="46">
<path d="M106.36 17.603H150.723V62.3948H106.36V17.603Z" fill="white"/>
</mask>
<g mask="url(#mask3_82_1403)">
<path d="M121.679 46.9232C112.779 37.9369 111.905 33.2197 112.197 30.8682C111.905 33.1357 111.905 36.0752 111.905 39.9945C111.905 47.917 111.905 51.8783 114.331 54.3418C116.785 56.7914 120.709 56.7914 128.541 56.7914C132.409 56.7914 135.334 56.7914 137.594 56.5114C135.251 56.7914 130.579 55.9096 121.679 46.9232Z" fill="url(#paint0_linear_82_1403)"/>
<path d="M142.551 25.5739C140.097 23.1104 136.174 23.1104 128.341 23.1104C120.494 23.1104 116.585 23.1104 114.131 25.5739C112.911 26.8197 112.301 28.4434 111.996 30.7809C111.705 33.1325 112.551 37.8356 121.479 46.836C130.406 55.8503 135.051 56.7182 137.393 56.4102C139.695 56.1163 141.317 55.5004 142.551 54.2546C144.977 51.7911 144.977 47.8158 144.977 39.9073C144.977 31.9987 144.977 28.0374 142.551 25.5739Z" fill="url(#paint1_linear_82_1403)"/>
<path d="M132.908 52.7322L132.867 52.2842C132.201 45.1036 131.869 41.5062 129.442 39.0847C127.03 36.6351 123.481 36.2992 116.369 35.6273L115.926 35.5853C115.371 35.5317 114.832 35.366 114.341 35.0979C113.851 34.8298 113.419 34.4649 113.071 34.0248C112.723 33.5847 112.466 33.0785 112.316 32.5362C112.166 31.9939 112.125 31.4266 112.197 30.8682C112.086 31.3721 112.016 31.918 112.086 32.4359C112.211 33.6117 112.543 34.7874 112.945 35.6973C114.082 38.2588 116.453 42.3601 121.319 47.2871C126.198 52.2002 130.26 54.5938 132.783 55.7416C133.685 56.1475 134.863 56.4835 136.027 56.6094C136.54 56.6794 137.067 56.6094 137.58 56.4975C137.026 56.5694 136.463 56.5279 135.925 56.3754C135.387 56.2228 134.885 55.9624 134.449 55.6097C134.013 55.2569 133.652 54.8191 133.387 54.3223C133.122 53.8255 132.96 53.2799 132.908 52.7182V52.7322Z" fill="url(#paint2_linear_82_1403)"/>
</g>
</g>
<defs>
<linearGradient id="paint0_linear_82_1403" x1="111.905" y1="56.7942" x2="137.837" y2="31.1153" gradientUnits="userSpaceOnUse">
<stop stop-color="#00E6E6"/>
<stop offset="0.495" stop-color="#0059B3"/>
</linearGradient>
<linearGradient id="paint1_linear_82_1403" x1="111.948" y1="56.462" x2="148.619" y2="27.7667" gradientUnits="userSpaceOnUse">
<stop stop-color="#00BFFF"/>
<stop offset="1" stop-color="#80FFEA"/>
</linearGradient>
<linearGradient id="paint2_linear_82_1403" x1="121.924" y1="47.0982" x2="128.921" y2="40.858" gradientUnits="userSpaceOnUse">
<stop stop-color="#E6FBFF"/>
<stop offset="1" stop-color="white"/>
</linearGradient>
</defs>
</svg>
