<svg width="241" height="82" viewBox="0 0 241 82" fill="none" xmlns="http://www.w3.org/2000/svg">
<path d="M38.218 29.5798C39.0618 29.5278 39.2426 29.9187 39.674 30.5699C39.9997 31.0616 40.3137 31.5668 40.6306 32.0647L43.364 36.3606L54.3899 53.7135C54.924 54.5523 57.9513 59.0183 57.9475 59.6772C57.9478 59.8388 57.8823 59.9934 57.7665 60.105C57.3132 60.5479 55.3006 60.3854 54.572 60.3809C52.0777 60.3858 50.3293 60.8227 48.9016 58.389C48.4165 57.5621 47.7586 56.6007 47.2374 55.7732L43.705 50.2144L38.1393 41.4507C37.1989 39.9702 36.258 38.4948 35.3239 36.9959C33.9522 34.7946 35.6203 33.275 36.691 31.4184C37.0553 30.7867 37.5855 29.9251 38.218 29.5798Z" fill="#373737"/>
<path d="M137.481 32.4517L142.111 32.4609L144.347 41.1383C144.839 43.0465 145.378 44.9508 145.784 46.8798C145.921 47.5275 146.423 50.8847 146.636 51.0986C146.802 50.8871 146.843 50.479 146.887 50.2104C147.433 46.8583 148.259 43.5652 149.023 40.2582C149.611 37.655 150.215 35.0555 150.834 32.4596L155.674 32.4691C155.401 33.3035 155.148 34.4473 154.932 35.3209L149.688 56.1188C147.927 56.1848 145.853 56.1353 144.065 56.1433L140.827 43.4045C140.462 41.9267 140.172 39.8591 139.746 38.5042C139.594 39.0583 139.472 39.8168 139.358 40.3944C139.141 41.5056 138.905 42.6129 138.65 43.7158C137.701 47.7361 136.55 52.1239 135.495 56.1177C133.742 56.177 131.7 56.1236 129.907 56.1404C129.434 54.4778 129.001 52.6044 128.579 50.9218L126.229 41.5869L124.709 35.6204C124.507 34.8236 124.065 33.2325 123.944 32.46C125.551 32.4773 127.158 32.4761 128.765 32.4563C128.9 33.3864 129.362 35.1076 129.588 36.0707L131.146 42.7919C131.59 44.6318 131.991 46.4818 132.35 48.3405C132.512 49.1792 132.634 50.0207 132.778 50.8619C132.808 51.0338 132.807 51.0207 132.917 51.0887C133.014 50.9889 133.069 50.8283 133.088 50.6921C133.504 47.5157 134.368 44.4918 135.171 41.394L137.481 32.4517Z" fill="#373737"/>
<path d="M49.7536 70.4422C47.1307 70.4691 45.7305 70.8905 44.1427 68.414L34.1126 52.6294L31.154 47.9794C30.6302 47.1594 30.0536 46.327 29.6001 45.4625C29.1415 44.5881 29.2674 43.4786 29.7148 42.6261C33.0459 36.279 33.176 38.3993 36.2333 43.2233L44.4627 56.1626L46.7695 59.8003C48.2685 62.1574 48.7061 63.1387 51.7048 62.9973C52.7657 62.9477 54.1743 62.9955 55.2611 62.9943L66.2288 62.9829C67.5505 62.9805 68.9862 62.9077 70.2811 63.0683C71.066 63.2444 70.7827 64.1648 70.4345 64.6351C69.0681 66.4795 68.0952 69.3028 65.9613 70.299C65.0696 70.5234 61.3282 70.4398 60.2297 70.438L49.7536 70.4422Z" fill="#373737"/>
<path d="M49.7537 70.4418L49.7933 70.3565C50.0306 70.2968 51.9701 70.3219 52.3448 70.3225C51.9976 70.2335 50.3033 70.3857 49.852 70.2371L49.9063 70.1613C50.1741 70.0891 50.5568 70.2067 50.8613 70.1965C54.2955 70.1106 57.7312 70.0939 61.1662 70.1452C62.094 70.1506 65.2197 70.1303 65.9614 70.2986C65.0697 70.523 61.3283 70.4394 60.2298 70.4377L49.7537 70.4418Z" fill="#3C3737"/>
<path d="M51.6985 7.90257L53.6466 4.83063C54.2566 3.87079 55.4885 1.32374 56.6881 3.18218C59.478 7.50464 62.2415 11.8517 64.9723 16.2124C66.034 17.9112 64.9345 19.3164 64.0391 20.726L62.3138 23.438C60.605 26.1315 58.9065 28.8305 57.192 31.5213C56.4614 32.6678 55.7257 32.8852 54.9079 31.6666C54.2858 30.7396 53.7074 29.7817 53.1112 28.8379L50.2281 24.3111C49.5567 23.236 48.8797 22.1644 48.197 21.0965C47.2773 19.6681 45.7082 17.8393 46.5807 16.0635C47.235 14.7318 48.1554 13.53 48.9296 12.2653C49.2306 11.7897 50.1718 10.1373 50.4724 9.86446C50.828 9.22968 51.3026 8.52266 51.6985 7.90257Z" fill="#DF912D"/>
<path d="M43.8992 20.5693C44.1481 20.5457 44.6308 20.5378 44.7896 20.7261C45.6225 21.7138 46.5168 23.231 47.2069 24.3206L51.4861 31.0659L63.4246 49.8498C65.3304 52.8515 67.2554 55.842 69.1437 58.854C69.3465 59.188 69.6139 59.7999 69.2494 60.1159C68.8476 60.4642 68.2946 60.3978 67.7919 60.3955C67.2386 60.3928 66.6648 60.3853 66.1015 60.3806C63.5717 60.393 62.0083 60.8517 60.4239 58.4355C59.0503 56.3105 57.6933 54.1747 56.353 52.0281L47.4202 37.9748L43.1377 31.2299C42.5802 30.3563 41.2382 28.3658 40.8301 27.5148C40.5548 26.9319 40.4808 26.2727 40.6199 25.6425C40.8194 24.7071 42.7901 21.8222 43.4507 20.9183C43.5253 20.8161 43.782 20.6439 43.8992 20.5693Z" fill="#373737"/>
<path fill-rule="evenodd" clip-rule="evenodd" d="M93.1147 32.4656C96.042 32.4394 99.3604 32.3369 101.754 34.3445C104.598 36.7288 104.62 42.1731 102.287 44.9139C100.491 47.0233 98.0112 47.5132 95.3843 47.7019C94.478 47.6884 93.5717 47.6882 92.6655 47.7019C92.6217 50.4935 92.6177 53.2863 92.6538 56.0779C91.0374 56.1392 89.3731 56.0474 87.7485 56.1268C87.8085 50.4599 87.7432 44.6649 87.7397 38.9871L87.7446 34.3943C87.7457 33.8574 87.7275 33.25 87.7427 32.7098C87.7472 32.5498 87.793 32.5481 87.9028 32.4666C89.6016 32.5101 91.3907 32.463 93.1147 32.4656ZM93.8139 36.5281L92.6831 36.5535C92.647 38.9081 92.6441 41.2633 92.6743 43.618C94.0423 43.669 96.116 43.7144 97.353 43.0066C97.6775 42.7901 97.9042 42.6329 98.1655 42.3348C99.1498 41.2123 99.2122 39.1362 98.4214 37.8943C97.4949 36.4401 95.3157 36.5157 93.8139 36.5281Z" fill="#373737"/>
<path d="M206.871 39.0659C207.145 39.2478 207.308 39.3497 207.55 39.5823C207.509 39.6183 207.491 39.6334 207.444 39.6617C207.329 39.7293 207.191 39.7421 207.067 39.6965C206.763 39.5877 206.771 39.3163 206.871 39.0659Z" fill="#3C3737"/>
<path fill-rule="evenodd" clip-rule="evenodd" d="M200.397 37.9439C202.383 37.6219 205.192 37.8536 206.87 39.0669C207.145 39.2488 207.308 39.351 207.55 39.5835C207.665 39.67 207.952 39.9476 208.057 40.0581C210.299 42.4203 210.106 45.3666 210.103 48.3472C206.275 48.4159 202.397 48.3326 198.558 48.3833C198.972 54.4738 205.258 53.1934 209.11 51.4644C209.086 52.6981 209.108 53.9934 209.109 55.2319C207.985 55.6945 207.082 56.0399 205.86 56.2485C203.014 56.7346 199.546 56.6261 197.104 54.8931C195.254 53.5804 194.237 51.6807 193.865 49.4624C193.399 46.6777 193.755 43.2624 195.429 40.9234C196.617 39.2636 198.41 38.2659 200.397 37.9439ZM205.598 45.1353C205.387 42.5687 204.342 41.0428 201.568 41.2886C199.441 41.7024 198.91 43.2069 198.656 45.1441L202.801 45.1538C203.654 45.1508 204.765 45.18 205.598 45.1353Z" fill="#373737"/>
<path d="M121.885 43.23C122.276 44.646 122.262 45.8073 122.245 47.2656C122.242 47.4932 122.242 48.1435 122.198 48.3408C122.187 48.1419 122.195 47.9513 122.095 47.78L122.11 47.873C122.073 47.8074 122.021 47.7177 121.955 47.6038C121.953 46.782 121.963 45.9518 121.905 45.1324C121.899 45.0562 122.05 44.6745 122.035 44.6023C121.87 43.7952 121.775 44.0856 121.885 43.23Z" fill="#3C3737"/>
<path fill-rule="evenodd" clip-rule="evenodd" d="M111.933 38.0617C114.228 37.559 116.886 37.7287 118.906 39.008C120.413 39.9628 121.483 41.4812 121.885 43.2307C122.275 44.6466 122.263 45.8076 122.245 47.2658C122.243 47.4935 122.242 48.1437 122.198 48.341C118.424 48.4482 114.472 48.3266 110.673 48.3752C110.925 50.5784 111.686 52.4113 114.176 52.7824C116.477 53.1255 119.142 52.4585 121.225 51.4719C121.192 52.6983 121.205 53.9814 121.2 55.2121C118.189 56.8615 112.718 57.0037 109.722 55.216C107.911 54.1354 106.584 52.2468 106.134 50.175C105.083 45.3306 106.468 39.2609 111.933 38.0617ZM117.75 45.135C117.469 42.6041 116.486 40.9861 113.667 41.2883C111.646 41.7077 110.964 43.2206 110.819 45.1369C112.224 45.1563 113.629 45.1615 115.033 45.1526C115.847 45.1525 116.959 45.1849 117.75 45.135Z" fill="#373737"/>
<path fill-rule="evenodd" clip-rule="evenodd" d="M164.785 37.8354C167.178 37.6157 169.753 38.2028 171.481 39.9878C173.799 42.3831 173.611 45.2537 173.578 48.354C172.298 48.3166 170.743 48.3608 169.442 48.3608C166.974 48.3512 164.505 48.3575 162.037 48.3784C162.123 49.0655 162.187 49.6579 162.442 50.3091C163.974 54.2088 169.275 52.8276 172.163 51.6704L172.612 51.4341C172.552 52.574 172.596 54.0399 172.598 55.2036C171.181 55.9276 169.917 56.1833 168.369 56.3892C162.829 57.1252 157.741 54.7656 157.249 48.6177C156.807 43.0693 158.817 38.4558 164.785 37.8354ZM169.105 45.1401C168.888 42.6289 167.817 40.9868 165.065 41.2827C165.038 41.2855 165.011 41.2887 164.985 41.2925C162.94 41.7958 162.376 43.2013 162.17 45.1411L166.379 45.1518C167.219 45.1516 168.283 45.1812 169.105 45.1401Z" fill="#373737"/>
<path d="M174.812 32.4795L192.495 32.4878C192.429 33.7679 192.45 35.2276 192.475 36.511C190.364 36.5765 188.196 36.5351 186.072 36.5704C185.928 40.7298 186.027 45.4997 186.031 49.6853C186.021 51.8172 186.031 53.9491 186.06 56.0808C184.456 56.1212 182.802 56.0362 181.2 56.1396C181.237 53.323 181.206 50.4541 181.206 47.6328L181.194 36.563C179.07 36.5401 176.947 36.5431 174.823 36.572C174.835 35.2078 174.831 33.8436 174.812 32.4795Z" fill="#373737"/>
<path d="M72.114 30.8775C72.7134 29.784 73.5801 29.7612 74.2691 30.7848C74.85 31.6583 76.5007 34.0965 76.7715 34.9754C76.9057 35.424 76.9305 35.8986 76.8437 36.3589C76.6743 37.2129 75.4181 39.013 74.9109 39.8125L72.1545 44.1481C70.9312 46.0696 69.6279 48.2534 68.31 50.1186C68.0755 50.4505 67.682 50.6265 67.3428 50.5494C67.0935 50.4908 66.8137 50.2956 66.6547 50.0935C66.2534 49.5836 65.9043 49.0083 65.57 48.4422C64.7969 47.1334 63.4726 45.7751 63.8925 44.1199C64.0055 43.6746 64.2313 43.2699 64.4594 42.8774C66.698 39.3056 68.9855 35.7638 71.2393 32.2015C71.3584 32.0133 72.0073 30.9631 72.114 30.8775Z" fill="#DF912D"/>
<path d="M67.1741 21.0521C67.5188 21.0122 67.9299 21.0391 68.1722 21.3327C69.0389 22.3828 69.7567 23.7309 70.5204 24.8693C70.8436 25.384 71.2041 26.3049 71.1235 26.918C70.9636 28.1332 69.784 29.7047 69.1547 30.6871L66.7059 34.5297L64.2139 38.451C63.7266 39.219 62.7082 41.0344 61.991 41.4545C61.5182 41.5031 61.1046 41.3352 60.8306 40.9468C60.1766 40.0628 59.6196 38.9786 58.9738 38.0943C57.0978 35.5257 58.7068 33.9239 60.1345 31.6887L62.4489 28.0354L64.9684 24.0681C65.4546 23.3032 66.4754 21.4858 67.1741 21.0521Z" fill="#DF912D"/>
<path d="M78.7446 39.1319C79.5811 39.0384 79.9132 39.5938 80.3076 40.2391C80.8614 41.1452 81.4614 42.0232 82.0091 42.9336C82.4371 43.6183 82.7232 44.6215 82.4369 45.4243C82.0449 46.5233 81.1931 47.6921 80.558 48.6863L78.123 52.5172L75.6863 56.3652C75.2152 57.1097 74.1287 59.0234 73.4477 59.4195C72.5238 59.5589 72.0616 58.7442 71.6719 58.0502C70.9155 56.7033 69.1395 54.8053 69.6874 53.1734C70.0441 52.1112 71.1603 50.5333 71.794 49.5334L75.0263 44.4423L77.001 41.3235C77.4548 40.6072 78.001 39.4879 78.7446 39.1319Z" fill="#DF912D"/>
</svg>
