<svg width="184" height="82" viewBox="0 0 184 82" fill="none" xmlns="http://www.w3.org/2000/svg">
<g clip-path="url(#clip0_4019_788)">
<path d="M10.218 29.5798C11.0618 29.5278 11.2426 29.9187 11.674 30.5699C11.9997 31.0616 12.3137 31.5668 12.6306 32.0647L15.364 36.3606L26.3899 53.7135C26.924 54.5523 29.9513 59.0183 29.9475 59.6772C29.9478 59.8388 29.8823 59.9934 29.7665 60.105C29.3132 60.5479 27.3006 60.3854 26.572 60.3809C24.0777 60.3858 22.3293 60.8227 20.9016 58.389C20.4165 57.5621 19.7586 56.6007 19.2374 55.7732L15.705 50.2144L10.1393 41.4507C9.19888 39.9702 8.25801 38.4948 7.32394 36.9959C5.95216 34.7946 7.62034 33.275 8.69099 31.4184C9.05526 30.7867 9.58551 29.9251 10.218 29.5798Z" fill="#373737"/>
<path d="M109.481 32.4517L114.111 32.4609L116.347 41.1383C116.839 43.0465 117.378 44.9508 117.784 46.8798C117.921 47.5275 118.423 50.8847 118.636 51.0986C118.802 50.8871 118.843 50.479 118.887 50.2104C119.433 46.8583 120.259 43.5652 121.023 40.2582C121.611 37.655 122.215 35.0555 122.834 32.4596L127.674 32.4691C127.401 33.3035 127.148 34.4473 126.932 35.3209L121.688 56.1188C119.927 56.1848 117.853 56.1353 116.065 56.1433L112.827 43.4045C112.462 41.9267 112.172 39.8591 111.746 38.5042C111.594 39.0583 111.472 39.8168 111.358 40.3944C111.141 41.5056 110.905 42.6129 110.65 43.7158C109.701 47.7361 108.55 52.1239 107.495 56.1177C105.742 56.177 103.7 56.1236 101.907 56.1404C101.434 54.4778 101.001 52.6044 100.579 50.9218L98.229 41.5869L96.7089 35.6204C96.5073 34.8236 96.065 33.2325 95.9444 32.46C97.5514 32.4773 99.1579 32.4761 100.765 32.4563C100.9 33.3864 101.362 35.1076 101.588 36.0707L103.147 42.7919C103.59 44.6318 103.991 46.4818 104.35 48.3405C104.512 49.1792 104.634 50.0207 104.778 50.8619C104.808 51.0338 104.807 51.0207 104.917 51.0887C105.014 50.9889 105.069 50.8283 105.088 50.6921C105.504 47.5157 106.368 44.4918 107.171 41.394L109.481 32.4517Z" fill="#373737"/>
<path d="M21.7536 70.4422C19.1307 70.4691 17.7305 70.8905 16.1427 68.414L6.11263 52.6294L3.15397 47.9794C2.63021 47.1594 2.05362 46.327 1.60012 45.4625C1.14145 44.5881 1.2674 43.4786 1.71479 42.6261C5.04592 36.279 5.17599 38.3993 8.23334 43.2233L16.4627 56.1626L18.7695 59.8003C20.2685 62.1574 20.7061 63.1387 23.7048 62.9973C24.7657 62.9477 26.1743 62.9955 27.2611 62.9943L38.2288 62.9829C39.5505 62.9805 40.9862 62.9077 42.2811 63.0683C43.066 63.2444 42.7827 64.1648 42.4345 64.6351C41.0681 66.4795 40.0952 69.3028 37.9613 70.299C37.0696 70.5234 33.3282 70.4398 32.2297 70.438L21.7536 70.4422Z" fill="#373737"/>
<path d="M21.7536 70.4418L21.7932 70.3565C22.0305 70.2968 23.97 70.3219 24.3447 70.3225C23.9975 70.2335 22.3032 70.3857 21.852 70.2371L21.9063 70.1613C22.174 70.0891 22.5567 70.2067 22.8612 70.1965C26.2955 70.1106 29.7312 70.0939 33.1661 70.1452C34.0939 70.1506 37.2197 70.1303 37.9613 70.2986C37.0696 70.523 33.3282 70.4394 32.2298 70.4377L21.7536 70.4418Z" fill="#3C3737"/>
<path d="M23.6985 7.90257L25.6467 4.83063C26.2566 3.87079 27.4886 1.32374 28.6881 3.18218C31.478 7.50464 34.2416 11.8517 36.9723 16.2124C38.0341 17.9112 36.9346 19.3164 36.0391 20.726L34.3138 23.438C32.6051 26.1315 30.9066 28.8305 29.1921 31.5213C28.4615 32.6678 27.7258 32.8852 26.908 31.6666C26.2858 30.7396 25.7075 29.7817 25.1112 28.8379L22.2282 24.3111C21.5568 23.236 20.8797 22.1644 20.1971 21.0965C19.2773 19.6681 17.7083 17.8393 18.5808 16.0635C19.2351 14.7318 20.1554 13.53 20.9297 12.2653C21.2307 11.7897 22.1719 10.1373 22.4725 9.86446C22.8281 9.22968 23.3027 8.52266 23.6985 7.90257Z" fill="#DF912D"/>
<path d="M15.8993 20.5693C16.1481 20.5457 16.6308 20.5378 16.7896 20.7261C17.6225 21.7138 18.5168 23.231 19.207 24.3206L23.4862 31.0659L35.4247 49.8498C37.3305 52.8515 39.2555 55.842 41.1438 58.854C41.3465 59.188 41.614 59.7999 41.2494 60.1159C40.8477 60.4642 40.2947 60.3978 39.7919 60.3955C39.2387 60.3928 38.6649 60.3853 38.1016 60.3806C35.5718 60.393 34.0084 60.8517 32.424 58.4355C31.0504 56.3105 29.6934 54.1747 28.353 52.0281L19.4203 37.9748L15.1378 31.2299C14.5803 30.3563 13.2382 28.3658 12.8302 27.5148C12.5549 26.9319 12.4809 26.2727 12.6199 25.6425C12.8195 24.7071 14.7902 21.8222 15.4507 20.9183C15.5254 20.8161 15.7821 20.6439 15.8993 20.5693Z" fill="#373737"/>
<path d="M65.1148 32.4656C68.0421 32.4394 71.3604 32.3369 73.7544 34.3445C76.5976 36.7288 76.6197 42.1731 74.2867 44.9139C72.491 47.0233 70.0113 47.5132 67.3843 47.7019C66.4781 47.6884 65.5718 47.6882 64.6656 47.7019C64.6218 50.4935 64.6178 53.2863 64.6538 56.0779C63.0374 56.1392 61.3731 56.0474 59.7486 56.1268C59.8086 50.4599 59.7433 44.6649 59.7398 38.9871L59.7447 34.3943C59.7457 33.8574 59.7275 33.25 59.7427 32.7098C59.7472 32.5498 59.793 32.5481 59.9029 32.4666C61.6017 32.5101 63.3908 32.463 65.1148 32.4656ZM65.814 36.5281L64.6831 36.5535C64.6471 38.9081 64.6442 41.2633 64.6744 43.618C66.0424 43.669 68.1161 43.7144 69.3531 43.0066C69.6776 42.7901 69.9043 42.6329 70.1656 42.3348C71.1499 41.2123 71.2122 39.1362 70.4214 37.8943C69.4949 36.4401 67.3158 36.5157 65.814 36.5281Z" fill="#373737"/>
<path d="M178.87 39.0659C179.145 39.2478 179.308 39.3497 179.55 39.5823C179.509 39.6183 179.491 39.6334 179.444 39.6617C179.329 39.7293 179.191 39.7421 179.067 39.6965C178.763 39.5877 178.771 39.3163 178.87 39.0659Z" fill="#3C3737"/>
<path d="M172.397 37.9433C174.383 37.6214 177.192 37.8532 178.87 39.0664C179.145 39.2483 179.308 39.3504 179.55 39.583C179.665 39.6694 179.952 39.9481 180.057 40.0586C182.299 42.4207 182.106 45.3662 182.103 48.3467C178.275 48.4154 174.396 48.3331 170.557 48.3838C170.971 54.4741 177.258 53.1939 181.11 51.4648C181.087 52.6984 181.108 53.9931 181.109 55.2314C179.985 55.694 179.082 56.0403 177.861 56.249C175.014 56.735 171.546 56.6257 169.104 54.8926C167.254 53.5798 166.237 51.6804 165.865 49.4619C165.399 46.6773 165.754 43.2629 167.428 40.9238C168.616 39.2637 170.41 38.2654 172.397 37.9433ZM177.598 45.1357C177.387 42.5691 176.342 41.0424 173.568 41.2881C171.442 41.7019 170.91 43.2065 170.656 45.1435L174.801 45.1543C175.654 45.1513 176.765 45.1805 177.598 45.1357Z" fill="#373737"/>
<path d="M93.8851 43.23C94.276 44.646 94.2624 45.8073 94.2446 47.2656C94.2423 47.4932 94.2423 48.1435 94.1979 48.3408C94.1873 48.1419 94.195 47.9513 94.095 47.78L94.1104 47.873C94.0732 47.8074 94.0211 47.7177 93.9555 47.6038C93.9531 46.782 93.9632 45.9518 93.9047 45.1324C93.8993 45.0562 94.0495 44.6745 94.0347 44.6023C93.8698 43.7952 93.7752 44.0856 93.8851 43.23Z" fill="#3C3737"/>
<path d="M83.9325 38.0612C86.2283 37.5586 88.8864 37.7282 90.9061 39.0075C92.413 39.9622 93.4831 41.4807 93.8846 43.2302C94.2754 44.6462 94.2627 45.808 94.245 47.2663C94.2426 47.4942 94.2424 48.1443 94.1981 48.3415C90.4236 48.4487 86.472 48.3261 82.6727 48.3747C82.9246 50.5781 83.6852 52.4118 86.1756 52.7829C88.4766 53.1259 91.1419 52.4589 93.2254 51.4724C93.1923 52.6987 93.2054 53.9819 93.2 55.2126C90.1888 56.8619 84.718 57.0041 81.7215 55.2165C79.9105 54.1359 78.5836 52.2473 78.1336 50.1755C77.0824 45.331 78.4674 39.2604 83.9325 38.0612ZM89.7498 45.1345C89.4689 42.6038 88.4856 40.9865 85.6668 41.2888C83.646 41.7082 82.9641 43.2209 82.8192 45.1374C84.224 45.1567 85.6288 45.162 87.033 45.153C87.8472 45.153 88.9593 45.1844 89.7498 45.1345Z" fill="#373737"/>
<path d="M136.784 37.8355C139.178 37.6157 141.753 38.2029 143.481 39.9878C145.799 42.3831 145.611 45.2537 145.577 48.354C144.298 48.3167 142.742 48.3609 141.442 48.3609C138.974 48.3512 136.505 48.3575 134.036 48.3784C134.123 49.0656 134.187 49.6578 134.443 50.3091C135.974 54.2087 141.274 52.8276 144.162 51.6704L144.611 51.4341C144.552 52.574 144.595 54.04 144.598 55.2036C143.181 55.9276 141.918 56.1833 140.369 56.3892C134.83 57.1254 129.742 54.7658 129.25 48.6177C128.807 43.0693 130.817 38.4558 136.784 37.8355ZM141.106 45.1402C140.889 42.6289 139.817 40.9867 137.065 41.2827C137.038 41.2855 137.011 41.2887 136.985 41.2925C134.94 41.7959 134.376 43.2014 134.17 45.1411L138.379 45.1519C139.219 45.1516 140.284 45.1812 141.106 45.1402Z" fill="#373737"/>
<path d="M146.812 32.4795L164.495 32.4878C164.429 33.7679 164.45 35.2276 164.475 36.511C162.364 36.5765 160.196 36.5351 158.072 36.5704C157.928 40.7298 158.027 45.4997 158.031 49.6853C158.021 51.8172 158.031 53.9491 158.06 56.0808C156.456 56.1212 154.802 56.0362 153.2 56.1396C153.237 53.323 153.206 50.4541 153.206 47.6328L153.194 36.563C151.07 36.5401 148.947 36.5431 146.823 36.572C146.835 35.2078 146.831 33.8436 146.812 32.4795Z" fill="#373737"/>
<path d="M44.114 30.8775C44.7134 29.784 45.5801 29.7612 46.2691 30.7848C46.85 31.6583 48.5007 34.0965 48.7715 34.9754C48.9057 35.424 48.9305 35.8986 48.8437 36.3589C48.6743 37.2129 47.4181 39.013 46.9109 39.8125L44.1545 44.1481C42.9312 46.0696 41.6279 48.2534 40.31 50.1186C40.0755 50.4505 39.682 50.6265 39.3428 50.5494C39.0935 50.4908 38.8137 50.2956 38.6547 50.0935C38.2534 49.5836 37.9043 49.0083 37.57 48.4422C36.7969 47.1334 35.4726 45.7751 35.8925 44.1199C36.0055 43.6746 36.2313 43.2699 36.4594 42.8774C38.698 39.3056 40.9855 35.7638 43.2393 32.2015C43.3584 32.0133 44.0073 30.9631 44.114 30.8775Z" fill="#DF912D"/>
<path d="M39.1741 21.0521C39.5189 21.0122 39.93 21.0391 40.1722 21.3327C41.039 22.3828 41.7568 23.7309 42.5204 24.8693C42.8437 25.384 43.2042 26.3049 43.1235 26.918C42.9636 28.1332 41.784 29.7047 41.1548 30.6871L38.7059 34.5297L36.214 38.451C35.7267 39.219 34.7082 41.0344 33.9911 41.4545C33.5183 41.5031 33.1047 41.3352 32.8306 40.9468C32.1766 40.0628 31.6197 38.9786 30.9738 38.0943C29.0979 35.5257 30.7069 33.9239 32.1346 31.6887L34.4489 28.0354L36.9685 24.0681C37.4546 23.3032 38.4755 21.4858 39.1741 21.0521Z" fill="#DF912D"/>
<path d="M50.7447 39.1319C51.5811 39.0384 51.9132 39.5938 52.3076 40.2391C52.8614 41.1452 53.4614 42.0232 54.0091 42.9336C54.4371 43.6183 54.7232 44.6215 54.4369 45.4243C54.0449 46.5233 53.1931 47.6921 52.558 48.6863L50.123 52.5172L47.6863 56.3652C47.2152 57.1097 46.1287 59.0234 45.4477 59.4195C44.5238 59.5589 44.0616 58.7442 43.6719 58.0502C42.9155 56.7033 41.1395 54.8053 41.6874 53.1734C42.0441 52.1112 43.1603 50.5333 43.794 49.5334L47.0263 44.4423L49.001 41.3235C49.4548 40.6072 50.001 39.4879 50.7447 39.1319Z" fill="#DF912D"/>
</g>
<defs>
<clipPath id="clip0_4019_788">
<rect width="184" height="82" fill="white"/>
</clipPath>
</defs>
</svg>
