<svg xmlns="http://www.w3.org/2000/svg" width="140" height="100" viewBox="0 0 140 100" fill="none">
    <path
        d="M66.0883 10.1131C66.3009 10.0945 66.5252 10.0946 66.7398 10.0918C74.6409 9.96385 82.2721 12.9651 87.9694 18.4408C94.3941 24.7142 97.5424 33.0086 97.6613 41.925C94.8653 41.9044 92.0691 41.9084 89.2731 41.9365C89.3007 29.351 80.2864 18.3799 67.3181 18.4528C61.2387 18.4871 56.0346 20.2681 51.6674 24.6238C47.0439 29.2347 44.7703 35.4937 44.7219 41.9724C44.7191 51.4502 52.1331 59.8185 61.0933 62.2229C64.5792 63.1583 67.6654 63.0228 71.2086 63.0207L78.7661 63.0175L101.198 63.0182L126.965 63.0185L135.016 63.0218C136.407 63.0221 138.496 63.0791 139.827 62.9464L139.828 71.3436L87.432 71.337L73.5942 71.3384C68.924 71.3405 65.0786 71.579 60.4717 70.6648C55.2434 69.6038 50.3808 67.2016 46.3614 63.6936C33.3168 52.1138 33.5048 32.8639 44.7725 20.0369C50.3661 13.6691 57.695 10.5882 66.0883 10.1131Z"
        fill="#00BEE4" />
    <path
        d="M66.1886 23.0446C66.2774 23.0399 66.3661 23.0371 66.4551 23.0364C71.1164 22.9949 75.4678 24.6525 78.7926 27.9606C82.5356 31.6473 84.649 36.6777 84.6623 41.9312C81.892 41.9054 79.1215 41.9075 76.3514 41.938C76.1114 38.8587 75.6858 36.3746 73.4356 33.9666C71.7322 32.2028 69.4308 31.3805 67.044 31.3516C61.1043 31.279 57.5507 36.3236 57.6047 41.8944C57.5038 46.0064 61.5365 49.4128 65.3757 49.9558C67.2237 50.217 69.9706 50.0834 71.9297 50.0808L84.0134 50.0752L127.268 50.077L139.826 50.0699L139.828 58.3749L86.9161 58.3542L72.6158 58.3547C70.2905 58.3549 66.0526 58.4794 63.939 58.106C60.507 57.5218 57.3269 55.9278 54.8053 53.5273C51.4444 50.3548 49.4834 45.9758 49.3549 41.3556C49.1833 36.5049 50.978 31.7902 54.3316 28.2812C57.4318 25.0307 61.6977 23.1466 66.1886 23.0446Z"
        fill="#00BEE4" />
    <path
        d="M8.39504 10.0253C10.5311 9.971 12.9161 10.0211 15.0696 10.0204L28.327 10.0151C28.4674 10.7938 28.404 13.6791 28.4034 14.6631L28.3966 24.4601L28.3981 61.8076C28.3979 62.7631 28.4778 72.0428 28.308 72.3378C25.5621 72.317 22.8161 72.3226 20.0704 72.3544L20.0102 34.363L19.9547 23.4649C19.9505 22.4797 19.8742 19.2256 19.9971 18.3903C16.1982 18.3106 12.1591 18.3794 8.34119 18.3786C8.46158 15.6554 8.28289 12.7579 8.39504 10.0253Z"
        fill="#00BEE4" />
    <path
        d="M16.3273 22.8052L16.465 22.8406C16.616 23.1408 16.5384 67.9865 16.5597 72.3295L8.23851 72.3407L8.28941 64.4355L8.28891 41.9775L8.28759 34.9851C8.28677 33.8784 8.22633 32.2889 8.30736 31.2238C6.02684 31.0812 2.34611 31.1835 0 31.1841C0.0618755 28.5904 0.0780482 25.4241 0.000790348 22.8406L10.2532 22.8393C12.2259 22.8396 14.3674 22.8786 16.3273 22.8052Z"
        fill="#00BEE4" />
    <path
        d="M64.0349 78.1965C66.3773 78.0975 67.3513 78.1469 68.9551 79.9932L68.9246 78.571L73.121 78.5822L73.127 90.3837C72.431 90.3834 69.4151 90.4201 68.9867 90.3284L68.9197 90.1398C68.9311 89.7804 68.9574 89.4038 68.9778 89.0433C68.3052 89.7305 67.5162 90.4033 66.5873 90.6253C60.6992 92.0371 58.0298 85.2872 60.5149 80.7471C61.3477 79.2254 62.4377 78.6601 64.0349 78.1965ZM67.2571 87.2015C67.6749 87.0254 68.0519 86.8695 68.3537 86.5175C68.5613 86.2751 68.7486 86.0254 68.8696 85.7288C69.4413 84.3284 68.9897 82.3363 67.4096 81.8307C66.8447 81.6478 66.3964 81.704 65.8327 81.747C65.0837 82.0724 64.5838 82.5393 64.2859 83.3061C63.7328 84.7293 64.2409 86.6458 65.8065 87.156C66.3114 87.3206 66.7479 87.2557 67.2571 87.2015Z"
        fill="#00BEE4" />
    <path
        d="M25.8552 78.1956C27.989 78.1174 29.8937 78.0431 31.768 79.3253C33.1011 80.2518 34.0061 81.6751 34.2795 83.2753C34.9822 87.3296 32.5283 90.1536 28.597 90.7506C26.9941 91.0477 24.4873 90.648 23.051 89.7807C21.7049 88.9633 20.7479 87.6351 20.3984 86.0995C19.6278 82.8585 21.1978 79.4768 24.5013 78.5277C24.9467 78.3995 25.4033 78.2989 25.8552 78.1956ZM27.3594 87.7263C31.1434 87.1884 30.4294 81.1155 27.2645 81.2542C26.4662 81.3515 25.8428 81.5159 25.3591 82.212C24.0358 84.1161 24.5571 87.6611 27.3594 87.7263Z"
        fill="#00BEE4" />
    <path
        d="M102.061 78.557C102.871 78.609 105.899 78.431 106.316 78.7256C106.666 79.5023 106.419 83.7768 106.385 84.8936C106.893 84.1042 110.233 78.7671 110.788 78.6356C110.812 78.63 110.836 78.6268 110.859 78.622C112.006 78.3956 113.592 78.569 114.794 78.5743C114.792 79.7071 114.83 90.1796 114.738 90.3655L114.566 90.384C113.358 90.3706 111.608 90.3249 110.429 90.4141C110.43 88.9296 110.338 85.2393 110.5 83.8628C109.337 85.6319 107.377 88.578 106.358 90.3542C105.091 90.4182 103.366 90.3792 102.06 90.3871C102.102 86.4439 102.102 82.5003 102.061 78.557Z"
        fill="#00BEE4" />
    <path
        d="M76.5758 78.5801L87.7789 78.5819L87.7859 90.3878C86.3115 90.3654 84.8087 90.3746 83.3319 90.37C83.4847 88.1933 83.4142 85.4852 83.4127 83.2636C83.4009 82.6691 83.3968 82.1495 83.418 81.5521L80.7798 81.5352C80.8139 86.9142 81.8401 92.0054 74.1812 90.3506C74.2111 89.3377 74.2159 88.3242 74.1956 87.311C74.7381 87.3345 75.7472 87.437 76.1127 86.9928C76.786 86.1746 76.6045 84.3285 76.6013 83.3414L76.5758 78.5801Z"
        fill="#00BEE4" />
    <path
        d="M125.084 78.5591C126.388 78.6235 128.113 78.582 129.444 78.5841L129.446 90.3867L128.442 90.3767C127.431 90.3681 126.071 90.339 125.09 90.4147L125.108 85.6811L121.298 85.6925C121.285 87.2546 121.303 88.817 121.355 90.3785C119.866 90.3694 118.378 90.3724 116.89 90.3869C116.931 86.445 116.931 82.5028 116.891 78.5609C118.325 78.6278 119.817 78.5284 121.287 78.6044C121.367 79.6172 121.312 81.6486 121.3 82.714C122.567 82.694 123.871 82.71 125.141 82.7102C125.047 81.6403 125.091 79.7222 125.084 78.5591Z"
        fill="#00BEE4" />
    <path
        d="M35.3608 78.566C36.8241 78.5841 38.2876 78.582 39.7508 78.5591C39.7542 79.6108 39.7998 81.7031 39.6928 82.7054L43.5638 82.7092L43.583 78.5849L47.9199 78.5761C47.9642 81.6311 47.884 84.7025 47.9291 87.7591C47.9416 88.5996 47.9535 89.461 47.9209 90.2999C47.7326 90.4361 47.4084 90.3841 47.158 90.3762L43.4919 90.3719C43.6158 88.9007 43.5624 87.1815 43.5674 85.6836C42.3345 85.6921 40.915 85.7345 39.6972 85.6755C39.8231 86.7473 39.7461 89.1734 39.7722 90.3942C38.3029 90.367 36.8334 90.3639 35.3641 90.3851C35.4453 86.6762 35.4666 82.2566 35.3608 78.566Z"
        fill="#00BEE4" />
    <path
        d="M8.23927 78.5762C9.69549 78.6043 11.1626 78.5609 12.6356 78.5951C12.6399 79.868 12.6625 82.219 12.5304 83.4234C13.6921 81.8317 14.8473 80.1024 16.1011 78.5887C17.8581 78.5739 19.615 78.5734 21.3718 78.587C19.7138 80.3366 18.2159 82.3477 16.4807 84.1242C17.57 85.3143 18.8209 86.8356 19.8545 88.0894C20.4905 88.8325 21.1602 89.594 21.7542 90.3669C19.948 90.3775 18.142 90.3771 16.3358 90.3661C15.0546 88.6416 13.7932 86.9023 12.5521 85.1486C12.6852 86.4932 12.6111 88.8539 12.6837 90.3837L8.22083 90.3767C8.29955 86.5057 8.24125 82.4631 8.23927 78.5762Z"
        fill="#00BEE4" />
    <path
        d="M114.568 12.5369C117.53 12.2633 120.153 14.4394 120.432 17.4005C120.71 20.3615 118.538 22.9885 115.577 23.2715C112.61 23.5552 109.976 21.3772 109.697 18.4095C109.418 15.4421 111.6 12.8113 114.568 12.5369ZM115.482 22.3764C117.919 22.158 119.721 20.0114 119.514 17.5734C119.308 15.1356 117.17 13.323 114.731 13.5181C112.275 13.7144 110.448 15.8701 110.656 18.3246C110.864 20.7792 113.029 22.5962 115.482 22.3764Z"
        fill="#00BEE4" />
    <path
        d="M113.104 15.1748C113.745 15.2035 114.447 15.1789 115.128 15.1806C116.235 15.1832 117.328 15.5053 117.347 16.8392C117.354 17.3239 116.867 17.6986 116.519 17.9996C117.417 18.7202 117.047 19.3518 117.284 20.476L117.307 20.5847C116.868 20.5641 116.379 20.6413 116.11 20.2829C116.145 18.3613 115.983 18.3667 114.147 18.3552C114.226 19.0482 114.207 19.8335 114.21 20.5377C113.854 20.5507 113.483 20.5766 113.126 20.5962C113.139 18.789 113.132 16.9818 113.104 15.1748ZM114.16 17.5625C114.66 17.5525 115.615 17.5642 116.053 17.4006C116.786 15.7756 115.323 15.8978 114.154 15.9214C114.204 16.5854 114.206 16.8985 114.16 17.5625Z"
        fill="#00BEE4" />
    <path
        d="M53.8754 78.1912C55.1789 78.1302 57.465 78.1646 58.526 79.0435C58.8995 79.3527 58.722 82.2537 58.7134 82.8075C54.4203 79.3946 52.2574 84.0075 53.9862 86.3361C54.3714 86.8638 54.9543 87.2124 55.6013 87.3024C56.8008 87.4702 57.8199 86.8155 58.7192 86.1197C58.6979 86.75 58.7266 87.4834 58.736 88.1212C58.7536 88.7502 58.7791 89.3047 58.7233 89.935C56.4258 90.9284 53.9025 91.2845 51.6558 89.9233C48.1027 87.7709 48.0279 81.709 51.2778 79.2686C52.0957 78.6544 52.8936 78.4122 53.8754 78.1912Z"
        fill="#00BEE4" />
    <path
        d="M89.7018 78.5854C90.8225 78.5806 99.7076 78.494 100.053 78.6924C100.351 79.2853 100.239 81.0117 100.187 81.7157C99.1703 81.7277 98.1185 81.7093 97.0985 81.7049C97.1466 83.5257 97.1062 85.5256 97.1071 87.3606C97.0947 88.3675 97.1341 89.3748 97.1657 90.3813L92.6997 90.3804C92.7259 87.4935 92.7303 84.6063 92.713 81.7192C91.6901 81.7142 90.6672 81.7165 89.6443 81.7261C89.6804 80.6796 89.6996 79.6325 89.7018 78.5854Z"
        fill="#00BEE4" />
    <path
        d="M131.543 78.5669C134.105 78.6601 137.221 78.5758 139.826 78.5682L139.829 81.718L135.92 81.7017C135.998 83.0584 135.94 85.0509 135.941 86.4542L135.955 90.3766L131.56 90.3829C131.584 88.1542 131.592 85.9252 131.583 83.6966C131.583 82.0335 131.618 80.212 131.543 78.5669Z"
        fill="#00BEE4" />
</svg>