<svg width="112" height="100" viewBox="0 0 112 100" fill="none" xmlns="http://www.w3.org/2000/svg">
    <rect width="111.037" height="99.9335" rx="17.766" fill="#00BEE4" />
    <path fill-rule="evenodd" clip-rule="evenodd"
        d="M84.4581 32.1931C86.0651 32.1532 87.6841 32.2955 89.2814 32.5916C98.5444 34.3088 103.074 39.7402 103.258 49.0984C103.488 60.8518 97.3843 67.1356 85.6134 67.5144C80.5186 67.6249 75.1609 66.1407 71.3117 62.6638C68.3028 59.9459 66.9601 55.4207 66.7999 51.4715C66.7308 49.684 66.8312 47.8941 67.1007 46.1258C67.2985 44.7984 67.5424 43.5514 67.9679 42.2781C70.3901 35.0309 77.3775 32.4841 84.4581 32.1931ZM88.9269 41.822C87.7429 40.9099 85.7623 40.5774 84.2824 40.7664C82.9361 40.9253 81.5034 41.2777 80.6144 42.3865C79.0728 44.3101 79.3323 51.469 79.6329 53.9939C79.7972 55.3723 80.1105 56.9424 81.2531 57.8533C82.42 58.7834 84.2625 59.0238 85.7169 58.9705C87.9431 58.7234 89.7588 57.9791 90.2228 55.5261C90.6112 53.4721 90.526 51.337 90.5363 49.2556C90.5214 47.8044 90.5434 46.3725 90.3751 44.9265C90.2271 43.6562 89.9844 42.6368 88.9269 41.822Z"
        fill="#F5F7FD" />
    <path
        d="M45.6372 32.244C48.8969 32.0627 52.5048 32.7322 55.4674 34.1141C55.8603 34.2975 57.0974 35.112 57.4073 35.0782C57.56 34.7186 57.5156 33.5983 57.5146 33.1422C59.9039 33.0528 62.2956 33.0371 64.6859 33.0946C64.6886 37.0152 64.8703 40.8086 64.7832 44.7668C62.4571 44.8561 60.078 44.826 57.7457 44.82C57.3479 44.236 57.0002 43.7676 56.4953 43.2625C53.9419 40.7532 50.1127 39.8793 46.6325 39.8267C45.7671 39.8136 43.998 40.1249 43.9497 41.3167C43.9049 42.4197 45.5526 42.8574 46.369 43.0948C46.9283 43.2575 47.5725 43.4435 48.1712 43.6194L54.7748 45.5546C56.071 45.9339 57.6445 46.3046 58.8577 46.8402C62.7793 48.5719 65.8718 52.2796 65.8985 56.6417C65.9393 59.3679 64.8838 61.9961 62.969 63.9363C60.2607 66.664 56.1964 67.4803 52.4856 67.4927C49.262 67.4186 45.7263 66.7082 42.8806 65.1277C42.3832 64.8514 41.878 64.5916 41.3683 64.3391C41.3032 65.0607 41.2909 65.972 41.2624 66.7091L33.8714 66.7503C33.7543 62.5859 33.7543 58.419 33.8714 54.2545C36.091 54.2048 38.3085 54.2283 40.5271 54.19C40.9152 54.7248 41.2714 55.4809 41.717 55.9432C43.9715 58.269 47.1694 59.5121 50.3897 59.5627C51.7694 59.5537 53.3304 59.4739 54.6273 58.9727C55.7678 58.532 55.5134 57.3993 54.5079 56.9972C53.2818 56.507 51.9816 56.1276 50.7189 55.7448C48.5867 55.112 46.458 54.4681 44.3325 53.8131C43.1962 53.4551 41.7814 53.0144 40.6845 52.564C39.2613 51.9836 37.9431 51.1732 36.7826 50.1651C34.682 48.3144 33.7362 46.2954 33.5714 43.5048C33.1281 36.0012 38.8709 32.6421 45.6372 32.244Z"
        fill="#F5F7FD" />
    <path
        d="M32.8967 70.3647C33.0506 70.3816 33.2896 70.3908 33.386 70.5073C33.7341 70.9287 34.0324 71.539 34.3616 71.9712C35.2821 73.1793 36.4659 74.8162 37.553 75.8628C38.8738 75.3179 40.2101 74.8105 41.5598 74.3413C42.4734 74.0265 43.4044 73.7661 44.3098 73.4409C43.8746 72.4559 43.4538 71.4185 43.0344 70.4233C43.4896 70.3794 43.9572 70.4001 44.4153 70.4087C44.8172 71.2579 45.314 72.1867 45.7424 73.0327C48.0549 72.5673 50.3937 72.2424 52.7454 72.061C53.0748 72.0387 54.4807 72.009 54.6565 71.8677C54.8392 71.5187 54.7743 70.8281 54.7639 70.4165C55.193 70.3998 55.6645 70.414 56.0969 70.4175C56.1421 70.82 56.1409 71.4572 56.1663 71.8921C59.0346 72.0994 62.466 72.4259 65.2766 73.0923L66.6145 70.4048L67.9436 70.4126C67.6202 71.5716 67.0882 72.3218 66.7307 73.3794C66.9344 73.4869 67.1611 73.5704 67.3831 73.6323C69.4415 74.2074 71.38 74.9899 73.3577 75.7983C74.9168 74.2738 76.2961 72.2112 77.512 70.4058L79.0149 70.4106C77.7822 72.6085 76.3181 74.4434 74.7239 76.3755C75.7122 77.0874 77.6236 78.0707 78.7747 78.7866C79.1818 78.5443 79.9698 77.8396 80.3342 77.521C82.7902 75.3736 84.6555 73.07 86.551 70.4546C87.1243 70.4307 87.5225 70.4344 88.0959 70.4634C86.8579 72.3605 85.4674 74.1539 83.9377 75.8247C81.8372 78.1143 79.4685 80.1426 76.8831 81.8657C68.3247 87.5153 57.8794 89.548 47.8274 87.522C37.3368 85.4055 28.689 79.3436 22.7805 70.4653C23.3702 70.4136 23.7495 70.3862 24.3362 70.4575C26.659 73.8495 28.9489 76.2711 32.1399 78.8062C33.4459 78.1997 34.9517 77.2404 36.2053 76.479C34.6154 74.517 33.1164 72.6606 31.8792 70.4468L32.8967 70.3647ZM54.8958 83.2837L54.8401 83.2866C52.3573 83.4326 48.948 84.2174 47.0364 85.895C49.639 86.6803 53.6293 86.9588 56.343 86.897C58.2061 86.8211 62.2828 86.5276 63.925 85.8765C61.7905 83.9978 57.6782 83.1161 54.8958 83.2837ZM73.594 77.6147C71.0173 80.1297 68.3426 82.3734 65.2502 84.2378C65.0793 84.3408 64.8993 84.4576 64.7385 84.5747C65.0774 84.8877 65.4321 85.174 65.8323 85.4067C66.5343 85.2018 67.2332 84.9853 67.928 84.7563C71.4826 83.4791 74.4135 82.0349 77.426 79.7358C76.7986 79.3084 74.3222 77.7228 73.594 77.6147ZM37.1917 77.6851C36.0531 78.1978 34.5737 79.0652 33.5256 79.7964C36.1493 81.894 40.0592 83.7584 43.2249 84.8423C43.8516 85.0324 44.5286 85.2517 45.1604 85.4058C45.5727 85.1631 45.83 84.9592 46.1711 84.6196C43.2064 82.692 40.4034 80.7121 37.8801 78.2319C37.7342 78.0884 37.373 77.6877 37.1917 77.6851ZM44.7874 74.7974C43.3669 75.187 39.8906 76.2482 38.7219 77.0337C40.6942 79.1049 42.9281 80.9101 45.3674 82.4028C46.0918 82.8314 47.013 83.3863 47.7678 83.7241C48.4432 83.4069 49.3999 83.028 50.0081 82.6899C48.734 80.9027 47.519 79.0736 46.3665 77.2056C46.1735 76.8868 45.0483 74.8878 44.9338 74.8042L44.7874 74.7974ZM66.0315 74.7759C65.0558 76.5417 64.1826 78.0609 63.0754 79.7495C62.5728 80.5159 61.4918 81.9203 61.1125 82.6323L61.0803 82.6929C61.074 82.7051 61.067 82.7169 61.0608 82.729C61.7739 83.0545 62.4892 83.3762 63.2063 83.6929C64.0905 83.2234 64.9569 82.7207 65.804 82.187C67.9719 80.8631 70.4808 78.8132 72.1399 76.9243C70.1985 75.9632 68.147 75.2417 66.0315 74.7759ZM54.1272 73.4233C53.1305 73.4568 47.1266 73.8903 46.5432 74.4751C46.5136 74.9743 49.2147 79.1004 49.6711 79.728C50.3056 80.617 50.9817 81.412 51.594 82.2612C52.6572 82.0186 53.7139 81.9851 54.7737 81.77L54.7249 73.4028L54.1272 73.4233ZM56.2395 73.4233C56.137 76.3309 56.162 78.91 56.2463 81.8062C57.0268 81.8906 58.948 82.25 59.5354 82.2231C60.251 81.3147 60.937 80.3833 61.592 79.4302C62.6673 77.8339 63.7349 76.1676 64.5969 74.4438C62.2905 73.7883 58.7013 73.4289 56.2395 73.4233Z"
        fill="#F5F7FD" />
    <path fill-rule="evenodd" clip-rule="evenodd"
        d="M55.2681 11.12C58.6339 10.9692 63.4817 11.8191 66.6655 12.7948C73.952 15.0363 80.4243 19.3609 85.2847 25.2352C86.0526 26.163 86.963 27.3478 87.6235 28.3875C87.7094 28.5227 87.7021 28.5927 87.6636 28.7186C87.3903 28.8907 86.6207 28.7617 86.2729 28.7274C84.0104 25.4132 81.5991 22.9917 78.5024 20.5018C77.9239 20.6906 74.9864 22.4137 74.4419 22.8202C74.6917 23.2009 75.3952 23.9124 75.7134 24.325C76.8418 25.789 77.9496 27.1252 78.8228 28.7655C78.3015 28.8599 77.8858 28.8442 77.3589 28.8456C76.4036 27.2584 74.3307 24.7652 73.1284 23.4071C70.6977 24.4085 68.9484 25.0806 66.4331 25.8319C66.5909 26.229 67.6481 28.5276 67.6216 28.7567C67.4203 28.9136 66.5999 28.85 66.3101 28.8426C66.1184 28.401 65.1688 26.5938 64.9146 26.201C64.034 26.3499 63.1177 26.5899 62.1899 26.745C60.1596 27.0684 58.1122 27.2728 56.0581 27.3582C56.002 27.7109 55.9982 28.4525 55.9878 28.8368L55.4849 28.8436L54.605 28.8387C54.5702 28.4178 54.669 27.7663 54.4683 27.4129C54.2727 27.2695 53.9579 27.2792 53.7222 27.2723C50.9549 27.1917 48.1395 26.8042 45.4409 26.2225C45.0145 27.0041 44.5652 28.0192 44.1714 28.8377C43.6258 28.9036 43.2953 28.9215 42.7534 28.8368L44.0112 25.9247C43.7845 25.7948 43.5818 25.7293 43.3335 25.6551C41.319 25.0539 39.3683 24.2949 37.4009 23.5555C35.7163 25.4172 34.6643 26.7853 33.2651 28.8534C32.6527 28.9415 32.391 28.9332 31.7925 28.8768C32.8827 26.8507 34.6082 24.7236 36.0601 22.9247C34.7609 22.1098 33.4002 21.4296 32.0894 20.5956C29.1111 22.566 26.3144 25.9557 24.2222 28.825C23.7028 28.9177 23.2225 28.856 22.6948 28.8231C23.9624 26.9352 25.1616 25.3204 26.7114 23.6346C32.7277 17.0634 40.8391 12.786 49.6587 11.5331C51.7374 11.2313 53.2259 11.2062 55.2681 11.12ZM51.3071 17.0926C49.1961 19.7526 47.7798 21.8264 46.188 24.8504C47.4166 25.2476 48.5718 25.3804 49.8452 25.5545C51.277 25.7296 53.1359 25.9623 54.5415 25.7987C54.5552 23.1411 54.6317 20.1763 54.4897 17.5526C53.5991 17.4195 52.1116 17.2658 51.3071 17.0926ZM58.9956 17.1795C58.0653 17.293 56.974 17.441 56.0513 17.6004C55.9993 20.3204 55.9499 23.1277 56.0522 25.8436C57.5881 25.8254 59.3277 25.7475 60.8452 25.4989C61.7734 25.3577 63.3359 25.1179 64.1958 24.8436C63.2161 22.7533 61.8456 20.7617 60.4683 18.912C60.0669 18.3727 59.57 17.6789 59.1265 17.1893C59.101 17.1867 59.0158 17.175 58.9956 17.1795ZM47.4116 15.7557C46.3748 16.3083 45.367 16.914 44.3931 17.5711C43.4053 18.2353 39.1416 21.4166 38.6118 22.4559C39.5332 22.9221 40.854 23.3888 41.854 23.7274C42.6429 23.9725 43.867 24.3848 44.6558 24.5379C45.5972 23.1137 46.4883 21.4454 47.4526 19.953C47.7984 19.4146 48.1611 18.8868 48.5396 18.3709C48.8846 17.8995 49.526 17.1198 49.7222 16.6161C49.4027 16.4788 47.7088 15.7305 47.4116 15.7557ZM62.8979 15.6561C62.1856 15.9851 61.3569 16.3468 60.6694 16.702C62.5125 19.1913 64.2121 21.7839 65.7603 24.4666C66.7957 24.2391 67.8159 23.9458 68.814 23.5877C69.6847 23.2675 71.13 22.7306 71.9341 22.3055C70.1664 20.3854 65.7333 16.8058 62.9634 15.6571C62.9416 15.6565 62.9197 15.6566 62.8979 15.6561ZM44.771 13.995C44.6036 14.0631 44.3945 14.1441 44.2173 14.1151C43.796 14.0462 43.7086 14.3205 43.2466 14.4735C39.6922 15.6419 36.3513 17.3811 33.355 19.6219C34.0228 20.1148 34.7237 20.5618 35.4517 20.9608C36.0067 21.261 36.5795 21.5281 37.1665 21.7596C39.8469 19.1134 42.8153 16.7762 46.0171 14.7928C45.7476 14.573 45.0914 13.9666 44.771 13.995ZM65.4683 13.9471C65.0586 14.2128 64.7889 14.3756 64.4868 14.7723C67.4466 16.5566 70.2066 18.5426 72.6733 20.9784C72.9017 21.2038 73.1465 21.4497 73.3833 21.6649C73.9816 21.3973 74.697 20.9636 75.2778 20.6317C75.7676 20.3585 76.7234 19.8547 77.1226 19.5291C74.006 17.1237 69.2776 14.8921 65.4683 13.9471ZM63.5854 13.4842C60.818 12.7192 57.0895 12.3833 54.1753 12.5145C52.9533 12.5643 48.0239 12.959 47.0259 13.4686L46.9712 13.5467C47.1888 13.9611 49.0869 14.8622 49.5933 15.076C51.7859 16.0021 54.0438 16.1852 56.397 16.075C58.7341 15.8186 61.7677 15.0626 63.5854 13.4842Z"
        fill="#F5F7FD" />
    <path
        d="M11.763 32.5717C14.3588 32.4894 17.1963 32.556 19.8026 32.5692L31.757 32.6017C31.8687 35.3909 31.8804 38.1832 31.7922 40.9733L26.8437 41.0231C26.6612 45.4636 26.8934 50.028 26.7889 54.4798C26.7581 55.7894 26.7519 57.1893 26.7833 58.4967C28.2532 58.6802 30.2423 58.5704 31.7884 58.6259L31.7846 66.7516L30.1451 66.7531L10.0701 66.7518C9.96788 64.0493 9.96784 61.344 10.07 58.6415C11.4105 58.5425 13.5708 58.5655 14.9439 58.5428C15.0223 57.8763 14.997 56.9439 14.9967 56.2549L14.9953 52.7736L14.9948 41.0766C13.6459 40.9037 11.5602 40.9651 10.1212 40.9181C10.0617 39.7083 10.076 38.3817 10.0748 37.1637C10.0636 35.6435 10.0787 34.1233 10.1202 32.6035L11.763 32.5717Z"
        fill="#F5F7FD" />
</svg>