<svg width="382" height="100" viewBox="0 0 382 100" fill="none" xmlns="http://www.w3.org/2000/svg">
    <path
        d="M119.276 14.0649C122.672 14.2001 126.491 14.1038 129.892 14.0421L129.899 46.5806C134.001 46.5333 138.148 46.57 142.253 46.5751C142.023 43.385 142.153 39.2138 142.157 35.924C142.209 28.6536 142.197 21.3831 142.121 14.1127C145.768 14.1423 149.417 14.1169 153.064 14.0366C152.693 19.9406 152.968 28.8509 152.972 34.9594C153.007 38.8378 152.988 42.7166 152.916 46.5941L157.361 46.5324L157.384 63.4944C154.347 63.4636 151.31 63.4657 148.274 63.5003L148.28 55.7786C138.685 55.9565 128.904 55.7816 119.274 55.8551L119.276 14.0649Z"
        fill="#00BEE4" />
    <path
        d="M309.392 14.1082L312.664 14.1407C316.848 14.1285 321.373 14.0351 325.526 14.1623C329.848 14.3173 334.18 14.7424 337.296 18.0537C341.733 22.77 341.342 31.739 336.414 35.9757C334.733 37.4212 332.867 38.1222 330.883 38.9651C332.019 40.2327 334.059 43.2947 335.12 44.8032C337.69 48.4327 340.237 52.0795 342.76 55.7424C338.649 55.7268 334.297 55.7982 330.217 55.7192C327.21 51.8425 322.687 44.1554 319.866 39.8279C319.852 40.9827 319.844 42.1374 319.843 43.2922C319.812 47.4186 319.775 51.657 319.971 55.7724C316.772 55.6495 312.564 55.6457 309.407 55.8447C309.252 42.0242 309.391 27.9489 309.392 14.1082ZM319.92 33.5926C322.885 33.558 325.875 33.8804 328.278 32.0128C329.435 30.5044 330.003 29.3302 329.788 27.3633C329.165 21.6685 323.907 22.3563 319.835 22.1649C320.075 24.491 320.04 31.1356 319.92 33.5926Z"
        fill="#00BEE4" />
    <path
        d="M347.571 14.1263C352.179 14.0997 358.757 13.8931 363.278 14.1838C367.461 14.3173 371.179 15.3187 374.154 18.4002C379.21 23.6378 378.896 33.0078 373.567 37.9358C368.95 42.2058 361.875 41.6975 356.047 41.4461C356.328 45.7377 355.993 51.3261 356.128 55.8024C353.022 55.6215 348.694 55.6579 345.626 55.8497L345.608 14.0992L347.571 14.1263ZM356.206 22.4653C356.222 26.1709 356.214 29.8765 356.185 33.5816C358.892 33.5482 363.055 33.8956 365.194 32.0571C367.49 30.0717 367.482 25.9943 365.393 23.8719C363.363 21.8087 359.085 22.3183 356.358 22.287L356.206 22.4653Z"
        fill="#00BEE4" />
    <path
        d="M33.8212 14L34.0123 14.1694L33.9916 48.4547L34.0289 86.7184L24.2255 86.7159L24.2295 73.9065L24.2522 23.6903C19.8934 23.8331 15.0812 23.7541 10.6879 23.7596L10.6927 14.0034C17.9517 14.2328 26.5231 14.0596 33.8212 14Z"
        fill="#00BEE4" />
    <path
        d="M278.598 14.2393C286.747 14.1713 294.916 14.3103 303.064 14.1675C303.052 17.1564 303.063 20.1454 303.095 23.1339L289.189 23.1361L289.219 30.4255C293.4 30.3761 297.651 30.4095 301.838 30.409C301.805 33.2632 301.814 36.1178 301.864 38.9716L289.343 38.9395L289.353 43.289L289.362 46.9236C293.66 46.7575 298.754 46.8623 303.1 46.8885C303.055 49.8576 303.056 52.8276 303.104 55.7971C300.024 55.634 296.434 55.7079 293.315 55.7079C288.43 55.6733 283.544 55.7193 278.66 55.8457C278.62 54.5346 278.674 53.174 278.663 51.857C278.562 39.3341 278.86 26.7567 278.598 14.2393Z"
        fill="#00BEE4" />
    <path
        d="M198.748 28.331C201.388 28.3077 204.118 28.249 206.747 28.3386C206.705 31.4539 206.97 55.0745 206.553 55.8097L205.853 55.8376C203.5 55.8169 201.147 55.8283 198.794 55.8714C198.731 52.795 198.691 47.8565 198.877 44.8595C195.824 44.8962 192.771 44.9004 189.718 44.8721C190.012 48.0517 189.423 52.5909 189.839 55.8325C187.175 55.8228 184.51 55.8321 181.846 55.86C181.995 46.9721 182.057 37.1859 181.85 28.309C184.494 28.3821 187.126 28.2448 189.85 28.3483C189.635 31.3563 189.734 35.0944 189.684 38.2021C192.651 38.096 195.942 38.1396 198.917 38.1831C198.654 36.0117 198.806 30.9055 198.748 28.331Z"
        fill="#00BEE4" />
    <path
        d="M232.936 28.3046C237.229 28.401 247.787 27.3835 250.965 30.1037C257.478 35.6769 255.185 45.5818 245.655 46.7264C243.818 46.824 242.557 46.8511 240.724 46.7721C240.834 49.5726 240.739 53.0018 240.737 55.8509C238.137 55.8209 235.537 55.8235 232.937 55.8586L232.936 28.3046ZM240.723 40.637C242.445 40.6306 244.43 40.8081 245.865 39.7543C248.731 35.243 244.153 34.2948 240.719 34.2965C240.758 36.41 240.759 38.5235 240.723 40.637Z"
        fill="#00BEE4" />
    <path
        d="M176.403 28.2714C177.224 28.2482 176.929 28.1079 177.463 28.4628C178.041 29.8288 177.766 33.4271 177.752 35.1455C174.985 35.1671 171.798 35.2613 169.069 35.1193C169.135 36.217 169.102 37.6405 169.105 38.7653L176.811 38.6884L176.836 44.9008L169.064 44.889C169.144 46.1067 169.076 47.8556 169.062 49.116C171.772 49.0091 174.876 49.0573 177.632 49.012C177.685 50.6865 177.722 52.3618 177.745 54.0376L177.732 55.8422C172.227 55.8122 166.723 55.8148 161.218 55.8507C161.235 46.7769 161.341 37.3853 161.156 28.336C166.14 28.2177 171.365 28.3335 176.403 28.2714Z"
        fill="#00BEE4" />
    <path
        d="M210.068 28.3057C216.559 28.3281 223.529 28.1502 229.969 28.3437C229.862 30.3376 229.855 33.1741 229.948 35.1502C227.887 35.1895 225.725 35.1206 223.657 35.086C223.899 39.3561 223.706 45.5427 223.702 49.9543C223.695 51.9301 223.71 53.9054 223.745 55.8807C221.174 55.8245 218.603 55.8144 216.032 55.8503C216.002 48.9217 216.011 41.9931 216.061 35.0645L210.1 35.206L210.068 28.3057Z"
        fill="#00BEE4" />
    <path
        d="M260.794 38.7347L272.659 38.7114C272.645 40.489 272.657 42.2662 272.694 44.0433C268.736 43.9964 264.777 44.0078 260.819 44.078L260.794 38.7347Z"
        fill="#00BEE4" />
    <path
        d="M71.2291 14.5062C73.9286 14.0502 76.6742 13.9357 79.402 14.1652C88.9254 14.8231 97.7939 19.2511 104.042 26.4688C109.707 32.9926 112.887 41.3067 113.021 49.9453C109.833 49.9474 106.456 49.8938 103.283 49.9766C102.834 42.3073 100.34 35.7162 94.4618 30.4988C89.2064 25.7522 82.2512 23.3387 75.1852 23.8107C68.1062 24.248 61.4987 27.5074 56.8428 32.8578C47.2024 44.1385 48.4772 61.057 59.8948 70.6238C68.1619 77.5516 77.7221 76.993 87.8357 77.0006L106.706 77.0044L167.74 76.9977L308.675 76.9956C332.771 76.9943 357.21 76.7632 381.275 77.0104V86.6203C374.788 86.9241 366.794 86.7057 360.2 86.7053L321.282 86.7049L202.183 86.7002L118.094 86.7078L91.7627 86.707C79.059 86.7044 67.1728 87.6251 56.125 79.9359C48.3031 74.4473 42.9653 66.0922 41.2727 56.688C39.5232 47.1401 41.6986 37.2902 47.3064 29.3673C53.0878 21.1694 61.4146 16.206 71.2291 14.5062Z"
        fill="#00BEE4" />
    <path
        d="M381.276 71.1253C380.468 71.2884 379.34 71.2931 378.502 71.2926C372.069 71.2897 365.626 71.2702 359.195 71.2702H317.9L192.641 71.2715L115.155 71.2732H91.118C81.3905 71.269 70.3811 72.5492 62.7574 65.4148C58.6492 61.6294 56.2712 56.3258 56.1778 50.7404C56.0177 45.2691 58.0585 39.9622 61.8431 36.0077C65.6281 31.9798 70.8873 29.6626 76.4144 29.5878C81.9157 29.4408 87.2417 31.5323 91.1725 35.3845C95.301 39.3896 97.33 44.2521 97.4107 49.9651C94.3283 49.9305 91.2456 49.933 88.1632 49.9727C87.9317 46.9715 87.0283 44.4105 84.8789 42.2278C82.7659 40.1062 79.8922 38.9181 76.8982 38.927C73.8015 38.913 70.8303 40.151 68.6602 42.3604C66.5386 44.5267 65.3868 47.4616 65.4688 50.4933C65.5449 53.5946 66.8623 56.5358 69.1254 58.6582C73.5078 62.7001 82.0222 61.9104 87.6984 61.9133L104.358 61.9172L129.543 61.9121C134.285 61.9104 139.72 62.0355 144.408 61.7883L144.391 67.1975C149.958 67.1062 155.693 67.1755 161.272 67.1776C161.232 65.4089 161.204 63.6402 161.189 61.8711C167.479 62.0727 174.512 61.91 180.885 61.9091L218.392 61.9045L331.506 61.9074L363.647 61.9015C369.302 61.8977 375.717 61.7388 381.276 61.9501V71.1253Z"
        fill="#00BEE4" />
    <path
        d="M1 29.106C7.25498 28.746 13.9812 29.1144 20.3067 28.9336L20.1654 86.7097L10.6788 86.7194L10.6753 55.6251C10.6745 50.4073 10.5002 43.8903 10.7326 38.7629L1 38.7933V29.106Z"
        fill="#00BEE4" />
</svg>