<svg width="340" height="100" viewBox="0 0 340 100" fill="none" xmlns="http://www.w3.org/2000/svg">
    <path
        d="M310.783 12.0962C320.258 12.0962 330.234 11.946 339.678 12.1226C339.63 18.4802 339.617 24.8381 339.638 31.1959L339.637 64.2896L339.641 78.6744L339.642 82.9976C339.642 83.4422 339.765 84.9378 339.452 85.1783L266.416 85.1949L266.42 34.981C266.418 27.4571 266.298 19.5916 266.444 12.0982L310.783 12.0962ZM315.914 19.6343L315.663 19.647C313.999 19.9298 311.809 20.5673 311.7 22.5699C311.576 24.8374 311.389 27.1215 311.289 29.3892C311.184 31.7995 310.848 34.3002 310.783 36.6988C307.559 35.802 303.975 35.0663 300.705 34.1841C299.575 33.879 296.093 32.9533 295.014 32.775C293.756 33.3303 292.495 33.9149 291.248 34.5103C287.694 36.2083 284.06 37.7651 280.538 39.5279C280.217 39.689 279.901 39.9884 279.665 40.2593C279.544 41.6155 279.597 43.3905 279.598 44.7857L279.604 52.2095L279.594 61.316C279.591 62.4139 279.426 66.9388 279.914 67.7242C280.851 68.4075 290.042 71.3718 291.431 71.7437L300.487 74.7212C302.035 75.2302 304.232 76.0288 305.768 76.3707C306.624 75.924 307.99 74.9474 308.838 74.3765L313.483 71.2847L321.279 66.066C322.206 65.4393 323.196 64.7845 324.105 64.1431C326.084 62.7564 326.34 62.9561 326.311 60.4869C326.275 57.4557 326.336 54.4196 326.321 51.3882C326.316 50.4677 325.543 50.0067 324.761 49.7867C324.308 49.6628 323.852 49.5443 323.396 49.4322C323.195 43.4042 322.586 36.4233 322.124 30.3609C321.995 28.6622 321.878 26.9625 321.773 25.2623C321.687 23.9435 321.805 21.8237 320.772 20.9234C319.424 19.7483 317.625 19.5543 315.914 19.6343ZM282.659 54.7378C284.07 55.2329 285.879 55.7184 287.344 56.1607L297.619 59.2457C299.476 59.7991 301.657 60.3918 303.471 61.0093C303.819 61.1304 303.881 61.0816 304.046 61.3384C304.063 65.1178 303.983 68.8976 304.044 72.6851C303.579 72.4884 303.121 72.3376 302.671 72.1929C302.221 72.0482 301.778 71.9091 301.341 71.7359C300.285 71.5283 296.979 70.3042 295.716 69.8882L282.656 65.6158C282.679 61.9899 282.681 58.3636 282.659 54.7378ZM316.527 42.8775C316.607 43.0484 316.562 63.7772 316.56 65.5044C316.323 65.7242 316.032 65.9973 315.709 65.9996C315.631 65.2838 315.698 63.7368 315.699 62.9468C315.685 61.0131 315.686 59.0788 315.702 57.1451C315.465 56.9959 315.189 56.7937 314.953 56.6314C312.844 57.7763 310.274 59.4168 308.189 60.6802L308.182 63.1216L308.168 71.1285C307.82 71.343 307.423 71.6296 307.079 71.8628C307.223 64.1979 307.121 56.0412 307.091 48.3541C307.954 47.9467 309.538 46.9486 310.417 46.4293L316.471 42.8384L316.527 42.8775ZM314.13 58.8824C314.214 59.0291 314.17 66.2924 314.171 67.1402C312.829 67.9615 311.078 69.1787 309.753 70.0855C309.656 69.8511 309.734 62.4996 309.705 61.5386C310.901 60.9349 312.886 59.6176 314.13 58.8824ZM323.174 54.2242C323.291 54.4205 323.221 60.3572 323.22 61.0406C322.053 61.752 320.854 62.6553 319.633 63.4087C319.588 61.1012 319.685 58.7734 319.616 56.4556C320.517 56.0446 322.318 54.802 323.174 54.2242ZM302.508 53.23C303.042 53.3908 303.574 53.5586 304.103 53.733C303.965 54.811 304.023 56.7754 304.045 57.8921C303.779 57.9069 302.824 57.5955 302.508 57.5025V53.23ZM301.038 52.8209C300.916 53.7758 300.956 56.0311 301.045 57.0035C300.425 56.9238 299.011 56.435 298.36 56.2242C298.407 54.8653 298.378 53.4325 298.349 52.0738L301.038 52.8209ZM296.912 51.6871C296.829 53.0242 296.827 54.3653 296.906 55.7027C296.572 55.7968 294.704 55.1308 294.243 54.98C294.265 53.6286 294.266 52.2767 294.248 50.9253L296.912 51.6871ZM290.115 49.7759C290.992 50.0426 291.877 50.2917 292.765 50.524C292.691 51.7298 292.714 53.2638 292.743 54.4703C292.483 54.5626 290.554 53.9183 290.138 53.7945C290.138 52.4549 290.13 51.1153 290.115 49.7759ZM285.976 48.6226C286.854 48.8555 287.762 49.1279 288.639 49.3775C288.596 50.6981 288.604 52.0203 288.66 53.3404L286.016 52.5533C286.023 51.2429 286.01 49.9325 285.976 48.6226ZM284.501 48.2232C284.467 49.5121 284.47 50.8018 284.51 52.0904C284.005 51.9713 283.18 51.6898 282.659 51.5308L282.649 47.6822L284.501 48.2232ZM282.639 42.8765C284.519 43.4561 286.508 43.9196 288.407 44.4576C293.578 45.923 298.94 47.1846 304.089 48.6861C304.023 49.3947 304.019 49.6909 304.068 50.4009C303.562 50.4569 284.645 45.0637 282.662 44.5005L282.639 42.8765ZM319.707 40.4566C319.869 40.7202 320.382 48.1248 320.327 48.6978C319.948 48.6145 319.865 48.6363 319.664 48.3794C319.535 47.3781 319.463 41.0503 319.707 40.4566ZM295.272 36.0162C296.491 36.2281 298.641 36.8364 299.894 37.149L308.525 39.3121C310.337 39.7666 312.373 40.3158 314.195 40.6617C311.427 42.1538 308.661 43.9758 305.902 45.5113C305.447 45.764 305.381 45.8565 304.882 45.7164C302.547 45.0445 286.413 40.8877 285.832 40.4595C285.943 40.3278 294.344 36.4748 295.272 36.0162ZM318.739 25.5328C318.908 29.9313 319.305 35.4165 319.766 39.8052C319.648 39.6457 319.258 39.1214 319.126 39.0337C318.048 38.3214 316.224 38.0939 314.942 37.7203L313.804 37.4302C313.879 36.0144 314.022 34.4849 314.141 33.065C314.153 32.3529 314.201 31.5848 314.272 30.8736C314.448 29.1053 314.453 27.2976 314.609 25.5337C316.204 25.8264 317.131 25.8524 318.739 25.5328ZM315.631 21.9156C316.383 21.8458 318.364 21.736 318.702 22.5162L318.593 22.7427C318.331 22.9862 317.947 23.0553 317.597 23.1509C316.814 23.2609 314.936 23.3261 314.557 22.4712L314.666 22.2681C314.949 22.0376 315.273 21.9971 315.631 21.9156Z"
        fill="#00BEE4" />
    <path
        d="M52.5933 12.0364C58.4454 11.669 65.2719 14.114 69.612 17.9812C75.5584 23.2798 77.8065 28.8029 78.3389 36.5215C76.1333 36.5504 73.9275 36.5573 71.7218 36.542C71.7258 31.9609 69.6848 27.286 66.4709 24.0312C63.062 20.5778 58.4158 18.6167 53.5555 18.5797C48.736 18.5745 44.1096 20.4682 40.6847 23.8481C37.226 27.2403 35.2789 31.8748 35.2801 36.7113C35.2322 41.5574 37.1502 46.2173 40.599 49.6336C46.3122 55.3281 52.6245 55.1361 60.0909 55.1393L70.9871 55.1412L107.597 55.1386L231.796 55.1406L262.289 55.1117C262.236 57.2572 262.259 59.5261 262.251 61.6812L118.991 61.6912L75.0514 61.6977L61.8493 61.7101C54.3102 61.7186 46.6184 61.9938 40.0344 57.5825C19.9329 44.1145 27.9648 13.6336 52.5933 12.0364Z"
        fill="#00BEE4" />
    <path
        d="M262.26 51.0559C256.745 51.155 251.065 51.0789 245.539 51.0765L215.909 51.0737L125.063 51.075L76.5537 51.0733L61.8744 51.076C55.3586 51.0835 48.7403 51.8691 43.6537 46.9778C40.9514 44.3974 39.3956 40.8477 39.3324 37.1181C39.2701 33.2933 40.6083 29.701 43.3027 26.9488C45.9462 24.2395 49.5585 22.684 53.3496 22.6222C57.15 22.6052 60.8006 24.0982 63.4938 26.7709C66.1747 29.3949 67.4774 32.8206 67.7147 36.5166C65.6632 36.5434 63.4067 36.5792 61.3545 36.5344C61.153 34.8613 60.8381 33.5454 59.812 32.1647C58.035 29.7732 55.3499 28.6717 52.3909 29.0399C50.3607 29.3071 48.5218 30.3722 47.2839 31.9984C46.0001 33.6686 45.4381 35.7804 45.7226 37.8654C45.9836 39.9023 47.054 41.7496 48.6938 42.9929C51.553 45.149 56.5863 44.8147 60.0618 44.8146L69.1392 44.81L100.02 44.8339L100.013 48.0965C103.781 48.1172 107.549 48.1189 111.317 48.1015C111.32 47.3119 111.289 45.5286 111.371 44.8278L111.827 44.8637C113.99 44.7744 116.541 44.8246 118.732 44.8222L131.153 44.8226L167.748 44.8197L229.699 44.8194C240.521 44.8204 251.473 44.7215 262.282 44.8349C262.253 46.9084 262.246 48.9822 262.26 51.0559Z"
        fill="#00BEE4" />
    <path
        d="M111.37 44.8281L111.827 44.864C112.563 45.0993 113.883 44.9531 114.742 45.0893L114.769 45.1565C113.971 45.3477 112.576 45.3209 111.71 45.3396L111.69 46.2649C111.614 45.7225 111.583 45.3408 111.37 44.8281Z"
        fill="#00BEE4" />
    <path
        d="M99.8025 48.2872C103.091 48.2221 106.411 48.3574 109.701 48.2846C110.084 48.2761 111.149 48.2052 111.417 48.426C111.248 48.5872 111.135 48.5805 110.897 48.6204C110.826 48.6286 110.753 48.6344 110.681 48.6376C110.115 48.6663 109.34 48.5708 108.484 48.5864C105.734 48.6364 102.824 48.687 100.071 48.524C99.9625 48.4279 99.8728 48.3489 99.8025 48.2872Z"
        fill="#00BEE4" />
    <path
        d="M98.5376 44.9819C98.9955 44.9875 99.4763 44.8059 99.82 45.1158L99.8024 45.5074C99.7119 45.4091 99.2786 45.3246 99.1309 45.2978C98.6686 45.2142 98.8391 45.1931 98.5376 44.9819Z"
        fill="#00BEE4" />
    <path
        d="M82.5544 12.102L89.8763 12.1052C89.7638 19.4605 89.8552 26.9705 89.8332 34.3419L98.3741 34.3411L98.3873 12.1094C99.3199 12.1037 105.039 12.0124 105.635 12.1843C105.735 12.4396 105.811 33.1237 105.619 34.1743C105.897 34.5045 108.258 34.3632 108.8 34.3535L108.77 45.6861C106.695 45.7007 104.62 45.7005 102.546 45.6853C102.541 43.9665 102.548 42.2477 102.567 40.5291L82.558 40.5125L82.5544 12.102Z"
        fill="#00BEE4" />
    <path
        d="M105.635 12.1841C105.735 12.4394 105.811 33.1235 105.619 34.1742C105.259 33.5638 105.37 30.2194 105.366 29.3458C105.335 26.9677 105.336 24.5894 105.372 22.2114C105.387 19.8688 105.291 16.9512 105.436 14.6791L105.455 14.8411C105.54 14.1534 105.504 13.0222 105.502 12.2953L105.635 12.1841Z"
        fill="#00BEE4" />
    <path
        d="M223.044 12.135C227.641 12.0803 232.423 12.428 234.212 17.5393C234.969 19.701 234.794 22.6545 233.76 24.7141C232.586 27.0535 230.503 28.2372 228.08 29.0354C230.108 31.5707 231.946 34.4644 233.856 37.0999C234.67 38.223 235.458 39.4735 236.358 40.5218C235.566 40.5672 234.332 40.5312 233.514 40.5315L227.634 40.5218C226.928 39.3752 226.116 38.1733 225.379 37.0374L222.424 32.4524C221.96 31.7292 221.161 30.4059 220.639 29.7835L220.547 29.7981C220.486 30.013 220.554 32.0594 220.554 32.4241C220.566 35.115 220.548 37.806 220.502 40.4964C218.114 40.529 215.725 40.5367 213.337 40.5198C213.441 31.1426 213.359 21.5308 213.342 12.1438C216.558 12.1754 219.824 12.1413 223.044 12.135ZM226.346 18.6643C224.904 17.2927 222.467 17.5979 220.6 17.552C220.563 19.9319 220.502 23.0456 220.575 25.4046C222.574 25.4175 224.738 25.6746 226.358 24.4016C227.787 22.8103 227.98 20.219 226.346 18.6643Z"
        fill="#00BEE4" />
    <path
        d="M246.292 12.0932C250.223 12.0788 254.279 11.7049 257.459 14.4799C261.209 17.7357 261.462 24.1196 258.164 27.7798C256.124 30.0436 253.611 30.6413 250.694 30.8042L245.536 30.8159C245.601 34.0064 245.521 37.3183 245.519 40.519L238.345 40.5278L238.351 21.8579C238.352 18.8082 238.257 15.1043 238.378 12.101C241.016 12.1149 243.654 12.1121 246.292 12.0932ZM245.564 17.5796C245.613 20.0698 245.621 22.9123 245.553 25.4008C247.73 25.4134 250.298 25.7293 251.997 24.2895C253.38 22.6633 253.585 20.0535 251.889 18.5776C250.409 17.2904 247.468 17.5901 245.564 17.5796Z"
        fill="#00BEE4" />
    <path
        d="M15.1598 12.0448C17.8485 12.0455 20.9337 11.962 23.5883 12.0635C23.494 18.4528 23.574 25.0113 23.5826 31.4129L23.5693 61.6953C22.6994 61.6735 17.4864 61.7947 17.0715 61.6008L16.999 61.3781C16.9627 59.303 17.0041 57.2121 16.992 55.1349C16.9207 42.9784 17.1033 30.7987 16.9687 18.6448L7.66223 18.6155L7.66918 12.0663C10.1345 12.0261 12.6878 12.0534 15.1598 12.0448Z"
        fill="#00BEE4" />
    <path
        d="M192.264 12.1807C197.811 12.2077 203.357 12.2041 208.905 12.1699C208.821 14.1187 208.848 16.199 208.842 18.1585L199.427 18.1862L199.426 23.2198C202.275 23.2697 205.252 23.2456 208.106 23.227C208.068 25.1416 208.081 27.1059 208.071 29.0244C205.212 29.0661 202.353 29.0724 199.493 29.0433L199.482 32.0198L199.462 34.5269C202.437 34.5863 205.933 34.5533 208.905 34.4915C208.807 36.4217 208.851 38.5576 208.86 40.5023C203.326 40.5549 197.791 40.5683 192.257 40.5424L192.264 12.1807Z"
        fill="#00BEE4" />
    <path
        d="M179.361 65.8398C179.244 70.6271 179.295 75.7021 179.327 80.502L181.673 80.5059L181.647 88.9375C180.102 88.9585 178.556 88.9562 177.011 88.9316L177.018 85.7471C177.027 85.5194 177.059 85.3892 176.938 85.2002C176.178 84.9487 167.431 85.1392 165.836 85.1416C165.82 86.4037 165.818 87.6662 165.833 88.9287C164.4 88.9681 162.608 88.9952 161.197 88.9453L161.188 80.4922C165.538 80.1645 165.087 75.6565 165.09 72.501L165.075 65.8672C169.524 65.939 174.934 65.9689 179.361 65.8398ZM170.109 70.5098C170.119 73.9667 170.821 78.0777 168.055 80.5449C169.407 80.5031 170.761 80.4884 172.114 80.501L173.923 80.502L173.932 70.5127C172.658 70.5034 171.383 70.5025 170.109 70.5098Z"
        fill="#00BEE4" />
    <path
        d="M179.085 80.7129C179.639 80.6914 181.086 80.5335 181.467 80.8181L181.429 81.1379C181.068 81.2248 179.442 80.938 179.085 80.7129Z"
        fill="#00BEE4" />
    <path
        d="M146.526 65.148C152.252 64.4811 157.437 68.5616 158.114 74.2672C158.791 79.9728 154.704 85.147 148.98 85.8297C143.246 86.5135 138.043 82.4302 137.364 76.7135C136.686 70.9968 140.79 65.8165 146.526 65.148ZM147.18 69.9342C145.895 70.1601 144.622 70.7265 143.94 71.8648C141.708 75.5927 143.177 81.5199 148.384 81.0113C149.604 80.7861 150.924 80.1966 151.562 79.1051C153.819 75.2457 152.375 69.7622 147.18 69.9342Z"
        fill="#00BEE4" />
    <path
        d="M58.6068 65.1519C64.3258 64.4677 69.5214 68.5263 70.2211 74.2251C70.9208 79.9238 66.8607 85.1122 61.1449 85.8228C55.4106 86.5355 50.1847 82.4718 49.4828 76.7544C48.781 71.0373 52.8694 65.8385 58.6068 65.1519ZM63.6752 79.104C65.9191 75.5084 64.4184 69.5481 59.3422 69.9458C53.1424 70.7692 53.629 81.5858 60.4359 81.024C61.7333 80.7901 62.9539 80.2595 63.6752 79.104Z"
        fill="#00BEE4" />
    <path
        d="M250.658 65.1542C256.382 64.4586 261.589 68.5192 262.29 74.2245C262.989 79.9299 258.919 85.1217 253.195 85.8222C247.468 86.5231 242.255 82.4617 241.554 76.7529C240.854 71.0442 244.93 65.8503 250.658 65.1542ZM251.358 69.9394C245.203 70.8497 245.756 81.6621 252.555 81.0107C255.32 80.53 256.6 78.5623 256.737 75.8827C256.911 72.4828 255.041 69.7214 251.358 69.9394Z"
        fill="#00BEE4" />
    <path
        d="M1.06162 22.259L14.1169 22.2476C13.9544 26.8216 14.0691 32.0182 14.07 36.6294L14.0535 61.6785C11.9141 61.6963 9.77458 61.6996 7.63508 61.6886C7.56248 57.9369 7.61996 54.0082 7.61978 50.2459L7.61627 28.8738C5.43642 28.8364 3.22257 28.8719 1.02585 28.8389C1.02778 26.9741 0.947004 24.0663 1.06162 22.259Z"
        fill="#00BEE4" />
    <path
        d="M117.285 65.8416C120.22 65.9987 126.917 65.4142 129.266 66.2147C130.419 66.6074 131.432 67.3657 131.969 68.4745C132.493 69.5581 132.608 70.9576 132.204 72.0965C131.702 73.5077 130.599 74.2193 129.311 74.8329C129.626 74.926 129.99 75.0131 130.291 75.1288C133.303 76.2883 134.09 79.1526 133.091 81.9686C130.968 85.6615 127.579 85.1607 123.915 85.1502L117.284 85.1317C117.421 78.8701 117.307 72.1275 117.285 65.8416ZM128.104 79.0418C127.806 76.7568 124.416 77.3663 122.721 77.3143C122.723 78.5814 122.687 80.0506 122.73 81.2997C124.066 81.2996 126.423 81.4624 127.506 80.6942C127.915 80.1769 128.194 79.7302 128.104 79.0418ZM122.745 69.6639C122.718 70.9153 122.707 72.1673 122.711 73.4188C123.925 73.4278 125.92 73.6173 126.875 72.9325C127.558 72.0692 127.866 71.0294 126.835 70.2948C125.705 69.4905 124.07 69.6431 122.745 69.6639Z"
        fill="#00BEE4" />
    <path
        d="M221.468 65.8984C221.803 66.0017 221.846 65.9482 221.991 66.193C221.918 70.2854 222.022 74.4119 222.027 78.5123C222.023 79.9812 222.03 81.4503 222.048 82.9192C222.052 83.3017 222.048 84.5118 222.105 84.8036C222.504 84.9084 222.676 84.6632 222.827 84.8344C222.565 85.0258 222.048 84.8813 221.476 85.1235C221.542 78.9098 221.58 72.1048 221.468 65.8984Z"
        fill="#00BEE4" />
    <path
        d="M225.425 65.8644C227.815 65.9065 230.252 65.7105 232.617 66.004C236.213 66.4701 237.781 70.5546 235.676 73.3439C235.105 74.1001 234.226 74.4354 233.42 74.8507C234.984 75.21 236.115 75.7425 237.004 77.1671C237.853 78.527 237.908 80.813 237.141 82.2257C235.211 85.7807 230.577 85.145 227.198 85.1476C225.296 85.149 223.304 85.2116 221.477 85.1241C221.543 78.9104 221.581 72.1049 221.468 65.8985C222.57 65.7721 224.292 65.8444 225.425 65.8644ZM232.263 79.0538C232.017 76.7594 228.643 77.3704 226.984 77.3077C226.767 77.5974 226.87 80.7335 226.876 81.2833C228.253 81.306 230.37 81.4423 231.569 80.7853C232.039 80.2975 232.339 79.7565 232.263 79.0538ZM231.602 71.5616C231.584 69.3228 228.465 69.6448 226.925 69.6769C226.808 70.3272 226.857 72.6511 226.865 73.4191C228.166 73.4327 229.919 73.6173 231.002 72.9679C231.428 72.5213 231.606 72.1905 231.602 71.5616Z"
        fill="#00BEE4" />
    <path
        d="M90.0872 65.8369L93.088 65.8414C93.0212 72.2723 93.0115 78.7037 93.0581 85.1348L87.8432 85.1394C87.8396 81.5147 87.9381 77.4201 87.8432 73.8401L87.7122 73.8071C87.4758 73.9856 81.0637 84.0736 80.3834 85.1387L78.6799 85.1468L75.0504 85.1387C75.1221 78.7632 75.063 72.2405 75.0475 65.8572C76.8072 65.8754 78.5674 65.8713 80.3262 65.8448C80.2858 69.5262 80.4396 73.8713 80.2058 77.4505C80.9802 76.4682 82.0103 74.7148 82.7196 73.632C84.409 71.0532 86.0316 68.4028 87.7658 65.8508L90.0872 65.8369Z"
        fill="#00BEE4" />
    <path
        d="M7.50603 65.8628L24.7525 65.879C24.6623 72.2741 24.7667 78.714 24.7019 85.1251C22.9074 85.1411 21.1128 85.1467 19.3182 85.1416C19.3597 82.1827 19.3271 79.1572 19.326 76.1933C19.3391 74.295 19.3345 72.3966 19.3123 70.4984C17.2209 70.4747 15.0394 70.5156 12.9347 70.5115L12.9223 85.1288L7.49988 85.1338C7.6319 78.8729 7.54066 72.1439 7.50603 65.8628Z"
        fill="#00BEE4" />
    <path
        d="M137.355 21.8662C138.06 21.7288 141.775 21.8173 142.611 21.8266C142.556 23.6839 142.599 25.7795 142.598 27.6608L142.579 40.5108C140.863 40.5625 139.067 40.5285 137.35 40.4993C137.334 38.0144 137.338 35.5294 137.36 33.0445L130.975 33.0513C130.941 35.5389 130.929 38.0267 130.943 40.5145C129.197 40.5351 127.45 40.5319 125.704 40.5048C125.757 36.1798 125.663 31.8047 125.721 27.4819C125.737 26.1844 125.618 22.8342 125.786 21.7588L126.093 21.8197C127.391 21.8124 129.335 21.7493 130.575 21.8326L130.844 21.7995C131.002 22.043 130.92 27.7273 130.943 28.5137C132.919 28.5297 135.375 28.5748 137.344 28.4869L137.355 21.8662Z"
        fill="#00BEE4" />
    <path
        d="M130.575 21.8329L130.844 21.7998C130.642 22.3731 130.656 23.2469 130.635 23.8787C130.576 23.2392 130.555 22.9972 130.614 22.3504C129.817 22.2398 129.17 22.1527 128.368 22.1127C129.105 21.9408 129.853 22.0649 130.575 21.8329Z"
        fill="#00BEE4" />
    <path
        d="M125.786 21.7588L126.093 21.8197C126.474 22.0904 127.204 21.9505 127.75 22.0472C127.547 22.2177 126.389 22.3579 126.093 22.3205C125.825 22.1045 125.9 22.1426 125.786 21.7588Z"
        fill="#00BEE4" />
    <path
        d="M137.355 21.8667C137.697 21.9104 138.987 21.9898 139.147 22.1042L138.938 22.1971C138.56 22.2328 137.872 22.4224 137.67 22.3625C137.522 22.1756 137.471 22.077 137.355 21.8667Z"
        fill="#00BEE4" />
    <path
        d="M30.4011 65.8679C33.6217 65.9119 37.6915 65.6048 40.7859 66.0896C45.4118 66.8143 47.1287 73.2009 44.1179 76.5456C42.6934 78.128 41.2599 78.5927 39.2146 78.7448C38.0885 78.7767 36.9612 78.7864 35.8347 78.7732C35.7952 80.8927 35.7885 83.0129 35.8142 85.1325L30.4011 85.1423V65.8679ZM35.8474 70.1013C35.7776 71.4276 35.783 73.148 35.823 74.4822C37.0946 74.5701 38.2557 74.6635 39.3923 73.9939C39.6861 73.6364 39.9203 73.2885 40.0007 72.823C40.4873 70.0065 37.8145 70.0128 35.8474 70.1013Z"
        fill="#00BEE4" />
    <path
        d="M160.883 21.8633C161.652 21.968 162.272 21.9524 163.022 22.1215C162.686 22.4094 161.325 21.6768 161.372 23.0128L161.378 23.2905L161.295 23.3198C161.292 23.0406 161.285 22.7906 161.268 22.5111L161.139 22.3981C161.097 22.773 161.094 23.0435 161.092 23.422C161.074 23.3956 160.973 22.1657 160.883 21.8633Z"
        fill="#00BEE4" />
    <path
        d="M161.027 21.8294C166.322 22.0635 174.602 20.041 175.544 27.1721C175.779 28.8691 175.331 30.5901 174.297 31.9583C172.954 33.6992 171.281 34.1069 169.257 34.3772C168.202 34.4206 167.146 34.433 166.091 34.4153C166.122 36.3865 166.077 38.5159 166.067 40.4983L160.809 40.5315L160.799 27.4495C160.799 26.5116 160.763 22.4915 160.883 21.8626C160.899 21.8586 161.013 21.8288 161.027 21.8294ZM166.087 25.9241L166.088 30.2005C167.194 30.2144 168.734 30.346 169.603 29.6253C170.331 28.6611 170.642 27.2741 169.523 26.4925C168.528 25.7969 167.238 25.9158 166.087 25.9241Z"
        fill="#00BEE4" />
    <path
        d="M103.832 65.2989C107.723 64.8952 113.34 67.1174 111.946 72.147C111.51 73.7215 110.192 74.5269 108.785 75.1855C110.642 75.7903 112.139 76.7744 112.526 78.8408C112.777 80.2013 112.471 81.6053 111.675 82.739C109.354 86.005 103.81 86.3868 100.402 84.8389C99.2662 84.3228 98.1974 83.5536 97.1804 82.8345C97.6832 82.1765 98.1842 81.3014 98.6211 80.5821L99.4719 79.2165C100.737 80.5102 102.367 81.3638 104.164 81.4341C105.206 81.5076 106.66 80.9208 106.953 79.8056C107.755 76.75 102.422 77.2936 100.765 77.3439C100.811 76.1088 100.777 74.6714 100.777 73.4212C102.122 73.424 103.584 73.4971 104.908 73.3391C107.45 73.036 107.377 70.1992 105 69.6584C103.173 69.243 101.618 69.9304 100.094 70.8421C99.4482 69.6291 98.8056 68.2898 98.1833 67.0548C100.211 65.9592 101.591 65.5809 103.832 65.2989Z"
        fill="#00BEE4" />
    <path
        d="M193.732 65.292C196.238 65.1626 197.872 65.5552 200.046 66.8301C200.022 68.5182 199.948 70.7912 200.098 72.4376C198.834 71.2482 197.797 70.3524 195.973 70.1503C189.328 69.4117 188.371 80.4336 195.049 80.8456C197.188 80.9775 198.579 80.0892 200.085 78.7516L200.037 80.626L200.044 84.237C197.017 86.3953 191.936 86.0896 188.97 83.9704C186.065 81.8943 184.923 78.8332 184.941 75.3676C184.962 71.6611 186.477 68.4464 189.746 66.549C191.116 65.7503 192.174 65.5566 193.732 65.292Z"
        fill="#00BEE4" />
    <path
        d="M111.521 21.7745C111.696 21.7816 112.126 21.7886 112.279 21.8109C115.564 21.7035 119.417 21.8021 122.747 21.8017C122.731 23.2851 122.744 24.7905 122.745 26.2759L116.724 26.2937L116.721 28.92C118.532 28.9591 120.342 28.9678 122.153 28.946L122.156 33.0409C120.347 33.0614 118.539 33.0718 116.731 33.0718L116.716 36.0412C118.669 36.1161 120.801 36.0807 122.757 36.0638L122.736 40.5002C118.982 40.5479 115.227 40.5552 111.472 40.5221C111.559 35.2338 111.427 29.9154 111.469 24.6247C111.476 23.6796 111.446 22.7164 111.521 21.7745Z"
        fill="#00BEE4" />
    <path
        d="M111.521 21.7744C111.696 21.7814 112.125 21.7884 112.278 21.8108C113.033 22.1935 114.696 21.8815 115.55 22.0411L115.537 22.1192C114.876 22.2436 114.275 22.107 113.659 22.1577C112.947 22.2164 112.58 22.4125 111.804 22.3277C111.552 22.1129 111.622 22.1466 111.521 21.7744Z"
        fill="#00BEE4" />
    <path
        d="M122.057 21.9424C122.201 21.9397 122.329 21.9486 122.473 21.9559C122.657 22.2694 122.519 22.7829 122.461 23.1741C122.448 22.8816 122.48 22.5518 122.3 22.3195C121.878 22.2728 121.018 22.2294 120.701 22.0604L120.805 22.1413L120.979 22.0104L120.921 22.0179L122.057 21.9424Z"
        fill="#00BEE4" />
    <path
        d="M116.541 33.1685C116.686 33.4932 116.637 35.4868 116.573 35.8666L116.452 35.8771C116.405 35.1577 116.254 33.772 116.541 33.1685Z"
        fill="#00BEE4" />
    <path
        d="M203.399 65.8595C208.049 65.8859 212.7 65.882 217.35 65.8481C217.301 67.3888 217.285 68.9302 217.303 70.4715C215.901 70.4978 214.499 70.5053 213.097 70.494C213.145 73.8992 213.094 77.4086 213.086 80.8216L213.076 85.1364C211.277 85.1423 209.477 85.1389 207.676 85.1265C207.698 80.2543 207.694 75.3821 207.663 70.51C206.239 70.4773 204.826 70.5444 203.391 70.4638C203.419 68.9513 203.399 67.3769 203.399 65.8595Z"
        fill="#00BEE4" />
    <path
        d="M145.05 21.8096C149.483 21.8048 154.089 21.8875 158.502 21.8062C158.566 22.7483 158.54 24.129 158.517 25.0912L158.511 26.2542C157.151 26.279 155.791 26.2906 154.43 26.2889C154.445 31.0309 154.428 35.773 154.375 40.5149C152.628 40.5355 150.882 40.5327 149.135 40.5066L149.149 26.2981L145.022 26.258L145.05 21.8096Z"
        fill="#00BEE4" />
    <path
        d="M180.094 28.9521L188.03 28.9248C188.018 29.9704 188.039 31.4716 187.952 32.4727C185.358 32.5411 182.618 32.4955 180.017 32.4813C180.017 31.811 179.986 29.4741 180.094 28.9521Z"
        fill="#00BEE4" />
</svg>