<svg width="238" height="100" viewBox="0 0 238 100" fill="none" xmlns="http://www.w3.org/2000/svg">
    <g clip-path="url(#clip0_2018_965)">
        <path
            d="M174.52 16.765C178.527 16.6613 182.881 16.7459 186.91 16.7453L210.406 16.7435L222.745 16.7437C224.479 16.7438 227.876 16.6509 229.468 16.8434C229.852 17.5356 229.618 65.9661 229.662 71.8228L174.521 71.8455C174.565 68.9439 174.561 66.0104 174.542 63.1082C174.441 47.6714 174.697 32.1967 174.52 16.765Z"
            fill="#00BEE4" />
        <path
            d="M183.982 21.5303L210.083 21.5451L210.068 29.6166L211.488 30.1332C212.579 29.6147 214.166 28.6681 215.261 28.0598L215.255 31.477C216.877 31.893 218.952 32.6011 220.587 33.1059L224.07 31.1329C224.068 40.5312 223.969 50.1434 224.091 59.5245C222.219 60.6205 220.29 61.6912 218.401 62.763C214.961 64.6734 211.452 66.6797 208.048 68.6522C205.844 67.7859 203.34 66.9556 201.085 66.1533L188.77 61.7721C188.738 60.6657 188.763 59.5006 188.769 58.3893L180.171 58.3976C180.358 47.4329 180.193 35.9343 180.175 24.9229C181.229 24.8846 182.534 24.9219 183.607 24.9273C183.607 24.2628 183.475 22.0328 183.719 21.6001L183.982 21.5303Z"
            fill="#F5F7FD" />
        <path
            d="M221.599 35.272L221.69 35.297C221.916 35.6202 221.726 55.6754 221.812 58.1198C217.769 60.5489 213.439 62.8517 209.335 65.2323L209.194 65.2637C209.015 65.0008 209.092 44.254 209.092 42.1096C213.212 39.8988 217.442 37.3663 221.599 35.272Z"
            fill="#00BEE4" />
        <path
            d="M182.484 27.2502L194.876 27.2541C197.208 27.2544 199.834 27.3093 202.14 27.1978C201.297 27.61 199.08 28.9389 198.404 29.1099C196.255 29.6531 191.52 28.9051 189.495 29.3482C189.325 29.6016 189.382 29.8658 189.396 30.1874C189.886 30.5625 191.468 30.4161 192.169 30.3999L192.018 30.6066L192.109 30.8678C192.057 31.2564 192.046 31.3485 192.084 31.7404C192.336 32.0116 192.321 31.929 192.788 31.9859L192.776 32.1483C191.757 32.8197 189.888 33.7521 188.743 34.3883L188.753 35.542C187.583 35.5332 185.52 35.4666 184.433 35.5959C184.257 35.8023 184.334 36.203 184.342 36.5348C184.836 37.0389 187.522 36.4348 188.563 36.7503C188.783 36.9749 188.813 37.005 188.88 37.3106C188.237 38.4323 184.764 36.9157 184.242 38.3801C184.535 39.8566 187.472 38.1579 188.638 39.1105C188.836 39.4279 188.814 39.5061 188.784 39.8747C188.109 40.212 185.39 39.9487 184.428 40.0803C182.922 42.0379 188.03 40.7665 188.717 41.3939C189.255 43.4353 185.502 41.5718 184.224 42.5458C183.586 44.2076 187.989 43.1392 188.721 43.5559C188.761 43.9536 188.768 44.0359 188.706 44.4322C187.671 45.0303 184.874 43.9364 184.268 44.9512C184.255 45.1157 184.227 45.3034 184.294 45.4586C184.546 46.0435 187.926 45.486 188.739 45.8618C188.812 46.3539 188.86 46.2149 188.673 46.626C187.684 47.3374 185.306 46.1068 184.337 47.1789C184.265 47.474 184.208 47.6002 184.327 47.8879C184.811 48.1143 187.812 47.9661 188.64 48.0111L188.767 48.1559C188.812 50.194 185.884 48.3424 184.46 49.2444C184.232 49.6453 184.298 49.5254 184.295 50.027C184.697 50.4175 187.922 50.2381 188.756 50.2344L188.761 56.0844L182.486 56.0863C182.39 52.4561 182.469 48.5329 182.469 44.8688L182.484 27.2502Z"
            fill="#00BEE4" />
        <path
            d="M191.113 36.7031C192.777 37.1453 196.138 38.468 197.858 39.09L197.843 62.5217C195.632 61.7909 193.311 60.9232 191.107 60.136C191.203 52.3934 191.113 44.4614 191.113 36.7031Z"
            fill="#00BEE4" />
        <path
            d="M192.187 39.9805C193.704 40.4693 195.214 40.9797 196.716 41.5119C196.678 44.7962 196.715 48.1519 196.716 51.442C195.259 50.8905 193.663 50.3687 192.183 49.8557L192.187 39.9805Z"
            fill="#F5F7FD" />
        <path d="M193.34 41.6021L195.561 42.3301L195.553 49.8027L193.333 49.003L193.34 41.6021Z" fill="#00BEE4" />
        <path
            d="M193.931 54.0819C196.555 53.823 197.314 57.3508 194.976 58.837C194.636 58.8772 194.364 58.9092 194.028 58.8273C193.516 58.6976 193.078 58.3677 192.813 57.9116C191.989 56.5149 192.579 54.8906 193.931 54.0819Z"
            fill="#F5F7FD" />
        <path
            d="M194.22 55.146C195.571 55.3898 195.275 56.9287 194.618 57.7853C193.226 57.6728 193.604 55.9731 194.22 55.146Z"
            fill="#00BEE4" />
        <path
            d="M200.166 39.9331C201.848 40.3869 205.036 41.6267 206.781 42.2446L206.771 65.6914C204.572 64.955 202.352 64.0456 200.137 63.3748L200.166 39.9331Z"
            fill="#00BEE4" />
        <path
            d="M201.165 43.082C202.674 43.6068 204.219 44.1096 205.736 44.6193L205.731 54.6029C204.378 54.0512 202.579 53.4698 201.172 52.9691C201.188 49.6733 201.185 46.3777 201.165 43.082Z"
            fill="#F5F7FD" />
        <path
            d="M202.354 44.7144L204.575 45.4644V52.8765C204.1 52.7893 202.863 52.3285 202.349 52.1501L202.354 44.7144Z"
            fill="#00BEE4" />
        <path
            d="M202.872 56.8679C205.751 56.6089 206.255 60.1809 203.987 61.6205C201.216 61.8901 200.656 58.4035 202.872 56.8679Z"
            fill="#F5F7FD" />
        <path
            d="M203.214 57.9521C204.637 58.2547 204.331 59.5785 203.697 60.5121C203.59 60.4961 203.349 60.426 203.233 60.3956C202.385 59.6968 202.644 58.7493 203.214 57.9521Z"
            fill="#00BEE4" />
        <path
            d="M185.909 23.8945C192.915 23.7205 200.673 23.8899 207.742 23.8892L207.737 28.8304C207.373 28.7239 207.176 28.6896 206.877 28.4522C206.45 27.6913 206.66 25.9522 206.667 24.9248C201.89 24.7861 196.81 25.003 192.007 24.9132C190.09 24.8773 187.982 25.0046 186.09 24.8877C185.849 24.5522 185.923 24.362 185.909 23.8945Z"
            fill="#00BEE4" />
        <path
            d="M203.692 29.0083C203.865 29.0637 203.836 29.1006 203.965 29.3029C203.855 29.8308 203.411 30.1992 202.943 30.3801C201.45 30.9581 194.48 35.2887 193.49 35.1706C193.254 35.0321 193.185 34.9987 192.998 34.8008C193.202 34.5321 202.645 29.5663 203.692 29.0083Z"
            fill="#00BEE4" />
        <path
            d="M214.224 33.54C214.524 33.6869 215.058 33.8073 215.4 33.8966C212.286 35.4467 208.648 37.5481 205.534 39.242C205.195 39.249 204.832 39.103 204.543 38.9346L204.534 38.7929L214.224 33.54Z"
            fill="#00BEE4" />
        <path
            d="M212.739 32.147L212.908 32.2103L212.936 32.6207C212.776 33.1089 203.2 38.3703 202.459 38.3703C202.291 38.2322 202.219 38.1448 202.075 37.9812C202.493 37.5288 211.524 32.7924 212.739 32.147Z"
            fill="#00BEE4" />
        <path
            d="M207.736 31.2476C208.012 31.3682 208.499 31.5035 208.803 31.5977C205.534 33.3064 202.159 35.2204 198.908 36.9927L197.791 36.6259C200.443 35.4431 205.044 32.7268 207.736 31.2476Z"
            fill="#00BEE4" />
        <path
            d="M205.272 30.4375C205.627 30.5277 205.716 30.54 206.028 30.7424C205.955 30.9521 197.364 35.578 196.409 36.1012L195.408 35.7223C198.347 34.308 202.374 32.0458 205.272 30.4375Z"
            fill="#00BEE4" />
        <path
            d="M216.785 34.4497C217.094 34.4636 217.34 34.5117 217.551 34.7126C217.3 35.0109 208.866 39.5761 207.825 40.1512C207.524 40.0549 207.267 40.0051 207.065 39.7594C207.649 39.361 209.528 38.4116 210.24 38.0254L216.785 34.4497Z"
            fill="#00BEE4" />
        <path
            d="M192.17 30.3997C192.842 30.3902 195.41 30.2849 195.855 30.6171C194.884 30.9962 193.19 30.8865 192.109 30.8677L192.019 30.6065L192.17 30.3997Z"
            fill="#00BEE4" />
        <path
            d="M55.0962 8.99711C55.4882 8.93714 56.4345 8.93408 56.837 8.946C62.7973 9.12254 68.2616 11.4061 72.4229 15.667C76.636 19.981 79.1051 26.5403 78.984 32.5499C76.974 32.4687 74.8046 32.5035 72.7822 32.501C72.5948 27.975 71.1212 22.9322 67.8529 19.8307C56.7964 9.33953 39.6944 17.5353 39.9992 32.6154C40.1564 40.4035 46.1017 46.4094 53.4545 47.8258C55.9922 48.3149 60.3918 48.0683 63.0624 48.0643L79.3658 48.059L139.691 48.0615L168.507 48.0546C168.491 50.1363 168.492 52.2183 168.511 54.3001L87.7412 54.2783L65.3733 54.2809C61.4595 54.2825 56.7365 54.5168 52.9198 54.0268C43.0261 52.7566 34.643 44.4471 33.8486 34.3658C33.3875 27.8444 35.5277 21.4056 39.8011 16.4588C43.6999 11.9005 49.1662 9.44711 55.0962 8.99711Z"
            fill="#00BEE4" />
        <path
            d="M56.0941 18.5127C58.6474 18.3182 62.3862 19.6767 64.2731 21.4062C67.9743 24.7988 69.105 27.7437 69.5021 32.5188C67.4037 32.4849 65.3045 32.4909 63.2061 32.5371C63.1569 30.6124 62.607 27.8566 61.0495 26.5853C51.7715 19.0115 43.4655 35.977 55.2798 38.4245C56.6932 38.7172 59.3472 38.5412 60.8757 38.5351L69.9129 38.5309C79.9792 38.5333 90.5282 38.6987 100.559 38.5038L100.528 41.1651C101.278 41.0853 103.267 41.16 104.127 41.1651C106.329 41.173 108.532 41.1693 110.734 41.154L110.752 38.5502C115.918 38.4516 121.342 38.5344 126.524 38.5342L156.622 38.534C160.545 38.537 164.606 38.5922 168.517 38.5015L168.525 44.6586C165.781 44.7252 162.781 44.6668 160.022 44.6668H143.513L93.7729 44.6665L67.6185 44.6689L59.6677 44.6728C54.9158 44.673 51.474 44.7888 47.6526 41.3883C45.0901 39.1154 43.5441 35.9107 43.3602 32.4898C43.0014 25.8948 47.3365 19.7566 54.0224 18.6924C54.7096 18.583 55.3999 18.5503 56.0941 18.5127Z"
            fill="#00BEE4" />
        <path
            d="M84.6054 8.17116C86.8136 8.12499 89.1669 8.16082 91.3862 8.15764C91.161 14.8226 91.5497 21.8173 91.2644 28.4378C93.5254 28.3146 96.5584 28.4501 98.9512 28.4034C99.0161 22.001 99.104 14.5331 98.9173 8.17907C101.136 8.11247 103.537 8.15956 105.769 8.16174C105.627 12.4842 105.717 17.1846 105.719 21.5343C105.722 23.8318 105.746 26.1428 105.647 28.4373C106.47 28.3828 107.723 28.4343 108.576 28.4436C108.567 31.8872 108.505 35.455 108.607 38.8852C106.711 38.9376 104.629 38.8965 102.719 38.8984C102.778 37.414 102.75 35.7262 102.76 34.2258C96.8223 34.1384 90.4781 34.1797 84.5412 34.2358C84.6328 27.996 84.5075 21.6864 84.5572 15.4457C84.5658 14.3832 84.4737 8.84091 84.6054 8.17116Z"
            fill="#00BEE4" />
        <path
            d="M13.106 8.93814C17.7012 8.78589 23.2981 8.91568 27.9542 8.92848C27.7735 19.5599 27.9178 30.6347 27.9229 41.2978L27.9352 50.1428C27.9378 51.6023 27.999 53.6265 27.9023 55.0529C25.9446 55.003 23.5822 54.9225 21.6432 55.0937C21.5214 50.7297 21.6506 45.5841 21.6508 41.1568L21.6679 15.1382C18.9008 15.0532 15.8208 15.115 13.0299 15.1119C13.1752 13.3548 13.1034 10.757 13.106 8.93814Z"
            fill="#00BEE4" />
        <path
            d="M6.94631 18.3965C10.9164 18.3027 15.1364 18.3868 19.1361 18.3571L19.1401 41.608C19.1409 42.9884 19.2402 54.6954 19.0024 55.048C17.0126 54.9731 14.9564 55.0049 12.9621 55.0278C13.0603 51.4668 12.9953 47.6747 12.9952 44.0986L12.9935 24.6299C11.1842 24.5199 8.6875 24.593 6.85205 24.6227C6.88362 23.568 6.82102 19.0149 6.94631 18.3965Z"
            fill="#00BEE4" />
        <path
            d="M123.767 16.988C125.415 16.9881 127.063 16.9769 128.712 16.9546C128.703 19.0025 128.727 21.1527 128.617 23.1892C130.523 23.1634 132.429 23.1595 134.335 23.1774C134.41 21.2777 134.401 18.9044 134.361 17.0087L139.169 16.9757C139.315 18.2231 139.26 20.3126 139.26 21.6188L139.257 29.487C139.257 30.1772 139.351 33.8299 139.167 34.173L138.734 34.2275L134.279 34.2178C134.475 32.0244 134.315 29.6134 134.388 27.3822C132.878 27.2247 130.171 27.3203 128.614 27.3699C128.784 29.1663 128.704 32.304 128.709 34.1909C127.052 34.225 125.394 34.2391 123.736 34.2333C123.838 28.5153 123.647 22.6816 123.767 16.988Z"
            fill="#00BEE4" />
        <path
            d="M155.587 16.9936C158.123 16.9787 165.246 16.4392 167.106 18.3372C170.941 22.2522 169.215 27.901 163.32 28.5453C162.366 28.5553 161.413 28.5574 160.459 28.5513C160.547 30.2169 160.49 32.4659 160.495 34.1777C159.244 34.2904 156.813 34.2301 155.513 34.235C155.603 30.0587 155.5 25.8276 155.539 21.6513C155.547 20.8499 155.466 17.5059 155.587 16.9936ZM160.455 24.7379C161.594 24.7216 162.511 24.8191 163.521 24.2669C164.183 23.4331 164.561 22.1417 163.543 21.4167C162.597 20.743 161.487 20.8207 160.389 20.862C160.505 21.942 160.499 23.6222 160.455 24.7379Z"
            fill="#00BEE4" />
        <path
            d="M33.55 58.2937C37.3152 57.9382 40.6643 60.6826 41.0563 64.4453C41.4485 68.2079 38.7375 71.5843 34.98 72.0133C31.17 72.448 27.7372 69.6904 27.3396 65.8756C26.942 62.0607 29.7324 58.6542 33.55 58.2937ZM34.5891 68.7868C38.9024 67.6952 37.8093 61.1346 33.7523 61.5222C29.5958 62.7855 30.5665 69.161 34.5891 68.7868Z"
            fill="#00BEE4" />
        <path
            d="M110.885 17.0018C114.257 16.9325 117.797 16.9849 121.181 16.9832L121.229 21.2242C119.506 21.1881 117.39 21.2734 115.719 21.1405C115.747 21.8978 115.72 22.7214 115.71 23.484L120.721 23.4995L120.728 27.3167C119.066 27.3466 117.374 27.3364 115.709 27.342C115.724 27.9825 115.725 28.6359 115.732 29.2778C115.738 29.6838 115.663 29.7418 115.88 29.9838C117.621 30.0506 119.421 30.0135 121.167 29.9996C121.224 31.357 121.211 32.8516 121.225 34.22L110.763 34.2313C111.031 30.1625 110.752 25.5892 110.848 21.4725C110.881 20.0848 110.773 18.3414 110.885 17.0018Z"
            fill="#00BEE4" />
        <path
            d="M53.1454 58.8126C54.3754 58.7759 55.6061 58.7616 56.8366 58.7692C57.0774 59.7989 57.2272 61.4317 57.3979 62.5295C57.8639 65.5245 58.1968 68.5825 58.7372 71.564C57.6433 71.6114 56.2498 71.577 55.133 71.581C54.8449 69.296 54.5805 67.0079 54.3392 64.7176L54.3552 64.5587L54.2569 64.474C53.6956 65.611 52.7863 69.9319 52.2025 71.5473C51.4448 71.5958 50.6056 71.5701 49.839 71.5619C49.0429 69.2245 48.3415 66.4771 47.7139 64.0675C47.5348 66.475 47.195 69.1243 46.9273 71.545C45.9703 71.6197 44.2755 71.5789 43.2623 71.5838C44.1006 67.5135 44.4736 62.936 45.1615 58.7984L47.6939 58.7692C48.0145 58.7565 48.5204 58.7866 48.8558 58.7954C49.5569 61.3978 50.3291 63.8847 51.0085 66.5212C51.6349 64.039 52.4224 61.273 53.1454 58.8126Z"
            fill="#00BEE4" />
        <path
            d="M124.849 58.778C125.73 58.803 127.743 58.6056 128.455 58.9404C128.717 59.7531 128.517 67.1067 128.507 68.4345C129.862 68.4488 131.217 68.4479 132.571 68.4317C132.516 65.427 132.693 61.7114 132.485 58.7979C133.707 58.7548 135.082 58.7768 136.316 58.7699C136.215 61.0222 136.269 63.5461 136.27 65.8186L136.245 68.4335L137.838 68.4723C137.927 69.9135 137.846 72.5351 137.867 74.1265L134.636 74.133C134.631 73.2882 134.645 72.4289 134.65 71.5828C131.522 71.5113 127.978 71.5484 124.857 71.5992C124.736 69.2402 124.938 66.2307 124.857 63.78C124.826 62.8541 124.772 59.4814 124.849 58.778Z"
            fill="#00BEE4" />
        <path
            d="M159.573 66.4822C160.923 64.2039 162.712 61.1644 164.346 59.0522C164.696 58.6003 167.31 58.7729 168.059 58.7938C167.976 62.9596 168.023 67.3979 168.054 71.5672L165.548 71.5768C165.18 71.596 164.786 71.6512 164.512 71.4382C164.362 70.4313 164.459 64.8676 164.597 63.7967C163.282 66.0441 161.389 69.0702 159.846 71.2153C159.463 71.7482 156.855 71.5904 156 71.5865C156.141 69.6558 156.095 67.4016 156.095 65.443C156.095 63.2814 156.14 60.9477 156.045 58.8L158.455 58.7706C158.837 58.7613 159.31 58.7829 159.7 58.7896C159.687 61.3542 159.645 63.9185 159.573 66.4822Z"
            fill="#00BEE4" />
        <path
            d="M148.754 58.8392C149.844 58.7342 151.279 58.7657 152.398 58.7601C152.323 62.9439 152.382 67.3684 152.397 71.5554L150.655 71.5703L148.795 71.5879C148.892 68.9953 148.774 66.449 148.952 63.8526C147.577 66.0998 145.696 69.1862 144.085 71.3239C143.787 71.719 141.169 71.587 140.444 71.5765C140.541 67.4698 140.457 62.9601 140.473 58.8279C141.136 58.7996 141.819 58.7891 142.484 58.7706C142.987 58.7485 143.574 58.7859 144.084 58.8056C144.205 60.2136 144.003 64.9644 143.899 66.5003C145.467 63.8884 147.171 61.4254 148.754 58.8392Z"
            fill="#00BEE4" />
        <path
            d="M141.465 17.0083C145.489 16.9044 149.714 17.0061 153.773 16.9597L153.755 21.1997C152.59 21.2464 151.162 21.1823 149.973 21.1573C150.002 24.261 150.012 27.3648 150.002 30.4688L150.04 34.2173C148.379 34.2136 146.718 34.221 145.056 34.2398L145.069 21.2392C143.915 21.1571 142.442 21.209 141.264 21.2197C141.297 20.5453 141.302 17.3816 141.465 17.0083Z"
            fill="#00BEE4" />
        <path
            d="M112.22 58.77L113.377 58.7707C113.257 59.615 113.288 62.3849 113.28 63.3447L117.492 63.3368C117.497 61.8223 117.48 60.3077 117.443 58.7937C118.632 58.751 119.999 58.7795 121.202 58.7786C121.172 63.044 121.168 67.3096 121.19 71.575L118.572 71.5757L117.457 71.582C117.476 69.8844 117.483 68.1866 117.478 66.4888L113.297 66.4793C113.332 68.1474 113.313 69.8898 113.32 71.5639L109.578 71.5929C109.609 67.3247 109.606 63.0563 109.567 58.7881L112.22 58.77Z"
            fill="#00BEE4" />
        <path
            d="M71.8313 58.7698L72.9593 58.7784L72.9495 71.5741L69.2242 71.5927C69.2491 68.3669 69.2558 65.1411 69.2446 61.9151C67.8931 61.8293 66.5371 61.8388 65.187 61.9439L65.2006 64.3347C65.1923 66.7459 65.2067 69.1571 65.2442 71.5679L61.4563 71.5869C61.5788 67.6693 61.5723 62.7204 61.4816 58.7958C64.8829 58.7364 68.4122 58.7949 71.8313 58.7698Z"
            fill="#00BEE4" />
        <path
            d="M45.5001 78.6776C47.8657 78.5769 51.0589 78.6425 53.4652 78.6632C53.5568 81.2006 53.496 84.0991 53.4979 86.6632L54.7708 86.6982C54.7675 88.2749 54.7887 89.8514 54.8343 91.4274L52.0558 91.4288L52.0858 89.6572C52.1041 89.4734 52.1155 89.5674 52.0006 89.379C51.1376 89.1923 47.2837 89.3043 46.1569 89.3219C46.159 89.9753 46.2128 90.7604 46.2407 91.4239L43.496 91.4181C43.4355 90.0071 43.4963 88.1958 43.5044 86.7553C45.6515 86.0725 45.616 84.7299 45.6086 82.7214C45.6035 81.3725 45.5915 80.0262 45.5001 78.6776ZM49.2602 86.6745C49.6338 86.6794 50.0379 86.7186 50.3717 86.5655C50.5633 85.4011 50.3738 82.6481 50.4375 81.2698C49.8526 81.2582 49.0141 81.2187 48.4528 81.25C48.4748 82.9462 48.781 85.3818 47.4688 86.6641C47.6679 86.7949 48.9227 86.675 49.2602 86.6745Z"
            fill="#00BEE4" />
        <path
            d="M203.206 78.244C206.34 77.9846 209.1 80.2933 209.4 83.4242C209.699 86.5551 207.426 89.3452 204.3 89.6848C202.242 89.9083 200.223 89.0071 199.015 87.3256C197.807 85.6442 197.596 83.4428 198.464 81.5626C199.331 79.6827 201.143 78.415 203.206 78.244ZM204.212 86.9344C206.806 86.0456 207.01 82.489 204.686 81.1689C204.182 80.8824 203.511 80.9543 202.942 80.9972C199.729 82.6358 201.006 87.6281 204.212 86.9344Z"
            fill="#00BEE4" />
        <path
            d="M141.987 78.2492C145.138 77.9648 147.925 80.282 148.223 83.4324C148.519 86.5828 146.214 89.3803 143.065 89.6898C139.899 90.0009 137.083 87.679 136.785 84.511C136.486 81.343 138.818 78.5355 141.987 78.2492ZM143.191 86.9002C146.116 85.672 145.803 80.6651 141.754 80.9978C138.749 82.4325 139.514 87.6236 143.191 86.9002Z"
            fill="#00BEE4" />
        <path
            d="M179.841 78.2539C182.979 77.9688 185.76 80.2647 186.075 83.3998C186.39 86.5351 184.122 89.3391 180.99 89.6843C177.817 90.0342 174.967 87.7271 174.647 84.5493C174.328 81.3713 176.661 78.543 179.841 78.2539ZM181.041 86.8961C184.023 85.7205 183.672 80.5688 179.536 81.012C176.471 82.8961 177.713 87.7113 181.041 86.8961Z"
            fill="#00BEE4" />
        <path
            d="M155.582 78.2541C158.729 77.9818 161.504 80.3032 161.794 83.4494C162.083 86.5956 159.778 89.3848 156.634 89.6917C153.466 90.001 150.651 87.6728 150.359 84.502C150.067 81.3312 152.41 78.5284 155.582 78.2541ZM156.836 86.874C157.53 86.587 158.249 86.0664 158.452 85.331C159.194 82.6513 158.01 80.7401 155.248 81.0078C152.214 82.9184 153.366 87.7227 156.836 86.874Z"
            fill="#00BEE4" />
        <path
            d="M30.8543 78.2547C33.9833 77.9895 36.7437 80.2903 37.0468 83.4166C37.3502 86.5426 35.0836 89.3315 31.9621 89.6728C29.9089 89.8974 27.8935 89.0002 26.6859 87.324C25.4787 85.6477 25.2655 83.4516 26.1283 81.5744C26.991 79.6973 28.7962 78.4294 30.8543 78.2547ZM31.9913 86.8917C34.9217 85.9315 34.7155 80.5406 30.5184 81.0097C27.3799 82.8748 28.7076 87.7355 31.9913 86.8917Z"
            fill="#00BEE4" />
        <path
            d="M61.4256 78.2567C64.5722 77.9836 67.3475 80.3067 67.6328 83.4531C67.9181 86.5993 65.6063 89.3841 62.462 89.6817C59.3003 89.9813 56.4974 87.6533 56.2105 84.4897C55.9234 81.3261 58.2616 78.5316 61.4256 78.2567ZM62.6524 86.8766C65.5673 85.7792 65.1509 80.5285 61.1464 81.0076C58.0169 82.7453 59.1414 87.7088 62.6524 86.8766Z"
            fill="#00BEE4" />
        <path
            d="M21.0283 58.8477C22.4903 58.6774 23.9703 58.8772 25.4854 58.7178C24.1893 60.0998 21.8589 63.301 20.5134 64.9559C21.6449 66.5748 23.3209 68.7503 24.5592 70.3117L25.5095 71.5525C24.431 71.578 22.1894 71.7091 21.2175 71.4339L21.1485 71.414C20.4274 71.211 17.7783 66.8175 17.2674 65.977C17.4273 67.2182 17.4247 70.2359 17.466 71.5722L13.5968 71.5896C13.7471 69.6744 13.6848 67.1168 13.6848 65.1424C13.6849 63.2115 13.7522 60.6784 13.6164 58.7994L16.3107 58.7709L17.4534 58.7992C17.4386 60.3829 17.4234 62.7447 17.2628 64.2724C18.1463 62.7342 19.9468 60.3553 21.0283 58.8477Z"
            fill="#00BEE4" />
        <path
            d="M93.9367 78.6825C94.9367 78.6514 95.9371 78.6459 96.9372 78.6656C97.6319 80.9061 98.2776 83.0774 98.7782 85.3696C98.9554 84.2917 100.132 79.7066 100.609 78.8867C101.019 78.5053 103.006 78.6519 103.655 78.6649C103.867 80.936 104.414 83.5275 104.691 85.8046C104.837 86.9971 105.119 88.1042 105.099 89.3176L102.131 89.3083C102.031 88.1028 101.864 86.8502 101.732 85.642C101.621 84.8425 101.6 83.8497 101.563 83.0282C100.976 84.5527 100.549 87.7711 99.6937 89.1304C99.5248 89.3986 98.154 89.2923 97.7453 89.2728C97.1154 87.1532 96.5257 85.0218 95.9772 82.8799C95.9027 84.4891 95.6232 87.7001 95.3683 89.2501C94.4848 89.3443 93.2543 89.2689 92.3407 89.2397C92.8018 86.8514 93.037 84.1892 93.4418 81.7756C93.5962 80.8529 93.7011 79.5551 93.9367 78.6825Z"
            fill="#00BEE4" />
        <path
            d="M105.234 58.7686L106.354 58.7955L106.343 61.8612C105.017 61.8561 103.585 61.8176 102.272 61.9412C102.282 62.4813 102.269 63.0458 102.265 63.588C103.483 63.6019 104.701 63.5864 105.918 63.5416C105.953 64.535 105.923 65.4605 105.976 66.4883L102.288 66.4866C102.319 67.1332 102.289 67.8023 102.273 68.451L106.347 68.4299L106.343 70.4579L106.349 71.5757C103.73 71.5627 101.111 71.5666 98.4926 71.5875C98.6308 69.6779 98.5802 67.3743 98.5802 65.4359C98.5802 63.2915 98.6292 60.9278 98.5311 58.7996L105.234 58.7686Z"
            fill="#00BEE4" />
        <path
            d="M76.6054 58.778L84.297 58.771C84.4234 59.7619 84.3722 60.8625 84.3532 61.8687C82.9636 61.8583 81.6709 61.8451 80.2834 61.9184C80.2987 62.4794 80.2776 63.0313 80.2616 63.5918C81.4877 63.5707 82.7673 63.5937 83.9983 63.6002L84.0461 66.4851C82.8316 66.5123 81.503 66.4821 80.2799 66.4777L80.3356 67.5501C80.2931 67.9057 80.2577 68.0417 80.3491 68.3908C80.8542 68.4904 83.5532 68.4572 84.2694 68.4734C84.5032 69.5692 84.4483 70.464 84.3768 71.5732C81.7853 71.5524 79.1939 71.5619 76.6026 71.602C76.4964 69.1265 76.6878 66.1689 76.6073 63.6231C76.5801 62.7654 76.5272 59.4239 76.6054 58.778Z"
            fill="#00BEE4" />
        <path
            d="M171.773 78.6167C171.841 78.6183 171.905 78.6821 171.982 78.7325C172.101 79.3424 172.028 80.5913 172.01 81.2622C170.538 81.3042 168.637 81.236 167.123 81.2274C167.142 81.7269 167.135 82.2478 167.136 82.7492C169.188 82.7041 171.926 82.6287 172.792 84.9952C173.067 85.7501 173.027 86.5835 172.683 87.3092C172.153 88.4175 171.351 88.7748 170.29 89.143C169.186 89.3541 165.347 89.3167 164.084 89.3321C164.095 86.0796 164.2 81.8576 164.028 78.6654C166.548 78.6687 169.275 78.7202 171.773 78.6167ZM167.112 87.1101C167.825 87.0937 168.935 87.1139 169.569 86.8842C170.454 84.7451 168.62 84.9384 167.119 84.943C167.135 85.6668 167.163 86.3879 167.112 87.1101Z"
            fill="#00BEE4" />
        <path
            d="M116.084 78.6754C117.095 78.6529 118.107 78.6501 119.119 78.6675C119.161 79.9856 119.134 81.1535 119.095 82.4715C120.214 82.4318 121.487 82.4617 122.619 82.465L122.577 78.6664C123.633 78.6562 124.689 78.6573 125.745 78.6701C125.835 82.0467 125.691 85.5147 125.747 88.8987C125.752 89.1483 125.613 89.1887 125.438 89.2973L122.581 89.3124L122.591 85.0678C121.427 85.0808 120.264 85.1057 119.101 85.1419C119.187 86.4446 119.167 88.0166 119.131 89.3177C118.1 89.3038 117.069 89.2808 116.039 89.249C116.188 85.9513 116.087 82.0193 116.084 78.6754Z"
            fill="#00BEE4" />
        <path
            d="M13.8241 78.6788C16.8085 78.5853 20.2768 78.6623 23.2919 78.6512C23.3754 82.1231 23.3132 85.8194 23.3137 89.3083C22.2667 89.2946 21.2199 89.2744 20.1733 89.2473C20.294 87.5541 20.2504 85.5869 20.2486 83.8685C20.2278 83.02 20.1862 82.1317 20.2689 81.2902C19.1217 81.2065 18.0228 81.2364 16.8753 81.2529C16.9995 83.7021 16.9725 86.8377 16.9172 89.3025C15.8956 89.3125 14.8344 89.2797 13.8098 89.2626L13.8241 78.6788Z"
            fill="#00BEE4" />
        <path
            d="M72.7384 78.6099L72.8936 78.6252C73.2406 79.1667 72.9738 82.3507 72.9184 83.1848C73.7147 82.0528 74.481 80.9403 75.1961 79.7587C76.0578 78.3342 78.1901 78.6725 79.7312 78.6187C78.3564 80.275 76.9979 82.1226 75.6215 83.8218C76.8785 85.3067 78.0533 87.1834 79.3619 88.69C79.4974 88.8902 79.496 88.9032 79.5417 89.1447C79.0233 89.5243 76.6124 89.2948 75.9147 89.1974L72.911 84.6817C73.0634 86.0932 73.0365 87.849 73.0497 89.289C72.0699 89.3287 70.909 89.3146 69.9168 89.3248C69.9499 86.2069 70.0483 81.7401 69.8799 78.6774C70.833 78.6688 71.786 78.6461 72.7384 78.6099Z"
            fill="#00BEE4" />
        <path
            d="M188.03 78.6671C189.517 78.653 191.066 78.659 192.545 78.6553C195.701 78.6474 197.49 81.3623 195.949 84.1679C195.287 85.3741 193.918 85.7778 192.649 85.8407L191.203 85.7994C191.136 86.8891 191.201 88.161 191.23 89.2649C190.317 89.3384 188.948 89.2959 188.001 89.2948C188.086 85.8103 188.04 82.162 188.03 78.6671ZM193.053 83.1205C194.056 81.3644 192.598 81.0018 191.143 80.9971L191.167 83.4276C191.866 83.4095 192.422 83.4485 193.053 83.1205Z"
            fill="#00BEE4" />
        <path
            d="M94.8099 58.7686L95.929 58.772L95.904 61.8626C94.9277 61.8598 94.0832 61.8737 93.1074 61.9266C93.199 65.0181 93.1345 68.4399 93.1443 71.5564C91.9001 71.5817 90.6557 71.5945 89.4111 71.5949L89.4254 70.0519L89.428 61.9171C88.5758 61.8435 87.5105 61.8698 86.6393 61.8686L86.6581 58.7855L94.8099 58.7686Z"
            fill="#00BEE4" />
        <path
            d="M107.163 78.6754C109.339 78.6475 111.515 78.6487 113.691 78.6784C113.736 79.6277 113.735 80.3354 113.7 81.2859C112.624 81.2077 111.36 81.2304 110.269 81.2239C110.28 81.7172 110.262 82.1951 110.247 82.6872L113.389 82.664C113.304 83.2853 113.324 84.4381 113.318 85.1047C112.385 85.1327 111.119 84.9307 110.454 85.1917C110.176 85.5427 110.28 85.7002 110.298 86.2336L110.272 86.4879C110.612 86.8192 113.062 86.68 113.697 86.6865C113.766 87.415 113.721 88.4936 113.71 89.2518C111.883 89.3898 109.072 89.2689 107.138 89.291C107.225 85.8329 107.163 82.1501 107.163 78.6754Z"
            fill="#00BEE4" />
        <path
            d="M88.04 78.6979C88.7779 78.6232 90.5497 78.6538 91.3666 78.6476C90.7316 80.2751 89.8026 82.2733 89.0982 83.928C88.4348 85.3309 87.3307 88.0948 86.6249 89.2931C85.7106 89.3335 84.2869 89.2681 83.3276 89.2576C83.8144 88.2688 84.3119 87.2851 84.8201 86.3067C83.4006 83.8162 82.1544 81.0131 80.7648 78.668C81.9605 78.6543 83.1562 78.6552 84.3516 78.671C85.0201 79.831 85.9483 81.8794 86.4635 83.1255C86.9091 81.6741 87.5096 80.1326 88.04 78.6979Z"
            fill="#00BEE4" />
        <path
            d="M219.828 78.6695C221.01 78.6584 222.182 78.6373 223.363 78.6867C223.948 79.668 224.956 82.0104 225.476 83.1442C225.874 81.8533 226.588 79.9348 227.114 78.6901C227.932 78.6192 229.546 78.6637 230.426 78.6637C229.62 80.2954 228.762 82.4639 228.004 84.171C227.216 85.8797 226.465 87.5741 225.641 89.2686C224.752 89.3313 223.318 89.2631 222.374 89.2561C222.835 88.2671 223.322 87.2903 223.834 86.3266C222.425 84.0181 221.164 81.1067 219.828 78.6695Z"
            fill="#00BEE4" />
        <path
            d="M210.484 78.6782C212.999 78.6016 215.822 78.6603 218.35 78.6663C218.308 79.4974 218.334 80.4395 218.338 81.2801L215.95 81.2277L215.972 87.2526L216.023 89.2604C214.961 89.3167 213.878 89.3093 212.814 89.3144L212.821 81.2738C211.947 81.2474 211.366 81.2583 210.493 81.3191C210.518 80.4388 210.514 79.5582 210.484 78.6782Z"
            fill="#00BEE4" />
        <path
            d="M135.116 78.6167C135.187 78.6211 135.232 78.6759 135.31 78.7322C135.403 79.2737 135.35 80.6477 135.341 81.2611L132.95 81.2722C132.936 83.9442 132.962 86.6164 133.028 89.2877C131.903 89.3239 130.988 89.2949 129.869 89.249L129.907 87.908L129.893 81.3138C129.001 81.2256 128.508 81.2727 127.606 81.3439L127.575 78.6524C130.032 78.6617 132.675 78.719 135.116 78.6167Z"
            fill="#00BEE4" />
    </g>
    <defs>
        <clipPath id="clip0_2018_965">
            <rect width="238" height="100" fill="white" />
        </clipPath>
    </defs>
</svg>