<svg width="100%" height="100%" overflow="visible" style="display: block;" viewBox="0 0 31.7305 29.0001" fill="none" xmlns="http://www.w3.org/2000/svg">
<g id="Group 2131327559">
<path id="Subtract" d="M29.6182 8.60168C30.7847 8.60168 31.7305 9.54745 31.7305 10.714V26.8878C31.7303 28.0542 30.7846 29.0001 29.6182 29.0001H2.1123C0.946009 28.9999 0.0001801 28.0541 0 26.8878V10.714C1.85256e-05 9.54755 0.94591 8.60184 2.1123 8.60168H29.6182ZM22.6162 13.8878C21.9907 13.2388 20.9566 13.2203 20.3076 13.8458L14.4639 19.4777L11.3164 16.0118C10.7105 15.3445 9.67811 15.2946 9.01074 15.9005C8.34375 16.5065 8.29455 17.5389 8.90039 18.2062L13.1777 22.9171C13.4744 23.2436 13.8911 23.4366 14.332 23.4513C14.7728 23.4658 15.201 23.3012 15.5186 22.9952L22.5732 16.1954C23.2219 15.57 23.2412 14.5368 22.6162 13.8878Z" fill="var(--fill-0, #00BEE4)"/>
<rect id="Rectangle 1771994792" x="2.25308" y="4.14771" width="27.9965" height="2.45786" rx="1.22893" fill="var(--fill-0, #00BEE4)"/>
<rect id="Rectangle 1771994793" x="5.43677" width="21.6215" height="2.15063" rx="1.07531" fill="var(--fill-0, #00BEE4)"/>
</g>
</svg>
