<svg width="100%" height="100%" overflow="visible" style="display: block;" viewBox="0 0 60 60" fill="none" xmlns="http://www.w3.org/2000/svg">
<g id="&#208;&#152;&#208;&#186;&#208;&#190;&#208;&#189;&#208;&#186;&#208;&#176;">
<path id="Union" d="M31.3086 31.7412C31.5521 31.7412 31.7097 31.8118 35.0439 33.3652C35.7585 33.6954 36.6949 34.1342 37.1279 34.3291C37.7827 34.6267 37.9615 34.735 38.2158 34.9893C38.7517 35.5197 38.7246 35.2277 38.7246 40.0615C38.7246 44.1944 38.7248 44.2408 38.6113 44.3867C38.4165 44.6465 38.2321 44.7495 37.9561 44.7549C37.7341 44.7603 37.4958 44.6629 36.3428 44.127C35.6013 43.7806 34.2482 43.1531 33.3389 42.7363C31.2061 41.7457 31.2541 41.7719 30.9834 41.4688C30.5615 41.0037 30.5781 41.2296 30.5781 36.5215C30.5781 31.9272 30.5617 32.1747 30.9023 31.8828C31.0323 31.78 31.1354 31.7412 31.3086 31.7412ZM46.2754 32.083C47.2498 31.6283 47.4485 31.7853 47.665 31.8936C47.8805 32.0014 47.908 32.2699 47.9082 32.2988C47.9082 32.3259 47.9971 36.208 47.9971 36.208C48.0079 38.6491 47.9915 40.2732 47.959 40.5547C47.894 41.0632 47.7482 41.377 47.4561 41.626C47.2612 41.7884 47.2825 41.7776 43.4883 43.5312C41.1606 44.6085 40.8026 44.7603 40.5752 44.7549C40.2777 44.7494 40.0828 44.63 39.915 44.3486C39.8124 44.1702 39.8072 44.0483 39.791 40.2676C39.7748 36.2082 39.7909 35.8235 40.002 35.4121C40.2564 34.9087 40.4081 34.8217 43.0605 33.582C44.4295 32.9489 45.8742 32.2728 46.2754 32.083ZM35.6553 23.1885C36.0883 23.1885 36.5215 23.5188 36.6406 23.9355C36.7218 24.2387 36.7723 26.2231 36.6299 26.4199C36.4871 26.6147 35.5742 26.9293 34.3672 27.4922C31.1849 28.9697 31.1731 28.9753 30.6592 29.4893C30.1612 29.9873 29.8444 30.3773 29.6387 31.0811C29.6354 31.0872 29.5667 31.2217 29.5225 31.6602C29.4771 32.1094 29.5225 36.2617 29.5225 36.2617C29.5225 38.7868 29.5595 40.9283 29.5596 41.041V41.2305L29.0723 41.4639C25.9059 42.9469 25.7759 43.001 25.4619 43.001C25.1264 43.001 24.9372 42.925 24.7207 42.6924C24.3905 42.3459 24.4062 42.7357 24.4062 35.8555C24.4063 29.7927 24.4123 29.5594 24.5098 29.2617C24.6667 28.7965 24.8775 28.4609 25.2129 28.1309C25.5485 27.8007 25.6677 27.7406 28.3311 26.501C29.2243 26.0841 30.7726 25.3591 31.7686 24.8936C32.7644 24.4227 33.9984 23.849 34.502 23.6162C35.1948 23.2968 35.482 23.1885 35.6553 23.1885ZM12.0586 23.1885C12.3021 23.1886 12.6175 23.3249 15.2578 24.5693C15.8697 24.8563 17.2448 25.5006 18.3164 26.0039C21.775 27.6169 21.9377 27.6926 22.165 27.8496C22.479 28.0608 22.8636 28.5048 23.0205 28.835C23.3398 29.4843 23.3287 29.2151 23.3125 35.9971C23.3124 36.0563 23.3052 42.0314 23.2783 42.2051C23.2518 42.3641 23.1797 42.4403 23.1768 42.4434C22.9819 42.8006 22.7273 42.9632 22.3213 42.9902C21.9861 43.0119 21.9638 43.0067 20.6924 42.417C19.9778 42.0868 18.922 41.5939 18.3428 41.3232C17.7635 41.0526 16.8271 40.6139 16.2588 40.3486C13.1305 38.8982 12.3072 38.498 12.0635 38.3193C11.7119 38.0597 11.3423 37.4968 11.2607 37.334C11.1795 37.1716 11.0259 36.8139 11.0078 36.6406C10.9898 36.4638 11.0076 30.4749 11.0078 30.416C11.0078 26.9894 11.0301 24.0981 11.0518 23.9844C11.1007 23.7463 11.4192 23.3677 11.6572 23.2646C11.7493 23.2268 11.9287 23.1939 12.0586 23.1885ZM38.7246 26.6807C39.0546 26.5888 39.3469 26.583 39.7256 26.6533C39.9746 26.702 40.7377 27.0493 45.4902 29.2686C46.0045 29.5122 46.4439 29.7555 46.5684 29.8691C46.7631 30.0476 46.7731 30.075 46.7461 30.3076C46.719 30.5944 46.5788 30.7675 46.2812 30.9082C46.173 30.9569 45.6583 31.2007 45.1387 31.4443C44.6191 31.6933 43.8127 32.0667 43.3525 32.2832C42.8924 32.4997 41.9448 32.9389 41.252 33.2637C39.7747 33.9563 39.5037 34.0268 38.8545 33.8916C38.6218 33.8429 38.1937 33.6859 37.8311 33.5127C37.1274 33.1771 33.9555 31.6881 32.8564 31.1846C32.4559 31.0005 32.0661 30.7838 31.9795 30.708C31.698 30.4482 31.7251 30.015 32.0391 29.7822C32.2568 29.6277 38.4216 26.7672 38.7246 26.6807ZM23.3242 16.0488C23.7572 15.9785 24.0009 15.9843 24.4717 16.0654C24.9426 16.152 24.8724 16.1199 28.8184 17.9766C30.3663 18.7072 32.3422 19.6325 33.2031 20.0332C34.0692 20.4392 34.8276 20.8024 34.8926 20.8457C35.1955 21.0461 35.3249 21.5542 35.1572 21.8789C35.0002 22.1712 34.7412 22.3291 33.0957 23.0977C32.1755 23.5253 30.3776 24.3694 29.1055 24.9648C24.4778 27.1407 24.7209 27.0434 23.8389 27.0488C22.989 27.0542 23.4 27.2224 18.1006 24.7324C16.4064 23.9367 14.5771 23.0807 14.041 22.8262C13.5051 22.5772 12.974 22.3121 12.8604 22.2363C12.59 22.0577 12.4223 21.6955 12.4707 21.4033C12.5465 20.9594 12.6225 20.9104 15.6377 19.5029C18.6147 18.1064 19.7784 17.5593 20.6445 17.1533C22.6311 16.2115 22.8317 16.13 23.3242 16.0488Z" fill="var(--fill-0, #00BEE4)"/>
</g>
</svg>
