<svg width="100%" height="100%" overflow="visible" style="display: block;" viewBox="0 0 60 60" fill="none" xmlns="http://www.w3.org/2000/svg">
<g id="&#208;&#152;&#208;&#186;&#208;&#190;&#208;&#189;&#208;&#186;&#208;&#176;">
<path id="Union" d="M26.0615 31.5527C27.0583 31.5527 27.8662 32.3606 27.8662 33.3574V43.6143C27.866 44.6109 27.0582 45.4189 26.0615 45.4189H15.8047C14.8081 45.4189 14.0002 44.6108 14 43.6143V33.3574C14 32.3607 14.808 31.5528 15.8047 31.5527H26.0615ZM43.0801 31.5527C44.0767 31.5529 44.8848 32.3607 44.8848 33.3574V43.6143C44.8846 44.6108 44.0766 45.4188 43.0801 45.4189H32.8232C31.8266 45.4189 31.0187 44.6109 31.0186 43.6143V33.3574C31.0186 32.3606 31.8265 31.5527 32.8232 31.5527H43.0801ZM38.4365 14C42.6137 14.0001 45.9999 17.3863 46 21.5635C46 25.7407 42.6137 29.1269 38.4365 29.127C34.2592 29.127 30.873 25.7408 30.873 21.5635C30.8731 17.3863 34.2593 14 38.4365 14ZM26.0615 15.1641C27.0583 15.1641 27.8662 15.972 27.8662 16.9688V27.2256C27.866 28.2222 27.0582 29.0303 26.0615 29.0303H15.8047C14.8081 29.0302 14.0002 28.2222 14 27.2256V16.9688C14 15.972 14.808 15.1641 15.8047 15.1641H26.0615Z" fill="var(--fill-0, #00BEE4)"/>
</g>
</svg>
