<svg width="100%" height="100%" overflow="visible" style="display: block;" viewBox="0 0 38.9374 39.0001" fill="none" xmlns="http://www.w3.org/2000/svg">
<g id="Group 2131327566">
<g id="Group">
<path id="Vector" d="M22.4609 8.66471C22.2024 8.64934 22.0705 8.67562 21.8972 8.78183C21.7704 8.86089 21.6694 8.98976 21.1512 9.75726C20.8209 10.2454 20.5284 10.6716 20.4951 10.7043C20.4577 10.747 20.3814 10.7616 20.2743 10.7476C19.8803 10.7025 19.0362 10.6898 18.5715 10.72C18.2911 10.7383 18.0422 10.7464 18.0191 10.7366C17.9793 10.7199 17.6938 10.2879 17.1266 9.38663C16.829 8.9184 16.7498 8.83827 16.4884 8.72815C16.1362 8.5837 16.0425 8.60266 14.8305 9.09346C13.5997 9.59191 13.4945 9.65669 13.3482 10.0041C13.2464 10.2457 13.2392 10.383 13.3101 10.705C13.4523 11.3572 13.6607 12.4346 13.6545 12.4865C13.6518 12.5205 13.478 12.6927 13.2707 12.8704C12.8622 13.2204 12.4119 13.6697 12.1147 14.0237C11.979 14.1886 11.9133 14.2428 11.8581 14.2351C11.8175 14.2297 11.3265 14.1281 10.7685 14.0099C9.61512 13.7695 9.49721 13.7627 9.20195 13.9734L9.03437 14.0937L8.49753 15.3404L7.96068 16.587L7.9765 16.7807C7.98762 16.9763 8.03462 17.1052 8.14641 17.2653C8.20684 17.3531 8.63021 17.6522 9.60025 18.2908C9.86584 18.465 10.0832 18.615 10.0837 18.623C10.0809 18.6296 10.0622 18.8867 10.0392 19.2004C10.0116 19.5433 10.0122 20.0228 10.0369 20.4267L10.0782 21.087L9.21877 21.6289C8.74723 21.9251 8.31052 22.2126 8.24624 22.2635C8.08911 22.396 7.9586 22.715 7.96152 22.9578C7.96568 23.096 8.07849 23.4201 8.39936 24.2216C8.63736 24.8127 8.88268 25.3681 8.94449 25.4525C9.0434 25.5877 9.08886 25.6186 9.34035 25.7245C9.67126 25.8639 9.53366 25.8761 10.9308 25.584L11.8438 25.3959L12.1782 25.7861C12.5263 26.1899 12.9998 26.666 13.3577 26.9726L13.5638 27.1491L13.5192 27.403C13.4913 27.5432 13.3911 28.0309 13.2921 28.4879C13.1978 28.943 13.1226 29.3711 13.1254 29.4385C13.1421 29.6209 13.2635 29.8785 13.3939 30.0036C13.4902 30.0987 13.6807 30.1829 14.7391 30.6209L15.971 31.1282L16.1749 31.0972C16.5381 31.0398 16.6088 30.9644 17.3048 29.9134L17.9205 28.9882L18.0856 29.0032C18.5442 29.0523 19.3463 29.0629 19.8384 29.0325L20.3912 28.9965L20.7602 29.5727C20.9611 29.8912 21.2153 30.2866 21.3196 30.4552C21.5582 30.8323 21.6597 30.9335 21.8814 31.0269C22.2421 31.1789 22.2977 31.1672 23.5539 30.6639C24.4433 30.3099 24.7386 30.1733 24.845 30.0778C25.0208 29.9103 25.1435 29.6191 25.135 29.3895C25.132 29.2948 25.0368 28.7715 24.9241 28.2253L24.7194 27.2313L25.045 26.9671C25.4376 26.6455 25.8599 26.235 26.1937 25.8496C26.3299 25.6927 26.4658 25.5551 26.5006 25.5464C26.5321 25.5363 26.6751 25.5576 26.8173 25.5902C26.9594 25.6228 27.4324 25.7208 27.8663 25.81C28.7666 25.9944 28.916 25.9912 29.1977 25.7942L29.3652 25.6739L29.8993 24.4338L30.4334 23.1938L30.4174 22.9728C30.3969 22.707 30.252 22.4589 30.0148 22.3006C29.9291 22.245 29.5219 21.9722 29.1114 21.6979C28.701 21.4237 28.3567 21.1774 28.3452 21.1492C28.3337 21.1209 28.3393 20.8856 28.3561 20.6239C28.3915 20.105 28.3921 19.6689 28.3542 19.1113C28.3412 18.911 28.3372 18.7262 28.3456 18.7064C28.3539 18.6865 28.7544 18.411 29.2362 18.0997C29.7195 17.785 30.1537 17.4848 30.2001 17.4303C30.3185 17.2971 30.3989 17.0972 30.4266 16.8556C30.4467 16.6692 30.4197 16.576 30.006 15.5602C29.7656 14.9563 29.5169 14.3996 29.457 14.3198C29.3191 14.1292 28.9644 13.9447 28.7437 13.9414C28.665 13.9433 28.3513 13.9942 28.0513 14.0588C27.2306 14.2313 26.6028 14.3526 26.5697 14.3386C26.5532 14.3317 26.3576 14.1207 26.1335 13.8665C25.7617 13.445 24.989 12.6987 24.8798 12.6527C24.817 12.6262 24.811 12.6588 25.0579 11.4809C25.1774 10.9195 25.2737 10.3951 25.2718 10.3164C25.2692 10.1283 25.1941 9.96417 25.0313 9.78648C24.8998 9.64538 24.8681 9.62813 23.7756 9.16011C22.7725 8.72973 22.6354 8.67589 22.4609 8.66471ZM22.0996 15.8025C22.8494 16.3443 23.4082 17.0434 23.7742 17.895C24.1861 18.8595 24.2936 19.8437 24.0964 20.8945C24.007 21.375 23.6003 22.322 23.3039 22.7387C23.0179 23.1403 22.7893 23.3869 22.4094 23.7061C21.1964 24.7264 19.5095 25.1145 17.978 24.7265C17.2909 24.554 16.4287 24.1128 15.9541 23.6947C15.6896 23.4625 15.2048 22.9115 15.0329 22.6443C14.2632 21.4746 14.0169 20.0616 14.3404 18.7017C14.458 18.2097 14.825 17.3941 15.1054 17.0057C16.204 15.4892 18.0011 14.6916 19.8083 14.9152C20.3194 14.9785 20.6212 15.0667 21.2463 15.3495C21.6855 15.5462 21.9021 15.6609 22.0996 15.8025Z" fill="var(--fill-0, #00BEE4)"/>
</g>
<path id="Vector_2" d="M17.665 0.126559C22.3588 -0.504442 27.4721 1.2915 31.266 4.01331C31.274 3.39772 31.2702 3.0084 31.6781 2.51026C31.8258 2.32985 32.0195 2.17946 32.2606 2.16296C32.5635 2.14223 32.8607 2.32755 33.0785 2.52332C33.6319 3.02062 34.9971 7.24685 35.034 8.06951C35.0493 8.40934 34.9929 8.79544 34.7472 9.05004C34.5577 9.24661 34.2942 9.31885 34.0281 9.31817C33.3048 9.31641 28.7151 7.73522 28.2241 7.229C28.0591 7.05894 27.9384 6.84723 27.9496 6.60368C27.9859 5.81274 28.8032 5.71182 29.412 5.57654L29.0918 5.33603C28.5851 4.866 27.838 4.52033 27.2283 4.21003C22.5299 1.81618 16.9196 1.70531 12.1486 3.96509C9.83063 5.06302 8.23063 6.37567 6.50847 8.23875C6.13468 8.66597 5.78255 9.11173 5.4534 9.5744C2.74125 13.3834 1.71498 18.1408 2.61543 22.7296C2.84528 23.9127 3.35922 25.011 3.62721 26.1916C3.86098 26.7013 3.00397 27.6064 2.53819 27.5565C0.862297 27.377 0.159226 22.1134 0.0687214 21.0494C-0.365538 15.9297 1.2726 10.8499 4.61559 6.94896C7.89783 3.04486 12.5869 0.593327 17.665 0.126559Z" fill="var(--fill-0, #00BEE4)"/>
<path id="Vector_3" d="M36.1982 11.5082C36.4643 11.5423 36.7679 11.5736 36.9869 11.7284C37.8254 12.321 38.5223 15.4871 38.6852 16.493C39.5115 21.532 38.2892 26.6922 35.2906 30.8247C32.2566 35.0576 27.6648 37.9102 22.5268 38.7539C17.0701 39.6261 12.0389 38.1391 7.61992 34.9379C7.64603 35.1982 7.71084 35.994 7.5439 36.1901C5.73489 38.314 4.95498 34.5116 4.56685 33.2976C4.41114 32.8331 3.90883 31.541 3.86229 31.1383C3.54005 28.3489 7.42065 30.619 8.62941 30.8223C8.95233 30.8767 10.3901 31.4409 10.584 31.6481C11.6819 32.8211 10.0672 33.2976 9.39076 33.5109C9.64753 33.7723 10.4322 34.0944 10.745 34.2788C15.6461 37.1679 21.6063 37.4984 26.7892 35.0519C33.5346 31.8814 37.4565 24.7114 36.4887 17.319C36.3844 16.5878 36.2342 15.8637 36.039 15.1513C35.6643 13.7809 34.5049 12.2817 36.1982 11.5082Z" fill="var(--fill-0, #00BEE4)"/>
</g>
</svg>
