<svg width="100%" height="100%" overflow="visible" style="display: block;" viewBox="0 0 60 60" fill="none" xmlns="http://www.w3.org/2000/svg">
<g id="&#208;&#152;&#208;&#186;&#208;&#190;&#208;&#189;&#208;&#186;&#208;&#176;">
<path id="Union" d="M42.4501 13.0454C43.5465 12.9527 44.2558 13.0014 44.7518 13.1958C45.2012 13.3728 45.6184 13.808 45.8241 14.2984C46.1867 15.1667 46.2598 17.2145 46.0214 19.5552C45.6596 23.0977 44.5191 26.1755 42.4637 29.148C42.2779 29.413 41.1915 30.7229 40.0341 32.0786L37.9325 34.5298L37.9706 34.8042C37.9891 34.9601 38.0602 35.4092 38.1278 35.8091C38.4828 37.8797 38.4557 39.4763 38.0233 41.0659C37.5409 42.8362 36.6904 44.2838 35.1903 45.898C33.9715 47.2088 33.18 47.74 32.4217 47.7652C31.9519 47.7795 31.6882 47.6736 31.3387 47.3208C30.8649 46.8357 30.8352 46.5688 31.079 44.938C31.1788 44.2584 31.1906 43.8652 31.1327 43.0474C31.058 41.9743 30.9199 41.3263 30.5917 40.5425C30.3166 39.8752 30.3412 39.8731 29.0878 40.4634C28.5233 40.7359 27.9354 40.9734 27.7928 41.0034C27.4699 41.0534 26.9661 40.9212 26.5663 40.6792C26.1356 40.4102 21.1214 36.0149 20.8065 35.6226C20.519 35.2698 20.3296 34.7702 20.3573 34.438C20.3652 34.3051 20.5255 33.7325 20.7118 33.1753C20.8975 32.61 21.0359 32.081 21.0262 31.9946C21.0017 31.8104 20.9376 31.777 20.2694 31.6021C18.8492 31.2329 17.3582 31.2978 15.6571 31.8062C14.8428 32.0455 14.3797 32.1054 14.0135 32.0015C13.652 31.9013 13.3188 31.6094 13.1366 31.2251C12.8827 30.6926 12.9766 30.1078 13.4559 29.2339C13.8436 28.5352 15.2652 26.8431 16.0614 26.1382C18.3368 24.1261 20.8704 23.34 24.4266 23.5357C24.7709 23.5584 25.1351 23.5676 25.2382 23.565L25.4237 23.5571L27.1258 21.6157C29.4271 18.9905 30.3072 18.1184 31.7694 16.9898C34.6432 14.7813 38.4695 13.3691 42.4501 13.0454ZM18.9774 38.2212C19.5643 37.9762 20.4595 37.8842 20.9725 38.0239C21.0832 38.0526 21.1248 38.1892 21.0526 38.2778C20.3652 39.1175 19.5706 40.6376 20.6639 41.5962C21.837 42.6244 23.1127 41.5878 23.9071 40.7857C24.0047 40.6871 24.1721 40.7182 24.2255 40.8462C24.4311 41.3365 24.453 42.1612 24.288 42.7915C24.0745 43.5654 23.879 43.9217 23.3143 44.5659C22.1305 45.9074 20.6893 46.4976 18.1415 46.69C17.1516 46.7591 16.8757 46.7106 16.4989 46.3804C16.0915 46.0232 15.9866 45.6746 15.9305 44.5718C15.8515 42.9293 16.0361 41.7193 16.5497 40.6118C16.7485 40.1817 16.8503 40.0301 17.33 39.4741C17.9593 38.7474 18.2541 38.5248 18.9774 38.2212ZM37.7889 20.8648C37.0739 20.4783 36.0346 20.3031 35.2714 20.44C34.7406 20.5327 34.0149 20.8651 33.5546 21.2134C32.5835 21.9587 32.0255 23.2134 32.1044 24.4761C32.1687 25.4548 32.5323 26.2161 33.2772 26.9312C33.8365 27.4602 34.1975 27.6676 34.9374 27.8667C36.9474 28.4119 39.0641 27.1823 39.6005 25.1646C39.8777 24.1057 39.7261 23.0585 39.1493 22.1343C38.9002 21.7377 38.2087 21.0932 37.7889 20.8648Z" fill="var(--fill-0, #00BEE4)"/>
</g>
</svg>
