<svg width="100%" height="100%" overflow="visible" style="display: block;" viewBox="0 0 60 60" fill="none" xmlns="http://www.w3.org/2000/svg">
<g id="&#208;&#152;&#208;&#186;&#208;&#190;&#208;&#189;&#208;&#186;&#208;&#176;">
<path id="Subtract" d="M21.5266 11.1293C22.0766 11.0294 23.7536 10.9684 24.4837 11.016C29.6778 11.3997 34.1681 14.5949 36.1243 19.3129C37.3808 22.3489 37.5301 25.702 36.5413 28.8177C36.1335 30.0893 35.6929 31.0203 34.9417 32.1605C34.7074 32.5031 34.5249 32.7953 34.5256 32.809C34.5287 32.8438 34.6704 32.9775 35.8879 34.0834L36.9153 35.0189L37.304 34.8588C37.5923 34.7464 37.7895 34.7081 38.1126 34.724C38.9852 34.7498 38.828 34.6284 44.386 39.6009C50.3129 44.9091 49.903 44.4535 49.9807 45.8207C50.0212 46.5318 50.008 46.6433 49.8645 47.015C49.6005 47.6816 48.1619 49.1615 47.4866 49.475C46.9919 49.702 45.8567 49.7807 45.3333 49.6254C44.6077 49.406 44.3622 49.1993 41.7122 46.6205C40.282 45.2211 38.9169 43.8937 38.6692 43.6595C36.5864 41.6582 34.8897 39.9352 34.7229 39.6566C34.4651 39.2184 34.3624 38.3879 34.5071 37.9203C34.5588 37.7462 34.611 37.5583 34.6077 37.4965C34.6099 37.4336 34.0701 36.8884 33.4124 36.2884L32.2044 35.1908L31.5725 35.6517C27.64 38.5166 22.3536 39.0438 17.8948 36.9994C14.4084 35.4072 11.7446 32.3687 10.6243 28.7142C9.95784 26.523 9.8182 24.0753 10.2376 21.9252C10.7435 19.3653 12.0822 16.8397 13.9065 15.0277C16.0426 12.903 18.3965 11.6984 21.5266 11.1293ZM30.3196 20.6898C29.7384 20.1058 28.7934 20.104 28.2092 20.6849L22.4866 26.3783L19.4426 23.2396C18.869 22.6482 17.9239 22.633 17.3323 23.2064C16.7407 23.7801 16.7264 24.7252 17.3001 25.3168L21.3967 29.5414C21.6746 29.8277 22.0564 29.991 22.4553 29.9945C22.8541 29.9979 23.2381 29.8412 23.5208 29.5599L30.3137 22.8002C30.8976 22.2189 30.9005 21.2739 30.3196 20.6898Z" fill="var(--fill-0, #00BEE4)"/>
</g>
</svg>
