<svg width="390" height="844" viewBox="0 0 390 844" fill="none" xmlns="http://www.w3.org/2000/svg">
<g clip-path="url(#clip0_4010_1493)">
<rect x="-765" width="1924" height="1205" rx="30" fill="#08132C"/>
<g filter="url(#filter0_f_4010_1493)">
<path fill-rule="evenodd" clip-rule="evenodd" d="M260.721 444.442C241.568 417.898 240.734 381.028 252.031 350.633C262.469 322.551 291.943 310.564 316.652 293.963C344.481 275.266 370.174 239.833 402.572 249.491C434.94 259.139 436.46 304.084 452.069 334.328C466.367 362.032 496.778 386.602 488.748 416.467C480.731 446.286 444.633 455.43 416.344 467.2C392.787 477 368.615 480.725 343.222 477.011C312.922 472.58 278.816 469.52 260.721 444.442Z" fill="#00BEE4" fill-opacity="0.58"/>
</g>
<g filter="url(#filter1_f_4010_1493)">
<path fill-rule="evenodd" clip-rule="evenodd" d="M265.721 37.4421C246.568 10.898 245.734 -25.9722 257.031 -56.3668C267.469 -84.4491 296.943 -96.4361 321.652 -113.037C349.481 -131.734 375.174 -167.167 407.572 -157.509C439.94 -147.861 441.46 -102.916 457.069 -72.6724C471.367 -44.9681 501.778 -20.3981 493.748 9.46712C485.731 39.2857 449.633 48.4302 421.344 60.1995C397.787 69.9998 373.615 73.7246 348.222 70.0113C317.922 65.5803 283.816 62.5198 265.721 37.4421Z" fill="#00BEE4" fill-opacity="0.58"/>
</g>
<g filter="url(#filter2_f_4010_1493)">
<path fill-rule="evenodd" clip-rule="evenodd" d="M208.514 243.706C191.798 220.621 191.288 188.398 201.429 161.761C210.798 137.15 236.844 126.493 258.719 111.831C283.355 95.318 306.212 64.1897 334.702 72.4332C363.166 80.669 364.231 119.946 377.801 146.287C390.231 170.416 416.879 191.707 409.621 217.861C402.374 243.975 370.509 252.188 345.509 262.648C324.691 271.359 303.368 274.762 281.015 271.671C254.341 267.983 224.307 265.516 208.514 243.706Z" fill="#00BEE4" fill-opacity="0.22"/>
</g>
<g filter="url(#filter3_f_4010_1493)">
<path fill-rule="evenodd" clip-rule="evenodd" d="M-145.55 227.735C-165.689 199.922 -166.303 161.1 -154.086 129.009C-142.798 99.3585 -111.418 86.5183 -85.064 68.8543C-55.3821 48.9597 -27.8449 11.4568 6.47969 21.3885C40.7719 31.3109 42.0555 78.6311 58.4043 110.366C73.3801 139.437 105.485 165.088 96.7406 196.598C88.0098 228.059 49.6192 237.954 19.4994 250.556C-5.58127 261.05 -31.271 265.151 -58.2023 261.427C-90.3379 256.983 -126.523 254.011 -145.55 227.735Z" fill="#00BEE4" fill-opacity="0.58"/>
</g>
<g filter="url(#filter4_f_4010_1493)">
<path fill-rule="evenodd" clip-rule="evenodd" d="M-67.5496 350.735C-87.6887 322.922 -88.3027 284.1 -76.0855 252.009C-64.7977 222.358 -33.4181 209.518 -7.06404 191.854C22.6179 171.96 50.1551 134.457 84.4797 144.389C118.772 154.311 120.056 201.631 136.404 233.366C151.38 262.437 183.485 288.088 174.741 319.598C166.01 351.059 127.619 360.954 97.4994 373.556C72.4187 384.05 46.729 388.151 19.7977 384.427C-12.3379 379.983 -48.5232 377.011 -67.5496 350.735Z" fill="#00BEE4" fill-opacity="0.58"/>
</g>
<g filter="url(#filter5_f_4010_1493)">
<path fill-rule="evenodd" clip-rule="evenodd" d="M303.061 247.609C292.204 232.616 291.873 211.688 298.459 194.388C304.544 178.405 321.46 171.483 335.667 161.961C351.667 151.237 366.512 131.02 385.015 136.374C403.501 141.723 404.193 167.231 413.006 184.339C421.079 200.01 438.386 213.837 433.672 230.824C428.965 247.783 408.27 253.117 392.033 259.911C378.513 265.568 364.665 267.778 350.147 265.771C332.824 263.376 313.317 261.773 303.061 247.609Z" fill="#00BEE4" fill-opacity="0.58"/>
</g>
<g filter="url(#filter6_f_4010_1493)">
<path fill-rule="evenodd" clip-rule="evenodd" d="M-155.279 772.442C-174.432 745.898 -175.266 709.028 -163.969 678.633C-153.531 650.551 -124.057 638.564 -99.3479 621.963C-71.519 603.266 -45.8262 567.833 -13.4278 577.491C18.94 587.139 20.4603 632.084 36.0693 662.328C50.3674 690.032 80.7784 714.602 72.7485 744.467C64.7311 774.286 28.6331 783.43 0.34383 795.2C-23.2126 805 -47.3848 808.725 -72.7781 805.011C-103.078 800.58 -137.184 797.52 -155.279 772.442Z" fill="#00BEE4" fill-opacity="0.58"/>
</g>
</g>
<defs>
<filter id="filter0_f_4010_1493" x="141.374" y="144.554" width="452.002" height="437.17" filterUnits="userSpaceOnUse" color-interpolation-filters="sRGB">
<feFlood flood-opacity="0" result="BackgroundImageFix"/>
<feBlend mode="normal" in="SourceGraphic" in2="BackgroundImageFix" result="shape"/>
<feGaussianBlur stdDeviation="51.65" result="effect1_foregroundBlur_4010_1493"/>
</filter>
<filter id="filter1_f_4010_1493" x="146.374" y="-262.446" width="452.002" height="437.17" filterUnits="userSpaceOnUse" color-interpolation-filters="sRGB">
<feFlood flood-opacity="0" result="BackgroundImageFix"/>
<feBlend mode="normal" in="SourceGraphic" in2="BackgroundImageFix" result="shape"/>
<feGaussianBlur stdDeviation="51.65" result="effect1_foregroundBlur_4010_1493"/>
</filter>
<filter id="filter2_f_4010_1493" x="-105.303" y="-228.931" width="816.156" height="801.722" filterUnits="userSpaceOnUse" color-interpolation-filters="sRGB">
<feFlood flood-opacity="0" result="BackgroundImageFix"/>
<feBlend mode="normal" in="SourceGraphic" in2="BackgroundImageFix" result="shape"/>
<feGaussianBlur stdDeviation="150" result="effect1_foregroundBlur_4010_1493"/>
</filter>
<filter id="filter3_f_4010_1493" x="-265.495" y="-83.5549" width="467.02" height="449.631" filterUnits="userSpaceOnUse" color-interpolation-filters="sRGB">
<feFlood flood-opacity="0" result="BackgroundImageFix"/>
<feBlend mode="normal" in="SourceGraphic" in2="BackgroundImageFix" result="shape"/>
<feGaussianBlur stdDeviation="51.65" result="effect1_foregroundBlur_4010_1493"/>
</filter>
<filter id="filter4_f_4010_1493" x="-384.195" y="-157.255" width="860.42" height="843.031" filterUnits="userSpaceOnUse" color-interpolation-filters="sRGB">
<feFlood flood-opacity="0" result="BackgroundImageFix"/>
<feBlend mode="normal" in="SourceGraphic" in2="BackgroundImageFix" result="shape"/>
<feGaussianBlur stdDeviation="150" result="effect1_foregroundBlur_4010_1493"/>
</filter>
<filter id="filter5_f_4010_1493" x="169.488" y="10.8878" width="389.585" height="380.21" filterUnits="userSpaceOnUse" color-interpolation-filters="sRGB">
<feFlood flood-opacity="0" result="BackgroundImageFix"/>
<feBlend mode="normal" in="SourceGraphic" in2="BackgroundImageFix" result="shape"/>
<feGaussianBlur stdDeviation="62.3" result="effect1_foregroundBlur_4010_1493"/>
</filter>
<filter id="filter6_f_4010_1493" x="-274.626" y="472.554" width="452.002" height="437.17" filterUnits="userSpaceOnUse" color-interpolation-filters="sRGB">
<feFlood flood-opacity="0" result="BackgroundImageFix"/>
<feBlend mode="normal" in="SourceGraphic" in2="BackgroundImageFix" result="shape"/>
<feGaussianBlur stdDeviation="51.65" result="effect1_foregroundBlur_4010_1493"/>
</filter>
<clipPath id="clip0_4010_1493">
<rect width="390" height="844" fill="white"/>
</clipPath>
</defs>
</svg>
