<svg width="346" height="67" viewBox="0 0 346 67" fill="none" xmlns="http://www.w3.org/2000/svg">
<path d="M107.562 0.0591987C110.651 0.18216 114.124 0.094544 117.216 0.0384428L117.223 29.6295C120.953 29.5865 124.724 29.6199 128.458 29.6245C128.249 26.7234 128.367 22.93 128.371 19.9382C128.418 13.3264 128.407 6.71449 128.338 0.102622C131.655 0.12952 134.973 0.106456 138.289 0.0334473C137.952 5.40264 138.202 13.5058 138.206 19.061C138.238 22.5881 138.221 26.1155 138.155 29.6418L142.198 29.5857L142.218 45.0112C139.456 44.9832 136.695 44.9851 133.933 45.0166L133.939 37.9944C125.213 38.1561 116.318 37.9971 107.561 38.0639L107.562 0.0591987Z" fill="#00BEE4"/>
<path d="M280.458 0.0990327L283.433 0.128619C287.238 0.117475 291.354 0.032553 295.13 0.148214C299.061 0.289235 303 0.675792 305.833 3.6872C309.869 7.97625 309.513 16.1328 305.032 19.9858C303.503 21.3003 301.806 21.9378 300.002 22.7044C301.035 23.8571 302.89 26.6418 303.855 28.0136C306.192 31.3144 308.509 34.6309 310.803 37.962C307.064 37.9478 303.107 38.0127 299.396 37.9408C296.661 34.4153 292.548 27.4245 289.983 23.489C289.97 24.5392 289.963 25.5893 289.962 26.6395C289.934 30.3921 289.9 34.2466 290.078 37.9892C287.169 37.8774 283.342 37.874 280.471 38.0549C280.33 25.4864 280.456 12.6861 280.458 0.0990327ZM290.032 17.8186C292.728 17.787 295.447 18.0802 297.632 16.3818C298.685 15.01 299.202 13.9422 299.006 12.1535C298.44 6.9745 293.658 7.60007 289.954 7.426C290.172 9.54132 290.141 15.5841 290.032 17.8186Z" fill="#00BEE4"/>
<path d="M315.178 0.114903C319.369 0.0906951 325.35 -0.097199 329.462 0.167168C333.266 0.288593 336.647 1.19927 339.352 4.00164C343.95 8.76486 343.665 17.2861 338.819 21.7677C334.62 25.6509 328.186 25.1887 322.886 24.9601C323.141 28.8629 322.836 33.9451 322.959 38.0159C320.135 37.8514 316.199 37.8845 313.409 38.0589L313.393 0.0903127L315.178 0.114903ZM323.031 7.69855C323.045 11.0685 323.038 14.4384 323.011 17.8079C325.473 17.7776 329.259 18.0934 331.205 16.4215C333.293 14.6159 333.285 10.9079 331.386 8.97774C329.539 7.10143 325.648 7.56483 323.169 7.5364L323.031 7.69855Z" fill="#00BEE4"/>
<path d="M29.8484 0L30.0221 0.154087L30.0034 31.3337L30.0373 66.1314L21.1219 66.1291L21.1255 54.48L21.1462 8.8125C17.1822 8.94238 12.8058 8.87052 8.81055 8.87551L8.81493 0.00307235C15.4164 0.211723 23.2114 0.0541799 29.8484 0Z" fill="#00BEE4"/>
<path d="M252.452 0.217416C259.863 0.155551 267.292 0.281978 274.702 0.1521C274.692 2.87032 274.701 5.58853 274.73 8.30636L262.084 8.30829L262.111 14.9375C265.913 14.8925 269.78 14.9229 273.588 14.9225C273.558 17.5181 273.565 20.1141 273.611 22.7094L262.224 22.6802L262.234 26.6357L262.241 29.9411C266.15 29.7901 270.783 29.8853 274.735 29.9092C274.694 32.6093 274.695 35.3103 274.739 38.0108C271.938 37.8625 268.673 37.9297 265.837 37.9297C261.394 37.8982 256.951 37.9401 252.509 38.055C252.473 36.8626 252.521 35.6253 252.512 34.4276C252.42 23.0391 252.691 11.601 252.452 0.217416Z" fill="#00BEE4"/>
<path d="M179.835 13.0329C182.236 13.0118 184.718 12.9583 187.11 13.0398C187.071 15.8729 187.312 37.3539 186.933 38.0225L186.297 38.0479C184.157 38.0291 182.017 38.0394 179.877 38.0786C179.82 35.2809 179.783 30.7897 179.952 28.0642C177.176 28.0976 174.4 28.1014 171.623 28.0757C171.89 30.9672 171.355 35.0953 171.733 38.0433C169.31 38.0344 166.887 38.0429 164.464 38.0682C164.6 29.9854 164.656 21.0857 164.468 13.0129C166.872 13.0794 169.266 12.9545 171.743 13.0486C171.548 15.7841 171.638 19.1837 171.592 22.0099C174.29 21.9134 177.283 21.953 179.989 21.9926C179.75 20.0179 179.888 15.3742 179.835 13.0329Z" fill="#00BEE4"/>
<path d="M210.927 13.0094C214.832 13.097 224.433 12.1717 227.323 14.6455C233.246 19.7138 231.16 28.7215 222.494 29.7625C220.823 29.8513 219.677 29.8758 218.009 29.804C218.11 32.3508 218.023 35.4694 218.022 38.0605C215.657 38.0332 213.292 38.0355 210.928 38.0674L210.927 13.0094ZM218.009 24.2246C219.575 24.2189 221.38 24.3802 222.685 23.4219C225.291 19.3192 221.128 18.4569 218.005 18.4585C218.04 20.3805 218.041 22.3026 218.009 24.2246Z" fill="#00BEE4"/>
<path d="M159.515 12.9791C160.261 12.9579 159.993 12.8304 160.478 13.1531C161.004 14.3954 160.754 17.6677 160.741 19.2305C158.225 19.2501 155.327 19.3358 152.845 19.2067C152.905 20.205 152.874 21.4995 152.878 22.5224L159.885 22.4525L159.908 28.1022L152.84 28.0914C152.913 29.1989 152.851 30.7893 152.839 31.9355C155.303 31.8383 158.126 31.8821 160.632 31.841C160.68 33.3638 160.714 34.8874 160.735 36.4113L160.723 38.0525C155.717 38.0252 150.711 38.0275 145.705 38.0601C145.72 29.8083 145.817 21.2674 145.648 13.0379C150.181 12.9303 154.932 13.0356 159.515 12.9791Z" fill="#00BEE4"/>
<path d="M190.13 13.0101C196.034 13.0305 202.372 12.8687 208.229 13.0447C208.131 14.858 208.125 17.4375 208.209 19.2346C206.335 19.2704 204.369 19.2077 202.488 19.1762C202.708 23.0595 202.533 28.6858 202.529 32.6978C202.523 34.4945 202.536 36.2909 202.568 38.0873C200.23 38.0362 197.892 38.027 195.554 38.0597C195.526 31.7587 195.535 25.4576 195.58 19.1566L190.159 19.2854L190.13 13.0101Z" fill="#00BEE4"/>
<path d="M236.261 22.4943L247.051 22.4731C247.039 24.0897 247.049 25.7059 247.083 27.3221C243.484 27.2794 239.883 27.2898 236.283 27.3536L236.261 22.4943Z" fill="#00BEE4"/>
<path d="M63.8677 0.460469C66.3227 0.045858 68.8196 -0.0582777 71.3004 0.150373C79.9611 0.748658 88.0262 4.77564 93.7082 11.3395C98.8599 17.2724 101.752 24.8334 101.874 32.6895C98.9744 32.6914 95.9038 32.6426 93.0184 32.7179C92.6096 25.7433 90.3417 19.7493 84.996 15.0045C80.2166 10.6878 73.8914 8.49293 67.4655 8.92214C61.0277 9.31985 55.0187 12.284 50.7846 17.1498C42.0175 27.4086 43.1768 42.7946 53.5601 51.4949C61.0784 57.7951 69.7726 57.2871 78.9701 57.2941L96.1313 57.2975L151.636 57.2914L279.805 57.2894C301.719 57.2883 323.944 57.0781 345.829 57.3029V66.0424C339.93 66.3187 332.66 66.12 326.663 66.1196L291.27 66.1192L182.96 66.115L106.488 66.1219L82.5414 66.1212C70.9883 66.1189 60.1789 66.9561 50.1318 59.9635C43.0184 54.972 38.1641 47.3738 36.6248 38.8214C35.0339 30.1384 37.0122 21.1806 42.112 13.9755C47.3697 6.52017 54.9423 2.00633 63.8677 0.460469Z" fill="#00BEE4"/>
<path d="M345.83 51.9512C345.095 52.0995 344.069 52.1038 343.307 52.1034C337.457 52.1007 331.597 52.083 325.749 52.083H288.195L174.282 52.0842L103.815 52.0857H81.955C73.1087 52.0819 63.0966 53.2462 56.1635 46.758C52.4273 43.3155 50.2648 38.4923 50.1798 33.4128C50.0342 28.4371 51.8902 23.6109 55.3319 20.0146C58.7741 16.3515 63.5569 14.2443 68.5833 14.1763C73.5863 14.0426 78.4299 15.9446 82.0046 19.4479C85.7591 23.0902 87.6043 27.5122 87.6777 32.7077C84.8746 32.6762 82.0711 32.6785 79.2679 32.7147C79.0574 29.9853 78.2358 27.6563 76.2811 25.6713C74.3595 23.7419 71.7461 22.6614 69.0233 22.6695C66.2071 22.6568 63.505 23.7826 61.5315 25.7919C59.6022 27.762 58.5547 30.431 58.6292 33.1881C58.6984 36.0085 59.8965 38.6833 61.9546 40.6134C65.9401 44.2892 73.6832 43.571 78.8452 43.5737L93.9957 43.5771L116.899 43.5725C121.212 43.571 126.155 43.6847 130.418 43.4599L130.403 48.3792C135.466 48.2962 140.68 48.3592 145.754 48.3611C145.718 46.7526 145.693 45.1441 145.679 43.5353C151.399 43.7186 157.795 43.5706 163.591 43.5698L197.7 43.5656L300.568 43.5683L329.797 43.5629C334.941 43.5595 340.775 43.415 345.83 43.6071V51.9512Z" fill="#00BEE4"/>
<path d="M0 13.7376C5.68839 13.4102 11.8053 13.7453 17.5578 13.5808L17.4294 66.1234L8.80205 66.1323L8.79886 37.8546C8.79813 33.1094 8.63962 27.1827 8.851 22.5197L0 22.5474V13.7376Z" fill="#00BEE4"/>
</svg>
