<svg width="308" height="70" viewBox="0 0 308 70" fill="none" xmlns="http://www.w3.org/2000/svg">
<path d="M281.722 0.0878906C290.339 0.087811 299.411 -0.0483096 308 0.112305C307.956 5.89399 307.945 11.6762 307.964 17.458L307.963 47.5537L307.967 60.6348L307.968 64.5664C307.968 64.9705 308.079 66.3311 307.794 66.5498L241.375 66.5645L241.379 20.8994C241.377 14.0571 241.267 6.90445 241.399 0.0898438L281.722 0.0878906ZM286.389 6.94336L286.16 6.95508C284.646 7.21228 282.655 7.79207 282.556 9.61328C282.444 11.6753 282.273 13.7523 282.183 15.8145C282.087 18.0064 281.782 20.2806 281.722 22.4619C278.79 21.6464 275.531 20.9771 272.558 20.1748C271.529 19.8973 268.363 19.0547 267.382 18.8926C266.237 19.3977 265.091 19.9301 263.957 20.4717C260.725 22.0159 257.421 23.4311 254.218 25.0342C253.925 25.1807 253.638 25.4537 253.424 25.7002C253.314 26.9335 253.361 28.5476 253.362 29.8164L253.368 36.5674L253.358 44.8496C253.356 45.8488 253.205 49.9621 253.649 50.6768C254.5 51.298 262.86 53.9938 264.123 54.332L272.358 57.04C273.766 57.5029 275.765 58.2291 277.161 58.54C277.94 58.1339 279.182 57.2458 279.953 56.7266L284.177 53.915L291.268 49.1689C292.111 48.599 293.01 48.0032 293.837 47.4199C295.637 46.1586 295.87 46.3406 295.844 44.0947C295.811 41.3382 295.866 38.577 295.853 35.8203C295.848 34.9833 295.146 34.5643 294.435 34.3643C294.022 34.2516 293.608 34.1439 293.193 34.042C293.01 28.5601 292.456 22.2115 292.036 16.6982C291.919 15.1536 291.813 13.6076 291.717 12.0615C291.638 10.8622 291.746 8.93389 290.806 8.11523C289.58 7.04687 287.944 6.87054 286.389 6.94336ZM256.146 38.8672C257.429 39.3174 259.075 39.7589 260.407 40.1611L269.751 42.9668C271.439 43.4701 273.422 44.0087 275.072 44.5703C275.231 44.6255 275.324 44.6419 275.396 44.6738C275.433 44.6898 275.464 44.7097 275.495 44.7402C275.526 44.7706 275.558 44.8118 275.596 44.8701C275.611 48.3071 275.538 51.7441 275.594 55.1885C274.853 54.8752 274.134 54.6898 273.435 54.4375L273.136 54.3252C272.175 54.1363 269.167 53.0226 268.02 52.6445L256.144 48.7598C256.165 45.4624 256.165 42.1645 256.146 38.8672ZM286.945 28.0801C287.019 28.1982 286.977 47.0823 286.976 48.6572C286.76 48.8571 286.495 49.1055 286.202 49.1074C286.131 48.4563 286.192 47.0503 286.192 46.332C286.18 44.5734 286.181 42.8143 286.196 41.0557C285.981 40.92 285.73 40.7356 285.516 40.5879C283.597 41.6292 281.259 43.1215 279.363 44.2705L279.357 46.4912L279.344 53.7725C279.027 53.9675 278.666 54.2284 278.354 54.4404C278.484 47.4699 278.392 40.0522 278.365 33.0615C279.15 32.6911 280.59 31.7829 281.39 31.3105L286.895 28.0449L286.945 28.0801ZM284.767 42.6357C284.842 42.767 284.803 49.3771 284.804 50.1465C283.583 50.8934 281.99 51.9996 280.785 52.8242C280.696 52.611 280.768 45.9266 280.742 45.0518C281.829 44.5028 283.635 43.3045 284.767 42.6357ZM292.991 38.3994C293.098 38.5724 293.034 43.9762 293.033 44.5986C291.972 45.2457 290.881 46.0677 289.771 46.7529C289.73 44.6544 289.818 42.5366 289.755 40.4287C290.575 40.055 292.213 38.9249 292.991 38.3994ZM274.197 37.4951C274.682 37.6413 275.166 37.7946 275.647 37.9531C275.522 38.9335 275.575 40.7199 275.595 41.7354C275.352 41.7487 274.484 41.4654 274.197 41.3809V37.4951ZM272.86 37.123C272.749 37.9914 272.785 40.0434 272.866 40.9277C272.302 40.8552 271.016 40.4104 270.424 40.2188C270.467 38.983 270.441 37.68 270.415 36.4443L272.86 37.123ZM269.108 36.0928C269.032 37.3087 269.031 38.528 269.103 39.7441C268.799 39.8299 267.099 39.2238 266.681 39.0869C266.7 37.8579 266.702 36.6285 266.686 35.3994L269.108 36.0928ZM262.926 34.3535C263.724 34.5961 264.529 34.8239 265.337 35.0352C265.27 36.1317 265.289 37.526 265.315 38.623C265.079 38.7065 263.325 38.1212 262.947 38.0088C262.947 36.7904 262.939 35.5717 262.926 34.3535ZM259.162 33.3047C259.961 33.5165 260.786 33.7651 261.584 33.9922C261.545 35.1931 261.552 36.3953 261.604 37.5957L259.199 36.8799C259.206 35.6881 259.193 34.496 259.162 33.3047ZM257.821 32.9424C257.79 34.1145 257.792 35.2871 257.829 36.459C257.37 36.3507 256.62 36.0958 256.146 35.9512L256.137 32.4502L257.821 32.9424ZM256.128 28.0791C257.838 28.6062 259.646 29.0283 261.372 29.5176C266.075 30.8503 270.951 31.9977 275.635 33.3633C275.575 34.0075 275.571 34.2764 275.615 34.9219C275.156 34.973 257.949 30.0681 256.148 29.5566L256.128 28.0791ZM289.838 25.8789C289.984 26.1106 290.451 32.8527 290.401 33.374C290.057 33.2982 289.981 33.3178 289.799 33.084C289.681 32.1717 289.616 26.4173 289.838 25.8789ZM267.616 21.8408C268.725 22.0335 270.68 22.5868 271.819 22.8711L279.669 24.8389C281.317 25.2522 283.167 25.7519 284.824 26.0664C282.307 27.4233 279.792 29.0793 277.283 30.4756C276.87 30.7054 276.81 30.7906 276.356 30.6631C274.234 30.0525 259.558 26.2721 259.031 25.8828C259.106 25.7746 266.772 22.2582 267.616 21.8408ZM288.957 12.3066C289.111 16.3069 289.472 21.2958 289.892 25.2871C289.785 25.142 289.43 24.6654 289.31 24.5859C288.329 23.938 286.67 23.7305 285.504 23.3906L284.47 23.127C284.538 21.8394 284.667 20.4485 284.775 19.1572C284.787 18.5097 284.83 17.8108 284.895 17.1641C285.055 15.5561 285.061 13.9125 285.202 12.3086C286.653 12.5747 287.495 12.5973 288.957 12.3066ZM286.132 9.01855C286.815 8.95513 288.617 8.85496 288.924 9.56445L288.825 9.77051C288.587 9.99203 288.237 10.0546 287.919 10.1416C287.207 10.2416 285.499 10.3009 285.154 9.52344L285.254 9.33789C285.511 9.12827 285.806 9.0927 286.132 9.01855Z" fill="#00BEE4"/>
<path d="M46.9199 0.0331033C52.2419 -0.301052 58.4501 1.92251 62.397 5.43942C67.8048 10.2581 69.8493 15.2808 70.3334 22.3003C68.3276 22.3266 66.3216 22.3328 64.3157 22.319C64.3194 18.1528 62.4632 13.9013 59.5404 10.9414C56.4403 7.80082 52.215 6.01738 47.795 5.98368C43.412 5.97898 39.2047 7.70115 36.09 10.7748C32.9446 13.8598 31.1738 18.0745 31.175 22.4729C31.1314 26.88 32.8757 31.1178 36.0121 34.2247C41.2078 39.4033 46.9483 39.2287 53.7384 39.2316L63.6476 39.2334L96.9413 39.231L209.89 39.2328L237.621 39.2065C237.573 41.1577 237.593 43.221 237.586 45.1809L107.303 45.19L67.3437 45.196L55.3375 45.2072C48.4813 45.215 41.4862 45.4652 35.4986 41.4535C17.218 29.2055 24.5223 1.48565 46.9199 0.0331033Z" fill="#00BEE4"/>
<path d="M237.594 35.5184C232.579 35.6085 227.414 35.5393 222.388 35.5372L195.442 35.5346L112.825 35.5357L68.71 35.5342L55.3603 35.5367C49.4348 35.5435 43.416 36.2579 38.7901 31.8097C36.3326 29.463 34.9178 26.2348 34.8603 22.8431C34.8036 19.3647 36.0206 16.0978 38.471 13.5949C40.875 11.1311 44.1601 9.71646 47.6078 9.66029C51.0639 9.64483 54.3839 11.0026 56.8331 13.4332C59.2712 15.8195 60.4559 18.9349 60.6716 22.2961C58.8059 22.3204 56.7538 22.353 54.8876 22.3123C54.7043 20.7907 54.4179 19.594 53.4848 18.3384C51.8688 16.1636 49.4268 15.1618 46.7359 15.4967C44.8896 15.7396 43.2173 16.7083 42.0915 18.1871C40.924 19.7061 40.4129 21.6266 40.6716 23.5227C40.909 25.3751 41.8824 27.0551 43.3737 28.1857C45.9739 30.1465 50.5513 29.8425 53.712 29.8424L61.9671 29.8383L90.0502 29.86L90.0446 32.827C93.4714 32.8459 96.8974 32.8474 100.324 32.8316C100.327 32.1135 100.299 30.4918 100.373 29.8544L100.788 29.8871C102.755 29.8058 105.075 29.8515 107.068 29.8493L118.364 29.8497L151.644 29.8471L207.983 29.8468C217.825 29.8478 227.785 29.7578 237.614 29.8609C237.589 31.7466 237.582 33.6325 237.594 35.5184Z" fill="#00BEE4"/>
<path d="M100.373 29.8545L100.788 29.8872C101.458 30.1011 102.658 29.9682 103.439 30.092L103.464 30.1531C102.738 30.327 101.469 30.3027 100.682 30.3196L100.664 31.1611C100.594 30.6678 100.566 30.3207 100.373 29.8545Z" fill="#00BEE4"/>
<path d="M89.8525 33.0004C92.8429 32.9412 95.8629 33.0643 98.8548 32.9981C99.2025 32.9904 100.171 32.9259 100.415 33.1267C100.262 33.2733 100.159 33.2672 99.9419 33.3034C99.8772 33.3109 99.8108 33.3162 99.7453 33.3191C99.2313 33.3453 98.5263 33.2583 97.7477 33.2725C95.2465 33.318 92.6007 33.3641 90.0963 33.2158C89.998 33.1284 89.9165 33.0566 89.8525 33.0004Z" fill="#00BEE4"/>
<path d="M88.7021 29.9942C89.1186 29.9993 89.5559 29.8341 89.8684 30.1159L89.8524 30.4721C89.7701 30.3827 89.376 30.3058 89.2417 30.2814C88.8213 30.2054 88.9763 30.1862 88.7021 29.9942Z" fill="#00BEE4"/>
<path d="M74.167 0.0926878L80.8256 0.0956359C80.7233 6.78464 80.8064 13.6143 80.7864 20.3181L88.5537 20.3173L88.5657 0.0993804C89.4138 0.0942016 94.6152 0.0111815 95.1571 0.167503C95.2475 0.399675 95.317 19.2102 95.1427 20.1657C95.3953 20.4659 97.5424 20.3374 98.0356 20.3286L98.0076 30.6347C96.1211 30.648 94.2339 30.6477 92.3474 30.6339C92.3434 29.0708 92.3498 27.5078 92.3666 25.9448L74.1702 25.9297L74.167 0.0926878Z" fill="#00BEE4"/>
<path d="M95.1569 0.16748C95.2473 0.399652 95.3168 19.2102 95.1425 20.1656C94.8148 19.6105 94.9155 16.5691 94.9123 15.7747C94.8836 13.612 94.8844 11.4491 94.9171 9.28647C94.9307 7.15614 94.8436 4.50281 94.9755 2.43645L94.9931 2.58385C95.0706 1.95841 95.0378 0.929646 95.0354 0.268666L95.1569 0.16748Z" fill="#00BEE4"/>
<path d="M201.931 0.122803C206.111 0.0730154 210.459 0.389893 212.086 5.03784C212.774 7.00355 212.616 9.68921 211.676 11.5623C210.608 13.6898 208.714 14.767 206.51 15.4929C208.354 17.7987 210.026 20.43 211.763 22.8269C212.503 23.8481 213.22 24.985 214.037 25.9382C213.318 25.9796 212.195 25.9467 211.451 25.947L206.104 25.9382C205.462 24.8956 204.724 23.8033 204.054 22.7703L201.366 18.6003C200.944 17.9426 200.218 16.7386 199.743 16.1726L199.659 16.1863C199.604 16.3817 199.665 18.2417 199.665 18.574C199.676 21.0212 199.661 23.469 199.619 25.9158C197.447 25.9455 195.274 25.9526 193.103 25.9373C193.197 17.4094 193.123 8.66743 193.107 0.130615C196.032 0.159297 199.002 0.12846 201.931 0.122803ZM204.933 6.06128C203.622 4.81391 201.407 5.09126 199.708 5.04956C199.674 7.21381 199.619 10.0449 199.686 12.1902C201.503 12.202 203.471 12.4366 204.943 11.2791C206.244 9.83192 206.419 7.47526 204.933 6.06128Z" fill="#00BEE4"/>
<path d="M223.072 0.0847168C226.647 0.0715707 230.336 -0.26797 233.228 2.25562C236.638 5.21644 236.868 11.0217 233.869 14.3503C232.014 16.4091 229.729 16.9522 227.076 17.1003L222.385 17.1111C222.444 20.0128 222.372 23.0253 222.37 25.9363L215.845 25.9441L215.852 8.9646C215.852 6.19108 215.765 2.82286 215.875 0.0915527C218.274 0.104141 220.674 0.101844 223.072 0.0847168ZM222.411 5.07495C222.455 7.33937 222.462 9.92338 222.399 12.1863C224.379 12.1977 226.716 12.486 228.261 11.1765C229.519 9.69758 229.705 7.32342 228.162 5.9812C226.817 4.8108 224.142 5.08448 222.411 5.07495Z" fill="#00BEE4"/>
<path d="M12.877 0.0407421C15.3222 0.0413795 18.1279 -0.0345506 20.542 0.0577126C20.4562 5.8683 20.5291 11.8327 20.5369 17.6544L20.5247 45.1938C19.7336 45.1739 14.9928 45.2842 14.6156 45.1078L14.5496 44.9053C14.5166 43.0182 14.5542 41.1166 14.5432 39.2276C14.4784 28.1723 14.6445 17.0958 14.522 6.04287L6.05859 6.01625L6.06491 0.060262C8.30693 0.0236913 10.629 0.0485502 12.877 0.0407421Z" fill="#00BEE4"/>
<path d="M173.939 0.164829C178.984 0.189369 184.028 0.186102 189.072 0.155029C188.996 1.92731 189.021 3.81918 189.016 5.60111L180.453 5.62636L180.452 10.204C183.044 10.2493 185.75 10.2274 188.346 10.2105C188.311 11.9517 188.323 13.738 188.315 15.4827C185.714 15.5207 183.114 15.5264 180.514 15.5L180.503 18.2069L180.485 20.4869C183.191 20.5409 186.37 20.5108 189.073 20.4547C188.984 22.21 189.024 24.1525 189.032 25.921C183.999 25.9688 178.965 25.981 173.933 25.9575L173.939 0.164829Z" fill="#00BEE4"/>
<path d="M162.204 48.9629C162.097 53.3165 162.143 57.9318 162.173 62.2969L164.307 62.2998L164.283 69.9678C162.878 69.9869 161.472 69.9852 160.067 69.9629L160.072 67.0674C160.081 66.8601 160.11 66.7413 160 66.5693C159.309 66.3406 151.356 66.5135 149.904 66.5156C149.89 67.6635 149.888 68.8118 149.901 69.96C148.598 69.9958 146.968 70.021 145.686 69.9756L145.677 62.2881C149.633 61.9901 149.223 57.8902 149.226 55.0205L149.212 48.9873C153.257 49.0526 158.178 49.0802 162.204 48.9629ZM153.791 53.21C153.8 56.3538 154.438 60.0932 151.922 62.3369C153.152 62.2989 154.383 62.2854 155.614 62.2969H157.259L157.267 53.2129C156.108 53.2044 154.949 53.2034 153.791 53.21Z" fill="#00BEE4"/>
<path d="M161.954 62.4892C162.458 62.4696 163.773 62.326 164.12 62.5848L164.085 62.8756C163.757 62.9548 162.279 62.6939 161.954 62.4892Z" fill="#00BEE4"/>
<path d="M132.344 48.333C137.55 47.7266 142.266 51.4382 142.882 56.627C143.497 61.8159 139.781 66.5219 134.575 67.1426C129.36 67.7644 124.629 64.0504 124.012 58.8516C123.395 53.6527 127.127 48.9409 132.344 48.333ZM132.938 52.6855C131.77 52.891 130.612 53.4068 129.991 54.4424C127.961 57.8326 129.298 63.2225 134.033 62.7598C135.143 62.5549 136.343 62.0189 136.924 61.0264C138.976 57.5167 137.663 52.5295 132.938 52.6855Z" fill="#00BEE4"/>
<path d="M52.3887 48.3367C57.5894 47.7146 62.3138 51.4062 62.9502 56.5886C63.5866 61.7711 59.8943 66.4893 54.6963 67.1355C49.4814 67.7837 44.7292 64.0888 44.0908 58.8894C43.4524 53.6898 47.1706 48.9609 52.3887 48.3367ZM56.9971 61.0251C59.0378 57.7552 57.6733 52.3351 53.0566 52.697C47.4184 53.4458 47.8612 63.2825 54.0518 62.7712C55.2317 62.5585 56.3411 62.0762 56.9971 61.0251Z" fill="#00BEE4"/>
<path d="M227.043 48.3403C232.248 47.7077 236.984 51.3999 237.621 56.5884C238.257 61.7768 234.556 66.498 229.351 67.1353C224.142 67.7726 219.402 64.0798 218.765 58.8882C218.128 53.6966 221.834 48.9734 227.043 48.3403ZM227.68 52.6919C222.083 53.5198 222.586 63.3527 228.769 62.7603C231.283 62.3231 232.447 60.5331 232.571 58.0962C232.73 55.0042 231.029 52.4936 227.68 52.6919Z" fill="#00BEE4"/>
<path d="M0.0560398 9.32953L11.9287 9.31909C11.781 13.4788 11.8853 18.2047 11.8861 22.3982L11.8711 45.1783C9.92545 45.1945 7.97976 45.1975 6.03406 45.1875C5.96803 41.7756 6.02031 38.2028 6.02015 34.7812L6.01695 15.3451C4.03456 15.3111 2.02124 15.3434 0.0235058 15.3134C0.0252644 13.6175 -0.0481954 10.9731 0.0560398 9.32953Z" fill="#00BEE4"/>
<path d="M105.752 48.9641C108.421 49.107 114.513 48.576 116.648 49.304C117.697 49.6611 118.618 50.3504 119.106 51.3586C119.583 52.3441 119.687 53.6168 119.319 54.6526C118.863 55.9359 117.86 56.5838 116.688 57.1418C116.975 57.2265 117.306 57.3052 117.579 57.4104C120.319 58.4648 121.035 61.07 120.127 63.6311C118.196 66.9892 115.113 66.5332 111.781 66.5237L105.751 66.5071C105.876 60.8127 105.772 54.6806 105.752 48.9641ZM115.592 60.969C115.321 58.891 112.237 59.4449 110.696 59.3977C110.698 60.55 110.665 61.8858 110.704 63.0217C111.919 63.0216 114.063 63.1706 115.048 62.4719C115.42 62.0015 115.673 61.595 115.592 60.969ZM110.717 52.4407C110.693 53.5786 110.684 54.7167 110.688 55.8547C111.791 55.863 113.605 56.0352 114.474 55.4124C115.095 54.6272 115.375 53.682 114.438 53.0139C113.41 52.2825 111.922 52.4218 110.717 52.4407Z" fill="#00BEE4"/>
<path d="M200.497 49.0164C200.802 49.1103 200.842 49.0616 200.973 49.2842C200.906 53.0059 201.001 56.7587 201.005 60.4876C201.002 61.8235 201.009 63.1595 201.025 64.4953C201.029 64.8432 201.025 65.9437 201.077 66.209C201.44 66.3044 201.596 66.0814 201.734 66.2371C201.495 66.4111 201.025 66.2797 200.505 66.5C200.565 60.8491 200.599 54.6605 200.497 49.0164Z" fill="#00BEE4"/>
<path d="M204.097 48.9851C206.27 49.0234 208.487 48.8452 210.638 49.1121C213.908 49.5361 215.333 53.2503 213.419 55.7869C212.899 56.4745 212.101 56.7794 211.368 57.157C212.79 57.4838 213.818 57.9687 214.627 59.2644C215.399 60.5011 215.449 62.5793 214.751 63.864C212.996 67.097 208.782 66.5199 205.708 66.5222C203.979 66.5235 202.167 66.5793 200.506 66.4998C200.566 60.849 200.599 54.6604 200.497 49.0164C201.499 48.9013 203.066 48.9669 204.097 48.9851ZM210.315 60.9802C210.092 58.8935 207.024 59.4492 205.515 59.3923C205.317 59.6551 205.411 62.5078 205.417 63.0076C206.669 63.0282 208.593 63.152 209.684 62.5544C210.111 62.1109 210.384 61.6192 210.315 60.9802ZM209.714 54.1667C209.698 52.1309 206.861 52.4237 205.461 52.4529C205.355 53.0447 205.399 55.1583 205.405 55.8562C206.589 55.8686 208.184 56.0367 209.169 55.446C209.556 55.0399 209.718 54.7385 209.714 54.1667Z" fill="#00BEE4"/>
<path d="M81.0172 48.9607L83.7462 48.9648C83.6854 54.8132 83.6766 60.6619 83.719 66.5105L78.9765 66.5148C78.9733 63.2184 79.0628 59.4946 78.9765 56.239L78.8574 56.2089C78.6423 56.3712 72.8111 65.5454 72.1924 66.5141L70.6432 66.5215L67.3425 66.5141C67.4077 60.716 67.3539 54.7843 67.3398 48.9792C68.9401 48.9957 70.5409 48.9919 72.1404 48.9679C72.1036 52.3158 72.2435 56.2673 72.0309 59.5223C72.7351 58.629 73.672 57.0344 74.317 56.0497C75.8534 53.7045 77.329 51.2941 78.9061 48.9733L81.0172 48.9607Z" fill="#00BEE4"/>
<path d="M5.91673 48.9839L21.601 48.9986C21.5189 54.8145 21.6139 60.671 21.555 66.5014C19.923 66.516 18.291 66.521 16.659 66.5164C16.6967 63.8255 16.667 61.074 16.666 58.3786C16.6779 56.6523 16.6737 54.9259 16.6535 53.1995C14.7516 53.178 12.7677 53.2152 10.8537 53.2115L10.8424 66.5047L5.91113 66.5093C6.0312 60.8155 5.94822 54.696 5.91673 48.9839Z" fill="#00BEE4"/>
<path d="M124.003 8.97293C124.645 8.848 128.023 8.92847 128.783 8.93691C128.734 10.626 128.773 12.5317 128.771 14.2427L128.754 25.9286C127.193 25.9756 125.56 25.9447 123.999 25.9182C123.985 23.6584 123.988 21.3985 124.008 19.1387L118.201 19.1448C118.17 21.4071 118.16 23.6695 118.172 25.932C116.584 25.9508 114.996 25.9478 113.408 25.9232C113.456 21.99 113.37 18.0112 113.423 14.08C113.438 12.9 113.329 9.85325 113.482 8.87524L113.762 8.93062C114.942 8.92401 116.71 8.86664 117.838 8.94241L118.082 8.91229C118.226 9.13371 118.151 14.3031 118.172 15.0182C119.97 15.0328 122.203 15.0738 123.993 14.9939L124.003 8.97293Z" fill="#00BEE4"/>
<path d="M117.838 8.94247L118.083 8.91235C117.899 9.43374 117.912 10.2283 117.893 10.803C117.839 10.2213 117.82 10.0013 117.873 9.41311C117.148 9.31248 116.56 9.23328 115.831 9.19687C116.502 9.04055 117.181 9.15345 117.838 8.94247Z" fill="#00BEE4"/>
<path d="M113.482 8.87524L113.762 8.93062C114.108 9.17681 114.773 9.04957 115.269 9.13753C115.084 9.29258 114.032 9.42006 113.762 9.38612C113.518 9.18964 113.586 9.2243 113.482 8.87524Z" fill="#00BEE4"/>
<path d="M124.003 8.9729C124.314 9.01266 125.487 9.08484 125.633 9.1889L125.443 9.27335C125.099 9.30586 124.474 9.47828 124.29 9.42378C124.155 9.25383 124.108 9.16412 124.003 8.9729Z" fill="#00BEE4"/>
<path d="M26.7373 48.9873C29.6662 49.0274 33.3675 48.7495 36.1816 49.1904C40.3883 49.8497 41.9498 55.6565 39.2119 58.6982C37.9163 60.1376 36.6123 60.5608 34.752 60.6992C33.7279 60.7282 32.7031 60.7366 31.6787 60.7246C31.6427 62.652 31.6367 64.5802 31.6602 66.5078L26.7373 66.5166V48.9873ZM31.6904 52.8379C31.6269 54.0441 31.6316 55.6088 31.668 56.8223C32.8244 56.9022 33.8804 56.9869 34.9141 56.3779C35.1812 56.0528 35.3946 55.7368 35.4678 55.3135C35.9103 52.7521 33.4793 52.7574 31.6904 52.8379Z" fill="#00BEE4"/>
<path d="M145.4 8.96973C146.1 9.06494 146.664 9.05075 147.346 9.20453C147.041 9.46634 145.802 8.80018 145.845 10.0151L145.85 10.2676L145.775 10.2943C145.772 10.0404 145.766 9.81308 145.751 9.55884L145.634 9.45606C145.595 9.79707 145.592 10.043 145.591 10.3872C145.574 10.3632 145.483 9.24476 145.4 8.96973Z" fill="#00BEE4"/>
<path d="M145.531 8.94019C150.346 9.15315 157.877 7.31348 158.733 13.7986C158.948 15.3417 158.54 16.9069 157.6 18.1511C156.378 19.7344 154.857 20.1054 153.016 20.3513C152.057 20.3907 151.097 20.4026 150.137 20.3865C150.165 22.179 150.124 24.115 150.115 25.9177L145.334 25.948L145.324 14.0515C145.324 13.1986 145.292 9.54011 145.4 8.96948C145.415 8.96593 145.517 8.94018 145.531 8.94019ZM150.133 12.6638L150.135 16.5525C151.14 16.5652 152.541 16.6854 153.331 16.03C153.993 15.1531 154.275 13.8913 153.258 13.1804C152.352 12.548 151.18 12.6563 150.133 12.6638Z" fill="#00BEE4"/>
<path d="M93.5165 48.471C97.0552 48.1038 102.164 50.1247 100.896 54.6987C100.5 56.1306 99.3006 56.8631 98.0216 57.462C99.7098 58.012 101.071 58.907 101.424 60.7862C101.651 62.0235 101.373 63.3003 100.65 64.3313C98.5388 67.3014 93.4965 67.6486 90.3974 66.241C89.3646 65.7716 88.3926 65.0721 87.4678 64.4182C87.925 63.8197 88.3806 63.0239 88.7779 62.3698L89.5517 61.1278C90.7019 62.3044 92.1847 63.0807 93.8186 63.1446C94.7666 63.2114 96.0888 62.6778 96.3549 61.6636C97.0848 58.8848 92.2343 59.3791 90.7275 59.4249C90.7691 58.3017 90.7387 56.9945 90.7387 55.8575C91.9617 55.8601 93.291 55.9265 94.4957 55.7829C96.8074 55.5072 96.741 52.9274 94.5788 52.4356C92.9177 52.0578 91.5037 52.683 90.1176 53.5121C89.5301 52.409 88.9458 51.1909 88.3798 50.0678C90.2239 49.0715 91.4789 48.7274 93.5165 48.471Z" fill="#00BEE4"/>
<path d="M175.274 48.4649C177.553 48.3472 179.039 48.7042 181.016 49.8637C180.995 51.3989 180.927 53.466 181.064 54.9632C179.914 53.8816 178.971 53.0669 177.312 52.8832C171.269 52.2114 170.399 62.235 176.472 62.6096C178.417 62.7296 179.682 61.9218 181.051 60.7053L181.008 62.4099L181.014 65.6939C178.262 67.6567 173.641 67.3786 170.944 65.4514C168.302 63.5634 167.263 60.7796 167.279 57.6279C167.299 54.2571 168.676 51.3336 171.65 49.6081C172.895 48.8817 173.857 48.7056 175.274 48.4649Z" fill="#00BEE4"/>
<path d="M100.509 8.88902C100.668 8.89539 101.059 8.90176 101.198 8.92208C104.186 8.8244 107.69 8.91403 110.718 8.91372C110.704 10.2628 110.716 11.6318 110.717 12.9826L105.241 12.9988L105.238 15.3872C106.885 15.4228 108.531 15.4307 110.178 15.4109L110.181 19.1348C108.536 19.1535 106.892 19.1629 105.247 19.1629L105.234 21.8634C107.009 21.9315 108.949 21.8993 110.727 21.8839L110.708 25.9185C107.294 25.9618 103.879 25.9685 100.464 25.9383C100.543 21.1291 100.424 16.2925 100.462 11.481C100.468 10.6215 100.441 9.74552 100.509 8.88902Z" fill="#00BEE4"/>
<path d="M100.51 8.88916C100.669 8.89553 101.06 8.90191 101.199 8.92223C101.885 9.27032 103.398 8.98652 104.174 9.13169L104.162 9.20268C103.561 9.31582 103.014 9.1916 102.455 9.23774C101.807 9.29112 101.473 9.46943 100.767 9.39231C100.538 9.19694 100.602 9.22762 100.51 8.88916Z" fill="#00BEE4"/>
<path d="M110.092 9.04218C110.223 9.03979 110.339 9.04783 110.47 9.05445C110.638 9.3396 110.512 9.80658 110.459 10.1623C110.448 9.89637 110.476 9.59639 110.312 9.38518C109.929 9.34271 109.147 9.30319 108.858 9.1495L108.954 9.22312L109.111 9.10409L109.059 9.11086L110.092 9.04218Z" fill="#00BEE4"/>
<path d="M105.075 19.2507C105.207 19.5461 105.162 21.3591 105.104 21.7045L104.994 21.714C104.952 21.0597 104.814 19.7996 105.075 19.2507Z" fill="#00BEE4"/>
<path d="M184.066 48.9813C188.294 49.0053 192.524 49.0018 196.752 48.9709C196.708 50.372 196.694 51.7738 196.71 53.1755C195.435 53.1994 194.16 53.2063 192.885 53.1959C192.929 56.2927 192.882 59.4842 192.874 62.588L192.866 66.512C191.229 66.5174 189.592 66.5143 187.955 66.503C187.975 62.0722 187.971 57.6413 187.943 53.2105C186.648 53.1808 185.363 53.2418 184.058 53.1685C184.083 51.793 184.065 50.3612 184.066 48.9813Z" fill="#00BEE4"/>
<path d="M131.001 8.92108C135.033 8.91669 139.222 8.99191 143.234 8.91797C143.293 9.77479 143.27 11.0304 143.248 11.9054L143.243 12.9631C142.006 12.9857 140.769 12.9962 139.532 12.9947C139.545 17.3071 139.529 21.6197 139.481 25.932C137.893 25.9507 136.305 25.9482 134.717 25.9245L134.729 13.003L130.976 12.9666L131.001 8.92108Z" fill="#00BEE4"/>
<path d="M162.871 15.4165L170.088 15.3916C170.078 16.3425 170.097 17.7077 170.018 18.6181C167.658 18.6803 165.167 18.6388 162.802 18.6259C162.802 18.0164 162.774 15.8912 162.871 15.4165Z" fill="#00BEE4"/>
</svg>
