<svg width="128" height="74" viewBox="0 0 128 74" fill="none" xmlns="http://www.w3.org/2000/svg">
<path d="M60.1022 0.102485C60.2956 0.0855604 60.4996 0.0857105 60.6947 0.0831643C67.8801 -0.0332113 74.8201 2.69615 80.0013 7.67589C85.844 13.381 88.7071 20.9241 88.8153 29.0328C86.2725 29.0141 83.7296 29.0177 81.1869 29.0433C81.212 17.5978 73.0142 7.62047 61.2206 7.68682C55.6919 7.71797 50.9592 9.33765 46.9876 13.2988C42.7829 17.492 40.7153 23.1841 40.6712 29.076C40.6687 37.6952 47.4111 45.3055 55.5597 47.4921C58.7298 48.3428 61.5365 48.2195 64.7587 48.2176L71.6316 48.2147L92.0314 48.2153L115.464 48.2156L122.786 48.2186C124.052 48.2189 125.951 48.2708 127.162 48.15L127.163 55.7866L79.5125 55.7806L66.9283 55.7818C62.6811 55.7838 59.184 56.0007 54.9944 55.1693C50.2397 54.2044 45.8175 52.0198 42.1623 48.8296C30.2993 38.2987 30.4702 20.7925 40.7172 9.12736C45.8042 3.33644 52.4692 0.534587 60.1022 0.102485Z" fill="#00BEE4"/>
<path d="M60.1931 11.8629C60.2739 11.8586 60.3546 11.856 60.4355 11.8554C64.6746 11.8177 68.6318 13.3252 71.6555 16.3336C75.0594 19.6863 76.9813 24.261 76.9934 29.0387C74.4741 29.0152 71.9546 29.0172 69.4353 29.0449C69.2171 26.2445 68.8301 23.9855 66.7837 21.7956C65.2346 20.1915 63.1416 19.4437 60.9711 19.4174C55.5694 19.3514 52.3377 23.939 52.3868 29.0052C52.295 32.7448 55.9624 35.8426 59.4538 36.3364C61.1345 36.5739 63.6326 36.4525 65.4142 36.4501L76.4033 36.445L115.74 36.4466L127.16 36.4402L127.162 43.9929L79.0431 43.9741L66.0381 43.9745C63.9234 43.9746 60.0694 44.0879 58.1473 43.7483C55.0262 43.2171 52.1342 41.7674 49.8409 39.5844C46.7845 36.6993 45.0011 32.7169 44.8843 28.5153C44.7282 24.1039 46.3603 19.8163 49.4102 16.6252C52.2296 13.6691 56.109 11.9556 60.1931 11.8629Z" fill="#00BEE4"/>
<path d="M7.63492 0.0230503C9.5775 -0.0263756 11.7464 0.0191564 13.7049 0.0185573L25.7614 0.0137648C25.8891 0.721904 25.8314 3.34582 25.8308 4.24073L25.8247 13.1503L25.8261 47.1147C25.8259 47.9837 25.8985 56.4228 25.7441 56.6911C23.2469 56.6722 20.7497 56.6773 18.2527 56.7062L18.198 22.1561L18.1475 12.2452C18.1436 11.3492 18.0743 8.38996 18.186 7.6303C14.7313 7.55781 11.058 7.62042 7.58594 7.61967C7.69542 5.14313 7.53292 2.50813 7.63492 0.0230503Z" fill="#00BEE4"/>
<path d="M14.8483 11.645L14.9735 11.6772C15.1109 11.9503 15.0403 52.7337 15.0597 56.6833L7.49225 56.6935L7.53853 49.5044L7.53808 29.0807L7.53689 22.7217C7.53614 21.7152 7.48117 20.2697 7.55486 19.3011C5.48092 19.1714 2.1336 19.2644 0 19.265C0.0562707 16.9062 0.0709785 14.0267 0.000718756 11.6772L9.32446 11.676C11.1185 11.6763 13.066 11.7118 14.8483 11.645Z" fill="#00BEE4"/>
<path d="M58.2343 62.019C60.3645 61.929 61.2503 61.9739 62.7088 63.6529L62.6811 62.3596L66.4974 62.3698L66.5028 73.1023C65.8699 73.102 63.1272 73.1354 62.7376 73.052L62.6766 72.8805C62.687 72.5536 62.7109 72.2111 62.7295 71.8833C62.1178 72.5083 61.4002 73.1201 60.5555 73.322C55.2007 74.6059 52.7732 68.4675 55.0331 64.3386C55.7906 62.9547 56.7818 62.4406 58.2343 62.019ZM61.1647 70.2083C61.5446 70.0482 61.8875 69.9064 62.1619 69.5863C62.3507 69.3658 62.521 69.1388 62.6311 68.869C63.151 67.5955 62.7403 65.7838 61.3033 65.324C60.7896 65.1577 60.3819 65.2088 59.8692 65.2479C59.1881 65.5439 58.7335 65.9685 58.4626 66.6658C57.9596 67.96 58.4217 69.703 59.8454 70.167C60.3046 70.3166 60.7015 70.2576 61.1647 70.2083Z" fill="#00BEE4"/>
<path d="M23.5131 62.0182C25.4536 61.9471 27.1857 61.8795 28.8903 63.0455C30.1026 63.8882 30.9256 65.1825 31.1743 66.6378C31.8134 70.3248 29.5817 72.893 26.0066 73.4359C24.5488 73.7061 22.2691 73.3426 20.9629 72.5539C19.7388 71.8106 18.8684 70.6026 18.5506 69.2061C17.8498 66.2587 19.2776 63.1833 22.2818 62.3202C22.6869 62.2036 23.1021 62.1121 23.5131 62.0182ZM24.881 70.6856C28.3222 70.1964 27.673 64.6736 24.7947 64.7997C24.0688 64.8882 23.5019 65.0377 23.062 65.6708C21.8585 67.4024 22.3326 70.6263 24.881 70.6856Z" fill="#00BEE4"/>
<path d="M92.8166 62.3465C93.5526 62.3939 96.3065 62.232 96.6859 62.4999C97.0046 63.2063 96.7794 67.0935 96.749 68.1092C97.2107 67.3913 100.248 62.5377 100.753 62.418C100.774 62.4129 100.796 62.4101 100.818 62.4057C101.86 62.1998 103.303 62.3575 104.396 62.3623C104.395 63.3924 104.429 72.9164 104.345 73.0855L104.189 73.1022C103.09 73.0901 101.499 73.0485 100.427 73.1296C100.427 71.7796 100.344 68.4235 100.491 67.1717C99.4333 68.7806 97.6511 71.4598 96.7241 73.0751C95.5717 73.1334 94.0031 73.0979 92.8154 73.1051C92.8536 69.519 92.8541 65.9326 92.8166 62.3465Z" fill="#00BEE4"/>
<path d="M69.6397 62.3677L79.828 62.3693L79.8343 73.1058C78.4935 73.0855 77.1268 73.0938 75.7837 73.0897C75.9227 71.1101 75.8586 68.6473 75.8573 66.627C75.8465 66.0863 75.8428 65.6138 75.8621 65.0705L73.4628 65.0551C73.4938 69.9469 74.4271 74.5769 67.4619 73.072C67.4892 72.1509 67.4935 71.2291 67.4751 70.3077C67.9685 70.3291 68.8861 70.4223 69.2185 70.0184C69.8308 69.2743 69.6657 67.5954 69.6629 66.6977L69.6397 62.3677Z" fill="#00BEE4"/>
<path d="M113.754 62.3486C114.939 62.4072 116.509 62.3694 117.719 62.3714L117.721 73.1049L116.807 73.0958C115.888 73.088 114.652 73.0615 113.759 73.1304L113.776 68.8255L110.311 68.8359C110.299 70.2565 110.316 71.6774 110.362 73.0974C109.009 73.0892 107.655 73.0919 106.302 73.1051C106.339 69.5202 106.34 65.9352 106.303 62.3503C107.607 62.4111 108.964 62.3208 110.301 62.3898C110.374 63.3109 110.324 65.1583 110.313 66.1272C111.465 66.109 112.651 66.1236 113.806 66.1237C113.72 65.1508 113.761 63.4063 113.754 62.3486Z" fill="#00BEE4"/>
<path d="M32.1582 62.3549C33.489 62.3714 34.8199 62.3695 36.1505 62.3486C36.1536 63.3051 36.1951 65.2079 36.0978 66.1194L39.6181 66.1228L39.6356 62.3722L43.5796 62.3641C43.6199 65.1424 43.547 67.9356 43.588 70.7152C43.5994 71.4797 43.6102 72.263 43.5805 73.026C43.4093 73.1498 43.1144 73.1025 42.8868 73.0953L39.5528 73.0914C39.6654 71.7535 39.6169 70.19 39.6214 68.8278C38.5002 68.8356 37.2092 68.8741 36.1018 68.8204C36.2162 69.7952 36.1463 72.0015 36.1699 73.1117C34.8338 73.0869 33.4973 73.0841 32.1612 73.1034C32.235 69.7305 32.2544 65.7113 32.1582 62.3549Z" fill="#00BEE4"/>
<path d="M7.49334 62.3643C8.81765 62.3899 10.1519 62.3503 11.4914 62.3815C11.4953 63.5391 11.5159 65.6771 11.3957 66.7725C12.4523 65.3249 13.5028 63.7522 14.643 62.3756C16.2408 62.3622 17.8386 62.3617 19.4363 62.3741C17.9285 63.9652 16.5663 65.7941 14.9883 67.4097C15.9789 68.492 17.1164 69.8755 18.0564 71.0157C18.6348 71.6915 19.2438 72.3841 19.7841 73.087C18.1415 73.0966 16.499 73.0963 14.8565 73.0862C13.6913 71.5179 12.5442 69.9362 11.4155 68.3413C11.5365 69.5641 11.4691 71.711 11.5352 73.1023L7.47656 73.0958C7.54816 69.5755 7.49513 65.8991 7.49334 62.3643Z" fill="#00BEE4"/>
<path d="M104.19 2.30651C106.883 2.05773 109.269 4.03672 109.522 6.72953C109.776 9.42235 107.8 11.8114 105.108 12.0687C102.409 12.3268 100.014 10.346 99.7601 7.6472C99.5065 4.94855 101.491 2.55603 104.19 2.30651ZM105.021 11.2547C107.238 11.0561 108.876 9.10392 108.688 6.8868C108.5 4.66982 106.556 3.02139 104.338 3.19887C102.105 3.3774 100.443 5.33781 100.632 7.56992C100.822 9.80217 102.79 11.4546 105.021 11.2547Z" fill="#00BEE4"/>
<path d="M102.859 4.70605C103.442 4.73212 104.081 4.7098 104.7 4.7113C105.707 4.71369 106.7 5.00665 106.717 6.21968C106.724 6.66047 106.281 7.00121 105.965 7.275C106.782 7.93027 106.444 8.50466 106.66 9.52703L106.681 9.62588C106.282 9.60716 105.837 9.6774 105.593 9.35149C105.624 7.60391 105.477 7.60885 103.808 7.59837C103.879 8.22862 103.862 8.94275 103.864 9.58319C103.541 9.59503 103.204 9.61854 102.879 9.63637C102.891 7.99288 102.884 6.34939 102.859 4.70605ZM103.819 6.8775C104.274 6.86836 105.142 6.879 105.541 6.73027C106.207 5.25244 104.877 5.36357 103.813 5.38499C103.859 5.98888 103.861 6.2736 103.819 6.8775Z" fill="#00BEE4"/>
<path d="M48.9954 62.0144C50.1809 61.9589 52.2599 61.9903 53.2248 62.7895C53.5645 63.0707 53.403 65.7089 53.3952 66.2126C49.491 63.1088 47.524 67.3038 49.0962 69.4215C49.4465 69.9014 49.9766 70.2185 50.5651 70.3003C51.6559 70.4529 52.5827 69.8575 53.4005 69.2247C53.3812 69.7979 53.4072 70.4649 53.4157 71.0449C53.4318 71.6169 53.455 72.1212 53.4042 72.6944C51.3148 73.5979 49.0201 73.9217 46.9769 72.6838C43.7456 70.7264 43.6776 65.2136 46.6332 62.9942C47.3769 62.4357 48.1026 62.2154 48.9954 62.0144Z" fill="#00BEE4"/>
<path d="M81.5767 62.3724C82.5959 62.368 90.6762 62.2892 90.9902 62.4697C91.2613 63.0089 91.1592 64.5789 91.1124 65.2192C90.1876 65.2301 89.231 65.2133 88.3034 65.2093C88.3471 66.8652 88.3105 68.6839 88.3112 70.3527C88.3 71.2684 88.3358 72.1845 88.3645 73.0997L84.3031 73.099C84.3269 70.4736 84.3309 67.8479 84.3152 65.2223C83.3849 65.2178 82.4547 65.2199 81.5244 65.2286C81.5572 64.2769 81.5747 63.3247 81.5767 62.3724Z" fill="#00BEE4"/>
<path d="M119.627 62.356C121.957 62.4407 124.791 62.364 127.16 62.3572L127.162 65.2216L123.608 65.2068C123.679 66.4406 123.626 68.2526 123.627 69.5289L123.639 73.0959L119.643 73.1016C119.664 71.0748 119.671 69.0478 119.664 67.021C119.664 65.5086 119.695 63.8521 119.627 62.356Z" fill="#00BEE4"/>
</svg>
