<svg width="204" height="76" viewBox="0 0 204 76" fill="none" xmlns="http://www.w3.org/2000/svg">
<path d="M152.48 7.84069C156.124 7.74635 160.083 7.82332 163.748 7.82277L185.115 7.82109L196.337 7.82126C197.913 7.82134 201.003 7.73686 202.45 7.91194C202.799 8.54147 202.587 52.585 202.627 57.9112L152.481 57.9319C152.52 55.293 152.517 52.6253 152.5 49.986C152.408 35.9474 152.641 21.8745 152.48 7.84069Z" fill="#00BEE4"/>
<path d="M161.085 12.1738L184.821 12.1873L184.807 19.5276L186.099 19.9975C187.091 19.5259 188.534 18.6651 189.53 18.1119L189.525 21.2196C191 21.5979 192.887 22.2418 194.374 22.7009L197.542 20.9067C197.539 29.4536 197.45 38.1951 197.56 46.7264C195.858 47.7232 194.104 48.6969 192.386 49.6716C189.257 51.4089 186.067 53.2336 182.97 55.0274C180.966 54.2395 178.689 53.4844 176.638 52.7548L165.439 48.7705C165.41 47.7643 165.432 46.7047 165.438 45.6941L157.619 45.7017C157.789 35.7301 157.639 25.2731 157.622 15.2591C158.581 15.2243 159.768 15.2583 160.743 15.2631C160.744 14.6589 160.623 12.6308 160.845 12.2373L161.085 12.1738Z" fill="#063E5B"/>
<path d="M195.295 24.6711L195.377 24.6939C195.583 24.9878 195.41 43.2264 195.488 45.4493C191.812 47.6584 187.874 49.7527 184.141 51.9176L184.013 51.9461C183.85 51.7071 183.92 32.8396 183.92 30.8894C187.667 28.8789 191.514 26.5757 195.295 24.6711Z" fill="#00BEE4"/>
<path d="M159.723 17.3758L170.992 17.3794C173.112 17.3796 175.501 17.4296 177.597 17.3281C176.832 17.7031 174.815 18.9116 174.2 19.0671C172.246 19.561 167.939 18.8808 166.098 19.2838C165.944 19.5142 165.995 19.7545 166.008 20.0469C166.454 20.3881 167.892 20.255 168.53 20.2402L168.393 20.4282L168.475 20.6658C168.428 21.0192 168.418 21.1029 168.453 21.4593C168.682 21.7059 168.668 21.6308 169.093 21.6825L169.082 21.8302C168.155 22.4408 166.456 23.2888 165.414 23.8673L165.423 24.9166C164.359 24.9085 162.483 24.848 161.495 24.9655C161.335 25.1533 161.405 25.5177 161.412 25.8194C161.861 26.2779 164.304 25.7284 165.25 26.0154C165.451 26.2196 165.478 26.247 165.539 26.5249C164.954 27.5451 161.796 26.1658 161.321 27.4976C161.587 28.8403 164.258 27.2955 165.319 28.1618C165.499 28.4504 165.479 28.5215 165.451 28.8568C164.837 29.1636 162.365 28.9241 161.49 29.0437C160.121 30.824 164.766 29.6678 165.39 30.2383C165.88 32.0948 162.467 30.4002 161.305 31.2859C160.724 32.7972 164.729 31.8256 165.394 32.2045C165.43 32.5662 165.437 32.6411 165.38 33.0014C164.44 33.5454 161.896 32.5506 161.344 33.4734C161.332 33.623 161.308 33.7937 161.369 33.9349C161.597 34.4668 164.672 33.9598 165.411 34.3016C165.477 34.7491 165.521 34.6227 165.351 34.9966C164.452 35.6434 162.288 34.5244 161.407 35.4993C161.342 35.7677 161.291 35.8825 161.398 36.1441C161.838 36.35 164.567 36.2152 165.321 36.2562L165.436 36.3878C165.477 38.2414 162.814 36.5574 161.519 37.3778C161.312 37.7424 161.372 37.6333 161.37 38.0894C161.735 38.4445 164.668 38.2814 165.426 38.2781L165.431 43.5982L159.724 43.5998C159.637 40.2985 159.709 36.7307 159.708 33.3985L159.723 17.3758Z" fill="#00BEE4"/>
<path d="M167.571 25.9727C169.084 26.3748 172.14 27.5776 173.704 28.1433L173.691 49.4526C171.68 48.7879 169.569 47.9989 167.564 47.283C167.652 40.2416 167.57 33.0281 167.571 25.9727Z" fill="#00BEE4"/>
<path d="M168.546 28.9531C169.926 29.3977 171.299 29.8619 172.665 30.3459C172.631 33.3326 172.664 36.3844 172.665 39.3764C171.341 38.8749 169.889 38.4004 168.543 37.9339L168.546 28.9531Z" fill="#063E5B"/>
<path d="M169.596 30.4277L171.616 31.0898L171.608 37.8856L169.59 37.1583L169.596 30.4277Z" fill="#00BEE4"/>
<path d="M170.133 41.7769C172.519 41.5415 173.21 44.7498 171.083 46.1014C170.774 46.1379 170.527 46.167 170.221 46.0925C169.756 45.9746 169.358 45.6745 169.116 45.2597C168.367 43.9896 168.903 42.5125 170.133 41.7769Z" fill="#063E5B"/>
<path d="M170.395 42.7449C171.624 42.9666 171.354 44.3661 170.757 45.1451C169.492 45.0428 169.835 43.497 170.395 42.7449Z" fill="#00BEE4"/>
<path d="M175.804 28.9094C177.333 29.3221 180.232 30.4496 181.819 31.0115L181.81 52.3345C179.811 51.6648 177.791 50.8377 175.777 50.2277L175.804 28.9094Z" fill="#00BEE4"/>
<path d="M176.712 31.7734C178.084 32.2507 179.49 32.7079 180.869 33.1714L180.865 42.2507C179.634 41.749 177.998 41.2203 176.719 40.7649C176.733 37.7676 176.73 34.7705 176.712 31.7734Z" fill="#063E5B"/>
<path d="M177.792 33.2576L179.813 33.9397V40.6804C179.38 40.601 178.256 40.182 177.788 40.0198L177.792 33.2576Z" fill="#00BEE4"/>
<path d="M178.264 44.3102C180.882 44.0748 181.34 47.3232 179.278 48.6324C176.758 48.8775 176.248 45.7068 178.264 44.3102Z" fill="#063E5B"/>
<path d="M178.575 45.2969C179.869 45.572 179.591 46.7759 179.014 47.6249C178.917 47.6104 178.698 47.5467 178.592 47.519C177.821 46.8835 178.056 46.0218 178.575 45.2969Z" fill="#00BEE4"/>
<path d="M162.837 14.3239C169.208 14.1657 176.264 14.3197 182.692 14.3191L182.688 18.8127C182.357 18.7159 182.178 18.6846 181.906 18.4688C181.517 17.7767 181.708 16.1952 181.715 15.2609C177.37 15.1347 172.75 15.332 168.383 15.2504C166.64 15.2177 164.722 15.3335 163.002 15.2272C162.782 14.9221 162.85 14.749 162.837 14.3239Z" fill="#00BEE4"/>
<path d="M179.009 18.9744C179.167 19.0248 179.141 19.0583 179.257 19.2423C179.158 19.7223 178.754 20.0574 178.328 20.2219C176.97 20.7475 170.632 24.6858 169.732 24.5784C169.517 24.4525 169.454 24.4221 169.284 24.2421C169.47 23.9978 178.057 19.4818 179.009 18.9744Z" fill="#00BEE4"/>
<path d="M188.588 23.0959C188.861 23.2295 189.346 23.339 189.657 23.4202C186.825 24.8299 183.517 26.741 180.685 28.2814C180.377 28.2878 180.047 28.155 179.784 28.0019L179.775 27.8729L188.588 23.0959Z" fill="#00BEE4"/>
<path d="M187.237 21.8293L187.39 21.8869L187.416 22.2602C187.271 22.7041 178.562 27.4889 177.888 27.4889C177.736 27.3634 177.67 27.2838 177.539 27.1351C177.919 26.7237 186.132 22.4163 187.237 21.8293Z" fill="#00BEE4"/>
<path d="M182.687 21.0112C182.938 21.1209 183.381 21.244 183.657 21.3296C180.685 22.8835 177.616 24.6242 174.659 26.236L173.643 25.9024C176.055 24.8268 180.239 22.3565 182.687 21.0112Z" fill="#00BEE4"/>
<path d="M180.446 20.2747C180.769 20.3567 180.851 20.3679 181.135 20.5519C181.067 20.7426 173.255 24.9495 172.386 25.4253L171.477 25.0808C174.149 23.7946 177.811 21.7372 180.446 20.2747Z" fill="#00BEE4"/>
<path d="M190.917 23.9236C191.198 23.9362 191.422 23.9799 191.613 24.1626C191.385 24.434 183.716 28.5856 182.769 29.1086C182.495 29.0211 182.26 28.9757 182.077 28.7523C182.608 28.39 184.317 27.5266 184.964 27.1753L190.917 23.9236Z" fill="#00BEE4"/>
<path d="M168.531 20.2397C169.143 20.231 171.478 20.1352 171.883 20.4374C170.999 20.7821 169.459 20.6823 168.476 20.6652L168.394 20.4277L168.531 20.2397Z" fill="#00BEE4"/>
<path d="M43.8741 0.775915C44.2306 0.721374 45.0912 0.718589 45.4572 0.729434C50.8776 0.889975 55.8469 2.96668 59.6313 6.84164C63.4628 10.7649 65.7082 16.73 65.5981 22.1953C63.7701 22.1214 61.7972 22.1531 59.9581 22.1507C59.7876 18.0348 58.4476 13.4487 55.4752 10.6282C45.4203 1.08731 29.8674 8.54069 30.1446 22.2548C30.2876 29.3375 35.6944 34.7993 42.3811 36.0874C44.6889 36.5322 48.69 36.3079 51.1187 36.3043L65.9453 36.2995L120.806 36.3018L147.012 36.2954C146.997 38.1886 146.998 40.0821 147.016 41.9753L73.5621 41.9554L53.2203 41.9578C49.661 41.9592 45.3658 42.1723 41.8949 41.7267C32.8973 40.5716 25.2736 33.0148 24.5512 23.8467C24.1318 17.916 26.0781 12.0604 29.9645 7.56168C33.5101 3.41627 38.4813 1.18515 43.8741 0.775915Z" fill="#00BEE4"/>
<path d="M44.7819 9.42998C47.1039 9.25308 50.504 10.4885 52.22 12.0614C55.5859 15.1467 56.6142 17.8248 56.9754 22.1673C55.067 22.1365 53.158 22.142 51.2497 22.184C51.205 20.4336 50.7048 17.9275 49.2884 16.7713C40.8509 9.88362 33.2972 25.3123 44.0413 27.5381C45.3268 27.8043 47.7403 27.6442 49.1304 27.6387L57.3489 27.6349C66.5034 27.637 76.0969 27.7875 85.2186 27.6102L85.191 30.0305C85.8734 29.9579 87.6815 30.0258 88.4635 30.0305C90.4666 30.0377 92.4696 30.0343 94.4727 30.0203L94.4889 27.6524C99.1867 27.5627 104.12 27.6381 108.832 27.6379L136.204 27.6376C139.771 27.6404 143.464 27.6906 147.021 27.6081L147.029 33.2076C144.533 33.2681 141.805 33.2149 139.295 33.2149H124.282L79.0477 33.2147L55.2623 33.2168L48.0318 33.2204C43.7104 33.2206 40.5803 33.3259 37.1051 30.2334C34.7746 28.1664 33.3687 25.252 33.2014 22.141C32.8751 16.1434 36.8175 10.5612 42.8978 9.59339C43.5228 9.49391 44.1506 9.4642 44.7819 9.42998Z" fill="#00BEE4"/>
<path d="M70.7106 0.0251071C72.7187 -0.0168797 74.8589 0.015697 76.8772 0.0128064C76.6723 6.07406 77.0259 12.4351 76.7664 18.4559C78.8226 18.3439 81.5809 18.4671 83.7569 18.4247C83.816 12.6022 83.8959 5.81074 83.7261 0.0323017C85.7439 -0.0282732 87.9276 0.0145577 89.9574 0.016541C89.8279 3.94746 89.9102 8.22211 89.9118 12.1777C89.9146 14.2672 89.9359 16.3688 89.8462 18.4555C90.5949 18.4059 91.7339 18.4528 92.5102 18.4612C92.5013 21.5929 92.4452 24.8375 92.5378 27.957C90.8142 28.0047 88.9202 27.9673 87.1834 27.969C87.2372 26.6191 87.2121 25.0841 87.2207 23.7197C81.8209 23.6401 76.0514 23.6777 70.6522 23.7288C70.7355 18.0542 70.6216 12.3161 70.6667 6.64067C70.6746 5.67449 70.5908 0.63419 70.7106 0.0251071Z" fill="#00BEE4"/>
<path d="M5.68739 0.722503C9.86632 0.584053 14.9562 0.70208 19.1906 0.713727C19.0263 10.3821 19.1575 20.4537 19.1621 30.151L19.1733 38.1947C19.1756 39.522 19.2313 41.3629 19.1434 42.6601C17.363 42.6147 15.2146 42.5415 13.4512 42.6972C13.3405 38.7285 13.458 34.049 13.4581 30.0227L13.4737 6.36099C10.9573 6.28369 8.15625 6.33981 5.61816 6.33705C5.75027 4.73906 5.68499 2.37664 5.68739 0.722503Z" fill="#00BEE4"/>
<path d="M0.0857247 9.3242C3.69615 9.23888 7.53391 9.31536 11.1714 9.28844L11.175 30.4332C11.1757 31.6885 11.266 42.3351 11.0497 42.6558C9.24018 42.5876 7.3702 42.6165 5.55658 42.6374C5.64587 39.3989 5.58676 35.9503 5.58666 32.6981L5.5851 14.993C3.93972 14.893 1.66919 14.9594 0 14.9864C0.0287086 14.0273 -0.0282237 9.88662 0.0857247 9.3242Z" fill="#00BEE4"/>
<path d="M106.324 8.04312C107.823 8.04316 109.322 8.03301 110.821 8.0127C110.813 9.87507 110.835 11.8305 110.736 13.6826C112.469 13.6591 114.202 13.6556 115.936 13.6718C116.004 11.9442 115.995 9.78591 115.959 8.06194L120.331 8.03185C120.464 9.16626 120.414 11.0665 120.414 12.2544L120.411 19.4099C120.412 20.0375 120.497 23.3594 120.33 23.6714L119.936 23.721L115.885 23.7121C116.062 21.7174 115.917 19.5248 115.984 17.4958C114.61 17.3525 112.148 17.4394 110.733 17.4846C110.887 19.1183 110.815 21.9717 110.819 23.6877C109.312 23.7187 107.804 23.7315 106.296 23.7263C106.389 18.5262 106.215 13.2209 106.324 8.04312Z" fill="#00BEE4"/>
<path d="M135.262 8.04793C137.568 8.03436 144.046 7.54375 145.737 9.26987C149.225 12.8302 147.655 17.9673 142.294 18.5533C141.427 18.5623 140.56 18.5642 139.693 18.5587C139.772 20.0734 139.721 22.1188 139.725 23.6754C138.587 23.778 136.377 23.7231 135.194 23.7276C135.276 19.9295 135.183 16.0817 135.218 12.2837C135.225 11.555 135.152 8.51379 135.262 8.04793ZM139.689 15.0907C140.725 15.076 141.559 15.1646 142.478 14.6624C143.079 13.9041 143.423 12.7298 142.497 12.0704C141.637 11.4577 140.627 11.5284 139.629 11.5659C139.735 12.5481 139.729 14.0761 139.689 15.0907Z" fill="#00BEE4"/>
<path d="M24.2798 45.6075C27.704 45.2843 30.7497 47.7801 31.1062 51.2019C31.4629 54.6237 28.9974 57.6942 25.5802 58.0843C22.1154 58.4797 18.9935 55.9719 18.632 52.5026C18.2704 49.0333 20.808 45.9354 24.2798 45.6075ZM25.2248 55.1501C29.1474 54.1574 28.1533 48.1911 24.4638 48.5436C20.6838 49.6925 21.5665 55.4904 25.2248 55.1501Z" fill="#00BEE4"/>
<path d="M94.6094 8.0559C97.6758 7.99292 100.895 8.04056 103.973 8.03896L104.016 11.8959C102.449 11.863 100.525 11.9406 99.0051 11.8197C99.0307 12.5084 99.0064 13.2574 98.9969 13.9509L103.554 13.9651L103.561 17.4365C102.049 17.4637 100.51 17.4544 98.9959 17.4595C99.0096 18.042 99.0104 18.6361 99.0172 19.2199C99.0222 19.5892 98.9541 19.6419 99.1517 19.862C100.735 19.9227 102.372 19.889 103.96 19.8763C104.012 21.1108 104 22.47 104.013 23.7144L94.498 23.7248C94.7417 20.0244 94.4881 15.8654 94.5759 12.1216C94.6056 10.8596 94.5077 9.2742 94.6094 8.0559Z" fill="#00BEE4"/>
<path d="M42.1001 46.0796C43.2187 46.0463 44.338 46.0332 45.457 46.0402C45.676 46.9765 45.8122 48.4615 45.9675 49.4599C46.3912 52.1835 46.6939 54.9646 47.1854 57.676C46.1906 57.7191 44.9233 57.6878 43.9077 57.6914C43.6457 55.6134 43.4052 53.5326 43.1858 51.4497L43.2004 51.3052L43.111 51.2282C42.6005 52.2622 41.7736 56.1917 41.2427 57.6608C40.5535 57.7049 39.7904 57.6815 39.0932 57.6741C38.3693 55.5484 37.7314 53.0499 37.1606 50.8585C36.9978 53.048 36.6887 55.4572 36.4453 57.6587C35.575 57.7266 34.0337 57.6895 33.1123 57.6939C33.8746 53.9924 34.2138 49.8295 34.8395 46.0668L37.1425 46.0402C37.434 46.0286 37.894 46.056 38.1991 46.064C38.8367 48.4307 39.5389 50.6923 40.1568 53.09C40.7265 50.8326 41.4426 48.3172 42.1001 46.0796Z" fill="#00BEE4"/>
<path d="M107.308 46.0475C108.109 46.0703 109.94 45.8907 110.588 46.1952C110.826 46.9343 110.644 53.6218 110.635 54.8293C111.867 54.8423 113.099 54.8415 114.331 54.8267C114.281 52.0942 114.442 48.7152 114.253 46.0656C115.364 46.0264 116.614 46.0464 117.736 46.0401C117.645 48.0884 117.693 50.3837 117.694 52.4504L117.672 54.8284L119.12 54.8637C119.202 56.1743 119.128 58.5585 119.147 60.0057L116.209 60.0116C116.204 59.2434 116.217 58.4619 116.222 57.6924C113.377 57.6274 110.154 57.6612 107.315 57.7074C107.206 55.562 107.389 52.8251 107.315 50.5964C107.287 49.7544 107.239 46.6872 107.308 46.0475Z" fill="#00BEE4"/>
<path d="M138.887 53.0542C140.115 50.9823 141.742 48.2181 143.228 46.2973C143.546 45.8863 145.923 46.0432 146.605 46.0622C146.529 49.8507 146.572 53.887 146.6 57.6786L144.321 57.6873C143.987 57.7048 143.628 57.755 143.379 57.5613C143.243 56.6456 143.331 51.5859 143.456 50.612C142.26 52.6558 140.539 55.4078 139.135 57.3586C138.787 57.8432 136.416 57.6997 135.638 57.6962C135.766 55.9403 135.724 53.8903 135.724 52.1092C135.725 50.1434 135.765 48.021 135.679 46.0679L137.87 46.0411C138.218 46.0327 138.648 46.0523 139.003 46.0584C138.991 48.3907 138.953 50.7228 138.887 53.0542Z" fill="#00BEE4"/>
<path d="M129.048 46.1035C130.039 46.008 131.344 46.0367 132.362 46.0316C132.294 49.8364 132.347 53.8601 132.361 57.6678L130.777 57.6814L129.085 57.6974C129.174 55.3396 129.066 53.024 129.228 50.6628C127.977 52.7064 126.267 55.5132 124.802 57.4573C124.531 57.8166 122.15 57.6965 121.491 57.687C121.579 53.9523 121.503 49.8511 121.517 46.0932C122.12 46.0675 122.741 46.058 123.346 46.0411C123.804 46.021 124.337 46.055 124.801 46.0729C124.912 47.3534 124.727 51.6739 124.633 53.0706C126.059 50.6953 127.609 48.4554 129.048 46.1035Z" fill="#00BEE4"/>
<path d="M122.419 8.06148C126.078 7.96699 129.921 8.05945 133.612 8.01732L133.596 11.8733C132.536 11.9157 131.238 11.8574 130.156 11.8347C130.183 14.6573 130.192 17.4799 130.183 20.3027L130.218 23.7116C128.707 23.7083 127.196 23.715 125.685 23.7321L125.697 11.9091C124.648 11.8344 123.308 11.8817 122.236 11.8914C122.266 11.2781 122.271 8.40102 122.419 8.06148Z" fill="#00BEE4"/>
<path d="M95.8232 46.0405L96.8756 46.0412C96.7667 46.8089 96.795 49.3279 96.7872 50.2008L100.618 50.1936C100.622 48.8163 100.607 47.439 100.573 46.062C101.654 46.0232 102.898 46.0492 103.992 46.0483C103.965 49.9274 103.961 53.8066 103.981 57.6856L101.6 57.6863L100.586 57.692C100.604 56.1482 100.61 54.6041 100.606 53.0601L96.8032 53.0515C96.8353 54.5685 96.818 56.153 96.8241 57.6755L93.4206 57.7019C93.4491 53.8203 93.4459 49.9385 93.4111 46.057L95.8232 46.0405Z" fill="#00BEE4"/>
<path d="M59.0934 46.0402L60.1192 46.048L60.1104 57.6846L56.7225 57.7015C56.7451 54.7679 56.7512 51.8343 56.7411 48.9005C55.5119 48.8225 54.2788 48.8311 53.0509 48.9267L53.0634 51.1009C53.0558 53.2937 53.0689 55.4866 53.103 57.6789L49.6582 57.6962C49.7696 54.1335 49.7637 49.6329 49.6812 46.0638C52.7744 46.0098 55.984 46.0629 59.0934 46.0402Z" fill="#00BEE4"/>
<path d="M35.1474 64.1446C37.2988 64.053 40.2028 64.1127 42.391 64.1315C42.4743 66.4391 42.4191 69.075 42.4208 71.4068L43.5784 71.4387C43.5754 72.8725 43.5946 74.3062 43.6362 75.7395L41.1094 75.7407L41.1366 74.1296C41.1532 73.9625 41.1636 74.048 41.0592 73.8766C40.2743 73.7068 36.7695 73.8087 35.7448 73.8247C35.7467 74.4189 35.7956 75.1329 35.821 75.7363L33.3249 75.731C33.2699 74.4478 33.3251 72.8006 33.3325 71.4906C35.2852 70.8696 35.2529 69.6486 35.2462 67.8221C35.2415 66.5954 35.2305 65.371 35.1474 64.1446ZM38.5669 71.4171C38.9068 71.4216 39.2742 71.4572 39.5778 71.318C39.752 70.259 39.5797 67.7554 39.6377 66.5019C39.1057 66.4914 38.3431 66.4555 37.8327 66.484C37.8527 68.0265 38.1311 70.2415 36.9379 71.4076C37.1189 71.5266 38.26 71.4176 38.5669 71.4171Z" fill="#00BEE4"/>
<path d="M178.567 63.7503C181.417 63.5144 183.928 65.6139 184.2 68.4612C184.472 71.3085 182.405 73.8459 179.562 74.1548C177.691 74.3579 175.855 73.5385 174.756 72.0092C173.657 70.4802 173.465 68.4781 174.255 66.7682C175.044 65.0586 176.691 63.9058 178.567 63.7503ZM179.482 71.6535C181.841 70.8452 182.027 67.6107 179.914 66.4102C179.455 66.1496 178.845 66.215 178.327 66.2541C175.406 67.7443 176.567 72.2843 179.482 71.6535Z" fill="#00BEE4"/>
<path d="M122.894 63.7556C125.759 63.4969 128.295 65.6043 128.565 68.4693C128.835 71.3343 126.738 73.8784 123.875 74.1599C120.995 74.4428 118.435 72.3313 118.163 69.4502C117.891 66.5691 120.013 64.016 122.894 63.7556ZM123.989 71.623C126.649 70.506 126.364 65.9526 122.682 66.2552C119.95 67.56 120.646 72.2808 123.989 71.623Z" fill="#00BEE4"/>
<path d="M157.32 63.7596C160.173 63.5002 162.702 65.5882 162.989 68.4393C163.275 71.2906 161.212 73.8406 158.365 74.1546C155.478 74.4727 152.886 72.3747 152.596 69.4847C152.305 66.5946 154.428 64.0224 157.32 63.7596ZM158.41 71.6189C161.122 70.5498 160.804 65.8648 157.042 66.2678C154.254 67.9812 155.384 72.3603 158.41 71.6189Z" fill="#00BEE4"/>
<path d="M135.257 63.7597C138.119 63.512 140.644 65.6232 140.907 68.4844C141.17 71.3456 139.073 73.8821 136.214 74.1613C133.333 74.4425 130.773 72.3253 130.508 69.4417C130.242 66.5581 132.373 64.0091 135.257 63.7597ZM136.398 71.5988C137.029 71.3378 137.683 70.8644 137.868 70.1955C138.542 67.7586 137.466 66.0205 134.954 66.264C132.195 68.0015 133.242 72.3706 136.398 71.5988Z" fill="#00BEE4"/>
<path d="M21.8284 63.7604C24.674 63.5192 27.1843 65.6116 27.46 68.4547C27.7359 71.2975 25.6746 73.8338 22.8358 74.1442C20.9686 74.3484 19.1358 73.5325 18.0376 72.0081C16.9397 70.4837 16.7459 68.4865 17.5306 66.7794C18.315 65.0723 19.9568 63.9192 21.8284 63.7604ZM22.8624 71.6151C25.5274 70.7418 25.3399 65.8392 21.523 66.2659C18.6688 67.962 19.8762 72.3824 22.8624 71.6151Z" fill="#00BEE4"/>
<path d="M49.6306 63.762C52.4922 63.5137 55.0161 65.6263 55.2755 68.4878C55.535 71.349 53.4326 73.8815 50.5731 74.1522C47.6978 74.4246 45.1488 72.3075 44.8879 69.4305C44.6268 66.5534 46.7532 64.012 49.6306 63.762ZM50.7463 71.6011C53.3971 70.6031 53.0185 65.828 49.3767 66.2637C46.5307 67.844 47.5533 72.3579 50.7463 71.6011Z" fill="#00BEE4"/>
<path d="M12.8921 46.1113C14.2217 45.9565 15.5677 46.1381 16.9455 45.9932C15.7668 47.25 13.6475 50.1613 12.4239 51.6662C13.4529 53.1385 14.977 55.117 16.1032 56.5369L16.9674 57.6653C15.9866 57.6885 13.948 57.8077 13.0642 57.5575L13.0015 57.5393C12.3457 57.3547 9.93655 53.3592 9.4719 52.5948C9.61729 53.7236 9.61493 56.4679 9.65252 57.6832L6.13379 57.699C6.27048 55.9573 6.21384 53.6314 6.21386 51.8359C6.2139 50.0798 6.27507 47.7762 6.15163 46.0674L8.60188 46.0415L9.64103 46.0672C9.62761 47.5074 9.61377 49.6553 9.46774 51.0447C10.2711 49.6458 11.9086 47.4823 12.8921 46.1113Z" fill="#00BEE4"/>
<path d="M79.1966 64.1491C80.1059 64.1209 81.0157 64.1158 81.9253 64.1337C82.557 66.1712 83.1443 68.1459 83.5995 70.2305C83.7606 69.2502 84.8307 65.0804 85.2646 64.3348C85.6371 63.9879 87.4442 64.1213 88.0349 64.1331C88.2272 66.1985 88.7246 68.5552 88.9769 70.6261C89.1092 71.7106 89.3659 72.7174 89.3479 73.8209L86.6488 73.8124C86.5579 72.7161 86.4062 71.577 86.2856 70.4782C86.1849 69.7511 86.166 68.8483 86.1318 68.1012C85.5981 69.4876 85.2098 72.4144 84.4321 73.6506C84.2785 73.8945 83.0318 73.7979 82.6602 73.7801C82.0873 71.8525 81.5511 69.9142 81.0522 67.9663C80.9845 69.4298 80.7303 72.3498 80.4985 73.7595C79.695 73.8451 78.576 73.7766 77.7451 73.75C78.1645 71.5781 78.3784 69.157 78.7464 66.962C78.8869 66.1229 78.9823 64.9427 79.1966 64.1491Z" fill="#00BEE4"/>
<path d="M89.4703 46.0391L90.4889 46.0635L90.4788 48.8515C89.2729 48.8469 87.971 48.8119 86.7771 48.9243C86.7863 49.4155 86.7745 49.9289 86.7705 50.4219C87.8782 50.4346 88.986 50.4205 90.093 50.3797C90.1249 51.2832 90.0972 52.1248 90.1457 53.0595L86.7912 53.058C86.8193 53.6461 86.7927 54.2546 86.7779 54.8445L90.483 54.8253L90.4788 56.6695L90.4847 57.6861C88.103 57.6743 85.7213 57.6778 83.3398 57.6968C83.4656 55.9602 83.4196 53.8653 83.4196 52.1025C83.4196 50.1523 83.4641 48.0027 83.3749 46.0673L89.4703 46.0391Z" fill="#00BEE4"/>
<path d="M63.4347 46.0476L70.4296 46.0413C70.5446 46.9424 70.498 47.9433 70.4807 48.8584C69.2169 48.8489 68.0414 48.8369 66.7795 48.9035C66.7935 49.4137 66.7743 49.9157 66.7597 50.4254C67.8747 50.4062 69.0385 50.4271 70.1579 50.433L70.2014 53.0566C69.0969 53.0813 67.8887 53.0539 66.7764 53.0499L66.827 54.0251C66.7884 54.3485 66.7561 54.4722 66.8392 54.7897C67.2987 54.8802 69.7531 54.8501 70.4045 54.8648C70.6171 55.8613 70.5671 56.6751 70.5022 57.6838C68.1454 57.6649 65.7888 57.6735 63.4322 57.71C63.3356 55.4588 63.5096 52.7691 63.4364 50.4539C63.4117 49.6739 63.3636 46.635 63.4347 46.0476Z" fill="#00BEE4"/>
<path d="M149.981 64.0891C150.043 64.0906 150.102 64.1486 150.172 64.1944C150.28 64.7491 150.213 65.8848 150.197 66.495C148.858 66.5332 147.13 66.4712 145.753 66.4634C145.77 66.9176 145.764 67.3913 145.764 67.8472C147.631 67.8063 150.12 67.7377 150.909 69.8898C151.158 70.5764 151.122 71.3343 150.809 71.9942C150.327 73.0021 149.598 73.3271 148.633 73.6619C147.629 73.8539 144.138 73.8199 142.989 73.8338C142.999 70.876 143.094 67.0364 142.938 64.1334C145.23 64.1364 147.709 64.1832 149.981 64.0891ZM145.743 71.8132C146.391 71.7982 147.4 71.8166 147.977 71.6077C148.782 69.6624 147.114 69.8381 145.749 69.8424C145.764 70.5006 145.789 71.1564 145.743 71.8132Z" fill="#00BEE4"/>
<path d="M99.3372 64.1429C100.257 64.1225 101.177 64.1199 102.097 64.1358C102.136 65.3344 102.11 66.3965 102.076 67.5951C103.093 67.559 104.25 67.5863 105.28 67.5892L105.242 64.1347C106.202 64.1254 107.163 64.1265 108.123 64.1381C108.205 67.2088 108.073 70.3627 108.125 73.4402C108.129 73.6672 108.003 73.7039 107.844 73.8026L105.246 73.8164L105.254 69.9563C104.196 69.9681 103.138 69.9907 102.08 70.0236C102.159 71.2083 102.14 72.638 102.108 73.8212C101.17 73.8085 100.233 73.7877 99.2959 73.7588C99.4317 70.7598 99.34 67.1839 99.3372 64.1429Z" fill="#00BEE4"/>
<path d="M6.34012 64.1459C9.05421 64.0609 12.2083 64.131 14.9503 64.1208C15.0263 67.2783 14.9697 70.6398 14.9701 73.8126C14.018 73.8002 13.0661 73.7818 12.1142 73.7571C12.224 72.2173 12.1843 70.4284 12.1827 68.8656C12.1638 68.094 12.1259 67.2861 12.2011 66.5208C11.1579 66.4447 10.1586 66.4719 9.11492 66.4869C9.2279 68.7143 9.20334 71.5658 9.15308 73.8073C8.22398 73.8164 7.25888 73.7867 6.32715 73.7711L6.34012 64.1459Z" fill="#00BEE4"/>
<path d="M59.918 64.0833L60.0591 64.0972C60.3746 64.5896 60.1321 67.4852 60.0816 68.2437C60.8058 67.2143 61.5027 66.2026 62.153 65.1281C62.9367 63.8326 64.8758 64.1402 66.2773 64.0913C65.0271 65.5975 63.7916 67.2778 62.5399 68.8231C63.683 70.1734 64.7514 71.8801 65.9415 73.2503C66.0647 73.4324 66.0634 73.4442 66.105 73.6638C65.6335 74.009 63.441 73.8004 62.8065 73.7117L60.0749 69.605C60.2135 70.8887 60.189 72.4855 60.201 73.7951C59.31 73.8312 58.2543 73.8183 57.3519 73.8276C57.3821 70.9921 57.4715 66.9299 57.3184 64.1447C58.1851 64.1368 59.0518 64.1162 59.918 64.0833Z" fill="#00BEE4"/>
<path d="M164.766 64.1355C166.118 64.1227 167.527 64.1281 168.872 64.1248C171.742 64.1176 173.369 66.5866 171.968 69.1381C171.366 70.235 170.121 70.6021 168.967 70.6593L167.652 70.6218C167.59 71.6128 167.65 72.7694 167.677 73.7733C166.846 73.8402 165.601 73.8016 164.74 73.8005C164.817 70.6317 164.775 67.3139 164.766 64.1355ZM169.334 68.1855C170.247 66.5885 168.921 66.2587 167.597 66.2545L167.619 68.4648C168.255 68.4484 168.761 68.4838 169.334 68.1855Z" fill="#00BEE4"/>
<path d="M79.9901 46.0391L81.0078 46.0422L80.985 48.8528C80.0972 48.8503 79.3292 48.8629 78.4418 48.911C78.5251 51.7225 78.4664 54.8343 78.4753 57.6686C77.3438 57.6916 76.2122 57.7032 75.0803 57.7036L75.0934 56.3003L75.0957 48.9024C74.3207 48.8355 73.3519 48.8594 72.5596 48.8583L72.5767 46.0545L79.9901 46.0391Z" fill="#00BEE4"/>
<path d="M91.2244 64.143C93.2032 64.1177 95.1822 64.1188 97.1608 64.1458C97.2015 65.0091 97.2004 65.6527 97.1688 66.5171C96.1905 66.446 95.0409 66.4667 94.0484 66.4607C94.0587 66.9093 94.0423 67.3439 94.0284 67.7915L96.8857 67.7704C96.8092 68.3354 96.8271 69.3838 96.8214 69.99C95.9728 70.0155 94.8219 69.8317 94.2169 70.0691C93.964 70.3883 94.0589 70.5316 94.0754 71.0166L94.0514 71.2479C94.3604 71.5492 96.5891 71.4226 97.1658 71.4285C97.2291 72.091 97.1878 73.0719 97.1779 73.7614C95.5167 73.8869 92.9602 73.777 91.2012 73.797C91.2803 70.6522 91.2242 67.303 91.2244 64.143Z" fill="#00BEE4"/>
<path d="M73.834 64.1637C74.505 64.0958 76.1164 64.1236 76.8593 64.1179C76.2818 65.598 75.4369 67.4153 74.7963 68.9201C74.1931 70.1959 73.189 72.7094 72.5471 73.7992C71.7156 73.8359 70.4209 73.7764 69.5484 73.7669C69.9912 72.8677 70.4436 71.9731 70.9058 71.0833C69.6149 68.8184 68.4815 66.2692 67.2178 64.1365C68.3052 64.1241 69.3925 64.1249 70.4797 64.1393C71.0876 65.1942 71.9318 67.057 72.4003 68.1902C72.8055 66.8703 73.3516 65.4685 73.834 64.1637Z" fill="#00BEE4"/>
<path d="M193.685 64.1375C194.759 64.1273 195.825 64.1081 196.899 64.1531C197.431 65.0455 198.347 67.1757 198.821 68.2068C199.182 67.0328 199.832 65.2882 200.31 64.1562C201.054 64.0917 202.522 64.1322 203.322 64.1322C202.59 65.6161 201.809 67.5882 201.119 69.1406C200.403 70.6946 199.72 72.2354 198.971 73.7765C198.162 73.8334 196.858 73.7714 195.999 73.7651C196.419 72.8656 196.862 71.9774 197.328 71.1009C196.046 69.0016 194.899 66.3539 193.685 64.1375Z" fill="#00BEE4"/>
<path d="M185.187 64.1451C187.474 64.0755 190.041 64.1288 192.34 64.1343C192.302 64.8901 192.325 65.7469 192.329 66.5113L190.157 66.4637L190.177 71.9428L190.224 73.7687C189.258 73.82 188.273 73.8132 187.305 73.8179L187.312 66.5056C186.517 66.4816 185.988 66.4915 185.195 66.5468C185.217 65.7463 185.214 64.9454 185.187 64.1451Z" fill="#00BEE4"/>
<path d="M116.645 64.0891C116.71 64.0931 116.75 64.1429 116.821 64.1942C116.906 64.6866 116.858 65.9361 116.85 66.494L114.676 66.5041C114.662 68.934 114.686 71.3642 114.746 73.7935C113.723 73.8265 112.891 73.8001 111.873 73.7583L111.908 72.5388L111.895 66.5419C111.084 66.4617 110.636 66.5045 109.815 66.5693L109.787 64.1216C112.021 64.13 114.425 64.1822 116.645 64.0891Z" fill="#00BEE4"/>
</svg>
