<svg width="101" height="91" viewBox="0 0 101 91" fill="none" xmlns="http://www.w3.org/2000/svg">
<rect width="100.979" height="90.8813" rx="16.1567" fill="#00BEE4"/>
<path d="M76.8076 29.2766C78.2689 29.2403 79.7409 29.3697 81.1934 29.6389C89.6174 31.2005 93.7374 36.1401 93.9043 44.6506C94.1136 55.3394 88.5622 61.0543 77.8574 61.3987C73.2242 61.4991 68.352 60.1494 64.8516 56.9875C62.1152 54.5158 60.8937 50.4003 60.748 46.8088C60.6852 45.1834 60.7774 43.5556 61.0225 41.9475C61.2023 40.7405 61.4236 39.6064 61.8105 38.4485C64.0133 31.8575 70.3682 29.5412 76.8076 29.2766ZM80.8721 38.0334C79.7954 37.2038 77.9934 36.9016 76.6475 37.0735C75.4234 37.218 74.121 37.5381 73.3125 38.5461C71.9102 40.295 72.1465 46.8063 72.4199 49.1028C72.5693 50.3563 72.8535 51.7842 73.8926 52.6125C74.9538 53.4585 76.6294 53.6767 77.9521 53.6282C79.9767 53.4035 81.6278 52.727 82.0498 50.4963C82.403 48.6284 82.3256 46.6869 82.335 44.7942C82.3214 43.4744 82.3415 42.1718 82.1885 40.8567C82.0538 39.7015 81.8337 38.7744 80.8721 38.0334Z" fill="#074765"/>
<path d="M41.5025 29.3236C44.4669 29.1588 47.748 29.7676 50.4423 31.0244C50.7996 31.1912 51.9247 31.9318 52.2065 31.9011C52.3454 31.5741 52.3049 30.5553 52.304 30.1405C54.477 30.0592 56.6519 30.0449 58.8258 30.0972C58.8282 33.6627 58.9934 37.1125 58.9142 40.7121C56.7989 40.7933 54.6353 40.7659 52.5142 40.7605C52.1525 40.2293 51.8362 39.8034 51.3771 39.344C49.0549 37.062 45.5727 36.2673 42.4077 36.2195C41.6206 36.2076 40.0118 36.4907 39.9679 37.5745C39.9272 38.5776 41.4256 38.9757 42.1681 39.1916C42.6767 39.3395 43.2625 39.5086 43.807 39.6686L49.8124 41.4285C50.9912 41.7734 52.4222 42.1106 53.5255 42.5977C57.0918 44.1725 59.9042 47.5444 59.9285 51.5114C59.9657 53.9906 59.0057 56.3807 57.2644 58.1452C54.8014 60.6258 51.1053 61.3682 47.7306 61.3794C44.7989 61.312 41.5835 60.666 38.9956 59.2287C38.5433 58.9774 38.0838 58.7411 37.6204 58.5115C37.5611 59.1677 37.55 59.9965 37.524 60.6668L30.8025 60.7043C30.696 56.9171 30.696 53.1277 30.8025 49.3404C32.821 49.2952 34.8377 49.3165 36.8553 49.2817C37.2082 49.7681 37.5322 50.4557 37.9374 50.8761C39.9877 52.9912 42.8959 54.1218 45.8245 54.1677C47.0793 54.1595 48.4988 54.087 49.6783 53.6312C50.7155 53.2304 50.4841 52.2003 49.5697 51.8347C48.4547 51.3889 47.2723 51.0438 46.1239 50.6957C44.1848 50.1202 42.2489 49.5346 40.316 48.939C39.2826 48.6134 37.996 48.2126 36.9984 47.803C35.7042 47.2752 34.5054 46.5382 33.45 45.6214C31.5397 43.9383 30.6796 42.1023 30.5297 39.5644C30.1265 32.7405 35.3491 29.6857 41.5025 29.3236Z" fill="#074765"/>
<path d="M29.917 63.9912C30.0569 64.0065 30.2737 64.0152 30.3613 64.1211C30.678 64.5043 30.9497 65.0591 31.249 65.4521C32.0861 66.5507 33.1619 68.0394 34.1504 68.9912C35.3517 68.4956 36.5673 68.0341 37.7949 67.6074C38.6258 67.3211 39.4725 67.0838 40.2959 66.7881C39.9002 65.8925 39.518 64.9497 39.1367 64.0449C39.5505 64.005 39.9751 64.0234 40.3916 64.0312C40.7571 64.8036 41.209 65.6476 41.5986 66.417C43.7015 65.9938 45.8282 65.6992 47.9668 65.5342C48.2659 65.5138 49.5463 65.487 49.7061 65.3584C49.8723 65.0411 49.8122 64.4124 49.8027 64.0381C50.1931 64.0229 50.6222 64.0359 51.0156 64.0391C51.0567 64.4051 51.0561 64.9843 51.0791 65.3799C53.6877 65.5684 56.8082 65.8657 59.3643 66.4717L60.5811 64.0273L61.7891 64.0352C61.4949 65.0893 61.0106 65.7714 60.6855 66.7334C60.8708 66.8312 61.0775 66.9066 61.2793 66.9629C63.1512 67.4859 64.9144 68.1975 66.7129 68.9326C68.1308 67.5462 69.3845 65.6702 70.4902 64.0283L71.8574 64.0322C70.7364 66.0312 69.405 67.6998 67.9551 69.457C68.8538 70.1044 70.5918 70.9983 71.6387 71.6494C72.009 71.4289 72.7263 70.7888 73.0576 70.499C75.2909 68.5462 76.9872 66.4516 78.7109 64.0732C79.2323 64.0515 79.5947 64.0547 80.1162 64.0811C78.9903 65.8063 77.7251 67.4366 76.334 68.9561C74.4237 71.0382 72.2692 72.8832 69.918 74.4502C62.1348 79.5879 52.6356 81.4373 43.4941 79.5947C33.954 77.6699 26.09 72.1569 20.7168 64.083C21.2531 64.0359 21.5982 64.0103 22.1318 64.0752C24.2442 67.1599 26.3265 69.3626 29.2285 71.668C30.4162 71.1165 31.7848 70.2441 32.9248 69.5518C31.4789 67.7675 30.1163 66.0787 28.9912 64.0654L29.917 63.9912ZM49.9229 75.7393L49.8721 75.7432C47.6143 75.876 44.5138 76.5889 42.7754 78.1143C45.1422 78.8284 48.7713 79.0826 51.2393 79.0264C52.9338 78.9574 56.6416 78.6898 58.1348 78.0977C56.1936 76.3891 52.4533 75.5868 49.9229 75.7393ZM66.9277 70.584C64.5844 72.8713 62.1521 74.9118 59.3398 76.6074C59.1844 76.7011 59.0212 76.8076 58.875 76.9141C59.183 77.1985 59.5045 77.4593 59.8682 77.6709C60.5067 77.4846 61.1426 77.2873 61.7744 77.0791C65.0071 75.9176 67.6724 74.6036 70.4121 72.5127C69.8413 72.1238 67.5899 70.6823 66.9277 70.584ZM33.8223 70.6484C32.7869 71.1147 31.4424 71.9045 30.4893 72.5693C32.8753 74.4768 36.4308 76.1726 39.3096 77.1582C39.8794 77.3311 40.495 77.5298 41.0693 77.6699C41.4442 77.4493 41.6781 77.2638 41.9883 76.9551C39.292 75.202 36.743 73.4011 34.4482 71.1455C34.3154 71.0148 33.9871 70.6506 33.8223 70.6484ZM40.7305 68.0215C39.4388 68.3758 36.2767 69.3413 35.2139 70.0557C37.0075 71.9394 39.0394 73.5809 41.2578 74.9385C41.9167 75.3283 42.7549 75.8334 43.4414 76.1406C44.0555 75.8522 44.9246 75.5075 45.4775 75.2002C44.3188 73.5748 43.2141 71.9108 42.166 70.2119C41.9899 69.9209 40.9676 68.1059 40.8633 68.0293L40.7305 68.0215ZM60.0508 68.0029C59.1634 69.6089 58.3682 70.9897 57.3613 72.5254C56.9043 73.2222 55.9222 74.4998 55.5771 75.1475L55.5469 75.2021C55.5412 75.2131 55.5358 75.2245 55.5303 75.2354C56.1787 75.5313 56.8285 75.8244 57.4805 76.1123C58.2846 75.6853 59.0734 75.2285 59.8438 74.7432C61.8153 73.5391 64.0967 71.6738 65.6055 69.9561C63.8401 69.0821 61.9745 68.4266 60.0508 68.0029ZM49.2236 66.7725C48.3165 66.803 42.8591 67.1969 42.3271 67.7285C42.2987 68.1807 44.7571 71.9365 45.1719 72.5068C45.7488 73.3153 46.364 74.0383 46.9209 74.8105C47.8878 74.59 48.8487 74.559 49.8125 74.3633L49.7676 66.7539L49.2236 66.7725ZM51.1445 66.7725C51.0514 69.4167 51.0747 71.7627 51.1514 74.3965C51.8612 74.4734 53.6084 74.8008 54.1426 74.7764C54.7935 73.9501 55.4169 73.1023 56.0127 72.2354C56.9905 70.7838 57.9612 69.2687 58.7451 67.7012C56.6474 67.105 53.3833 66.7775 51.1445 66.7725Z" fill="#074765"/>
<path d="M50.2617 10.1133C53.3226 9.97623 57.7316 10.7485 60.627 11.6357C67.2532 13.6743 73.1386 17.6071 77.5586 22.9492C78.257 23.7931 79.0848 24.8707 79.6855 25.8164C79.7637 25.9394 79.7577 26.0026 79.7227 26.1172C79.4742 26.2738 78.7743 26.1572 78.458 26.126C76.4003 23.1118 74.2069 20.9099 71.3906 18.6455C70.8637 18.8177 68.1934 20.3834 67.6982 20.7529C67.9253 21.0991 68.5651 21.7467 68.8545 22.1221C69.8807 23.4534 70.8886 24.6684 71.6826 26.1602C71.2085 26.246 70.8299 26.2321 70.3506 26.2334C69.4818 24.79 67.5973 22.5223 66.5039 21.2871C64.2934 22.1979 62.7025 22.809 60.415 23.4922C60.5585 23.8533 61.5193 25.944 61.4951 26.1523C61.3113 26.2947 60.5658 26.2361 60.3027 26.2295C60.1281 25.8274 59.2655 24.1857 59.0342 23.8281C58.2333 23.9635 57.3994 24.1812 56.5557 24.3223C54.7094 24.6164 52.8474 24.8032 50.9795 24.8809C50.9285 25.2017 50.9255 25.8763 50.916 26.2256L50.459 26.2314L49.6582 26.2266C49.6266 25.8439 49.7164 25.2521 49.5342 24.9307C49.3564 24.8 49.07 24.809 48.8555 24.8027C46.3389 24.7294 43.7783 24.3766 41.3242 23.8477C40.9364 24.5585 40.528 25.4822 40.1699 26.2266C39.6739 26.2864 39.3734 26.3016 38.8809 26.2246L40.0234 23.5771C39.8173 23.4591 39.6339 23.3985 39.4082 23.3311C37.5761 22.7843 35.8019 22.0943 34.0127 21.4219C32.4808 23.1149 31.5242 24.3588 30.252 26.2393C29.6949 26.3194 29.4565 26.3121 28.9121 26.2607C29.9035 24.4183 31.4727 22.4845 32.793 20.8486C31.6115 20.1076 30.3747 19.489 29.1826 18.7305C26.474 20.5225 23.9311 23.6053 22.0283 26.2148C21.5559 26.2992 21.1186 26.2428 20.6387 26.2129C21.7914 24.496 22.8817 23.0272 24.291 21.4941C29.7623 15.5181 37.1394 11.6277 45.1602 10.4883C47.0505 10.2139 48.4045 10.1917 50.2617 10.1133ZM46.6592 15.5439C44.7392 17.9632 43.4516 19.8493 42.0039 22.5996C43.1211 22.9607 44.1712 23.0819 45.3291 23.2402C46.6313 23.3995 48.3222 23.6107 49.6006 23.4619C49.613 21.0451 49.6828 18.349 49.5537 15.9629C48.7438 15.8419 47.3909 15.7015 46.6592 15.5439ZM53.6514 15.623C52.8053 15.7262 51.8129 15.8609 50.9736 16.0059C50.9264 18.4795 50.8816 21.033 50.9746 23.5029C52.3714 23.4864 53.9538 23.4156 55.334 23.1895C56.178 23.0611 57.5979 22.8422 58.3799 22.5928C57.4889 20.692 56.2427 18.8813 54.9902 17.1992C54.6252 16.7088 54.1739 16.0771 53.7705 15.6318C53.7476 15.6295 53.6698 15.6189 53.6514 15.623ZM43.1162 14.3281C42.1733 14.8306 41.2568 15.3819 40.3711 15.9795C39.4724 16.5838 35.596 19.4768 35.1143 20.4219C35.9522 20.8458 37.1532 21.2702 38.0625 21.5781C38.78 21.801 39.8931 22.1762 40.6104 22.3154C41.4664 21.0203 42.2764 19.5027 43.1533 18.1455C43.4677 17.656 43.7975 17.1761 44.1416 16.707C44.4553 16.2784 45.0393 15.5695 45.2178 15.1113C44.9272 14.9865 43.3863 14.3051 43.1162 14.3281ZM57.2002 14.2373C56.5523 14.5365 55.7981 14.8664 55.1729 15.1895C56.8491 17.4535 58.3957 19.811 59.8037 22.251C60.7453 22.0441 61.6726 21.7768 62.5801 21.4512C63.3718 21.16 64.6857 20.6717 65.417 20.2852C63.8093 18.5389 59.7787 15.2839 57.2598 14.2393C57.2399 14.2388 57.22 14.2378 57.2002 14.2373ZM40.7158 12.7275C40.5635 12.7895 40.3722 12.8633 40.2109 12.8369C39.8283 12.7746 39.7491 13.024 39.3291 13.1631C36.0967 14.2256 33.058 15.8068 30.333 17.8447C30.9403 18.2929 31.5774 18.6997 32.2393 19.0625C32.7441 19.3356 33.265 19.5785 33.7988 19.7891C36.2364 17.3825 38.9368 15.2569 41.8486 13.4531C41.6038 13.2534 41.0074 12.7022 40.7158 12.7275ZM59.5381 12.6836C59.1654 12.9254 58.9203 13.0739 58.6455 13.4346C61.3372 15.0572 63.8465 16.864 66.0898 19.0791C66.2975 19.284 66.5201 19.5075 66.7354 19.7031C67.2794 19.4598 67.9298 19.0645 68.458 18.7627C68.9033 18.5144 69.7725 18.0568 70.1357 17.7607C67.3015 15.5733 63.0023 13.5429 59.5381 12.6836ZM57.8252 12.2637C55.3084 11.5679 51.9179 11.2625 49.2676 11.3818C48.1563 11.4271 43.673 11.7855 42.7656 12.249L42.7158 12.3193C42.9134 12.696 44.6386 13.5162 45.0996 13.7109C47.0937 14.5532 49.1479 14.7193 51.2881 14.6191C53.4134 14.3859 56.1721 13.6989 57.8252 12.2637Z" fill="#074765"/>
<path d="M10.6971 29.6213C13.0578 29.5464 15.6383 29.607 18.0085 29.619L28.8801 29.6485C28.9817 32.1851 28.9923 34.7245 28.9121 37.2618L24.4118 37.3071C24.2458 41.3454 24.457 45.4963 24.3621 49.5448C24.334 50.7358 24.3284 52.009 24.3569 53.1979C25.6937 53.3648 27.5026 53.2649 28.9086 53.3154L28.9051 60.705L27.4142 60.7064L9.15765 60.7053C9.06468 58.2476 9.06464 55.7873 9.15752 53.3296C10.3766 53.2396 12.3412 53.2605 13.59 53.2399C13.6612 52.6337 13.6382 51.7857 13.6379 51.1592L13.6367 47.9932L13.6363 37.3557C12.4095 37.1986 10.5127 37.2544 9.20413 37.2116C9.15002 36.1114 9.16304 34.9049 9.16189 33.7973C9.15174 32.4148 9.1655 31.0323 9.20319 29.6502L10.6971 29.6213Z" fill="#074765"/>
</svg>
