<svg width="70" height="70" viewBox="0 0 70 70" fill="none" xmlns="http://www.w3.org/2000/svg">
<g clip-path="url(#clip0_4010_1447)">
<path d="M26.6058 32.1304C27.7931 32.9644 28.4766 33.4824 29.1585 34.772L40.346 37.5259C40.4024 37.4899 40.4592 37.4543 40.516 37.4195C43.4353 35.6219 47.0847 35.3415 50.3753 36.1324C51.9781 36.5175 54.0004 37.3177 54.89 38.8013C55.2916 39.4712 55.3839 40.2365 55.181 40.9879C54.8436 42.237 53.8208 43.1643 52.7318 43.7838C49.6261 45.5495 45.7148 45.2818 42.3988 44.3648L37.4994 47.1705C38.2037 48.039 38.7914 48.9063 38.7113 50.0836C38.6258 51.3391 37.7163 52.1509 36.8392 52.9293C34.0288 54.5524 30.6427 54.9393 27.4915 54.2173C25.7724 53.8237 23.5926 52.9955 22.6214 51.4166C22.2163 50.7578 22.1068 49.9993 22.2992 49.2515C22.6165 48.017 23.6025 47.0789 24.6722 46.4556C27.8225 44.6201 31.7592 44.9321 35.1429 45.8218C36.7308 44.8472 38.3885 43.9585 40.0062 43.0318C39.0453 41.8687 38.7963 41.0753 38.7689 39.5738C35.5259 38.7041 32.2471 37.9367 28.9896 37.1216C28.5167 37.7995 27.9606 38.4316 27.2826 38.9097C25.3479 40.274 22.7607 40.6273 20.4622 40.2271C18.7332 39.9262 16.8853 39.1155 15.8539 37.6343C15.3408 36.8978 15.0847 36.017 15.2581 35.1236C15.5431 33.6559 16.5865 32.8216 18.3138 32.4761C19.0048 34.0233 19.6963 34.8893 20.7328 35.5855C21.3164 35.9774 22.4419 36.0769 23.1507 35.9312C24.8797 35.5755 25.7223 33.4986 26.6058 32.1304ZM21.7249 13.1646C22.3317 13.0912 23.7398 13.1342 24.3392 13.2506C25.8308 13.5323 27.0093 14.0836 28.1107 15.0142C29.9159 16.5389 30.6541 18.8355 30.3343 20.8316C30.0144 22.828 28.1562 27.2916 25.3314 30.7056C24.7058 31.4616 23.8404 32.39 23.6292 32.5757C22.7779 33.3237 21.7221 33.4043 20.9984 32.5757C20.6873 32.2196 20.0513 31.3502 19.5511 30.6548C19.0502 29.9582 15.5713 24.125 15.2347 20.8922C14.8983 17.659 17.4238 13.6974 21.7249 13.1646ZM22.805 15.8922C20.5153 15.8922 18.6585 17.7489 18.6585 20.0386C18.6587 22.3283 20.5153 24.1841 22.805 24.1841C25.0947 24.1841 26.9514 22.3283 26.9515 20.0386C26.9515 17.7488 25.0948 15.8922 22.805 15.8922Z" fill="#00BEE4"/>
</g>
<defs>
<clipPath id="clip0_4010_1447">
<rect width="70" height="70" fill="white"/>
</clipPath>
</defs>
</svg>
