<svg width="70" height="70" viewBox="0 0 70 70" fill="none" xmlns="http://www.w3.org/2000/svg">
<path d="M27.2802 15.714C27.8091 15.618 29.4203 15.5589 30.122 15.6046C35.1147 15.9733 39.4302 19.0452 41.3105 23.5802C42.5184 26.4985 42.6634 29.7219 41.7128 32.7169C41.3209 33.939 40.8959 34.8329 40.1738 35.9288C39.9485 36.2581 39.7746 36.5397 39.7753 36.5529C39.779 36.5868 39.9171 36.7167 41.0839 37.7765L42.0712 38.6769L42.4452 38.5236C42.7223 38.4156 42.9113 38.3785 43.2216 38.3937C44.0604 38.4185 43.9096 38.3016 49.2519 43.0812C54.9492 48.1838 54.556 47.7452 54.6308 49.0597C54.6697 49.743 54.6553 49.85 54.5175 50.2072C54.2634 50.8481 52.8813 52.2702 52.2324 52.5714C51.7568 52.7897 50.6661 52.8654 50.163 52.7159C49.4654 52.5051 49.2292 52.3074 46.6816 49.8282C45.3068 48.483 43.9956 47.2064 43.7577 46.9816C41.7559 45.058 40.1252 43.4028 39.9648 43.1349C39.7168 42.7139 39.6177 41.9156 39.7568 41.4659C39.8065 41.2984 39.8567 41.1171 39.8535 41.0577C39.854 40.996 39.3363 40.4723 38.705 39.8966L37.5439 38.8419L36.9365 39.2853C33.1566 42.039 28.0747 42.5453 23.789 40.5802C20.4383 39.0499 17.8786 36.1296 16.8017 32.6173C16.161 30.5108 16.0263 28.1569 16.4296 26.09C16.9161 23.6294 18.2034 21.2026 19.957 19.4611C22.01 17.4191 24.2718 16.261 27.2802 15.714ZM35.7314 24.9044C35.1727 24.343 34.2646 24.3409 33.7031 24.8995L28.2021 30.3712L25.2763 27.3546C24.7249 26.7863 23.8175 26.7723 23.249 27.3234C22.6805 27.8748 22.6663 28.7831 23.2177 29.3517L27.1552 33.4122C27.4221 33.6874 27.7884 33.8443 28.1718 33.8478C28.5553 33.8512 28.9243 33.7003 29.1962 33.4298L35.7265 26.9327C36.2877 26.3741 36.2899 25.4658 35.7314 24.9044Z" fill="#00BEE4"/>
</svg>
