<svg width="70" height="70" viewBox="0 0 70 70" fill="none" xmlns="http://www.w3.org/2000/svg">
<path d="M34.1572 13.0895C34.6116 12.9701 35.4194 12.9709 35.8809 13.0836C36.0831 13.1369 36.7821 13.4416 37.4307 13.7731C41.4186 15.7966 45.068 17.1573 49.3877 18.2321C50.2815 18.4509 51.2116 18.7225 51.4502 18.8288C52.0271 19.0875 52.5254 19.5521 52.8066 20.0895C53.0158 20.5008 53.0299 20.5607 53.0371 21.3834C53.0443 21.8545 53.0085 22.9627 52.958 23.8385C52.9075 24.7141 52.8492 25.8613 52.8203 26.3922C52.7915 26.9227 52.7556 27.4868 52.7412 27.653C52.7268 27.8188 52.6906 28.383 52.6689 28.9137C52.6473 29.4444 52.6121 29.9818 52.5976 30.108C52.5832 30.2341 52.547 30.7849 52.5254 31.3356C52.5037 31.8796 52.4675 32.4969 52.4531 32.6959C52.4314 32.8958 52.3517 34.1492 52.2725 35.4821C52.085 38.6202 51.9196 39.6025 51.3066 41.3805C49.8499 45.5803 46.6764 49.1699 41.0225 53.0114C39.2488 54.212 36.7399 55.7044 36.083 55.9371C35.5926 56.1163 34.5679 56.1292 34.0703 55.9567C33.3416 55.7109 30.6733 54.1195 28.6543 52.733C23.0725 48.8849 19.9933 45.2751 18.623 40.9625C18.1903 39.5825 17.9457 38.149 17.8447 36.278C17.823 35.8926 17.7365 34.5528 17.6572 33.2926C17.5779 32.032 17.433 29.4774 17.332 27.6198C17.2239 25.7558 17.1013 23.5537 17.0508 22.7174C17.0003 21.8886 16.9859 21.0395 17.0146 20.8463C17.1372 20.0104 17.779 19.207 18.6299 18.8288C18.8678 18.7226 19.6184 18.5044 20.2891 18.3385C23.2458 17.6153 25.121 17.0239 27.8398 15.9557C29.5272 15.2856 31.1576 14.5363 33.3281 13.4284C33.5949 13.2891 33.9698 13.1359 34.1572 13.0895ZM44.9961 28.3161C44.2997 27.5825 43.1408 27.5523 42.4072 28.2487L33.8838 36.3375L29.1582 31.2125C28.4725 30.4689 27.314 30.4224 26.5703 31.108C25.8267 31.7937 25.7792 32.9523 26.4648 33.6959L32.4512 40.1881C32.7835 40.5482 33.2465 40.7607 33.7363 40.777C34.2263 40.7932 34.703 40.6125 35.0586 40.275L44.9287 30.9049C45.6622 30.2087 45.6921 29.0497 44.9961 28.3161Z" fill="#00BEE4"/>
</svg>
