<svg width="70" height="70" viewBox="0 0 70 70" fill="none" xmlns="http://www.w3.org/2000/svg">
<path d="M34.9412 16.0041C45.6041 15.9919 47.4656 16.004 47.9783 16.0832C50.9296 16.5283 53.3381 18.8946 53.8504 21.8459C53.9236 22.2971 53.9358 24.1633 53.9236 35.5968L53.9063 48.6194C53.9061 48.7587 53.8876 48.8974 53.8512 49.0318L53.741 49.4386C53.3508 50.9021 52.6068 52.1033 51.5154 53.0363C50.3873 53.9997 49.1311 54.5423 47.6189 54.7131C47.186 54.7618 43.4903 54.7743 34.5447 54.756C23.0216 54.7377 22.0447 54.7315 21.6482 54.634C19.0505 53.9937 17.2212 52.3898 16.3797 49.9933C15.9895 48.89 16.0078 49.7059 16.0017 35.3654C15.9956 23.4867 16.0011 22.2605 16.0926 21.797C16.3609 20.4616 16.9591 19.2663 17.8738 18.2541C18.2337 17.8578 19.1171 17.163 19.6414 16.8703C20.3122 16.4983 21.4166 16.1502 22.3191 16.0343C22.4364 16.0222 28.1079 16.0041 34.9412 16.0041ZM30.033 37.2131C29.7282 37.0546 29.2281 37.054 28.9353 37.2062C28.8195 37.2733 28.5995 37.4686 28.4471 37.6515C28.3007 37.8284 27.3795 38.8957 26.4099 40.0177C25.6485 40.8989 24.9888 41.6636 24.7349 41.96C24.6605 42.0469 24.576 42.0597 24.4911 41.9831C24.3424 41.8486 24.084 41.6019 23.7947 41.3166C23.3499 40.8779 22.9049 40.4755 22.7947 40.4201C22.3069 40.1762 21.6113 40.3839 21.3064 40.8595C21.1603 41.0909 21.1297 41.2067 21.1297 41.5051C21.1358 41.7124 21.1661 41.9387 21.2088 42.0119C21.2521 42.0857 21.9048 42.7741 22.6726 43.548C23.9715 44.8591 24.075 44.9509 24.3494 45.0119C24.6665 45.0789 25.0815 45.0178 25.2889 44.8654C25.4172 44.7795 25.8079 44.3393 27.3494 42.548C27.8372 41.9809 28.4292 41.2978 28.6609 41.0295C29.1307 40.4926 30.3799 39.0182 30.5144 38.841C30.6424 38.6825 30.6966 38.2741 30.6297 37.9875C30.5565 37.6584 30.3315 37.3656 30.033 37.2131ZM35.3977 39.7814C34.5221 39.7814 33.8123 40.4912 33.8123 41.3669V41.6442C33.8123 42.5198 34.5221 43.2297 35.3977 43.2297H47.3987C48.2743 43.2297 48.9842 42.5198 48.9842 41.6442V41.3669C48.9842 40.4912 48.2743 39.7814 47.3987 39.7814H35.3977ZM30.033 25.7482C29.7525 25.608 29.2461 25.5902 28.9656 25.7121C28.8558 25.7609 28.3865 26.249 27.8377 26.8771C26.2463 28.7124 25.087 30.035 24.8308 30.3156C24.7016 30.4587 24.4791 30.4648 24.3422 30.329L23.7576 29.7492C22.8979 28.8894 22.7517 28.7971 22.2762 28.797C22.1542 28.797 21.9772 28.8278 21.8797 28.8644C21.6723 28.9376 21.3305 29.255 21.2146 29.4806C21.1172 29.676 21.1049 30.1822 21.1902 30.4259C21.2644 30.622 23.8787 33.2722 24.1297 33.4074C24.3614 33.5293 24.959 33.5171 25.2029 33.383C25.3859 33.2854 25.6971 32.9436 27.8924 30.4191C30.8673 27.0053 30.6907 27.2486 30.6297 26.6027C30.5931 26.2369 30.3744 25.919 30.033 25.7482ZM33.8123 30.2409C33.8123 31.1165 34.5221 31.8263 35.3977 31.8263H47.3987C48.2743 31.8263 48.9842 31.1165 48.9842 30.2409V29.9645C48.9842 29.0889 48.2743 28.3791 47.3987 28.3791H35.3977C34.5221 28.3791 33.8123 29.0889 33.8123 29.9645V30.2409Z" fill="#00BEE4"/>
</svg>
