<svg width="70" height="70" viewBox="0 0 70 70" fill="none" xmlns="http://www.w3.org/2000/svg">
<path d="M49.5219 28.9147C54.1881 28.9484 54.433 28.9654 55.4887 29.4206C56.6131 29.9095 57.898 31.0723 58.5942 32.2438C58.992 32.9097 59.183 33.3573 59.4125 34.2086C59.5731 34.7647 59.5812 35.0096 59.6117 38.7174C59.65 43.6737 59.5889 44.2222 58.8393 45.8405C58.3039 47.0036 57.2405 48.1669 56.1391 48.7907C55.7891 48.9886 55.5727 49.3596 55.5727 49.7617V50.3502C55.5727 52.2047 55.5037 53.065 55.3354 53.2926C55.1745 53.5115 54.7389 53.6123 54.5248 53.486C54.4483 53.4354 53.4538 52.5419 52.3217 51.4967C50.9937 50.2717 49.2531 49.5915 47.4463 49.5915H42.9731C36.6012 49.5915 35.6143 49.5747 35.0942 49.4567C32.7611 48.9341 30.9401 47.139 30.1674 44.6188C29.9379 43.8686 29.9234 43.7247 29.8852 42.317C29.868 41.496 30.5252 40.8193 31.3464 40.8125L31.8657 40.8083C37.45 40.7745 37.3131 40.7827 38.5141 40.3444C39.2636 40.0662 40.3419 39.4684 40.9233 39.0133C41.5046 38.5582 42.4457 37.4791 42.8588 36.8131C43.968 35.0009 44.3275 33.4665 44.3276 30.567V29.3925C44.3276 29.1418 44.5209 28.9334 44.7709 28.9147C45.0081 28.8978 47.1505 28.8978 49.5219 28.9147ZM26.9985 18.0817C37.6876 18.0985 36.8157 18.0485 38.1547 18.7301C39.0039 19.1593 39.6167 19.6557 40.3129 20.4635C40.9249 21.1703 41.2917 21.7765 41.5825 22.5758C42.0262 23.7792 42.0265 23.7708 42.0571 27.8688C42.0877 32.0256 42.0418 32.6661 41.6518 33.7262C40.8637 35.8554 38.8124 37.2867 38.5063 37.5163C38.2001 37.7459 37.5879 38.1456 36.5248 38.3639C35.0627 38.6641 28.6821 38.4147 28.6821 38.4147C20.9848 38.4568 20.8314 38.4563 20.6401 38.6247C20.5243 38.7182 19.6752 39.5092 18.7348 40.3922C16.4404 42.5457 16.608 42.4118 16.2641 42.4118C16.0346 42.4118 15.927 42.353 15.7817 42.1764C15.598 41.9408 15.5981 41.932 15.5981 39.9294V38.3625C15.5981 38.0827 15.4458 37.825 15.2006 37.6901C14.5426 37.3282 13.7692 36.7477 13.3178 36.2848C12.4762 35.4096 11.7643 33.9702 11.4965 32.5817C11.3359 31.7296 11.3437 24.696 11.5043 23.821C12.0553 20.9008 14.3741 18.5196 17.0444 18.1325C17.2821 18.0988 21.7577 18.0733 26.9985 18.0817Z" fill="#00BEE4"/>
</svg>
