<svg width="70" height="70" viewBox="0 0 70 70" fill="none" xmlns="http://www.w3.org/2000/svg">
<path d="M22.2578 34.2441C23.1801 34.2441 23.9277 34.9917 23.9277 35.9141V52.6279C23.9277 53.5503 23.1802 54.2988 22.2578 54.2988H19.6699C18.7476 54.2988 18 53.5503 18 52.6279V35.9141C18.0001 34.9917 18.7476 34.2441 19.6699 34.2441H22.2578ZM37.8223 17.1279C38.4213 16.9108 39.1878 16.9742 39.8301 17.2871C41.1268 17.9258 41.7321 19.5106 41.7383 22.2695C41.7383 23.949 41.571 24.8878 40.9658 26.5674C40.1013 28.9687 39.688 30.342 39.583 31.1914C39.5633 31.3545 39.6902 31.4987 39.8545 31.499L45.4619 31.5107L50.9746 31.5283C51.2401 31.5292 51.5023 31.5886 51.7422 31.7021C52.5882 32.1173 53.088 32.6925 53.3535 33.5547C53.8721 35.2599 53.0635 36.9141 51.4395 37.4697C51.3407 37.5016 51.3774 37.5402 51.6553 37.6807C52.069 37.8914 52.7613 38.5811 52.9404 38.9707C53.5021 40.1969 53.2922 41.6787 52.4277 42.5791C52.0511 42.9622 51.4707 43.2881 51.0508 43.3457C50.8903 43.3648 50.6675 43.3959 50.5625 43.415C50.4792 43.4281 50.4468 43.5316 50.5078 43.5898L50.7539 43.8242C51.5628 44.6097 51.8781 45.7146 51.625 46.8769C51.5077 47.4134 51.2852 47.8161 50.8652 48.2568C50.47 48.672 49.9138 48.9656 49.3271 49.0742L49.2627 49.0859C49.0981 49.1147 49.0268 49.3117 49.1357 49.4385C49.6853 50.0771 49.9575 51.086 49.8154 51.9482C49.6116 53.1745 48.7036 54.0875 47.5303 54.2344C47.3011 54.2663 43.8926 54.292 39.9531 54.292C31.6164 54.2984 32.2399 54.3306 26.9414 53.6855C26.1027 53.5834 25.4719 52.8712 25.4717 52.0264V35.3184C25.4717 35.1063 25.622 34.9236 25.8301 34.8828C26.4847 34.7487 27.3554 34.4419 27.7568 34.1992C28.436 33.7905 28.9795 33.152 30.1465 31.4023C30.7331 30.521 31.4868 29.416 31.8203 28.9434C33.1354 27.0916 34.7218 24.7672 34.9385 24.3896C35.0682 24.1725 35.2169 23.8657 35.2725 23.706C35.3281 23.5462 35.5623 22.9015 35.7969 22.2695C36.2539 21.0113 36.458 20.2633 36.6494 19.1201C36.8223 18.0667 36.8652 17.9386 37.1924 17.5684C37.4084 17.3322 37.5755 17.2109 37.8223 17.1279Z" fill="#00BEE4"/>
</svg>
