<svg xmlns="http://www.w3.org/2000/svg" width="64" height="62" viewBox="0 0 64 62" fill="none">
    <path fill-rule="evenodd" clip-rule="evenodd"
        d="M29.8957 10.0211C38.1462 9.0618 45.6031 14.9978 46.5207 23.2555C47.4381 31.5136 41.4663 38.9429 33.2062 39.819C25.0052 40.6888 17.6425 34.7661 16.7316 26.567C15.821 18.368 21.704 10.9738 29.8957 10.0211ZM31.9787 16.9332C31.7645 16.8523 31.3254 16.872 31.0783 16.8844C29.9989 17.8675 29.4628 19.6784 28.7336 20.9664C22.8048 21.7243 22.5446 22.1744 26.9425 26.3678C26.8576 26.9937 26.7776 27.6921 26.6506 28.3043C25.2686 34.9649 30.3462 29.6085 31.9113 29.9303C37.2023 32.829 37.2677 31.9499 36.2638 26.401C40.565 22.3256 40.5925 21.6507 34.4982 20.9821C33.9873 19.9052 33.0132 17.3249 31.9787 16.9332Z"
        fill="#00BEE4" />
    <path
        d="M17.0151 34.9458C20.1454 39.3013 23.5131 41.1064 28.56 42.3685C27.6055 44.4503 26.6624 46.5491 25.6852 48.6199C25.0374 49.9929 24.12 53.0003 22.1959 51.1869C21.3311 49.2876 20.7597 46.9025 19.8201 44.9879C17.7326 45.524 15.7913 46.6114 13.6743 47.049C12.5547 47.2806 11.8393 46.2154 12.2328 45.292C13.7063 41.8337 15.3347 38.3136 17.0151 34.9458Z"
        fill="#00BEE4" />
    <path
        d="M46.204 34.9668C46.2855 35.0961 46.363 35.2277 46.4366 35.3616C48.0568 38.378 49.5312 42.064 50.9817 45.213C51.1365 45.5545 51.1023 46.3592 50.8382 46.6144C49.5915 47.8169 44.8986 45.4117 43.4149 44.9551C42.6244 46.6558 41.8077 49.2443 41.0904 51.1065C40.3955 51.896 39.2987 52.0354 38.7868 51.0636C37.3348 48.3067 35.9845 45.1993 34.6875 42.3703C39.8512 41.1576 42.9895 39.2418 46.204 34.9668Z"
        fill="#00BEE4" />
</svg>