<svg xmlns="http://www.w3.org/2000/svg" width="64" height="62" viewBox="0 0 64 62" fill="none">
    <path
        d="M21.1314 12.0622C20.6652 12.1434 20.2397 12.2977 20.037 12.6631C19.8816 12.9608 19.8614 13.1448 19.8952 14.2681L19.9289 15.4252L17.7875 15.4725C15.2678 15.5267 14.6666 15.6011 13.9573 15.9529C13.0386 16.4063 12.4374 17.1236 12.1267 18.1182C11.9578 18.6799 11.9578 20.7978 12.1267 21.7383C12.3226 22.8075 12.5725 23.6939 12.8832 24.4653C14.0722 27.4087 16.396 29.9123 19.1656 31.2453C20.5031 31.8814 21.5907 32.1656 23.2592 32.3009L24.2455 32.3821L24.3671 32.5783C24.4279 32.6934 24.7049 33.0452 24.9683 33.37C26.2248 34.879 27.7244 35.9481 29.5551 36.6518C30.3252 36.9495 30.4106 36.9247 30.7119 37.361C30.859 37.5739 30.9327 37.8058 30.9737 37.97C31.0497 38.2745 30.9928 38.7616 30.9737 39.5817C30.9545 40.4018 30.8116 42.559 30.5414 43.1138C30.2576 43.689 29.5078 44.4536 28.9539 44.731C28.5013 44.9611 27.6366 45.1506 27.0422 45.1506C25.5358 45.1641 24.3806 45.7866 23.8672 46.8693C23.5227 47.5798 23.4889 47.8572 23.4889 49.8533V51.6803L23.6781 52.0727C23.7862 52.2825 23.9753 52.5396 24.0969 52.6344C24.5968 53.0133 24.2117 52.9997 33.8919 52.9997C43.8897 52.9997 43.2682 53.0268 43.8221 52.5193C44.3288 52.0457 44.3625 51.89 44.3625 49.7856C44.3625 47.776 44.3287 47.5527 43.9099 46.761C43.3492 45.7054 42.4305 45.2453 40.6134 45.1235C39.4042 45.0355 38.7152 44.731 37.9856 43.9664C37.7086 43.6755 37.4384 43.2965 37.3033 43.0326C37.0466 42.5116 36.9369 41.3288 36.9318 39.5817C36.9267 37.8346 36.9267 38.3002 36.9267 37.97C36.9267 37.8092 37.0587 37.483 37.1632 37.361C37.3658 37.1241 38.195 36.6924 38.195 36.6924C38.195 36.6924 39.8163 35.9548 40.5458 35.4676C41.2889 34.9737 42.775 33.5324 43.2682 32.8287L43.5857 32.3753L44.1126 32.3347C46.3418 32.1453 47.3956 31.8746 48.9223 31.11C52.8673 29.1274 55.4613 25.2705 55.9545 20.6895C56.0963 19.3565 55.9004 18.0235 55.4546 17.286C55.0222 16.5552 54.1238 15.9056 53.2726 15.6823C52.7525 15.5537 50.9961 15.4455 49.2803 15.4455H47.9225L47.9293 14.2004C47.9293 14.2004 47.9428 13.4751 47.9428 12.9554C47.9428 12.7984 47.8026 12.5278 47.8026 12.5278C47.681 12.3518 47.5662 12.2909 47.3635 12.1556C47.3635 12.1556 47.2284 12.088 46.862 12.0284C46.4955 11.9688 34.1622 12.0216 34.1622 12.0216C27.1773 12.0148 21.3137 12.0351 21.1314 12.0622ZM20.0911 19.1671C20.1181 19.3362 20.2194 20.067 20.314 20.791C20.7125 23.8833 21.2935 26.3058 22.1379 28.3763L22.2933 28.762L21.8271 28.6334C19.375 27.9568 17.443 26.3396 16.2676 23.9848C15.7204 22.8954 15.3016 21.2579 15.2341 19.979C15.2003 19.3362 15.207 19.255 15.3354 19.0994C15.457 18.9505 15.538 18.9235 16.1055 18.8896C16.45 18.8693 17.4768 18.8558 18.3887 18.8558L20.037 18.8626L20.0911 19.1671ZM51.8135 18.8829C52.6039 18.9438 52.6377 18.9776 52.6377 19.749C52.6377 20.9737 52.2256 22.6112 51.5906 23.9375C50.5638 26.0689 48.7264 27.7267 46.558 28.4846C45.8284 28.7417 45.5177 28.8026 45.565 28.6876C46.4837 26.5764 47.1389 23.9984 47.5037 21.1294C47.6658 19.8302 47.7739 19.0317 47.8144 18.9099C47.8279 18.849 48.2265 18.8287 49.51 18.8355C50.4287 18.8355 51.469 18.8626 51.8135 18.8829Z"
        fill="#00BEE4" />
</svg>