<svg viewBox="0 0 60 60" fill="none" xmlns="http://www.w3.org/2000/svg">

    <path id="Union"
        d="M42.4505 13.0455C43.5469 12.9528 44.2563 13.0014 44.7522 13.1959C45.2016 13.3729 45.6188 13.8082 45.8245 14.2985C46.1871 15.167 46.2592 17.2148 46.0208 19.5553C45.659 23.0978 44.5195 26.1757 42.4642 29.1481C42.2786 29.4128 41.1921 30.7228 40.0345 32.0787L37.9319 34.5299L37.971 34.8043C37.9896 34.9604 38.0607 35.4094 38.1282 35.8092C38.4833 37.8798 38.4561 39.4764 38.0237 41.066C37.5413 42.8364 36.6901 44.2838 35.1897 45.8981C33.9708 47.209 33.1795 47.7402 32.4212 47.7653C31.9515 47.7796 31.6885 47.6727 31.3392 47.3199C30.8655 46.835 30.8356 46.5686 31.0794 44.9381C31.1792 44.2583 31.19 43.8646 31.1321 43.0465C31.0574 41.9738 30.9203 41.3262 30.5921 40.5426C30.3169 39.8751 30.3411 39.8731 29.0872 40.4635C28.5229 40.736 27.9359 40.9735 27.7933 41.0035C27.4703 41.0537 26.9657 40.9215 26.5657 40.6793C26.1346 40.4099 21.1229 36.0159 20.8069 35.6227C20.5194 35.2699 20.329 34.7703 20.3567 34.4381C20.3645 34.3054 20.5249 33.7328 20.7112 33.1754C20.8968 32.6104 21.0362 32.0816 21.0267 31.9948C21.0022 31.8105 20.9378 31.7771 20.2698 31.6022C18.8497 31.233 17.3586 31.298 15.6575 31.8063C14.8432 32.0457 14.3801 32.1055 14.014 32.0016C13.6523 31.9015 13.3193 31.6095 13.137 31.2252C12.8831 30.6926 12.977 30.108 13.4563 29.234C13.844 28.5353 15.2646 26.8433 16.0608 26.1383C18.3363 24.126 20.8706 23.3401 24.427 23.5358C24.7712 23.5585 25.1355 23.5677 25.2386 23.5651L25.4231 23.5573L27.1253 21.6149C29.4264 18.9899 30.3068 18.1185 31.7688 16.9899C34.6427 14.7813 38.4697 13.3692 42.4505 13.0455ZM18.9778 38.2213C19.5647 37.9763 20.4599 37.8853 20.9729 38.025C21.0837 38.0537 21.1255 38.1903 21.053 38.2789C20.3656 39.1186 19.5719 40.6378 20.6653 41.5963C21.8384 42.6241 23.1132 41.5878 23.9075 40.7858C24.0051 40.6873 24.1724 40.7185 24.2259 40.8463C24.4315 41.3366 24.4533 42.1613 24.2884 42.7916C24.075 43.5655 23.8794 43.9218 23.3147 44.566C22.131 45.9075 20.6905 46.4977 18.1429 46.6901C17.1525 46.7593 16.8762 46.7108 16.4993 46.3805C16.0919 46.0233 15.987 45.6748 15.931 44.5719C15.8519 42.9294 16.0366 41.7194 16.5501 40.6119C16.7488 40.182 16.8508 40.0301 17.3304 39.4742C17.9596 38.7476 18.2545 38.5249 18.9778 38.2213ZM37.7894 20.8649C37.0742 20.4782 36.0341 20.3022 35.2708 20.4391C34.74 20.5318 34.0143 20.8653 33.554 21.2135C32.5831 21.9588 32.0259 23.2136 32.1048 24.4762C32.1691 25.4549 32.5326 26.2162 33.2776 26.9313C33.8368 27.4602 34.1979 27.6677 34.9378 27.8668C36.9477 28.4118 39.0635 27.1822 39.5999 25.1647C39.8772 24.1057 39.7258 23.0578 39.1487 22.1334C38.8994 21.7368 38.209 21.0933 37.7894 20.8649Z"
        fill="#00BEE4" />

</svg>