<svg viewBox="0 0 60 60" fill="none" xmlns="http://www.w3.org/2000/svg">

    <path
        d="M42.45 13.0451C43.5463 12.9523 44.2558 13.0011 44.7518 13.1955C45.2012 13.3724 45.6183 13.8077 45.824 14.298C46.1867 15.1662 46.2597 17.214 46.0213 19.5548C45.6595 23.0974 44.5191 26.1751 42.4637 29.1476C42.2783 29.4122 41.1918 30.7222 40.034 32.0783L37.9324 34.5295L37.9705 34.8039C37.989 34.9596 38.0601 35.4094 38.1277 35.8097C38.4828 37.8802 38.4556 39.4761 38.0233 41.0656C37.5408 42.836 36.6906 44.2842 35.1902 45.8986C33.9714 47.2094 33.1799 47.7406 32.4217 47.7658C31.9518 47.7802 31.6882 47.6733 31.3387 47.3205C30.865 46.8355 30.8351 46.5683 31.0789 44.9377C31.1787 44.258 31.1905 43.865 31.1326 43.047C31.0579 41.974 30.9199 41.3259 30.5916 40.5421C30.3166 39.8751 30.3413 39.8737 29.0877 40.464C28.5233 40.7365 27.9354 40.9731 27.7928 41.0031C27.4698 41.0531 26.9661 40.9209 26.5662 40.6789C26.1356 40.4099 21.1231 36.017 20.8065 35.6232C20.5189 35.2704 20.3295 34.7699 20.3572 34.4377C20.3654 34.3041 20.5256 33.7326 20.7117 33.1759C20.8976 32.6103 21.036 32.0804 21.0262 31.9943C21.0017 31.8103 20.9372 31.7776 20.2693 31.6027C18.8491 31.2335 17.3582 31.2985 15.657 31.8068C14.8428 32.0461 14.3796 32.1051 14.0135 32.0011C13.6519 31.9009 13.3187 31.6091 13.1365 31.2248C12.8827 30.6922 12.9765 30.1075 13.4559 29.2336C13.8436 28.5349 15.2652 26.8438 16.0613 26.1388C18.3368 24.1266 20.8702 23.3397 24.4266 23.5353C24.7708 23.5581 25.135 23.5673 25.2381 23.5646L25.4236 23.5568L27.1258 21.6154C29.427 18.9903 30.3072 18.1181 31.7693 16.9894C34.6431 14.7811 38.4695 13.3688 42.45 13.0451ZM18.9783 38.2218C19.5652 37.9769 20.4596 37.8849 20.9725 38.0246C21.0835 38.053 21.1252 38.1898 21.0526 38.2785C20.3652 39.1181 19.5717 40.6373 20.6649 41.5959C21.8379 42.6237 23.1137 41.5883 23.908 40.7863C24.0056 40.6878 24.1721 40.7188 24.2254 40.8468C24.431 41.3372 24.4529 42.1619 24.2879 42.7921C24.0745 43.5657 23.8789 43.9215 23.3143 44.5656C22.1304 45.9072 20.6903 46.4983 18.1424 46.6906C17.152 46.7598 16.8756 46.7113 16.4988 46.381C16.0915 46.0238 15.9865 45.675 15.9305 44.5724C15.8514 42.9298 16.035 41.7191 16.5486 40.6115C16.7475 40.1813 16.8502 40.0298 17.3299 39.4738C17.9592 38.7471 18.255 38.5254 18.9783 38.2218ZM37.7899 20.8644C37.0748 20.4778 36.0346 20.3028 35.2713 20.4396C34.7406 20.5323 34.0148 20.8648 33.5545 21.213C32.5834 21.9584 32.0254 23.214 32.1043 24.4767C32.1687 25.4552 32.5332 26.2159 33.2781 26.9308C33.8372 27.4596 34.1976 27.6673 34.9373 27.8664C36.9473 28.4115 39.064 27.1819 39.6004 25.1642C39.8775 24.1054 39.7261 23.0582 39.1492 22.1339C38.9002 21.7374 38.2097 21.093 37.7899 20.8644Z"
        fill="#00BEE4" />

</svg>