<svg viewBox="0 0 60 60" fill="none" xmlns="http://www.w3.org/2000/svg">

    <path
        d="M42.45 13.045C43.5466 12.9522 44.2567 13.0008 44.7527 13.1954C45.2019 13.3724 45.6183 13.8078 45.824 14.2979C46.1867 15.1661 46.2596 17.214 46.0212 19.5547C45.6595 23.0973 44.5191 26.175 42.4636 29.1475C42.2783 29.412 41.1918 30.722 40.0339 32.0782L37.9324 34.5294L37.9705 34.8038C37.989 34.9595 38.0601 35.4093 38.1277 35.8096C38.4827 37.8801 38.4555 39.476 38.0232 41.0655C37.5408 42.8359 36.6906 44.2841 35.1902 45.8985C33.9713 47.2094 33.1799 47.7406 32.4216 47.7657C31.9519 47.7801 31.689 47.673 31.3396 47.3204C30.8658 46.8353 30.8351 46.5684 31.0789 44.9376C31.1787 44.258 31.1905 43.8649 31.1326 43.0469C31.0579 41.9739 30.9198 41.3258 30.5916 40.5421C30.3166 39.8751 30.3412 39.8737 29.0877 40.4639C28.5232 40.7365 27.9353 40.973 27.7927 41.003C27.4697 41.053 26.966 40.9208 26.5662 40.6788C26.1355 40.4098 21.1224 36.0164 20.8064 35.6231C20.519 35.2704 20.3297 34.7708 20.3572 34.4385C20.365 34.3059 20.5253 33.7332 20.7117 33.1758C20.8975 32.6102 21.0359 32.0803 21.0261 31.9942C21.0016 31.8103 20.937 31.7774 20.2693 31.6026C18.8491 31.2335 17.3581 31.2984 15.657 31.8067C14.843 32.046 14.3805 32.1048 14.0144 32.001C13.6526 31.9009 13.3187 31.6092 13.1365 31.2247C12.8827 30.6921 12.9765 30.1074 13.4558 29.2335C13.8436 28.5347 15.2651 26.8436 16.0613 26.1387C18.3367 24.1265 20.8702 23.3396 24.4265 23.5352C24.7707 23.558 25.1349 23.5672 25.238 23.5645L25.4236 23.5567L27.1257 21.6153C29.4269 18.9902 30.3072 18.1189 31.7693 16.9903C34.6431 14.7818 38.4693 13.3687 42.45 13.045ZM18.9783 38.2217C19.5652 37.9768 20.4595 37.8848 20.9724 38.0245C21.0839 38.0529 21.1254 38.1903 21.0525 38.2794C20.3651 39.119 19.5718 40.6374 20.6648 41.5958C21.838 42.6242 23.1135 41.5883 23.908 40.7862C24.0055 40.6877 24.1728 40.7189 24.2263 40.8467C24.4318 41.3371 24.4528 42.1619 24.2879 42.7921C24.0745 43.5658 23.8789 43.9213 23.3142 44.5655C22.1304 45.907 20.691 46.4981 18.1433 46.6905C17.1525 46.7598 16.8757 46.7113 16.4988 46.3809C16.0915 46.0237 15.9864 45.6742 15.9304 44.5714C15.8514 42.9292 16.0361 41.7197 16.5496 40.6124C16.7484 40.1822 16.8504 40.0305 17.3298 39.4747C17.9592 38.7479 18.255 38.5253 18.9783 38.2217ZM37.7898 20.8643C37.0747 20.4777 36.0345 20.3027 35.2712 20.4395C34.7405 20.5322 34.0148 20.8647 33.5545 21.213C32.5833 21.9583 32.0254 23.2139 32.1043 24.4766C32.1687 25.4552 32.5332 26.2157 33.2781 26.9307C33.8372 27.4596 34.1976 27.6672 34.9373 27.8663C36.9473 28.4114 39.064 27.1818 39.6004 25.1641C39.8775 24.1053 39.7261 23.0581 39.1492 22.1339C38.9001 21.7373 38.2096 21.0929 37.7898 20.8643Z"
        fill="#00BEE4" />

</svg>