<svg width="34" height="34" viewBox="0 0 34 34" fill="none" xmlns="http://www.w3.org/2000/svg">
<path d="M12.2178 19.8022C12.6835 19.8022 13.0615 20.1803 13.0615 20.646V26.396C13.0614 26.8615 12.6834 27.2388 12.2178 27.2388H8.66309C8.19756 27.2387 7.82048 26.8615 7.82031 26.396V20.646C7.82031 20.1803 8.19745 19.8023 8.66309 19.8022H12.2178ZM19.0322 16.0845C19.4979 16.0845 19.8759 16.4616 19.876 16.9272V26.395C19.876 26.8607 19.4979 27.2388 19.0322 27.2388H15.4775C15.0119 27.2388 14.6348 26.8607 14.6348 26.395V16.9272C14.6348 16.4616 15.0119 16.0845 15.4775 16.0845H19.0322ZM25.8457 11.3042C26.3114 11.3042 26.6895 11.6823 26.6895 12.1479V26.396C26.6895 26.8617 26.3114 27.2388 25.8457 27.2388H22.291C21.8253 27.2388 21.4482 26.8617 21.4482 26.396V12.1479C21.4482 11.6823 21.8253 11.3042 22.291 11.3042H25.8457ZM19.6641 6.96826C19.8865 6.98986 20.0754 7.15476 20.1201 7.38135L20.6494 10.0649C20.7041 10.3438 20.522 10.6143 20.2432 10.6694C19.9642 10.7243 19.6939 10.543 19.6387 10.2642L19.3584 8.84912C17.9854 10.769 16.0413 12.2312 14.1641 13.2866C11.9331 14.5408 9.74512 15.2556 8.60059 15.4985C8.32228 15.5576 8.04843 15.3793 7.98926 15.1011C7.93029 14.8228 8.1076 14.549 8.38574 14.4897C9.42766 14.2687 11.5175 13.5916 13.6582 12.3882C15.5219 11.3404 17.3819 9.91631 18.6367 8.0874L16.749 8.26221C16.4657 8.28831 16.2147 8.07965 16.1885 7.79639C16.1625 7.51307 16.371 7.26194 16.6543 7.23584L19.5674 6.96826H19.6641Z" fill="#00BEE4"/>
</svg>
