<svg width="34" height="34" viewBox="0 0 34 34" fill="none" xmlns="http://www.w3.org/2000/svg">
<path d="M10.4373 6.49141C10.1995 6.53249 9.9825 6.61055 9.87915 6.79539C9.79991 6.94599 9.78958 7.03907 9.8068 7.60727L9.82403 8.19258L8.73191 8.21654C7.44687 8.24393 7.14025 8.28158 6.77851 8.45957C6.30997 8.6889 6.00335 9.05173 5.84487 9.55489C5.75874 9.83899 5.75874 10.9103 5.84487 11.3861C5.94478 11.9269 6.07225 12.3753 6.23073 12.7655C6.83708 14.2545 8.02221 15.521 9.43472 16.1953C10.1169 16.517 10.6715 16.6608 11.5225 16.7292L12.0255 16.7703L12.0875 16.8696C12.1185 16.9278 12.2598 17.1058 12.3941 17.2701C13.0349 18.0334 13.7997 18.5742 14.7334 18.9302C15.1261 19.0808 15.1697 19.0682 15.3234 19.2889C15.3984 19.3966 15.436 19.5139 15.4569 19.597C15.4956 19.751 15.4666 19.9974 15.4569 20.4123C15.4471 20.8271 15.3742 21.9183 15.2364 22.199C15.0917 22.4899 14.7093 22.8767 14.4268 23.0171C14.1959 23.1334 13.755 23.2293 13.4518 23.2293C12.6835 23.2361 12.0944 23.551 11.8326 24.0987C11.6569 24.4581 11.6396 24.5984 11.6396 25.6082V26.5324L11.7361 26.7309C11.7912 26.837 11.8877 26.9671 11.9497 27.015C12.2046 27.2067 12.0083 27.1998 16.9452 27.1998C22.044 27.1998 21.727 27.2135 22.0095 26.9568C22.2679 26.7172 22.2852 26.6385 22.2852 25.574C22.2852 24.5574 22.2679 24.4444 22.0543 24.0439C21.7684 23.51 21.2998 23.2772 20.3731 23.2156C19.7564 23.1711 19.405 23.0171 19.0329 22.6303C18.8917 22.4831 18.7539 22.2914 18.685 22.1579C18.5541 21.8944 18.4981 21.296 18.4955 20.4123C18.4929 19.5285 18.4929 19.764 18.4929 19.597C18.4929 19.5156 18.5602 19.3506 18.6135 19.2889C18.7168 19.1691 19.1397 18.9507 19.1397 18.9507C19.1397 18.9507 19.9666 18.5776 20.3386 18.3311C20.7176 18.0813 21.4755 17.3522 21.727 16.9962L21.889 16.7669L22.1577 16.7464C23.2946 16.6505 23.832 16.5136 24.6106 16.1268C26.6226 15.1239 27.9456 13.1729 28.197 10.8556C28.2694 10.1813 28.1695 9.50697 27.9421 9.13387C27.7216 8.7642 27.2634 8.43561 26.8293 8.32265C26.564 8.25762 25.6683 8.20285 24.7932 8.20285H24.1008L24.1042 7.57304C24.1042 7.57304 24.1111 7.20613 24.1111 6.94323C24.1111 6.86384 24.0396 6.72693 24.0396 6.72693C23.9776 6.63793 23.919 6.60713 23.8157 6.53867C23.8157 6.53867 23.7468 6.50444 23.5599 6.4743C23.373 6.44415 17.083 6.47088 17.083 6.47088C13.5207 6.46745 10.5303 6.47772 10.4373 6.49141ZM9.90671 10.0854C9.92049 10.171 9.97217 10.5407 10.0204 10.9069C10.2237 12.4712 10.5199 13.6966 10.9506 14.744L11.0298 14.9391L10.7921 14.874C9.54152 14.5318 8.55621 13.7137 7.95675 12.5225C7.67769 11.9714 7.46409 11.1431 7.42964 10.4962C7.41242 10.171 7.41586 10.1299 7.48132 10.0512C7.54333 9.9759 7.58467 9.96221 7.87407 9.9451C8.04977 9.93483 8.57343 9.92798 9.03853 9.92798L9.87915 9.9314L9.90671 10.0854ZM26.0852 9.94167C26.4883 9.97248 26.5055 9.98959 26.5055 10.3798C26.5055 10.9993 26.2953 11.8277 25.9715 12.4986C25.4478 13.5768 24.5107 14.4154 23.4048 14.7987C23.0328 14.9288 22.8743 14.9596 22.8984 14.9014C23.3669 13.8335 23.7011 12.5294 23.8872 11.0781C23.9698 10.4209 24.025 10.017 24.0456 9.95536C24.0525 9.92456 24.2558 9.91429 24.9104 9.91771C25.3789 9.91771 25.9095 9.93141 26.0852 9.94167Z" fill="#00BEE4"/>
</svg>
