<svg width="34" height="34" viewBox="0 0 34 34" fill="none" xmlns="http://www.w3.org/2000/svg">
<path d="M6.22494 8.24783C5.62023 8.55951 5.63621 9.42261 6.24891 9.72364L6.40075 9.79823L7.50894 9.80622L8.61446 9.81421L8.6704 9.97937C8.70237 10.0699 9.02204 11.0076 9.38433 12.0625C9.74396 13.1175 10.3753 14.9635 10.7855 16.165C11.1958 17.3664 11.59 18.5225 11.6646 18.7303C11.7366 18.9408 11.7952 19.1299 11.7952 19.1485C11.7952 19.1672 11.7499 19.2125 11.6966 19.2444C10.9187 19.7133 10.4659 20.6483 10.5671 21.5727C10.6763 22.5397 11.3157 23.3176 12.2747 23.6452L12.5277 23.7305H18.2418H23.9559L24.0625 23.6745C24.2276 23.584 24.3901 23.4055 24.4514 23.2376C24.5207 23.0565 24.5127 22.7182 24.4381 22.5743C24.3688 22.4438 24.1877 22.2547 24.0625 22.1907L23.9559 22.1321L18.375 22.1188L12.7941 22.1055L12.6716 22.0495C12.2986 21.8764 12.1148 21.4741 12.2321 21.0746C12.304 20.8268 12.5624 20.5897 12.8208 20.5364C12.8661 20.5285 13.9982 20.3819 15.3382 20.2141C17.8982 19.8918 20.1519 19.6067 22.6 19.2977C24.201 19.0926 24.2877 19.1574 24.5008 18.9602C24.7033 18.7738 24.6778 18.6104 24.8217 17.9738C24.9735 17.2971 25.144 16.5512 25.4983 15.0062C26.2469 11.7429 26.2389 11.7775 26.2256 11.6097C26.2043 11.3246 26.0178 11.0529 25.7567 10.9251L25.6342 10.8638L18.1779 10.8505L10.7216 10.8372L10.6737 10.704C10.6497 10.6294 10.4819 10.1472 10.3034 9.62773C10.1276 9.10827 9.9624 8.65008 9.94109 8.60746C9.8665 8.46361 9.704 8.31176 9.54417 8.23451L9.38433 8.15992H7.88722H6.39276L6.22494 8.24783Z" fill="#00BEE4"/>
<path d="M13.2145 24.5562C12.8922 24.6442 12.6071 24.8439 12.4233 25.1077C12.133 25.5312 12.1143 26.1173 12.3727 26.5648C12.8256 27.3454 13.9338 27.4732 14.5411 26.8126C14.7995 26.5355 14.9114 26.2478 14.9114 25.8749C14.9087 25.6271 14.8794 25.4859 14.7729 25.2622C14.669 25.0464 14.3999 24.772 14.1868 24.6708C13.8752 24.5189 13.5129 24.4763 13.2145 24.5562Z" fill="#00BEE4"/>
<path d="M21.953 24.5536C21.7132 24.6122 21.5161 24.7268 21.3163 24.9266C20.9726 25.2729 20.8394 25.7124 20.946 26.1653C21.1405 26.9805 21.9982 27.4493 22.7655 27.1589C23.3835 26.9245 23.7538 26.2479 23.6206 25.6032C23.5193 25.1077 23.1144 24.6842 22.6243 24.5563C22.4378 24.5083 22.1474 24.5083 21.953 24.5536Z" fill="#00BEE4"/>
</svg>
