<svg width="34" height="34" viewBox="0 0 34 34" fill="none" xmlns="http://www.w3.org/2000/svg">
<path d="M25.0987 8.23496C25.732 8.27863 26.1323 8.36902 26.398 8.52357C26.6386 8.66402 26.8387 8.94869 26.9128 9.24636C27.0432 9.77335 26.9039 10.9476 26.5618 12.2613C26.0436 14.2495 25.1221 15.9044 23.6883 17.4183C23.5589 17.5532 22.8246 18.2049 22.0452 18.876L20.6307 20.0884L20.6288 20.2482C20.6256 20.3389 20.6257 20.6013 20.629 20.8352C20.6492 22.0469 20.4938 22.9546 20.1074 23.8228C19.6764 24.7899 19.0638 25.5412 18.0661 26.3297C17.2556 26.9698 16.7573 27.2028 16.3228 27.1504C16.0536 27.1172 15.9125 27.0331 15.7443 26.8011C15.5169 26.4829 15.5239 26.3278 15.8065 25.4194C15.9232 25.0407 15.9639 24.8175 16.0029 24.346C16.0548 23.7276 16.0337 23.3459 15.9156 22.8701C15.8175 22.4654 15.8313 22.467 15.0645 22.6932C14.7187 22.7989 14.3627 22.8815 14.2787 22.8861C14.0902 22.8861 13.8141 22.7669 13.6075 22.5937C13.3846 22.4011 10.9177 19.459 10.7694 19.2038C10.6366 18.9775 10.5721 18.6756 10.617 18.4886C10.6331 18.4136 10.7755 18.1013 10.9308 17.7999C11.0865 17.4939 11.2113 17.2041 11.2134 17.1538C11.2157 17.0466 11.1822 17.0219 10.8166 16.8633C10.0393 16.5278 9.18328 16.4339 8.16859 16.5739C7.68333 16.6387 7.41391 16.6317 7.21432 16.5402C7.01697 16.4512 6.85282 16.2552 6.7828 16.02C6.68497 15.694 6.79025 15.3692 7.14049 14.9132C7.4231 14.5489 8.38235 13.7092 8.89842 13.3773C10.373 12.4304 11.8868 12.2049 13.8973 12.6296C14.0916 12.6729 14.299 12.71 14.358 12.7175L14.4638 12.7299L15.6057 11.7729C17.1488 10.4788 17.7275 10.0587 18.6603 9.54402C20.4935 8.53775 22.8003 8.06903 25.0987 8.23496ZM9.49742 20.5232C9.85357 20.4352 10.3723 20.4622 10.6526 20.587C10.7918 20.6461 10.9153 20.7381 11.0125 20.854L12.0782 22.1243C12.1652 22.228 12.2268 22.3509 12.2591 22.4823C12.3332 22.7799 12.273 23.2519 12.1235 23.5967C11.9337 24.0192 11.7909 24.2059 11.4122 24.5234C10.6192 25.184 9.74534 25.3938 8.27578 25.2792C7.70548 25.2315 7.55249 25.1791 7.36689 24.958C7.16597 24.7184 7.13581 24.5098 7.20098 23.876C7.30053 22.9328 7.5126 22.2593 7.90283 21.6732C8.05406 21.4454 8.12571 21.3679 8.44791 21.0933C8.87067 20.7344 9.05846 20.6326 9.49742 20.5232ZM21.7521 12.2833C21.3785 12.0001 20.8015 11.8088 20.3544 11.8195C20.0435 11.8256 19.5998 11.9512 19.3067 12.1092C18.6874 12.4487 18.2594 13.1155 18.1932 13.8424C18.1437 14.4061 18.2841 14.8718 18.6459 15.3451C18.9181 15.6959 19.1052 15.8463 19.5093 16.0249C20.6073 16.5127 21.9224 15.9982 22.4061 14.8952C22.6574 14.3158 22.6638 13.7049 22.4163 13.127C22.3092 12.8789 21.9714 12.4506 21.7521 12.2833Z" fill="#00BEE4"/>
</svg>
