<svg width="121" height="26" viewBox="0 0 121 26" fill="none" xmlns="http://www.w3.org/2000/svg">
<g clip-path="url(#clip0_1_1759)">
<mask id="mask0_1_1759" style="mask-type:luminance" maskUnits="userSpaceOnUse" x="0" y="0" width="121" height="26">
<path d="M121 0H0V25.0963H121V0Z" fill="white"/>
</mask>
<g mask="url(#mask0_1_1759)">
<path d="M56.5925 24.965L49.7325 24.967C49.3157 24.9726 49.0213 24.9141 48.7217 24.6125C46.3382 22.2039 43.9325 19.8176 41.5468 17.4113C41.2672 17.1295 40.9943 16.9968 40.5876 17.0012C38.803 17.0245 37.0183 17.0112 35.143 17.0112V24.9677H29.292V0.0358037C29.4742 0.0247505 29.6521 0.00485503 29.8311 0.00485503C35.742 0.00374971 41.6528 -0.00730341 47.5637 0.00817096C51.4379 0.0181188 54.7432 2.3636 55.8746 5.86191C57.3167 10.3218 54.9796 14.6193 50.4081 15.8882C49.7925 16.0584 49.1593 16.1634 48.5946 16.285C51.37 19.0631 54.2314 21.9275 57.0359 24.734C57.0781 24.7759 57.1117 24.8402 57.074 24.8861C57.01 24.9643 56.8374 24.9634 56.5925 24.965ZM35.1509 11.3984C35.2624 11.4216 35.3156 11.4426 35.3684 11.4426C39.4383 11.4448 43.5081 11.4548 47.5769 11.4393C48.4445 11.436 49.1351 11.0182 49.5935 10.2787C50.2369 9.24196 50.2987 8.15432 49.7107 7.08105C49.1483 6.05533 48.2433 5.59222 47.0687 5.59553C43.2939 5.60658 39.519 5.59885 35.7431 5.60105C35.5497 5.60105 35.3563 5.61875 35.1486 5.62867V11.3995L35.1509 11.3984Z" fill="white"/>
<path d="M59.7197 24.9675V0.00386896C59.9142 0.00386896 60.0921 0.00386896 60.2701 0.00386896C65.1112 0.00386896 69.9534 -0.00828948 74.7945 0.0105008C77.4191 0.0204486 79.9563 0.475837 82.301 1.73037C85.508 3.44691 87.4496 6.10851 88.1281 9.67093C88.7656 13.0222 88.5191 16.273 86.7699 19.2872C85.3742 21.6934 83.2316 23.1789 80.6447 24.0709C78.9428 24.6578 77.1847 24.9498 75.389 24.9562C70.1661 24.9744 64.9429 24.9675 59.7197 24.9675ZM65.573 19.3745C65.6725 19.3977 65.7068 19.4131 65.7422 19.4131C69.3511 19.4154 72.9614 19.4397 76.5703 19.4043C77.9827 19.3911 79.2368 18.8539 80.2391 17.8403C82.1397 15.9204 82.6161 13.5694 82.1209 11.005C81.5419 8.00301 79.1727 5.45638 75.6144 5.56248C72.4861 5.65534 69.3533 5.58238 66.2228 5.58238H65.573V19.3745Z" fill="white"/>
<path d="M87.1232 0.0121882C88.6554 0.0121882 90.1101 0.0121882 91.5646 0.0121882C92.5057 0.0121882 93.4477 0.0365064 94.3866 0.00113443C94.8172 -0.0143408 95.0352 0.127147 95.2356 0.509607C98.2346 6.21113 101.251 11.9027 104.265 17.5965C104.364 17.7844 104.469 17.9701 104.616 18.2343C105.448 16.6038 106.233 15.0674 107.017 13.5298C109.231 9.18457 111.45 4.84157 113.65 0.489709C113.835 0.123831 114.043 -0.0021817 114.451 0.00113443C116.607 0.0221365 118.765 0.0110828 121 0.0110828C120.939 0.192364 120.912 0.32722 120.852 0.444388C116.673 8.49814 112.489 16.5497 108.317 24.6056C108.166 24.8964 107.984 24.9836 107.672 24.9825C105.44 24.9715 103.207 24.9847 100.976 24.9627C100.771 24.9605 100.469 24.8146 100.377 24.6455C95.9829 16.5386 91.6067 8.42077 87.2294 0.304006C87.1962 0.242105 87.1797 0.171362 87.1221 0.0110828L87.1232 0.0121882Z" fill="white"/>
<path d="M23.4408 11.8553V0H11.5885L13.3127 1.72469L1.89318 13.1471C-0.446858 15.4877 -0.808785 15.9433 1.89318 18.3566L8.33379 24.6779L8.40869 24.7461C7.70934 23.9475 9.11493 22.6897 9.11493 22.6897L21.6938 10.1079L23.4408 11.8553Z" fill="white"/>
<path fill-rule="evenodd" clip-rule="evenodd" d="M15.0358 16.6349L9.02733 22.6447C9.02733 22.6447 7.62174 23.9024 8.32107 24.701C8.50589 24.8859 8.8321 24.9827 9.26846 24.9827H23.3902L15.0358 16.6349Z" fill="#00BEE4"/>
</g>
</g>
<defs>
<clipPath id="clip0_1_1759">
<rect width="121" height="25.0963" fill="white"/>
</clipPath>
</defs>
</svg>
