<svg width="540" height="112" viewBox="0 0 540 112" fill="none" xmlns="http://www.w3.org/2000/svg">

    <path
        d="M252.564 111.414L221.949 111.423C220.089 111.448 218.775 111.187 217.438 109.841C206.801 99.092 196.065 88.4421 185.418 77.7034C184.17 76.4455 182.952 75.8536 181.137 75.8733C173.173 75.9769 165.208 75.9177 156.839 75.9177V111.426H130.727V0.159785C131.54 0.110457 132.334 0.0216671 133.133 0.0216671C159.512 0.0167343 185.891 -0.0325937 212.27 0.0364655C229.56 0.0808606 244.311 10.5483 249.36 26.1606C255.796 46.0644 245.366 65.2431 224.964 70.906C222.217 71.6656 219.391 72.1343 216.871 72.6769C229.257 85.075 242.027 97.8583 254.543 110.383C254.731 110.57 254.881 110.857 254.713 111.062C254.427 111.411 253.657 111.407 252.564 111.414ZM156.874 50.869C157.372 50.9725 157.609 51.0663 157.845 51.0663C176.008 51.0761 194.171 51.1205 212.329 51.0515C216.201 51.0367 219.283 49.1721 221.329 45.872C224.2 41.2451 224.476 36.3912 221.852 31.6014C219.342 27.0238 215.303 24.957 210.061 24.9718C193.215 25.0211 176.368 24.9866 159.517 24.9964C158.654 24.9964 157.791 25.0754 156.864 25.1197V50.8739L156.874 50.869Z"
        fill="white" />
    <path
        d="M266.516 111.425V0.0172664C267.384 0.0172664 268.178 0.0172664 268.972 0.0172664C290.577 0.0172664 312.187 -0.0369944 333.792 0.0468632C345.505 0.0912584 356.828 2.12357 367.292 7.7223C381.604 15.3829 390.269 27.2611 393.297 43.1595C396.142 58.1158 395.042 72.6231 387.236 86.0749C381.007 96.8136 371.445 103.443 359.9 107.424C352.305 110.043 344.459 111.346 336.445 111.375C313.136 111.456 289.826 111.425 266.516 111.425ZM292.638 86.4646C293.082 86.5682 293.235 86.6372 293.393 86.6372C309.499 86.6471 325.611 86.7556 341.717 86.5978C348.02 86.5386 353.617 84.1412 358.09 79.6178C366.572 71.0496 368.698 60.5575 366.488 49.1134C363.904 35.7159 353.331 24.3508 337.451 24.8243C323.49 25.2387 309.509 24.9131 295.538 24.9131H292.638V86.4646Z"
        fill="white" />
    <path
        d="M388.814 0.0543935C395.652 0.0543935 402.144 0.0543935 408.635 0.0543935C412.835 0.0543935 417.039 0.162921 421.229 0.00506273C423.151 -0.0640003 424.124 0.567433 425.018 2.27428C438.402 27.7191 451.865 53.1195 465.313 78.5297C465.758 79.3683 466.227 80.1971 466.88 81.3761C470.595 74.0998 474.098 67.2428 477.596 60.3809C487.477 40.989 497.378 21.607 507.199 2.18548C508.024 0.552634 508.953 -0.00973649 510.771 0.00506273C520.396 0.0987911 530.025 0.0494604 540 0.0494604C539.728 0.858484 539.609 1.46032 539.338 1.98322C520.687 37.9256 502.017 73.8581 483.396 109.81C482.724 111.108 481.914 111.497 480.52 111.492C470.56 111.443 460.595 111.502 450.635 111.404C449.721 111.394 448.372 110.743 447.962 109.988C428.353 73.8088 408.823 37.5803 389.288 1.35672C389.14 1.08047 389.066 0.764756 388.809 0.0494604L388.814 0.0543935Z"
        fill="white" />
    <path
        d="M104.612 52.9079V0H51.7172L59.4122 7.69698L8.44891 58.673C-1.99424 69.1187 -3.60945 71.1519 8.44891 81.922L37.1921 110.133L37.5264 110.437C34.4053 106.873 40.6782 101.26 40.6782 101.26L96.8155 45.1095L104.612 52.9079Z"
        fill="white" />
    <path fill-rule="evenodd" clip-rule="evenodd"
        d="M67.1028 74.2383L40.2882 101.059C40.2882 101.059 34.0153 106.672 37.1363 110.236C37.9611 111.061 39.4169 111.493 41.3643 111.493H104.387L67.1028 74.2383Z"
        fill="#00BEE4" />


</svg>